<svg width="1268" height="885" viewBox="0 0 1268 885" fill="none" xmlns="http://www.w3.org/2000/svg">
<mask id="mask0" mask-type="alpha" maskUnits="userSpaceOnUse" x="0" y="0" width="1268" height="885">
<rect width="1268" height="885" fill="#C4C4C4"/>
</mask>
<g mask="url(#mask0)">
<ellipse cx="918" cy="221" rx="214" ry="221" fill="#E8F6E8"/>
<circle cx="999.5" cy="167.5" r="7.5" fill="#C0E1FB"/>
<circle cx="999.5" cy="190.5" r="7.5" fill="#C0E1FB"/>
<circle cx="1022.5" cy="190.5" r="7.5" fill="#C0E1FB"/>
<circle cx="1045.5" cy="190.5" r="7.5" fill="#C0E1FB"/>
<circle cx="1068.5" cy="190.5" r="7.5" fill="#C0E1FB"/>
<circle cx="1091.5" cy="190.5" r="7.5" fill="#C0E1FB"/>
<circle cx="1114.5" cy="190.5" r="7.5" fill="#C0E1FB"/>
<circle cx="1137.5" cy="190.5" r="7.5" fill="#C0E1FB"/>
<circle cx="1160.5" cy="190.5" r="7.5" fill="#C0E1FB"/>
<circle cx="1183.5" cy="190.5" r="7.5" fill="#C0E1FB"/>
<circle cx="1206.5" cy="190.5" r="7.5" fill="#C0E1FB"/>
<circle cx="1229.5" cy="190.5" r="7.5" fill="#C0E1FB"/>
<circle cx="1252.5" cy="190.5" r="7.5" fill="#C0E1FB"/>
<circle cx="999.5" cy="213.5" r="7.5" fill="#C0E1FB"/>
<circle cx="1022.5" cy="213.5" r="7.5" fill="#C0E1FB"/>
<circle cx="1045.5" cy="213.5" r="7.5" fill="#C0E1FB"/>
<circle cx="1068.5" cy="213.5" r="7.5" fill="#C0E1FB"/>
<circle cx="1091.5" cy="213.5" r="7.5" fill="#C0E1FB"/>
<circle cx="1114.5" cy="213.5" r="7.5" fill="#C0E1FB"/>
<circle cx="1137.5" cy="213.5" r="7.5" fill="#C0E1FB"/>
<circle cx="1160.5" cy="213.5" r="7.5" fill="#C0E1FB"/>
<circle cx="1183.5" cy="213.5" r="7.5" fill="#C0E1FB"/>
<circle cx="1206.5" cy="213.5" r="7.5" fill="#C0E1FB"/>
<circle cx="1229.5" cy="213.5" r="7.5" fill="#C0E1FB"/>
<circle cx="1252.5" cy="213.5" r="7.5" fill="#C0E1FB"/>
<circle cx="999.5" cy="236.5" r="7.5" fill="#C0E1FB"/>
<circle cx="1022.5" cy="236.5" r="7.5" fill="#C0E1FB"/>
<circle cx="1045.5" cy="236.5" r="7.5" fill="#C0E1FB"/>
<circle cx="1068.5" cy="236.5" r="7.5" fill="#C0E1FB"/>
<circle cx="1091.5" cy="236.5" r="7.5" fill="#C0E1FB"/>
<circle cx="1114.5" cy="236.5" r="7.5" fill="#C0E1FB"/>
<circle cx="1137.5" cy="236.5" r="7.5" fill="#C0E1FB"/>
<circle cx="1160.5" cy="236.5" r="7.5" fill="#C0E1FB"/>
<circle cx="1183.5" cy="236.5" r="7.5" fill="#C0E1FB"/>
<circle cx="1206.5" cy="236.5" r="7.5" fill="#C0E1FB"/>
<circle cx="1229.5" cy="236.5" r="7.5" fill="#C0E1FB"/>
<circle cx="1252.5" cy="236.5" r="7.5" fill="#C0E1FB"/>
<circle cx="999.5" cy="259.5" r="7.5" fill="#C0E1FB"/>
<circle cx="1022.5" cy="259.5" r="7.5" fill="#C0E1FB"/>
<circle cx="1045.5" cy="259.5" r="7.5" fill="#C0E1FB"/>
<circle cx="1068.5" cy="259.5" r="7.5" fill="#C0E1FB"/>
<circle cx="1091.5" cy="259.5" r="7.5" fill="#C0E1FB"/>
<circle cx="1114.5" cy="259.5" r="7.5" fill="#C0E1FB"/>
<circle cx="1137.5" cy="259.5" r="7.5" fill="#C0E1FB"/>
<circle cx="1160.5" cy="259.5" r="7.5" fill="#C0E1FB"/>
<circle cx="1183.5" cy="259.5" r="7.5" fill="#C0E1FB"/>
<circle cx="1206.5" cy="259.5" r="7.5" fill="#C0E1FB"/>
<circle cx="1229.5" cy="259.5" r="7.5" fill="#C0E1FB"/>
<circle cx="1252.5" cy="259.5" r="7.5" fill="#C0E1FB"/>
<circle cx="999.5" cy="282.5" r="7.5" fill="#C0E1FB"/>
<circle cx="1022.5" cy="282.5" r="7.5" fill="#C0E1FB"/>
<circle cx="1045.5" cy="282.5" r="7.5" fill="#C0E1FB"/>
<circle cx="1068.5" cy="282.5" r="7.5" fill="#C0E1FB"/>
<circle cx="1091.5" cy="282.5" r="7.5" fill="#C0E1FB"/>
<circle cx="1114.5" cy="282.5" r="7.5" fill="#C0E1FB"/>
<circle cx="1137.5" cy="282.5" r="7.5" fill="#C0E1FB"/>
<circle cx="1160.5" cy="282.5" r="7.5" fill="#C0E1FB"/>
<circle cx="1183.5" cy="282.5" r="7.5" fill="#C0E1FB"/>
<circle cx="1206.5" cy="282.5" r="7.5" fill="#C0E1FB"/>
<circle cx="1229.5" cy="282.5" r="7.5" fill="#C0E1FB"/>
<circle cx="1252.5" cy="282.5" r="7.5" fill="#C0E1FB"/>
<circle cx="999.5" cy="305.5" r="7.5" fill="#C0E1FB"/>
<circle cx="1022.5" cy="305.5" r="7.5" fill="#C0E1FB"/>
<circle cx="1045.5" cy="305.5" r="7.5" fill="#C0E1FB"/>
<circle cx="1068.5" cy="305.5" r="7.5" fill="#C0E1FB"/>
<circle cx="1091.5" cy="305.5" r="7.5" fill="#C0E1FB"/>
<circle cx="1114.5" cy="305.5" r="7.5" fill="#C0E1FB"/>
<circle cx="1137.5" cy="305.5" r="7.5" fill="#C0E1FB"/>
<circle cx="1160.5" cy="305.5" r="7.5" fill="#C0E1FB"/>
<circle cx="1183.5" cy="305.5" r="7.5" fill="#C0E1FB"/>
<circle cx="1206.5" cy="305.5" r="7.5" fill="#C0E1FB"/>
<circle cx="1229.5" cy="305.5" r="7.5" fill="#C0E1FB"/>
<circle cx="1252.5" cy="305.5" r="7.5" fill="#C0E1FB"/>
<circle cx="999.5" cy="328.5" r="7.5" fill="#C0E1FB"/>
<circle cx="1022.5" cy="328.5" r="7.5" fill="#C0E1FB"/>
<circle cx="1045.5" cy="328.5" r="7.5" fill="#C0E1FB"/>
<circle cx="1068.5" cy="328.5" r="7.5" fill="#C0E1FB"/>
<circle cx="1091.5" cy="328.5" r="7.5" fill="#C0E1FB"/>
<circle cx="1114.5" cy="328.5" r="7.5" fill="#C0E1FB"/>
<circle cx="1137.5" cy="328.5" r="7.5" fill="#C0E1FB"/>
<circle cx="1160.5" cy="328.5" r="7.5" fill="#C0E1FB"/>
<circle cx="1183.5" cy="328.5" r="7.5" fill="#C0E1FB"/>
<circle cx="1206.5" cy="328.5" r="7.5" fill="#C0E1FB"/>
<circle cx="1229.5" cy="328.5" r="7.5" fill="#C0E1FB"/>
<circle cx="1252.5" cy="328.5" r="7.5" fill="#C0E1FB"/>
<circle cx="999.5" cy="351.5" r="7.5" fill="#C0E1FB"/>
<circle cx="1022.5" cy="351.5" r="7.5" fill="#C0E1FB"/>
<circle cx="1045.5" cy="351.5" r="7.5" fill="#C0E1FB"/>
<circle cx="1068.5" cy="351.5" r="7.5" fill="#C0E1FB"/>
<circle cx="1091.5" cy="351.5" r="7.5" fill="#C0E1FB"/>
<circle cx="1114.5" cy="351.5" r="7.5" fill="#C0E1FB"/>
<circle cx="1137.5" cy="351.5" r="7.5" fill="#C0E1FB"/>
<circle cx="1160.5" cy="351.5" r="7.5" fill="#C0E1FB"/>
<circle cx="1183.5" cy="351.5" r="7.5" fill="#C0E1FB"/>
<circle cx="1206.5" cy="351.5" r="7.5" fill="#C0E1FB"/>
<circle cx="1229.5" cy="351.5" r="7.5" fill="#C0E1FB"/>
<circle cx="1252.5" cy="351.5" r="7.5" fill="#C0E1FB"/>
<circle cx="999.5" cy="374.5" r="7.5" fill="#C0E1FB"/>
<circle cx="1022.5" cy="374.5" r="7.5" fill="#C0E1FB"/>
<circle cx="1045.5" cy="374.5" r="7.5" fill="#C0E1FB"/>
<circle cx="1068.5" cy="374.5" r="7.5" fill="#C0E1FB"/>
<circle cx="1091.5" cy="374.5" r="7.5" fill="#C0E1FB"/>
<circle cx="1114.5" cy="374.5" r="7.5" fill="#C0E1FB"/>
<circle cx="1137.5" cy="374.5" r="7.5" fill="#C0E1FB"/>
<circle cx="1160.5" cy="374.5" r="7.5" fill="#C0E1FB"/>
<circle cx="1183.5" cy="374.5" r="7.5" fill="#C0E1FB"/>
<circle cx="1206.5" cy="374.5" r="7.5" fill="#C0E1FB"/>
<circle cx="1229.5" cy="374.5" r="7.5" fill="#C0E1FB"/>
<circle cx="1252.5" cy="374.5" r="7.5" fill="#C0E1FB"/>
<circle cx="999.5" cy="397.5" r="7.5" fill="#C0E1FB"/>
<circle cx="1022.5" cy="397.5" r="7.5" fill="#C0E1FB"/>
<circle cx="1045.5" cy="397.5" r="7.5" fill="#C0E1FB"/>
<circle cx="1068.5" cy="397.5" r="7.5" fill="#C0E1FB"/>
<circle cx="1091.5" cy="397.5" r="7.5" fill="#C0E1FB"/>
<circle cx="1114.5" cy="397.5" r="7.5" fill="#C0E1FB"/>
<circle cx="1137.5" cy="397.5" r="7.5" fill="#C0E1FB"/>
<circle cx="1160.5" cy="397.5" r="7.5" fill="#C0E1FB"/>
<circle cx="1183.5" cy="397.5" r="7.5" fill="#C0E1FB"/>
<circle cx="1206.5" cy="397.5" r="7.5" fill="#C0E1FB"/>
<circle cx="1229.5" cy="397.5" r="7.5" fill="#C0E1FB"/>
<circle cx="1252.5" cy="397.5" r="7.5" fill="#C0E1FB"/>
<circle cx="999.5" cy="420.5" r="7.5" fill="#C0E1FB"/>
<circle cx="1022.5" cy="420.5" r="7.5" fill="#C0E1FB"/>
<circle cx="1045.5" cy="420.5" r="7.5" fill="#C0E1FB"/>
<circle cx="1068.5" cy="420.5" r="7.5" fill="#C0E1FB"/>
<circle cx="1091.5" cy="420.5" r="7.5" fill="#C0E1FB"/>
<circle cx="1114.5" cy="420.5" r="7.5" fill="#C0E1FB"/>
<circle cx="1137.5" cy="420.5" r="7.5" fill="#C0E1FB"/>
<circle cx="1160.5" cy="420.5" r="7.5" fill="#C0E1FB"/>
<circle cx="1183.5" cy="420.5" r="7.5" fill="#C0E1FB"/>
<circle cx="1206.5" cy="420.5" r="7.5" fill="#C0E1FB"/>
<circle cx="1229.5" cy="420.5" r="7.5" fill="#C0E1FB"/>
<circle cx="1252.5" cy="420.5" r="7.5" fill="#C0E1FB"/>
<circle cx="1045.5" cy="167.5" r="7.5" fill="#C0E1FB"/>
<circle cx="1091.5" cy="167.5" r="7.5" fill="#C0E1FB"/>
<circle cx="1137.5" cy="167.5" r="7.5" fill="#C0E1FB"/>
<circle cx="1183.5" cy="167.5" r="7.5" fill="#C0E1FB"/>
<circle cx="1229.5" cy="167.5" r="7.5" fill="#C0E1FB"/>
<circle cx="1022.5" cy="167.5" r="7.5" fill="#C0E1FB"/>
<circle cx="1068.5" cy="167.5" r="7.5" fill="#C0E1FB"/>
<circle cx="1114.5" cy="167.5" r="7.5" fill="#C0E1FB"/>
<circle cx="1160.5" cy="167.5" r="7.5" fill="#C0E1FB"/>
<circle cx="1206.5" cy="167.5" r="7.5" fill="#C0E1FB"/>
<circle cx="1252.5" cy="167.5" r="7.5" fill="#C0E1FB"/>
<circle cx="7.5" cy="493.5" r="7.5" fill="#C0E1FB"/>
<circle cx="7.5" cy="516.5" r="7.5" fill="#C0E1FB"/>
<circle cx="30.5" cy="516.5" r="7.5" fill="#C0E1FB"/>
<circle cx="53.5" cy="516.5" r="7.5" fill="#C0E1FB"/>
<circle cx="76.5" cy="516.5" r="7.5" fill="#C0E1FB"/>
<circle cx="99.5" cy="516.5" r="7.5" fill="#C0E1FB"/>
<circle cx="122.5" cy="516.5" r="7.5" fill="#C0E1FB"/>
<circle cx="145.5" cy="516.5" r="7.5" fill="#C0E1FB"/>
<circle cx="168.5" cy="516.5" r="7.5" fill="#C0E1FB"/>
<circle cx="191.5" cy="516.5" r="7.5" fill="#C0E1FB"/>
<circle cx="214.5" cy="516.5" r="7.5" fill="#C0E1FB"/>
<circle cx="237.5" cy="516.5" r="7.5" fill="#C0E1FB"/>
<circle cx="260.5" cy="516.5" r="7.5" fill="#C0E1FB"/>
<circle cx="7.5" cy="539.5" r="7.5" fill="#C0E1FB"/>
<circle cx="30.5" cy="539.5" r="7.5" fill="#C0E1FB"/>
<circle cx="53.5" cy="539.5" r="7.5" fill="#C0E1FB"/>
<circle cx="76.5" cy="539.5" r="7.5" fill="#C0E1FB"/>
<circle cx="99.5" cy="539.5" r="7.5" fill="#C0E1FB"/>
<circle cx="122.5" cy="539.5" r="7.5" fill="#C0E1FB"/>
<circle cx="145.5" cy="539.5" r="7.5" fill="#C0E1FB"/>
<circle cx="168.5" cy="539.5" r="7.5" fill="#C0E1FB"/>
<circle cx="191.5" cy="539.5" r="7.5" fill="#C0E1FB"/>
<circle cx="214.5" cy="539.5" r="7.5" fill="#C0E1FB"/>
<circle cx="237.5" cy="539.5" r="7.5" fill="#C0E1FB"/>
<circle cx="260.5" cy="539.5" r="7.5" fill="#C0E1FB"/>
<circle cx="7.5" cy="562.5" r="7.5" fill="#C0E1FB"/>
<circle cx="30.5" cy="562.5" r="7.5" fill="#C0E1FB"/>
<circle cx="53.5" cy="562.5" r="7.5" fill="#C0E1FB"/>
<circle cx="76.5" cy="562.5" r="7.5" fill="#C0E1FB"/>
<circle cx="99.5" cy="562.5" r="7.5" fill="#C0E1FB"/>
<circle cx="122.5" cy="562.5" r="7.5" fill="#C0E1FB"/>
<circle cx="145.5" cy="562.5" r="7.5" fill="#C0E1FB"/>
<circle cx="168.5" cy="562.5" r="7.5" fill="#C0E1FB"/>
<circle cx="191.5" cy="562.5" r="7.5" fill="#C0E1FB"/>
<circle cx="214.5" cy="562.5" r="7.5" fill="#C0E1FB"/>
<circle cx="237.5" cy="562.5" r="7.5" fill="#C0E1FB"/>
<circle cx="260.5" cy="562.5" r="7.5" fill="#C0E1FB"/>
<circle cx="7.5" cy="585.5" r="7.5" fill="#C0E1FB"/>
<circle cx="30.5" cy="585.5" r="7.5" fill="#C0E1FB"/>
<circle cx="53.5" cy="585.5" r="7.5" fill="#C0E1FB"/>
<circle cx="76.5" cy="585.5" r="7.5" fill="#C0E1FB"/>
<circle cx="99.5" cy="585.5" r="7.5" fill="#C0E1FB"/>
<circle cx="122.5" cy="585.5" r="7.5" fill="#C0E1FB"/>
<circle cx="145.5" cy="585.5" r="7.5" fill="#C0E1FB"/>
<circle cx="168.5" cy="585.5" r="7.5" fill="#C0E1FB"/>
<circle cx="191.5" cy="585.5" r="7.5" fill="#C0E1FB"/>
<circle cx="214.5" cy="585.5" r="7.5" fill="#C0E1FB"/>
<circle cx="237.5" cy="585.5" r="7.5" fill="#C0E1FB"/>
<circle cx="260.5" cy="585.5" r="7.5" fill="#C0E1FB"/>
<circle cx="7.5" cy="608.5" r="7.5" fill="#C0E1FB"/>
<circle cx="30.5" cy="608.5" r="7.5" fill="#C0E1FB"/>
<circle cx="53.5" cy="608.5" r="7.5" fill="#C0E1FB"/>
<circle cx="76.5" cy="608.5" r="7.5" fill="#C0E1FB"/>
<circle cx="99.5" cy="608.5" r="7.5" fill="#C0E1FB"/>
<circle cx="122.5" cy="608.5" r="7.5" fill="#C0E1FB"/>
<circle cx="145.5" cy="608.5" r="7.5" fill="#C0E1FB"/>
<circle cx="168.5" cy="608.5" r="7.5" fill="#C0E1FB"/>
<circle cx="191.5" cy="608.5" r="7.5" fill="#C0E1FB"/>
<circle cx="214.5" cy="608.5" r="7.5" fill="#C0E1FB"/>
<circle cx="237.5" cy="608.5" r="7.5" fill="#C0E1FB"/>
<circle cx="260.5" cy="608.5" r="7.5" fill="#C0E1FB"/>
<circle cx="7.5" cy="631.5" r="7.5" fill="#C0E1FB"/>
<circle cx="30.5" cy="631.5" r="7.5" fill="#C0E1FB"/>
<circle cx="53.5" cy="631.5" r="7.5" fill="#C0E1FB"/>
<circle cx="76.5" cy="631.5" r="7.5" fill="#C0E1FB"/>
<circle cx="99.5" cy="631.5" r="7.5" fill="#C0E1FB"/>
<circle cx="122.5" cy="631.5" r="7.5" fill="#C0E1FB"/>
<circle cx="145.5" cy="631.5" r="7.5" fill="#C0E1FB"/>
<circle cx="168.5" cy="631.5" r="7.5" fill="#C0E1FB"/>
<circle cx="191.5" cy="631.5" r="7.5" fill="#C0E1FB"/>
<circle cx="214.5" cy="631.5" r="7.5" fill="#C0E1FB"/>
<circle cx="237.5" cy="631.5" r="7.5" fill="#C0E1FB"/>
<circle cx="260.5" cy="631.5" r="7.5" fill="#C0E1FB"/>
<circle cx="7.5" cy="654.5" r="7.5" fill="#C0E1FB"/>
<circle cx="30.5" cy="654.5" r="7.5" fill="#C0E1FB"/>
<circle cx="53.5" cy="654.5" r="7.5" fill="#C0E1FB"/>
<circle cx="76.5" cy="654.5" r="7.5" fill="#C0E1FB"/>
<circle cx="99.5" cy="654.5" r="7.5" fill="#C0E1FB"/>
<circle cx="122.5" cy="654.5" r="7.5" fill="#C0E1FB"/>
<circle cx="145.5" cy="654.5" r="7.5" fill="#C0E1FB"/>
<circle cx="168.5" cy="654.5" r="7.5" fill="#C0E1FB"/>
<circle cx="191.5" cy="654.5" r="7.5" fill="#C0E1FB"/>
<circle cx="214.5" cy="654.5" r="7.5" fill="#C0E1FB"/>
<circle cx="237.5" cy="654.5" r="7.5" fill="#C0E1FB"/>
<circle cx="260.5" cy="654.5" r="7.5" fill="#C0E1FB"/>
<circle cx="7.5" cy="677.5" r="7.5" fill="#C0E1FB"/>
<circle cx="30.5" cy="677.5" r="7.5" fill="#C0E1FB"/>
<circle cx="53.5" cy="677.5" r="7.5" fill="#C0E1FB"/>
<circle cx="76.5" cy="677.5" r="7.5" fill="#C0E1FB"/>
<circle cx="99.5" cy="677.5" r="7.5" fill="#C0E1FB"/>
<circle cx="122.5" cy="677.5" r="7.5" fill="#C0E1FB"/>
<circle cx="145.5" cy="677.5" r="7.5" fill="#C0E1FB"/>
<circle cx="168.5" cy="677.5" r="7.5" fill="#C0E1FB"/>
<circle cx="191.5" cy="677.5" r="7.5" fill="#C0E1FB"/>
<circle cx="214.5" cy="677.5" r="7.5" fill="#C0E1FB"/>
<circle cx="237.5" cy="677.5" r="7.5" fill="#C0E1FB"/>
<circle cx="260.5" cy="677.5" r="7.5" fill="#C0E1FB"/>
<circle cx="7.5" cy="700.5" r="7.5" fill="#C0E1FB"/>
<circle cx="30.5" cy="700.5" r="7.5" fill="#C0E1FB"/>
<circle cx="53.5" cy="700.5" r="7.5" fill="#C0E1FB"/>
<circle cx="76.5" cy="700.5" r="7.5" fill="#C0E1FB"/>
<circle cx="99.5" cy="700.5" r="7.5" fill="#C0E1FB"/>
<circle cx="122.5" cy="700.5" r="7.5" fill="#C0E1FB"/>
<circle cx="145.5" cy="700.5" r="7.5" fill="#C0E1FB"/>
<circle cx="168.5" cy="700.5" r="7.5" fill="#C0E1FB"/>
<circle cx="191.5" cy="700.5" r="7.5" fill="#C0E1FB"/>
<circle cx="214.5" cy="700.5" r="7.5" fill="#C0E1FB"/>
<circle cx="237.5" cy="700.5" r="7.5" fill="#C0E1FB"/>
<circle cx="260.5" cy="700.5" r="7.5" fill="#C0E1FB"/>
<circle cx="7.5" cy="723.5" r="7.5" fill="#C0E1FB"/>
<circle cx="30.5" cy="723.5" r="7.5" fill="#C0E1FB"/>
<circle cx="53.5" cy="723.5" r="7.5" fill="#C0E1FB"/>
<circle cx="76.5" cy="723.5" r="7.5" fill="#C0E1FB"/>
<circle cx="99.5" cy="723.5" r="7.5" fill="#C0E1FB"/>
<circle cx="122.5" cy="723.5" r="7.5" fill="#C0E1FB"/>
<circle cx="145.5" cy="723.5" r="7.5" fill="#C0E1FB"/>
<circle cx="168.5" cy="723.5" r="7.5" fill="#C0E1FB"/>
<circle cx="191.5" cy="723.5" r="7.5" fill="#C0E1FB"/>
<circle cx="214.5" cy="723.5" r="7.5" fill="#C0E1FB"/>
<circle cx="237.5" cy="723.5" r="7.5" fill="#C0E1FB"/>
<circle cx="260.5" cy="723.5" r="7.5" fill="#C0E1FB"/>
<circle cx="7.5" cy="746.5" r="7.5" fill="#C0E1FB"/>
<circle cx="30.5" cy="746.5" r="7.5" fill="#C0E1FB"/>
<circle cx="53.5" cy="746.5" r="7.5" fill="#C0E1FB"/>
<circle cx="76.5" cy="746.5" r="7.5" fill="#C0E1FB"/>
<circle cx="99.5" cy="746.5" r="7.5" fill="#C0E1FB"/>
<circle cx="122.5" cy="746.5" r="7.5" fill="#C0E1FB"/>
<circle cx="145.5" cy="746.5" r="7.5" fill="#C0E1FB"/>
<circle cx="168.5" cy="746.5" r="7.5" fill="#C0E1FB"/>
<circle cx="191.5" cy="746.5" r="7.5" fill="#C0E1FB"/>
<circle cx="214.5" cy="746.5" r="7.5" fill="#C0E1FB"/>
<circle cx="237.5" cy="746.5" r="7.5" fill="#C0E1FB"/>
<circle cx="260.5" cy="746.5" r="7.5" fill="#C0E1FB"/>
<circle cx="53.5" cy="493.5" r="7.5" fill="#C0E1FB"/>
<circle cx="99.5" cy="493.5" r="7.5" fill="#C0E1FB"/>
<circle cx="145.5" cy="493.5" r="7.5" fill="#C0E1FB"/>
<circle cx="191.5" cy="493.5" r="7.5" fill="#C0E1FB"/>
<circle cx="237.5" cy="493.5" r="7.5" fill="#C0E1FB"/>
<circle cx="30.5" cy="493.5" r="7.5" fill="#C0E1FB"/>
<circle cx="76.5" cy="493.5" r="7.5" fill="#C0E1FB"/>
<circle cx="122.5" cy="493.5" r="7.5" fill="#C0E1FB"/>
<circle cx="168.5" cy="493.5" r="7.5" fill="#C0E1FB"/>
<circle cx="214.5" cy="493.5" r="7.5" fill="#C0E1FB"/>
<circle cx="260.5" cy="493.5" r="7.5" fill="#C0E1FB"/>
<path d="M1240 885H38.5C38.5 885 -29 681 129 687C287 693 76.9 493.5 90 377C110 199 476.6 62.4996 609 380C687 567 788 523 864 504C907.1 493.2 976 539 965 650C947.5 826.7 1006 839 1088 821C1170 803 1240 885 1240 885Z" fill="url(#paint0_linear)"/>
<path d="M1075 727H909V744H1075V727Z" fill="#8787A0"/>
<path d="M1000.5 603.5H983.5V884.5H1000.5V603.5Z" fill="#A4ABCB"/>
<path d="M932.5 603.5L868.5 884.5H885.5L949.5 603.5H932.5Z" fill="#A4ABCB"/>
<path d="M1051.5 603.5L1115.5 884.5H1098.5L1034.5 603.5H1051.5Z" fill="#A4ABCB"/>
<path d="M1099 588V613H884V588C884 586.6 884.1 585.3 884.3 584C886.2 572.1 896.5 563 909 563H1074C1086.5 563 1096.8 572.1 1098.7 584C1098.9 585.3 1099 586.6 1099 588Z" fill="url(#paint1_linear)"/>
<path d="M1098.7 584H884.3C886.2 572.1 896.5 563 909 563H1074C1086.5 563 1096.8 572.1 1098.7 584Z" fill="url(#paint2_linear)"/>
<path d="M285 728H119V745H285V728Z" fill="#8787A0"/>
<path d="M210.5 604.5H193.5V885.5H210.5V604.5Z" fill="#A6A5BC"/>
<path d="M142.5 604.5L78.5 885.5H95.5L159.5 604.5H142.5Z" fill="#A6A5BC"/>
<path d="M261.5 604.5L325.5 885.5H308.5L244.5 604.5H261.5Z" fill="#A6A5BC"/>
<path d="M309 589V614H94V589C94 587.6 94.1 586.3 94.3 585C96.2 573.1 106.5 564 119 564H284C296.4 564 306.8 573.1 308.7 585C308.9 586.3 309 587.6 309 589Z" fill="url(#paint3_linear)"/>
<path d="M308.7 585H94.3C96.2 573.1 106.5 564 119 564H284C296.4 564 306.8 573.1 308.7 585Z" fill="url(#paint4_linear)"/>
<path d="M959.7 149.5C964.8 145 970.2 136.2 967.5 128.3C966.1 124.1 963.8 122.6 961.3 122.5C960.2 105.2 953.7 87.8996 933.1 85.3996C890.1 80.1996 874.6 112.9 881.3 145.5C888 178.1 881.1 192.7 917.9 196.7L920.4 265.1L972.9 256L957.5 160.3C957.5 160.3 958.7 156 959.7 149.5Z" fill="#FCB9C0"/>
<path d="M952.8 152.4C949.5 150.6 950 139.1 951 130.7C951.4 127.2 958.5 120.4 963.6 123.1C966.2 105.7 964.9 85.8995 947 82.8995C940.7 69.1995 927.9 73.3996 920.6 75.4996C897.9 81.9996 890.7 82.7996 880.8 77.9996C873.5 74.4996 867.1 76.4997 866.3 81.2997C864.9 89.7997 869.8 93.9996 869.8 93.9996C861.3 97.0996 861.5 102.9 862.1 106.6C863.8 116 869.6 119.5 876.9 119.8C878.1 125.5 880.1 130.9 880.1 132.7C880.1 132.7 880.2 126.4 882 119.5C899.7 117.2 922.6 101.6 922.6 101.6C920.4 109.6 936 112 941.9 112.7C944.1 122.5 947.8 146.8 937 165.7C937 165.7 900.7 148 884.3 165.1C884.3 165.1 877.7 198.4 918.9 196.3C918.9 196.3 930.9 194.1 937.5 186.3C937.5 186.3 948.4 175 956.1 151.8C954.9 152.6 953.6 152.8 952.8 152.4Z" fill="#0C2F3D"/>
<path d="M757.5 816.5V857.5H714.5L717.4 831L719.5 812.5L757.5 816.5Z" fill="#FCB9C0"/>
<path d="M715.5 847.5C715.5 847.5 737.5 870.5 757.5 842.5L764.5 885.5H660.1C655.6 885.5 654 879.5 657.9 877.3L715.5 847.5Z" fill="#0C2F3D"/>
<path d="M892.5 816.5V857.5H849.5L852.2 832.9L854.5 812.5L892.5 816.5Z" fill="#FCB9C0"/>
<path d="M850.5 847.5C850.5 847.5 872.5 870.5 892.5 842.5L899.5 885.5H795.1C790.6 885.5 789 879.5 792.9 877.3L850.5 847.5Z" fill="#0C2F3D"/>
<path d="M736.4 429L725.6 429.1L630.5 429.5H599L610.5 419.3L638.4 406.7C639.5 406.2 640.6 406 641.8 406H667.3C668.5 406 669.6 406.2 670.7 406.7L685.1 413L726.8 406.2L728.1 406L736.4 429Z" fill="#FCB9C0"/>
<path opacity="0.1" d="M757.5 816.5V840.5L717.4 831L719.5 812.5L757.5 816.5Z" fill="black"/>
<path opacity="0.1" d="M892.5 816.5V842.9L852.2 832.9L854.5 812.5L892.5 816.5Z" fill="black"/>
<path d="M713 830H779L795 608L988 526V469H883L722.4 550.2C707 558 697.7 574.2 698.7 591.4L713 830Z" fill="url(#paint5_linear)"/>
<path d="M842.5 831H908.5L913.5 615C913.5 615 998.5 581 1020.5 560C1020.5 560 1038.5 544 1020.5 474H972.5L845.5 551C831.4 559.6 823.3 575.3 824.5 591.8L842.5 831Z" fill="url(#paint6_linear)"/>
<path d="M1110.8 412.4L1057 252.2C1054.3 244.3 1048.4 237.9 1040.8 234.6L967 203C967 203 948.5 287.5 943 312.7C938.9 331.5 926.5 424.1 926.5 424.1C926.5 424.1 918.2 324.6 916.8 306.5C915 283.3 915.5 210.8 915.5 210.8L845.9 238.6C838.6 241.5 832.8 247.3 829.8 254.5L784 366L701 397L708.5 434L822 417L848 366C848 366 848.9 405.8 850.3 419C853 444 849 474 849 474L718 552C718 552 737.9 553.6 753 551C769.4 548.1 778 563 778 563L915 497L887.5 525.9C880.5 533.3 874.3 541.4 869.1 550.1L846 589C846 589 889.5 607.5 902 621C910.1 629.7 915.7 641.7 919.7 654.2C928.5 682 929 712 929 712C929 712 1029.9 567.6 1034 529C1035.9 510.9 1035.4 476.9 1034.2 443C1034.1 440.8 1034 438.6 1033.9 436.4L1099.6 429.6C1108 428.8 1113.4 420.4 1110.8 412.4ZM1031.9 394.1C1030.4 366.4 1029 346 1029 346L1048 392L1031.9 394.1Z" fill="url(#paint7_linear)"/>
<path d="M924 446L974.9 211.3L973.9 208.899C973.9 208.899 962 235.5 936 237C918 238 914.6 214.5 914.6 214.5L915.6 241C915.6 241 915.2 293.9 916.4 311.5C917.8 332.4 924 446 924 446Z" fill="url(#paint8_linear)"/>
<path d="M924.596 422.434L913.91 497.682L915.89 497.963L926.576 422.715L924.596 422.434Z" fill="#0C2F3D"/>
<path d="M924.8 434.899L889.9 269.399L905 262.299L885.8 257.699L886 256.699C886 256.599 889.1 242.399 894.7 231.899C900 221.799 908.9 213.599 909.3 213.199L910.7 214.699C910.6 214.799 901.7 223.099 896.5 232.799C891.9 241.599 889 252.899 888.2 256.199L911 261.599L892.1 270.499L925.2 426.999C929.4 413.699 944.1 367.499 950.3 350.599C957.4 331.199 980.4 275.299 983.7 267.499L963.7 259.099L989.8 244.499C988.9 241.499 985.4 230.199 981.7 223.499C977.4 215.699 965.6 204.899 965.5 204.699L966.8 203.199C967.3 203.699 978.9 214.399 983.4 222.499C987.8 230.499 991.8 244.099 991.9 244.699L992.1 245.499L968.2 258.899L986.2 266.499L985.8 267.399C985.5 267.999 959.7 330.599 952.1 351.399C944.9 371.199 926 430.799 925.8 431.399L924.8 434.899Z" fill="#0C2F3D"/>
<path d="M932.4 239.9L923 233L906 253C906 253 902.5 217.5 918 208L933 236C933 236 960 227 966 203C966 203 978 230 960.6 253L945 235.4L932.4 239.9Z" fill="#123245"/>
<path d="M948.4 429L937.6 429.1L842.5 429.5H811L822.5 419.3L850.4 406.7C851.5 406.2 852.6 406 853.8 406H879.3C880.5 406 881.6 406.2 882.7 406.7L897.1 413L938.8 406.2L940.1 406L948.4 429Z" fill="#FCB9C0"/>
<path d="M940.1 405L939.9 403L1047.5 390.199L1016.1 318.399L1017.9 317.6L1050.5 391.8L940.1 405Z" fill="#0C2F3D"/>
<path d="M993.9 379.8L980.9 376C975.1 374.3 971.6 368.3 973 362.4L983.4 318.3L987.2 319.2L976.8 363.3C975.9 367.2 978.2 371.1 982 372.2L995 376L993.9 379.8Z" fill="#A0A0A0"/>
<path d="M1016.4 382.899L1029.9 382.699C1036 382.599 1040.9 377.799 1041.2 371.699L1043.2 326.399L1039.3 326.199L1037.3 371.499C1037.1 375.499 1033.9 378.599 1029.9 378.699L1016.4 378.899V382.899Z" fill="#A0A0A0"/>
<path d="M990.1 376.6C989.6 378.6 990.7 380.6 992.7 381.1L996 381.999C998 382.499 1000 381.399 1000.5 379.399C1001 377.499 999.9 375.399 997.9 374.899L994.6 373.999C992.6 373.499 990.6 374.7 990.1 376.6Z" fill="#123245"/>
<path d="M1020.9 380.899C1020.9 382.899 1019.2 384.499 1017.2 384.499H1013.8C1011.8 384.499 1010.2 382.799 1010.2 380.799C1010.2 378.799 1011.9 377.199 1013.9 377.199H1017.3C1019.3 377.199 1020.9 378.899 1020.9 380.899Z" fill="#123245"/>
<path d="M862 343.1C859.9 283.6 875.2 249.9 888.3 232.1C902.7 212.6 917.6 207.4 918.2 207.1L919.5 210.899L918.9 209L919.5 210.899C919.4 210.899 905 216.099 891.3 234.699C878.6 251.999 863.9 284.799 866 342.899L862 343.1Z" fill="#0C2F3D"/>
<path d="M864.4 356C870.806 356 876 350.806 876 344.4C876 337.993 870.806 332.8 864.4 332.8C857.993 332.8 852.8 337.993 852.8 344.4C852.8 350.806 857.993 356 864.4 356Z" fill="#A0A0A0"/>
<path d="M864.4 350.8C867.935 350.8 870.8 347.935 870.8 344.4C870.8 340.865 867.935 338 864.4 338C860.865 338 858 340.865 858 344.4C858 347.935 860.865 350.8 864.4 350.8Z" fill="#123245"/>
<path d="M927 403H925C925 401.8 927.6 280.3 931.3 238.3L933.3 238.5C929.6 280.4 927 401.8 927 403Z" fill="#0C2F3D"/>
<path d="M1035.3 297C1031 291.6 1024.9 288.2 1018.2 287.1C1018.7 249.3 1005.2 228.4 993.4 217.4C979.9 204.8 966 202.1 965.4 202L964.7 205.9C964.8 205.9 978.2 208.5 990.9 220.4C1006.6 235.1 1014.6 258 1014.3 286.7C1004.2 286.6 995.5 292.2 989 303.2C985.2 309.6 983.2 316.1 982.4 319C982.2 319.8 982.7 320.6 983.5 320.8L986.1 321.4C986.9 321.6 987.6 321.1 987.8 320.4C989.4 314.6 996.7 292.2 1014.1 292.4C1014.1 292.6 1014.1 292.7 1014.1 292.9L1018.1 293.1C1018.1 293 1018.1 292.9 1018.1 292.8C1025.7 294.3 1038.3 300.8 1038.5 327.5C1038.5 328.3 1039.2 329 1040 329H1042.7C1043.5 329 1044.2 328.3 1044.2 327.5C1044 314.4 1041 304.1 1035.3 297Z" fill="#0C2F3D"/>
<path d="M925 251C926.105 251 927 250.105 927 249C927 247.895 926.105 247 925 247C923.895 247 923 247.895 923 249C923 250.105 923.895 251 925 251Z" fill="#0C2F3D"/>
<path d="M924 277C925.105 277 926 276.105 926 275C926 273.895 925.105 273 924 273C922.895 273 922 273.895 922 275C922 276.105 922.895 277 924 277Z" fill="#0C2F3D"/>
<path d="M923 302C924.105 302 925 301.105 925 300C925 298.895 924.105 298 923 298C921.895 298 921 298.895 921 300C921 301.105 921.895 302 923 302Z" fill="#0C2F3D"/>
<path d="M849.137 337.92L847.137 337.934L847.47 386.634L849.47 386.62L849.137 337.92Z" fill="#0C2F3D"/>
<path d="M807.101 307.807L776.303 384.771L778.16 385.514L808.957 308.55L807.101 307.807Z" fill="#0C2F3D"/>
<path opacity="0.1" d="M948.4 429L937.6 429.1L938.7 406.2L940 406L948.4 429Z" fill="black"/>
<path d="M506 450.5H474V886H506V450.5Z" fill="#A4ABCB"/>
<path d="M1132 449.5H1100V885H1132V449.5Z" fill="#A4ABCB"/>
<path d="M1172.5 428.5H418V460.5H1172.5V428.5Z" fill="url(#paint9_linear)"/>
<path d="M685.7 308H677.5L731 429H862V418.7H744.1L696.1 314.6C694.2 310.6 690.2 308 685.7 308Z" fill="#133346"/>
<path d="M686.5 312L734.5 419.5C736.5 424 733.2 429 728.3 429H560.3C557.6 429 555.2 427.4 554.1 425L506.1 317.5C504.1 313 507.4 308 512.3 308H680.3C683 308 685.4 309.6 686.5 312Z" fill="#A6A5BC"/>
<path d="M618.643 377.77C622.505 375.74 623.344 369.735 620.516 364.357C617.689 358.98 612.266 356.267 608.405 358.298C604.543 360.329 603.704 366.334 606.532 371.711C609.359 377.088 614.782 379.801 618.643 377.77Z" fill="white"/>
<path d="M277.7 206.099C269.3 241.699 245 230.899 245 230.899V231.299V231.399L245.5 242.899V243.099L246.4 263.099L198.5 261.199L205.4 197.399C197 190.099 193.7 183.899 193 178.899C191.8 169.899 199 164.999 199 164.999L206.8 131.699L276.9 144.699C278.1 153.399 278.9 161.499 279.4 168.899C280.4 184.699 279.7 197.399 277.7 206.099Z" fill="#FFAAAD"/>
<path d="M214.6 122.8C214.6 122.8 240.7 97.9999 262.3 112.8C262.3 112.8 278.5 133 296.1 126.2C296.1 126.2 296.1 137 289.4 139.7C289.4 139.7 298.9 146.4 306.9 143.7C306.9 143.7 297.5 186.9 257 160L258.4 169.4C258.4 169.4 231.4 172.1 227.3 147.9L217.2 177.2L210.9 174.7C210.9 174.7 210.4 170.5 205.7 167.9C201 165.3 193.3 165.4 193.3 180C193.4 180.1 177.5 119.5 214.6 122.8Z" fill="#0C2F3D"/>
<path d="M451.7 858.5H408.7V817.5L446.7 813.5L449.3 836.7L451.7 858.5Z" fill="#FFAAAD"/>
<path d="M450.7 848.5C450.7 848.5 428.7 871.5 408.7 843.5L401.7 886.5H506.1C510.6 886.5 512.2 880.5 508.3 878.3L450.7 848.5Z" fill="#0C2F3D"/>
<path d="M323.7 814.5L320.4 834.6L316.7 857.5H273.7L279.8 826.2L281.7 816.5L323.7 814.5Z" fill="#FFAAAD"/>
<path d="M317.7 847.5C317.7 847.5 295.7 870.5 275.7 842.5L268.7 885.5H373.1C377.6 885.5 379.2 879.5 375.3 877.3L317.7 847.5Z" fill="#0C2F3D"/>
<path opacity="0.1" d="M449.3 836.7L408.7 825.9V817.5L446.7 813.5L449.3 836.7Z" fill="black"/>
<path d="M437.9 267.7L429.5 281.5L401.5 303.5L346.4 418C342.9 425.4 332.7 426.2 328 419.5L277 346.3L269.5 335.5L316.5 311.5L323.7 326.399L327.4 334.1L340.5 361.5L377.5 296.5C377.5 296.5 378.5 277.5 385.5 269.5C392.5 261.5 394.5 251.5 394.5 251.5C394.5 251.5 404.5 257.5 397.5 269.5L420.5 258.5L435 244C436.1 242.9 438 243.399 438.4 244.899L440.2 251.7C441 254.8 439.6 265 437.9 267.7Z" fill="#FFAAAD"/>
<path d="M400.5 824.5H462.5L453.5 574.4C453.5 558.5 444.6 544 430.5 536.7L245.5 441.5H190.5L378.5 609.5L400.5 824.5Z" fill="url(#paint10_linear)"/>
<path opacity="0.1" d="M327.4 334.1L277 346.3L269.5 335.5L316.5 311.5L323.7 326.4L327.4 334.1Z" fill="black"/>
<path opacity="0.1" d="M323.7 814.5L320.4 834.6L279.8 826.2L281.7 816.5L323.7 814.5Z" fill="black"/>
<path d="M278 825H341L394.7 604C398.5 588.3 392.4 571.8 379.3 562.4L224 451L153.5 441.5C153.5 441.5 132.3 566.4 185.5 579.5C262.5 598.5 307.5 612.5 307.5 612.5L278 825Z" fill="url(#paint11_linear)"/>
<path d="M144.5 529.5C144.5 527.5 145.5 353.5 145.5 353.5L94.5 347.5L126.7 272.4C131 262.4 139.8 255.1 150.5 252.9L200.6 243.5C200.6 243.5 231.6 284.5 245.6 243.5L270.4 248.3C277.6 249.7 283.8 254 287.7 260.2L323.6 317.5L282.6 339.5L302.6 472.5L144.5 529.5Z" fill="url(#paint12_linear)"/>
<path d="M311.5 523.1C311.5 525.3 309.4 527 307.3 526.4L272.6 515.5C272.6 515.5 249.6 521.5 240.6 512.5L104.8 430.6C95.6 425.1 90.7999 414.5 92.4999 404L101.6 348.2L101.7 347.5L148.7 353.5L146.7 367.4L141.7 401.5L237.7 480.5L276.7 486.9C279.3 487.3 281.8 488.4 283.8 490.1L308.6 511C310.5 512.6 311.6 515 311.7 517.5L311.5 523.1Z" fill="#FFAAAD"/>
<path d="M411.6 275.8L410.4 274.2L426.2 261.3L437.2 244.5L438.8 245.5L427.6 262.8L411.6 275.8Z" fill="#101310"/>
<path d="M415.7 284.7L414.3 283.3L432.2 265.4L440.1 251.5L441.9 252.5L433.7 266.7L415.7 284.7Z" fill="#101310"/>
<path d="M405.4 267.3L404.6 265.4L420.4 258.2L432.2 244.3L433.8 245.7L421.6 259.8L405.4 267.3Z" fill="#101310"/>
<path d="M393.7 277.699L392.2 276.399C400.7 266.999 398.6 258.999 398.5 258.699L400.4 258.199C400.6 258.399 403 267.399 393.7 277.699Z" fill="#101310"/>
<path d="M275.535 493.089L274.458 494.774L310.442 517.764L311.519 516.079L275.535 493.089Z" fill="#101310"/>
<path d="M271.293 500.071L270.288 501.8L310.319 525.066L311.324 523.336L271.293 500.071Z" fill="#101310"/>
<path d="M271.477 508.083L270.448 509.798L290.428 521.786L291.457 520.071L271.477 508.083Z" fill="#101310"/>
<path d="M279.13 302.849L277.15 303.13L293.757 420.16L295.737 419.879L279.13 302.849Z" fill="#101310"/>
<path d="M392.43 609.237L351.36 778.428L353.303 778.9L394.373 609.709L392.43 609.237Z" fill="white"/>
<path d="M166.108 307.69L154.094 352.715L156.027 353.23L168.04 308.205L166.108 307.69Z" fill="#101310"/>
<path opacity="0.1" d="M245.6 243.1C226.5 234.2 222 209 222 209C226.6 218.9 237.8 226.9 245 231.3V231.4L245.5 242.9L245.6 243.1Z" fill="black"/>
<path opacity="0.1" d="M148.5 353.5L146.5 367.4L101.4 348.2L101.5 347.5L148.5 353.5Z" fill="black"/>
<path d="M93.8999 665.4C93.8999 665.4 104.2 634.5 131 620C131 620 159.8 608.5 165 600.8C165 600.9 129 648.9 93.8999 665.4Z" fill="url(#paint13_linear)"/>
<path d="M82.6001 819C82.6001 819 86.6999 728.3 92.8999 701.5C92.8999 701.5 108.4 661.299 135.2 642.699C135.2 642.699 168.2 619.999 166.1 599.399C166.1 599.399 143.4 632.4 106.3 646.8C106.3 646.8 46.5001 677.699 83.6001 716.899L77.3999 824.1L82.6001 819Z" fill="url(#paint14_linear)"/>
<path d="M16.8999 781.899L36.8999 885H123.1L143.1 781.899H16.8999Z" fill="url(#paint15_linear)"/>
<path opacity="0.08" d="M90.2 885H123.1L143.1 781.899H106.2L90.2 885Z" fill="black"/>
</g>
<defs>
<linearGradient id="paint0_linear" x1="528.367" y1="906.704" x2="532.367" y2="262.704" gradientUnits="userSpaceOnUse">
<stop stop-color="#D3E9FE"/>
<stop offset="1" stop-color="#E9F6FF"/>
</linearGradient>
<linearGradient id="paint1_linear" x1="884" y1="588" x2="1099" y2="588" gradientUnits="userSpaceOnUse">
<stop stop-color="#2B233C"/>
<stop offset="1" stop-color="#635C70"/>
</linearGradient>
<linearGradient id="paint2_linear" x1="1087.52" y1="571.404" x2="907.528" y2="575.904" gradientUnits="userSpaceOnUse">
<stop stop-color="#2B233C"/>
<stop offset="1" stop-color="#635C70"/>
</linearGradient>
<linearGradient id="paint3_linear" x1="335.112" y1="590.188" x2="89.1123" y2="588.188" gradientUnits="userSpaceOnUse">
<stop stop-color="#2B233C"/>
<stop offset="1" stop-color="#635C70"/>
</linearGradient>
<linearGradient id="paint4_linear" x1="94.3201" y1="574.5" x2="308.68" y2="574.5" gradientUnits="userSpaceOnUse">
<stop stop-color="#2B233C"/>
<stop offset="1" stop-color="#635C70"/>
</linearGradient>
<linearGradient id="paint5_linear" x1="852.852" y1="532.204" x2="729.6" y2="795.362" gradientUnits="userSpaceOnUse">
<stop stop-color="#29056B"/>
<stop offset="1" stop-color="#6C93F5"/>
</linearGradient>
<linearGradient id="paint6_linear" x1="943.036" y1="512.908" x2="849.764" y2="786.059" gradientUnits="userSpaceOnUse">
<stop stop-color="#29056B"/>
<stop offset="1" stop-color="#6C93F5"/>
</linearGradient>
<linearGradient id="paint7_linear" x1="922.465" y1="270.986" x2="883.461" y2="598.019" gradientUnits="userSpaceOnUse">
<stop stop-color="#DCE9FF"/>
<stop offset="1" stop-color="#B6D2FF"/>
</linearGradient>
<linearGradient id="paint8_linear" x1="944.257" y1="226.389" x2="950.258" y2="385.405" gradientUnits="userSpaceOnUse">
<stop stop-color="#588AFD"/>
<stop offset="1" stop-color="#4D71D9"/>
</linearGradient>
<linearGradient id="paint9_linear" x1="418" y1="444.5" x2="1172.5" y2="444.5" gradientUnits="userSpaceOnUse">
<stop stop-color="#2B233C"/>
<stop offset="1" stop-color="#635C70"/>
</linearGradient>
<linearGradient id="paint10_linear" x1="334.259" y1="536.778" x2="454.259" y2="856.778" gradientUnits="userSpaceOnUse">
<stop stop-color="#2B233C"/>
<stop offset="1" stop-color="#635C70"/>
</linearGradient>
<linearGradient id="paint11_linear" x1="208.449" y1="432.811" x2="372.449" y2="780.811" gradientUnits="userSpaceOnUse">
<stop stop-color="#2B233C"/>
<stop offset="1" stop-color="#635C70"/>
</linearGradient>
<linearGradient id="paint12_linear" x1="218.335" y1="229.038" x2="194.335" y2="495.038" gradientUnits="userSpaceOnUse">
<stop stop-color="#62EBE6"/>
<stop offset="1" stop-color="#4D71D9"/>
</linearGradient>
<linearGradient id="paint13_linear" x1="165.026" y1="633.174" x2="93.9082" y2="633.174" gradientUnits="userSpaceOnUse">
<stop stop-color="#1C59EB"/>
<stop offset="1" stop-color="#6AF2ED"/>
</linearGradient>
<linearGradient id="paint14_linear" x1="166.167" y1="711.833" x2="71.4548" y2="711.833" gradientUnits="userSpaceOnUse">
<stop stop-color="#2F0A6E"/>
<stop offset="1" stop-color="#5B24B9"/>
</linearGradient>
<linearGradient id="paint15_linear" x1="126.579" y1="833.482" x2="26.5279" y2="833.482" gradientUnits="userSpaceOnUse">
<stop stop-color="#E3356F"/>
<stop offset="1" stop-color="#E882AC"/>
</linearGradient>
</defs>
</svg>
