<svg width="1457" height="992" viewBox="0 0 1457 992" fill="none" xmlns="http://www.w3.org/2000/svg">
<mask id="mask0" mask-type="alpha" maskUnits="userSpaceOnUse" x="0" y="0" width="1457" height="992">
<rect width="1456.75" height="992" fill="#C4C4C4"/>
</mask>
<g mask="url(#mask0)">
<path d="M1516 992.911H0C0 992.911 43.6796 747.879 212.006 754.271C380.332 760.663 276.886 575.824 290.842 451.71C312.149 262.077 702.708 116.656 843.761 454.906C926.859 654.128 1034.46 607.252 1115.43 587.01C1161.34 575.505 1234.75 624.298 1223.03 742.552C1204.38 930.8 1266.71 943.904 1354.07 924.728C1441.43 905.551 1516 992.911 1516 992.911Z" fill="url(#paint0_linear)"/>
<path d="M1094.76 0.000488281H665.848V492.194H1094.76V0.000488281Z" fill="url(#paint1_linear)"/>
<path d="M1094.76 178.34V492.194H665.847V274.116C693.972 242.794 734.349 216.906 781.012 245.245C870.608 299.684 874.124 297.98 932.185 266.339C983.962 238.107 1023.17 180.365 1094.76 178.34Z" fill="url(#paint2_linear)"/>
<path d="M910.984 0H881.154V492.194H910.984V0Z" fill="url(#paint3_linear)"/>
<path d="M894.366 0H869.756V492.194H894.366V0Z" fill="#FCFDFF"/>
<path d="M688.753 0.000488281H665.848V492.194H688.753V0.000488281Z" fill="url(#paint4_linear)"/>
<path d="M1094.76 29.9365H665.847V49.2193H1094.76V29.9365Z" fill="#FCFDFF"/>
<path d="M1094.76 71.1655H665.847V90.4483H1094.76V71.1655Z" fill="#FCFDFF"/>
<path d="M1094.76 113.354H665.847V132.637H1094.76V113.354Z" fill="#FCFDFF"/>
<path d="M1094.76 155.542H665.847V174.825H1094.76V155.542Z" fill="#FCFDFF"/>
<path d="M1340.22 824.584H1163.37V842.696H1340.22V824.584Z" fill="#8787A0"/>
<path d="M1260.85 693.013H1242.74V992.378H1260.85V693.013Z" fill="#A4ABCB"/>
<path d="M1188.4 693.013L1120.22 992.378H1138.33L1206.51 693.013H1188.4Z" fill="#A4ABCB"/>
<path d="M1315.18 693.013L1383.36 992.378H1365.25L1297.07 693.013H1315.18Z" fill="#A4ABCB"/>
<path d="M1365.78 676.5V703.134H1136.73V676.5C1136.73 675.009 1136.84 673.624 1137.05 672.239C1139.08 659.561 1150.05 649.866 1163.37 649.866H1339.15C1352.47 649.866 1363.44 659.561 1365.47 672.239C1365.68 673.624 1365.78 675.009 1365.78 676.5Z" fill="url(#paint5_linear)"/>
<path d="M1365.47 672.239H1137.05C1139.08 659.561 1150.05 649.866 1163.37 649.866H1339.15C1352.47 649.866 1363.44 659.561 1365.47 672.239Z" fill="url(#paint6_linear)"/>
<path d="M498.585 825.65H321.736V843.761H498.585V825.65Z" fill="#8787A0"/>
<path d="M419.217 694.079H401.105V993.443H419.217V694.079Z" fill="#A6A5BC"/>
<path d="M346.773 694.079L278.59 993.443H296.701L364.884 694.079H346.773Z" fill="#A6A5BC"/>
<path d="M473.55 694.079L541.732 993.443H523.621L455.438 694.079H473.55Z" fill="#A6A5BC"/>
<path d="M524.154 677.566V704.199H295.103V677.566C295.103 676.074 295.209 674.689 295.422 673.304C297.446 660.626 308.419 650.932 321.736 650.932H497.52C510.73 650.932 521.81 660.626 523.834 673.304C524.047 674.689 524.154 676.074 524.154 677.566Z" fill="url(#paint7_linear)"/>
<path d="M523.834 673.304H295.422C297.446 660.626 308.419 650.932 321.736 650.932H497.52C510.73 650.932 521.81 660.626 523.834 673.304Z" fill="url(#paint8_linear)"/>
<path d="M1217.38 209.342C1222.81 204.548 1228.57 195.173 1225.69 186.756C1224.2 182.282 1221.75 180.684 1219.08 180.577C1217.91 162.147 1210.99 143.716 1189.04 141.053C1143.23 135.513 1126.72 170.35 1133.86 205.081C1140.99 239.811 1133.64 255.365 1172.85 259.627L1175.51 332.497L1231.44 322.802L1215.04 220.848C1215.04 220.848 1216.32 216.267 1217.38 209.342Z" fill="#FCB9C0"/>
<path d="M1210.03 212.432C1206.51 210.514 1207.05 198.263 1208.11 189.314C1208.54 185.585 1216.1 178.341 1221.54 181.217C1224.31 162.68 1222.92 141.586 1203.85 138.39C1197.14 123.794 1183.5 128.269 1175.73 130.506C1151.54 137.431 1143.87 138.283 1133.32 133.17C1125.55 129.441 1118.73 131.572 1117.88 136.685C1116.39 145.741 1121.61 150.215 1121.61 150.215C1112.55 153.518 1112.76 159.697 1113.4 163.639C1115.21 173.653 1121.39 177.382 1129.17 177.701C1130.45 183.774 1132.58 189.527 1132.58 191.444C1132.58 191.444 1132.69 184.733 1134.6 177.382C1153.46 174.931 1177.86 158.312 1177.86 158.312C1175.51 166.835 1192.13 169.392 1198.42 170.137C1200.76 180.578 1204.7 206.466 1193.2 226.601C1193.2 226.601 1154.53 207.744 1137.05 225.962C1137.05 225.962 1130.02 261.438 1173.91 259.201C1173.91 259.201 1186.7 256.857 1193.73 248.547C1193.73 248.547 1205.34 236.509 1213.55 211.793C1212.27 212.645 1210.88 212.858 1210.03 212.432Z" fill="#0C2F3D"/>
<path d="M1001.97 919.934V963.613H956.156L959.246 935.381L961.483 915.672L1001.97 919.934Z" fill="#FCB9C0"/>
<path d="M957.221 952.96C957.221 952.96 980.659 977.463 1001.97 947.633L1009.42 993.444H898.201C893.407 993.444 891.702 987.051 895.857 984.708L957.221 952.96Z" fill="#0C2F3D"/>
<path d="M1145.79 919.934V963.613H1099.98L1102.86 937.406L1105.31 915.672L1145.79 919.934Z" fill="#FCB9C0"/>
<path d="M1101.04 952.96C1101.04 952.96 1124.48 977.463 1145.79 947.633L1153.25 993.444H1042.02C1037.23 993.444 1035.53 987.051 1039.68 984.708L1101.04 952.96Z" fill="#0C2F3D"/>
<path d="M979.487 507.109L967.981 507.216L866.666 507.642H833.107L845.359 496.775L875.082 483.352C876.254 482.819 877.426 482.606 878.704 482.606H905.871C907.149 482.606 908.322 482.819 909.494 483.352L924.835 490.063L969.26 482.819L970.645 482.606L979.487 507.109Z" fill="#FCB9C0"/>
<path opacity="0.1" d="M1001.97 919.934V945.502L959.246 935.381L961.483 915.672L1001.97 919.934Z" fill="black"/>
<path opacity="0.1" d="M1145.79 919.934V948.059L1102.86 937.405L1105.31 915.672L1145.79 919.934Z" fill="black"/>
<path d="M954.558 934.316H1024.87L1041.92 697.807L1247.53 610.448V549.723H1135.67L964.572 636.23C948.165 644.54 938.258 661.798 939.323 680.122L954.558 934.316Z" fill="url(#paint9_linear)"/>
<path d="M1092.52 935.382H1162.83L1168.16 705.265C1168.16 705.265 1258.72 669.043 1282.15 646.67C1282.15 646.67 1301.33 629.625 1282.15 555.05H1231.02L1095.72 637.082C1080.7 646.244 1072.07 662.97 1073.34 680.549L1092.52 935.382Z" fill="url(#paint10_linear)"/>
<path d="M1378.36 489.424L1321.04 318.754C1318.16 310.338 1311.88 303.52 1303.78 300.004L1225.16 266.339C1225.16 266.339 1205.45 356.361 1199.59 383.208C1195.22 403.237 1182.01 501.889 1182.01 501.889C1182.01 501.889 1173.17 395.886 1171.68 376.603C1169.76 351.887 1170.29 274.649 1170.29 274.649L1096.14 304.266C1088.37 307.355 1082.19 313.534 1078.99 321.205L1030.2 439.992L941.773 473.018L949.764 512.436L1070.68 494.325L1098.38 439.992C1098.38 439.992 1099.34 482.393 1100.83 496.456C1103.71 523.089 1099.45 555.05 1099.45 555.05L959.884 638.148C959.884 638.148 981.085 639.852 997.172 637.082C1014.64 633.993 1023.81 649.867 1023.81 649.867L1169.76 579.553L1140.46 610.342C1133 618.225 1126.4 626.855 1120.86 636.124L1096.25 677.566C1096.25 677.566 1142.59 697.275 1155.91 711.657C1164.54 720.926 1170.51 733.71 1174.77 747.027C1184.14 776.644 1184.67 808.604 1184.67 808.604C1184.67 808.604 1292.17 654.767 1296.54 613.645C1298.56 594.362 1298.03 558.14 1296.75 522.024C1296.64 519.68 1296.54 517.336 1296.43 514.993L1366.42 507.748C1375.37 506.896 1381.13 497.947 1378.36 489.424ZM1294.3 469.928C1292.7 440.418 1291.21 418.685 1291.21 418.685L1311.45 467.691L1294.3 469.928Z" fill="url(#paint11_linear)"/>
<path d="M1179.35 525.22L1233.57 275.181L1232.51 272.624C1232.51 272.624 1219.83 300.963 1192.13 302.561C1172.96 303.626 1169.33 278.59 1169.33 278.59L1170.4 306.822C1170.4 306.822 1169.97 363.179 1171.25 381.93C1172.74 404.195 1179.35 525.22 1179.35 525.22Z" fill="url(#paint12_linear)"/>
<path d="M1179.98 500.115L1168.6 580.28L1170.71 580.58L1182.09 500.414L1179.98 500.115Z" fill="#0C2F3D"/>
<path d="M1180.2 513.394L1143.02 337.078L1159.11 329.514L1138.65 324.614L1138.86 323.548C1138.86 323.442 1142.17 308.314 1148.13 297.127C1153.78 286.367 1163.26 277.631 1163.69 277.205L1165.18 278.803C1165.07 278.91 1155.59 287.752 1150.05 298.086C1145.15 307.461 1142.06 319.5 1141.21 323.016L1165.5 328.769L1145.36 338.25L1180.63 504.978C1185.1 490.809 1200.76 441.59 1207.37 423.585C1214.93 402.917 1239.43 343.364 1242.95 335.054L1221.64 326.105L1249.45 310.551C1248.49 307.355 1244.76 295.316 1240.82 288.179C1236.24 279.869 1223.67 268.363 1223.56 268.15L1224.95 266.552C1225.48 267.084 1237.84 278.484 1242.63 287.113C1247.32 295.636 1251.58 310.125 1251.69 310.764L1251.9 311.616L1226.44 325.892L1245.61 333.989L1245.19 334.947C1244.87 335.587 1217.38 402.278 1209.28 424.437C1201.61 445.531 1181.48 509.026 1181.27 509.666L1180.2 513.394Z" fill="#0C2F3D"/>
<path d="M1188.3 305.65L1178.28 298.3L1160.17 319.607C1160.17 319.607 1156.44 281.787 1172.96 271.666L1188.94 301.496C1188.94 301.496 1217.7 291.907 1224.09 266.339C1224.09 266.339 1236.88 295.103 1218.34 319.607L1201.72 300.856L1188.3 305.65Z" fill="#123245"/>
<path d="M1205.34 507.109L1193.84 507.216L1092.52 507.642H1058.96L1071.21 496.775L1100.94 483.352C1102.11 482.819 1103.28 482.606 1104.56 482.606H1131.73C1133 482.606 1134.18 482.819 1135.35 483.352L1150.69 490.063L1195.12 482.819L1196.5 482.606L1205.34 507.109Z" fill="#FCB9C0"/>
<path d="M1196.5 481.541L1196.29 479.41L1310.92 465.773L1277.47 389.281L1279.38 388.429L1314.12 467.478L1196.5 481.541Z" fill="#0C2F3D"/>
<path d="M1253.82 454.693L1239.97 450.645C1233.79 448.834 1230.06 442.441 1231.55 436.156L1242.63 389.174L1246.68 390.133L1235.6 437.115C1234.64 441.27 1237.09 445.424 1241.14 446.596L1254.99 450.645L1253.82 454.693Z" fill="#A0A0A0"/>
<path d="M1277.79 457.996L1292.17 457.783C1298.67 457.677 1303.89 452.563 1304.21 446.064L1306.34 397.804L1302.18 397.591L1300.05 445.851C1299.84 450.113 1296.43 453.415 1292.17 453.522L1277.79 453.735V457.996Z" fill="#A0A0A0"/>
<path d="M1249.77 451.284C1249.24 453.415 1250.41 455.546 1252.54 456.078L1256.05 457.037C1258.18 457.57 1260.32 456.398 1260.85 454.267C1261.38 452.243 1260.21 450.006 1258.08 449.473L1254.56 448.514C1252.43 447.982 1250.3 449.26 1249.77 451.284Z" fill="#123245"/>
<path d="M1282.58 455.866C1282.58 457.996 1280.77 459.701 1278.64 459.701H1275.02C1272.89 459.701 1271.18 457.89 1271.18 455.759C1271.18 453.628 1272.99 451.924 1275.12 451.924H1278.75C1280.88 451.924 1282.58 453.735 1282.58 455.866Z" fill="#123245"/>
<path d="M1113.3 415.595C1111.06 352.207 1127.36 316.304 1141.31 297.341C1156.65 276.566 1172.53 271.027 1173.17 270.707L1174.55 274.755L1173.91 272.731L1174.55 274.755C1174.45 274.755 1159.11 280.295 1144.51 300.111C1130.98 318.541 1115.32 353.485 1117.56 415.382L1113.3 415.595Z" fill="#0C2F3D"/>
<path d="M1115.85 429.338C1122.68 429.338 1128.21 423.805 1128.21 416.98C1128.21 410.154 1122.68 404.622 1115.85 404.622C1109.03 404.622 1103.49 410.154 1103.49 416.98C1103.49 423.805 1109.03 429.338 1115.85 429.338Z" fill="#A0A0A0"/>
<path d="M1115.85 423.798C1119.62 423.798 1122.67 420.745 1122.67 416.98C1122.67 413.214 1119.62 410.162 1115.85 410.162C1112.09 410.162 1109.03 413.214 1109.03 416.98C1109.03 420.745 1112.09 423.798 1115.85 423.798Z" fill="#123245"/>
<path d="M1182.54 479.409H1180.41C1180.41 478.131 1183.18 348.69 1187.12 303.945L1189.26 304.158C1185.31 348.797 1182.54 478.131 1182.54 479.409Z" fill="#0C2F3D"/>
<path d="M1297.92 366.482C1293.34 360.729 1286.84 357.107 1279.7 355.935C1280.24 315.665 1265.85 293.399 1253.28 281.68C1238.9 268.256 1224.09 265.38 1223.45 265.273L1222.71 269.428C1222.81 269.428 1237.09 272.198 1250.62 284.876C1267.35 300.537 1275.87 324.933 1275.55 355.509C1264.79 355.402 1255.52 361.368 1248.6 373.087C1244.55 379.906 1242.42 386.83 1241.56 389.92C1241.35 390.772 1241.88 391.625 1242.74 391.838L1245.51 392.477C1246.36 392.69 1247.1 392.157 1247.32 391.411C1249.02 385.232 1256.8 361.368 1275.34 361.581C1275.34 361.794 1275.34 361.901 1275.34 362.114L1279.6 362.327C1279.6 362.221 1279.6 362.114 1279.6 362.008C1287.69 363.606 1301.12 370.53 1301.33 398.975C1301.33 399.828 1302.08 400.574 1302.93 400.574H1305.81C1306.66 400.574 1307.4 399.828 1307.4 398.975C1307.19 385.019 1303.99 374.046 1297.92 366.482Z" fill="#0C2F3D"/>
<path d="M1180.41 317.476C1181.59 317.476 1182.54 316.522 1182.54 315.345C1182.54 314.168 1181.59 313.214 1180.41 313.214C1179.24 313.214 1178.28 314.168 1178.28 315.345C1178.28 316.522 1179.24 317.476 1180.41 317.476Z" fill="#0C2F3D"/>
<path d="M1179.35 345.175C1180.52 345.175 1181.48 344.221 1181.48 343.044C1181.48 341.868 1180.52 340.914 1179.35 340.914C1178.17 340.914 1177.22 341.868 1177.22 343.044C1177.22 344.221 1178.17 345.175 1179.35 345.175Z" fill="#0C2F3D"/>
<path d="M1178.28 371.809C1179.46 371.809 1180.41 370.855 1180.41 369.678C1180.41 368.501 1179.46 367.547 1178.28 367.547C1177.11 367.547 1176.15 368.501 1176.15 369.678C1176.15 370.855 1177.11 371.809 1178.28 371.809Z" fill="#0C2F3D"/>
<path d="M1099.59 410.076L1097.46 410.091L1097.82 461.974L1099.95 461.959L1099.59 410.076Z" fill="#0C2F3D"/>
<path d="M1054.81 377.996L1022 459.991L1023.98 460.782L1056.79 378.788L1054.81 377.996Z" fill="#0C2F3D"/>
<path opacity="0.1" d="M1205.34 507.109L1193.84 507.216L1195.01 482.819L1196.39 482.606L1205.34 507.109Z" fill="black"/>
<path d="M734.03 530.014H699.938V993.976H734.03V530.014Z" fill="#A4ABCB"/>
<path d="M1400.94 528.949H1366.85V992.911H1400.94V528.949Z" fill="#A4ABCB"/>
<path d="M1444.09 506.576H640.278V540.668H1444.09V506.576Z" fill="url(#paint13_linear)"/>
<path d="M925.474 378.201H916.738L973.735 507.109H1113.3V496.136H987.691L936.554 385.233C934.53 380.971 930.268 378.201 925.474 378.201Z" fill="#133346"/>
<path d="M926.325 382.463L977.462 496.988C979.593 501.782 976.077 507.109 970.857 507.109H791.877C789.001 507.109 786.444 505.405 785.272 502.848L734.135 388.322C732.005 383.528 735.52 378.201 740.741 378.201H919.72C922.596 378.201 925.153 379.906 926.325 382.463Z" fill="#A6A5BC"/>
<path d="M854.035 452.531C858.149 450.368 859.042 443.97 856.03 438.242C853.018 432.513 847.241 429.623 843.127 431.786C839.013 433.949 838.12 440.347 841.132 446.076C844.144 451.804 849.921 454.694 854.035 452.531Z" fill="white"/>
<path d="M490.809 269.641C481.86 307.568 455.972 296.062 455.972 296.062V296.488V296.594L456.505 308.846V309.059L457.463 330.366L406.433 328.342L413.784 260.372C404.835 252.595 401.319 245.99 400.573 240.663C399.295 231.075 406.966 225.855 406.966 225.855L415.275 190.378L489.957 204.228C491.235 213.497 492.087 222.126 492.62 230.01C493.685 246.842 492.94 260.372 490.809 269.641Z" fill="#FFAAAD"/>
<path d="M423.587 180.897C423.587 180.897 451.392 154.476 474.404 170.244C474.404 170.244 491.663 191.764 510.413 184.519C510.413 184.519 510.413 196.025 503.275 198.901C503.275 198.901 513.396 206.039 521.919 203.163C521.919 203.163 511.904 249.186 468.757 220.528L470.249 230.542C470.249 230.542 441.484 233.419 437.116 207.637L426.356 238.852L419.645 236.189C419.645 236.189 419.112 231.714 414.105 228.944C409.098 226.175 400.894 226.281 400.894 241.835C401.001 241.942 384.062 177.381 423.587 180.897Z" fill="#0C2F3D"/>
<path d="M676.181 964.679H630.371V920.999L670.855 916.738L673.625 941.454L676.181 964.679Z" fill="#FFAAAD"/>
<path d="M675.115 954.025C675.115 954.025 651.678 978.528 630.371 948.698L622.913 994.509H734.136C738.93 994.509 740.635 988.116 736.48 985.773L675.115 954.025Z" fill="#0C2F3D"/>
<path d="M539.816 917.803L536.3 939.217L532.358 963.613H486.548L493.047 930.268L495.071 919.934L539.816 917.803Z" fill="#FFAAAD"/>
<path d="M533.424 952.96C533.424 952.96 509.986 977.463 488.679 947.633L481.222 993.444H592.445C597.239 993.444 598.943 987.051 594.789 984.708L533.424 952.96Z" fill="#0C2F3D"/>
<path opacity="0.1" d="M673.625 941.454L630.371 929.948V920.999L670.855 916.738L673.625 941.454Z" fill="black"/>
<path d="M661.479 335.267L652.53 349.969L622.7 373.407L563.999 495.39C560.27 503.273 549.404 504.126 544.397 496.988L490.063 419.004L482.073 407.498L532.145 381.929L539.815 397.803L543.757 406.006L557.713 435.197L597.132 365.949C597.132 365.949 598.197 345.707 605.654 337.184C613.112 328.662 615.243 318.008 615.243 318.008C615.243 318.008 625.896 324.4 618.439 337.184L642.942 325.466L658.389 310.018C659.561 308.846 661.585 309.379 662.012 310.977L663.929 318.221C664.782 321.524 663.29 332.39 661.479 335.267Z" fill="#FFAAAD"/>
<path d="M621.635 928.457H687.687L678.098 662.011C678.098 645.072 668.617 629.625 653.595 621.848L456.505 520.426H397.91L598.197 699.405L621.635 928.457Z" fill="url(#paint14_linear)"/>
<path opacity="0.1" d="M543.757 406.007L490.063 419.004L482.073 407.498L532.145 381.93L539.815 397.803L543.757 406.007Z" fill="black"/>
<path opacity="0.1" d="M539.816 917.803L536.3 939.217L493.047 930.268L495.071 919.934L539.816 917.803Z" fill="black"/>
<path d="M491.129 928.989H558.247L615.456 693.546C619.504 676.82 613.006 659.241 599.05 649.227L433.6 530.547L358.492 520.426C358.492 520.426 335.907 653.489 392.584 667.445C474.616 687.687 522.557 702.601 522.557 702.601L491.129 928.989Z" fill="url(#paint15_linear)"/>
<path d="M348.903 614.177C348.903 612.046 349.969 426.674 349.969 426.674L295.636 420.282L329.94 340.274C334.521 329.62 343.896 321.843 355.296 319.5L408.67 309.485C408.67 309.485 441.696 353.165 456.611 309.485L483.032 314.599C490.702 316.091 497.307 320.672 501.462 327.277L539.709 388.322L496.029 411.759L517.336 553.452L348.903 614.177Z" fill="url(#paint16_linear)"/>
<path d="M526.819 607.359C526.819 609.702 524.581 611.513 522.344 610.874L485.376 599.262C485.376 599.262 460.873 605.654 451.285 596.066L306.61 508.813C296.809 502.954 291.695 491.661 293.506 480.475L303.201 421.028L303.307 420.282L353.379 426.674L351.248 441.483L345.921 477.811L448.195 561.974L489.744 568.793C492.514 569.219 495.178 570.391 497.308 572.202L523.729 594.468C525.753 596.172 526.925 598.729 527.032 601.393L526.819 607.359Z" fill="#FFAAAD"/>
<path d="M633.461 343.896L632.183 342.192L649.015 328.449L660.734 310.551L662.439 311.616L650.507 330.047L633.461 343.896Z" fill="#101310"/>
<path d="M637.829 353.378L636.338 351.887L655.408 332.817L663.824 318.008L665.742 319.074L657.006 334.202L637.829 353.378Z" fill="#101310"/>
<path d="M626.855 334.841L626.003 332.816L642.835 325.146L655.407 310.337L657.111 311.829L644.114 326.85L626.855 334.841Z" fill="#101310"/>
<path d="M614.391 345.92L612.793 344.535C621.848 334.521 619.611 325.998 619.505 325.679L621.529 325.146C621.742 325.359 624.299 334.947 614.391 345.92Z" fill="#101310"/>
<path d="M488.504 575.387L487.356 577.182L525.691 601.674L526.839 599.879L488.504 575.387Z" fill="#101310"/>
<path d="M483.983 582.824L482.912 584.667L525.559 609.453L526.63 607.611L483.983 582.824Z" fill="#101310"/>
<path d="M484.181 591.36L483.085 593.188L504.371 605.959L505.467 604.132L484.181 591.36Z" fill="#101310"/>
<path d="M492.333 372.712L490.224 373.012L507.916 497.69L510.026 497.391L492.333 372.712Z" fill="#101310"/>
<path d="M613.039 699.126L569.284 879.374L571.355 879.876L615.109 699.628L613.039 699.126Z" fill="white"/>
<path d="M371.924 377.87L359.125 425.838L361.184 426.387L373.982 378.42L371.924 377.87Z" fill="#101310"/>
<path opacity="0.1" d="M456.611 309.06C436.263 299.578 431.469 272.731 431.469 272.731C436.369 283.278 448.301 291.801 455.972 296.488V296.595L456.505 308.846L456.611 309.06Z" fill="black"/>
<path opacity="0.1" d="M353.166 426.674L351.035 441.483L302.987 421.028L303.094 420.282L353.166 426.674Z" fill="black"/>
<path d="M294.997 758.958C294.997 758.958 305.97 726.039 334.522 710.591C334.522 710.591 365.204 698.34 370.744 690.137C370.744 690.243 332.391 741.38 294.997 758.958Z" fill="url(#paint17_linear)"/>
<path d="M277.738 938.045H269.003C269.003 938.045 261.332 822.773 234.911 761.196C230.437 750.862 227.347 737.119 211.047 722.843C188.888 703.241 144.356 675.328 58.0623 652.423L3.8358 635.058L3.08984 634.845C3.08984 634.845 23.9708 622.806 37.1812 624.937C37.1812 624.937 80.0086 599.688 104.192 626.002C104.192 626.002 152.559 615.029 163.532 641.343C163.532 641.343 235.977 636.976 218.398 716.025C218.505 716.131 259.095 743.617 277.738 938.045Z" fill="url(#paint18_linear)"/>
<path d="M282.959 922.598C282.959 922.598 287.327 825.97 293.932 797.418C293.932 797.418 310.445 754.591 338.997 734.775C338.997 734.775 374.154 710.592 371.916 688.646C371.916 688.646 347.733 723.802 308.208 739.143C308.208 739.143 244.5 772.063 284.025 813.825L277.419 928.031L282.959 922.598Z" fill="url(#paint19_linear)"/>
<path d="M211.154 722.844C188.995 703.241 144.463 675.329 58.1691 652.423L3.94238 635.058C23.9711 633.354 57.8495 633.141 75.7475 647.949C75.7475 647.949 139.456 634.739 163.639 676.501C167.048 682.36 176.85 683.106 189.953 683.106C202.205 683.212 216.374 685.13 211.154 722.844Z" fill="url(#paint20_linear)"/>
<path d="M212.965 883.073L234.272 992.911H326.106L347.413 883.073H212.965Z" fill="url(#paint21_linear)"/>
<path opacity="0.08" d="M291.055 992.911H326.105L347.412 883.073H308.1L291.055 992.911Z" fill="black"/>
</g>
<defs>
<linearGradient id="paint0_linear" x1="757.856" y1="1016.03" x2="762.118" y2="329.945" gradientUnits="userSpaceOnUse">
<stop stop-color="#D3E9FE"/>
<stop offset="1" stop-color="#E9F6FF"/>
</linearGradient>
<linearGradient id="paint1_linear" x1="880.303" y1="0.000488281" x2="880.303" y2="492.194" gradientUnits="userSpaceOnUse">
<stop stop-color="#E6F5FF"/>
<stop offset="1" stop-color="#F5FAFF"/>
</linearGradient>
<linearGradient id="paint2_linear" x1="882.071" y1="281.19" x2="878.519" y2="486.016" gradientUnits="userSpaceOnUse">
<stop stop-color="#D3E9FE"/>
<stop offset="1" stop-color="#E9F6FF"/>
</linearGradient>
<linearGradient id="paint3_linear" x1="896.122" y1="-5.24847" x2="896.122" y2="494.386" gradientUnits="userSpaceOnUse">
<stop stop-color="#D3E9FE"/>
<stop offset="1" stop-color="#E9F6FF"/>
</linearGradient>
<linearGradient id="paint4_linear" x1="677.871" y1="-1.75096" x2="676.699" y2="484.584" gradientUnits="userSpaceOnUse">
<stop stop-color="#D3E9FE"/>
<stop offset="1" stop-color="#E9F6FF"/>
</linearGradient>
<linearGradient id="paint5_linear" x1="1136.73" y1="676.5" x2="1365.78" y2="676.5" gradientUnits="userSpaceOnUse">
<stop stop-color="#2B233C"/>
<stop offset="1" stop-color="#635C70"/>
</linearGradient>
<linearGradient id="paint6_linear" x1="1353.55" y1="658.82" x2="1161.8" y2="663.613" gradientUnits="userSpaceOnUse">
<stop stop-color="#2B233C"/>
<stop offset="1" stop-color="#635C70"/>
</linearGradient>
<linearGradient id="paint7_linear" x1="551.973" y1="678.831" x2="289.895" y2="676.7" gradientUnits="userSpaceOnUse">
<stop stop-color="#2B233C"/>
<stop offset="1" stop-color="#635C70"/>
</linearGradient>
<linearGradient id="paint8_linear" x1="295.443" y1="662.118" x2="523.812" y2="662.118" gradientUnits="userSpaceOnUse">
<stop stop-color="#2B233C"/>
<stop offset="1" stop-color="#635C70"/>
</linearGradient>
<linearGradient id="paint9_linear" x1="1103.55" y1="617.058" x2="972.243" y2="897.415" gradientUnits="userSpaceOnUse">
<stop stop-color="#29056B"/>
<stop offset="1" stop-color="#6C93F5"/>
</linearGradient>
<linearGradient id="paint10_linear" x1="1199.63" y1="596.5" x2="1100.26" y2="887.503" gradientUnits="userSpaceOnUse">
<stop stop-color="#29056B"/>
<stop offset="1" stop-color="#6C93F5"/>
</linearGradient>
<linearGradient id="paint11_linear" x1="1177.71" y1="338.768" x2="1136.16" y2="687.174" gradientUnits="userSpaceOnUse">
<stop stop-color="#DCE9FF"/>
<stop offset="1" stop-color="#B6D2FF"/>
</linearGradient>
<linearGradient id="paint12_linear" x1="1200.93" y1="291.257" x2="1207.32" y2="460.665" gradientUnits="userSpaceOnUse">
<stop stop-color="#588AFD"/>
<stop offset="1" stop-color="#4D71D9"/>
</linearGradient>
<linearGradient id="paint13_linear" x1="640.278" y1="523.622" x2="1444.09" y2="523.622" gradientUnits="userSpaceOnUse">
<stop stop-color="#2B233C"/>
<stop offset="1" stop-color="#635C70"/>
</linearGradient>
<linearGradient id="paint14_linear" x1="551.065" y1="621.93" x2="678.907" y2="962.844" gradientUnits="userSpaceOnUse">
<stop stop-color="#2B233C"/>
<stop offset="1" stop-color="#635C70"/>
</linearGradient>
<linearGradient id="paint15_linear" x1="417.032" y1="511.169" x2="591.751" y2="881.913" gradientUnits="userSpaceOnUse">
<stop stop-color="#2B233C"/>
<stop offset="1" stop-color="#635C70"/>
</linearGradient>
<linearGradient id="paint16_linear" x1="427.564" y1="294.078" x2="401.996" y2="577.462" gradientUnits="userSpaceOnUse">
<stop stop-color="#62EBE6"/>
<stop offset="1" stop-color="#4D71D9"/>
</linearGradient>
<linearGradient id="paint17_linear" x1="370.771" y1="724.627" x2="295.006" y2="724.627" gradientUnits="userSpaceOnUse">
<stop stop-color="#1C59EB"/>
<stop offset="1" stop-color="#6AF2ED"/>
</linearGradient>
<linearGradient id="paint18_linear" x1="279.197" y1="902.53" x2="75.644" y2="600.861" gradientUnits="userSpaceOnUse">
<stop stop-color="#1C59EB"/>
<stop offset="1" stop-color="#6AF2ED"/>
</linearGradient>
<linearGradient id="paint19_linear" x1="371.987" y1="808.427" x2="271.086" y2="808.427" gradientUnits="userSpaceOnUse">
<stop stop-color="#2F0A6E"/>
<stop offset="1" stop-color="#5B24B9"/>
</linearGradient>
<linearGradient id="paint20_linear" x1="212.267" y1="678.595" x2="3.92172" y2="678.595" gradientUnits="userSpaceOnUse">
<stop stop-color="#2F0A6E"/>
<stop offset="1" stop-color="#5B24B9"/>
</linearGradient>
<linearGradient id="paint21_linear" x1="329.812" y1="938.027" x2="223.222" y2="938.027" gradientUnits="userSpaceOnUse">
<stop stop-color="#E3356F"/>
<stop offset="1" stop-color="#E882AC"/>
</linearGradient>
</defs>
</svg>
