<svg width="1423" height="1010" viewBox="0 0 1423 1010" fill="none" xmlns="http://www.w3.org/2000/svg">
<circle cx="739" cy="300" r="300" fill="#E9ECFD"/>
<circle cx="1086" cy="152" r="15" fill="#E8F6E8"/>
<circle cx="1086" cy="198" r="15" fill="#E8F6E8"/>
<circle cx="1132" cy="198" r="15" fill="#E8F6E8"/>
<circle cx="1178" cy="198" r="15" fill="#E8F6E8"/>
<circle cx="1224" cy="198" r="15" fill="#E8F6E8"/>
<circle cx="1270" cy="198" r="15" fill="#E8F6E8"/>
<circle cx="1316" cy="198" r="15" fill="#E8F6E8"/>
<circle cx="1362" cy="198" r="15" fill="#E8F6E8"/>
<circle cx="1408" cy="198" r="15" fill="#E8F6E8"/>
<circle cx="1086" cy="198" r="15" fill="#E8F6E8"/>
<circle cx="1132" cy="198" r="15" fill="#E8F6E8"/>
<circle cx="1178" cy="198" r="15" fill="#E8F6E8"/>
<circle cx="1224" cy="198" r="15" fill="#E8F6E8"/>
<circle cx="1270" cy="198" r="15" fill="#E8F6E8"/>
<circle cx="1316" cy="198" r="15" fill="#E8F6E8"/>
<circle cx="1362" cy="198" r="15" fill="#E8F6E8"/>
<circle cx="1408" cy="198" r="15" fill="#E8F6E8"/>
<circle cx="1086" cy="244" r="15" fill="#E8F6E8"/>
<circle cx="1132" cy="244" r="15" fill="#E8F6E8"/>
<circle cx="1178" cy="244" r="15" fill="#E8F6E8"/>
<circle cx="1224" cy="244" r="15" fill="#E8F6E8"/>
<circle cx="1270" cy="244" r="15" fill="#E8F6E8"/>
<circle cx="1316" cy="244" r="15" fill="#E8F6E8"/>
<circle cx="1362" cy="244" r="15" fill="#E8F6E8"/>
<circle cx="1408" cy="244" r="15" fill="#E8F6E8"/>
<circle cx="1086" cy="290" r="15" fill="#E8F6E8"/>
<circle cx="1132" cy="290" r="15" fill="#E8F6E8"/>
<circle cx="1178" cy="290" r="15" fill="#E8F6E8"/>
<circle cx="1224" cy="290" r="15" fill="#E8F6E8"/>
<circle cx="1270" cy="290" r="15" fill="#E8F6E8"/>
<circle cx="1316" cy="290" r="15" fill="#E8F6E8"/>
<circle cx="1362" cy="290" r="15" fill="#E8F6E8"/>
<circle cx="1408" cy="290" r="15" fill="#E8F6E8"/>
<circle cx="1086" cy="336" r="15" fill="#E8F6E8"/>
<circle cx="1132" cy="336" r="15" fill="#E8F6E8"/>
<circle cx="1178" cy="336" r="15" fill="#E8F6E8"/>
<circle cx="1224" cy="336" r="15" fill="#E8F6E8"/>
<circle cx="1270" cy="336" r="15" fill="#E8F6E8"/>
<circle cx="1316" cy="336" r="15" fill="#E8F6E8"/>
<circle cx="1362" cy="336" r="15" fill="#E8F6E8"/>
<circle cx="1408" cy="336" r="15" fill="#E8F6E8"/>
<circle cx="1086" cy="382" r="15" fill="#E8F6E8"/>
<circle cx="1132" cy="382" r="15" fill="#E8F6E8"/>
<circle cx="1178" cy="382" r="15" fill="#E8F6E8"/>
<circle cx="1224" cy="382" r="15" fill="#E8F6E8"/>
<circle cx="1270" cy="382" r="15" fill="#E8F6E8"/>
<circle cx="1316" cy="382" r="15" fill="#E8F6E8"/>
<circle cx="1362" cy="382" r="15" fill="#E8F6E8"/>
<circle cx="1408" cy="382" r="15" fill="#E8F6E8"/>
<circle cx="1086" cy="428" r="15" fill="#E8F6E8"/>
<circle cx="1132" cy="428" r="15" fill="#E8F6E8"/>
<circle cx="1178" cy="428" r="15" fill="#E8F6E8"/>
<circle cx="1224" cy="428" r="15" fill="#E8F6E8"/>
<circle cx="1270" cy="428" r="15" fill="#E8F6E8"/>
<circle cx="1316" cy="428" r="15" fill="#E8F6E8"/>
<circle cx="1362" cy="428" r="15" fill="#E8F6E8"/>
<circle cx="1408" cy="428" r="15" fill="#E8F6E8"/>
<circle cx="1086" cy="428" r="15" fill="#E8F6E8"/>
<circle cx="1132" cy="428" r="15" fill="#E8F6E8"/>
<circle cx="1178" cy="428" r="15" fill="#E8F6E8"/>
<circle cx="1224" cy="428" r="15" fill="#E8F6E8"/>
<circle cx="1270" cy="428" r="15" fill="#E8F6E8"/>
<circle cx="1316" cy="428" r="15" fill="#E8F6E8"/>
<circle cx="1362" cy="428" r="15" fill="#E8F6E8"/>
<circle cx="1408" cy="428" r="15" fill="#E8F6E8"/>
<circle cx="1132" cy="152" r="15" fill="#E8F6E8"/>
<circle cx="1178" cy="152" r="15" fill="#E8F6E8"/>
<circle cx="1224" cy="152" r="15" fill="#E8F6E8"/>
<circle cx="1270" cy="152" r="15" fill="#E8F6E8"/>
<circle cx="1316" cy="152" r="15" fill="#E8F6E8"/>
<circle cx="1362" cy="152" r="15" fill="#E8F6E8"/>
<circle cx="1408" cy="152" r="15" fill="#E8F6E8"/>
<circle cx="1086" cy="106" r="15" fill="#E8F6E8"/>
<circle cx="1132" cy="106" r="15" fill="#E8F6E8"/>
<circle cx="1178" cy="106" r="15" fill="#E8F6E8"/>
<circle cx="1224" cy="106" r="15" fill="#E8F6E8"/>
<circle cx="1270" cy="106" r="15" fill="#E8F6E8"/>
<circle cx="1316" cy="106" r="15" fill="#E8F6E8"/>
<circle cx="1362" cy="106" r="15" fill="#E8F6E8"/>
<circle cx="1408" cy="106" r="15" fill="#E8F6E8"/>
<circle cx="93" cy="391" r="15" fill="#E8F6E8"/>
<circle cx="93" cy="437" r="15" fill="#E8F6E8"/>
<circle cx="139" cy="437" r="15" fill="#E8F6E8"/>
<circle cx="139" cy="483" r="15" fill="#E8F6E8"/>
<circle cx="185" cy="483" r="15" fill="#E8F6E8"/>
<circle cx="231" cy="483" r="15" fill="#E8F6E8"/>
<circle cx="277" cy="483" r="15" fill="#E8F6E8"/>
<circle cx="323" cy="483" r="15" fill="#E8F6E8"/>
<circle cx="369" cy="483" r="15" fill="#E8F6E8"/>
<circle cx="415" cy="483" r="15" fill="#E8F6E8"/>
<circle cx="461" cy="483" r="15" fill="#E8F6E8"/>
<circle cx="507" cy="483" r="15" fill="#E8F6E8"/>
<circle cx="139" cy="483" r="15" fill="#E8F6E8"/>
<circle cx="185" cy="483" r="15" fill="#E8F6E8"/>
<circle cx="231" cy="483" r="15" fill="#E8F6E8"/>
<circle cx="277" cy="483" r="15" fill="#E8F6E8"/>
<circle cx="323" cy="483" r="15" fill="#E8F6E8"/>
<circle cx="369" cy="483" r="15" fill="#E8F6E8"/>
<circle cx="415" cy="483" r="15" fill="#E8F6E8"/>
<circle cx="461" cy="483" r="15" fill="#E8F6E8"/>
<circle cx="507" cy="483" r="15" fill="#E8F6E8"/>
<circle cx="139" cy="529" r="15" fill="#E8F6E8"/>
<circle cx="185" cy="529" r="15" fill="#E8F6E8"/>
<circle cx="231" cy="529" r="15" fill="#E8F6E8"/>
<circle cx="277" cy="529" r="15" fill="#E8F6E8"/>
<circle cx="323" cy="529" r="15" fill="#E8F6E8"/>
<circle cx="369" cy="529" r="15" fill="#E8F6E8"/>
<circle cx="415" cy="529" r="15" fill="#E8F6E8"/>
<circle cx="461" cy="529" r="15" fill="#E8F6E8"/>
<circle cx="507" cy="529" r="15" fill="#E8F6E8"/>
<circle cx="139" cy="575" r="15" fill="#E8F6E8"/>
<circle cx="185" cy="575" r="15" fill="#E8F6E8"/>
<circle cx="231" cy="575" r="15" fill="#E8F6E8"/>
<circle cx="277" cy="575" r="15" fill="#E8F6E8"/>
<circle cx="323" cy="575" r="15" fill="#E8F6E8"/>
<circle cx="369" cy="575" r="15" fill="#E8F6E8"/>
<circle cx="415" cy="575" r="15" fill="#E8F6E8"/>
<circle cx="461" cy="575" r="15" fill="#E8F6E8"/>
<circle cx="507" cy="575" r="15" fill="#E8F6E8"/>
<circle cx="139" cy="621" r="15" fill="#E8F6E8"/>
<circle cx="185" cy="621" r="15" fill="#E8F6E8"/>
<circle cx="231" cy="621" r="15" fill="#E8F6E8"/>
<circle cx="277" cy="621" r="15" fill="#E8F6E8"/>
<circle cx="323" cy="621" r="15" fill="#E8F6E8"/>
<circle cx="369" cy="621" r="15" fill="#E8F6E8"/>
<circle cx="415" cy="621" r="15" fill="#E8F6E8"/>
<circle cx="461" cy="621" r="15" fill="#E8F6E8"/>
<circle cx="507" cy="621" r="15" fill="#E8F6E8"/>
<circle cx="139" cy="667" r="15" fill="#E8F6E8"/>
<circle cx="185" cy="667" r="15" fill="#E8F6E8"/>
<circle cx="231" cy="667" r="15" fill="#E8F6E8"/>
<circle cx="277" cy="667" r="15" fill="#E8F6E8"/>
<circle cx="323" cy="667" r="15" fill="#E8F6E8"/>
<circle cx="369" cy="667" r="15" fill="#E8F6E8"/>
<circle cx="415" cy="667" r="15" fill="#E8F6E8"/>
<circle cx="461" cy="667" r="15" fill="#E8F6E8"/>
<circle cx="507" cy="667" r="15" fill="#E8F6E8"/>
<circle cx="139" cy="713" r="15" fill="#E8F6E8"/>
<circle cx="185" cy="713" r="15" fill="#E8F6E8"/>
<circle cx="231" cy="713" r="15" fill="#E8F6E8"/>
<circle cx="277" cy="713" r="15" fill="#E8F6E8"/>
<circle cx="323" cy="713" r="15" fill="#E8F6E8"/>
<circle cx="369" cy="713" r="15" fill="#E8F6E8"/>
<circle cx="415" cy="713" r="15" fill="#E8F6E8"/>
<circle cx="461" cy="713" r="15" fill="#E8F6E8"/>
<circle cx="507" cy="713" r="15" fill="#E8F6E8"/>
<circle cx="139" cy="713" r="15" fill="#E8F6E8"/>
<circle cx="185" cy="713" r="15" fill="#E8F6E8"/>
<circle cx="231" cy="713" r="15" fill="#E8F6E8"/>
<circle cx="277" cy="713" r="15" fill="#E8F6E8"/>
<circle cx="323" cy="713" r="15" fill="#E8F6E8"/>
<circle cx="369" cy="713" r="15" fill="#E8F6E8"/>
<circle cx="415" cy="713" r="15" fill="#E8F6E8"/>
<circle cx="461" cy="713" r="15" fill="#E8F6E8"/>
<circle cx="507" cy="713" r="15" fill="#E8F6E8"/>
<circle cx="185" cy="437" r="15" fill="#E8F6E8"/>
<circle cx="231" cy="437" r="15" fill="#E8F6E8"/>
<circle cx="277" cy="437" r="15" fill="#E8F6E8"/>
<circle cx="323" cy="437" r="15" fill="#E8F6E8"/>
<circle cx="369" cy="437" r="15" fill="#E8F6E8"/>
<circle cx="415" cy="437" r="15" fill="#E8F6E8"/>
<circle cx="461" cy="437" r="15" fill="#E8F6E8"/>
<circle cx="507" cy="437" r="15" fill="#E8F6E8"/>
<circle cx="93" cy="483" r="15" fill="#E8F6E8"/>
<circle cx="93" cy="529" r="15" fill="#E8F6E8"/>
<circle cx="93" cy="575" r="15" fill="#E8F6E8"/>
<circle cx="93" cy="621" r="15" fill="#E8F6E8"/>
<circle cx="93" cy="667" r="15" fill="#E8F6E8"/>
<circle cx="93" cy="713" r="15" fill="#E8F6E8"/>
<circle cx="139" cy="391" r="15" fill="#E8F6E8"/>
<circle cx="185" cy="391" r="15" fill="#E8F6E8"/>
<circle cx="231" cy="391" r="15" fill="#E8F6E8"/>
<circle cx="277" cy="391" r="15" fill="#E8F6E8"/>
<circle cx="323" cy="391" r="15" fill="#E8F6E8"/>
<circle cx="369" cy="391" r="15" fill="#E8F6E8"/>
<circle cx="415" cy="391" r="15" fill="#E8F6E8"/>
<circle cx="461" cy="391" r="15" fill="#E8F6E8"/>
<circle cx="507" cy="391" r="15" fill="#E8F6E8"/>
<path d="M1423 1009.43H0C0 1009.43 41 779.432 199 785.432C357 791.432 259.9 617.932 273 501.432C293 323.432 659.6 186.932 792 504.432C870 691.432 971 647.432 1047 628.432C1090.1 617.632 1159 663.432 1148 774.432C1130.5 951.132 1189 963.432 1271 945.432C1353 927.432 1423 1009.43 1423 1009.43Z" fill="url(#paint0_linear)"/>
<path d="M772 102.433C772 102.433 801.8 97.6328 800.6 127.333C799.5 157.033 788.7 188.633 788.7 188.633C788.7 188.633 784.7 206.333 792.8 223.433C792.8 223.433 742.6 216.633 734.3 193.133L736.3 107.233L772 102.433Z" fill="#0C2F3D"/>
<path d="M759.4 275.233L756.7 194.433C756.7 194.433 802.6 206.533 785.4 118.633C785.4 118.633 768 101.033 745.9 112.133C723.7 123.233 722.7 144.233 722.7 144.233L709.3 268.333L759.4 275.233Z" fill="#FFAAAD"/>
<path d="M784.6 115.433C784.6 115.433 776.3 127.233 766.1 133.533C757.5 138.833 747.1 138.533 743.2 140.733C743.2 140.733 732.7 181.833 754.2 219.233C754.2 219.233 723.4 219.633 701.4 190.633C701.4 190.633 705.4 198.033 709.6 203.833C709.6 203.833 672.2 205.333 694.9 121.333C709.6 66.9326 774.3 93.3328 784 102.533L784.6 115.433Z" fill="#0C2F3D"/>
<path d="M714.4 810.533C698.2 880.733 681.5 954.433 680.7 964.133C680.1 970.433 706.3 983.333 706.3 983.333L646.2 982.033L667.5 799.933L681.8 677.433H745.4C745.4 677.433 730.1 742.333 714.4 810.533Z" fill="#FFAAAD"/>
<path d="M644.6 966.932L641.1 991.033C640.2 997.033 644.9 1002.33 650.9 1002.33H737.2C739.5 1002.33 740.2 999.232 738.2 998.232L699.2 978.732C698.8 978.532 698.3 978.433 697.9 978.533C692.7 979.433 659.2 984.232 648.8 966.132C647.6 964.432 644.9 964.932 644.6 966.932Z" fill="#173A49"/>
<path d="M815.2 983.233L755.1 981.933L757.8 808.833L759.8 677.433H823.4C823.4 677.433 816.6 734.433 809 797.733C800.2 871.533 790.5 953.833 789.6 964.033C789.1 970.333 815.2 983.233 815.2 983.233Z" fill="#FFAAAD"/>
<path opacity="0.1" d="M745.4 677.433C745.4 677.433 730.1 742.333 714.4 810.533C696 810.433 685 804.333 667.5 799.933L681.8 677.433H745.4Z" fill="black"/>
<path opacity="0.1" d="M823.4 677.433C823.4 677.433 816.6 734.433 809 797.733C791 804.433 774 807.433 757.7 808.833L759.7 677.433H823.4Z" fill="black"/>
<path d="M753.6 966.932L750.1 991.033C749.2 997.033 753.9 1002.33 759.9 1002.33H846.2C848.5 1002.33 849.2 999.232 847.2 998.232L808.2 978.732C807.8 978.532 807.3 978.433 806.9 978.533C801.7 979.433 768.2 984.232 757.8 966.132C756.6 964.432 753.9 964.932 753.6 966.932Z" fill="#173A49"/>
<path d="M686.5 406.933L804.5 414.933C804.5 414.933 807.5 740.933 806.5 785.933C806.5 785.933 716.5 822.933 636.5 775.933C636.5 775.933 657.5 513.933 686.5 406.933Z" fill="#123245"/>
<path d="M712 243.433C712 243.433 729.4 261.933 746 267.433C749 268.433 756.8 253.233 768 243.433L791.5 422.933C791.5 422.933 753.5 439.933 718.5 422.933L712 243.433Z" fill="#0A75C4"/>
<path d="M913 291.433L938 319.433L874.9 390.233C869.2 396.633 859.1 396.433 853.6 389.833L804.5 330.033L789 239.433C789 239.433 809.5 243.033 822.5 258.033L873 334.433L913 291.433Z" fill="url(#paint1_linear)"/>
<path d="M725.1 463.433C714.2 629.233 690.5 850.933 690.5 850.933C658.5 852.933 597.5 832.933 597.5 832.933L643.6 553.533L665.5 420.933L656.8 424.433L637.5 432.233C619.5 439.533 601 422.933 606.2 404.233L646.6 259.433C648.4 252.933 653.4 247.733 659.9 245.833L697.6 234.333L705 229.533C705 229.533 710.4 234.433 712.9 240.533C717.5 251.833 722 274.533 724 298.533C725.2 312.333 731 374.633 725.1 463.433Z" fill="url(#paint2_linear)"/>
<path d="M812.5 406.933C812.5 406.933 805.5 377.933 812.5 335.933C812.5 335.933 817.5 300.933 803.5 266.933L792.5 239.933L769 235.433L758 229.433C758 229.433 778.5 317.933 780.5 460.933L801.5 856.933C801.5 856.933 836.5 857.933 848.5 845.933C848.5 845.933 838.5 510.933 812.5 406.933Z" fill="url(#paint3_linear)"/>
<path d="M719.1 557.533L717.1 557.433C717.2 516.333 716 455.533 712 419.533C706.1 366.233 686.2 300.333 686 299.733L685.8 298.933L704.1 288.333L679.6 270.733L705.9 228.633L710.4 235.733L723.9 280.333V280.433C724 281.333 729 373.833 728.4 402.033C727.7 440.433 719.2 556.333 719.1 557.533ZM688.2 299.933C690.4 307.433 708.4 368.933 714 419.333C717.2 448.133 718.7 492.833 719 530.633C721.6 493.733 725.9 428.833 726.4 401.933C727 374.233 722.1 284.433 721.9 280.633L708.5 236.433L705.9 232.333L682.2 270.233L707.7 288.633L688.2 299.933Z" fill="#0C2F3D"/>
<path d="M788 535.532C783.2 470.432 793.2 301.932 794 289.132L778.8 283.732L796.5 272.232L757.3 230.132L758.8 228.732L799.6 272.632L783.3 283.132L796.1 287.732V288.532C796 290.332 785.2 468.232 790.1 535.432L788 535.532Z" fill="#0C2F3D"/>
<path d="M793.7 381.832L749.7 391.432L717.7 384.232L706.8 388.732L700.1 391.432L694.5 371.432L696.3 371.232L712.9 369.832L721.7 365.032C743.3 357.032 767.3 365.032 767.3 365.032C761.7 372.232 756.9 368.232 749.7 369.832C742.5 371.432 744.9 374.632 744.9 374.632L759.3 377.832L785.7 374.632C789.7 375.432 793.7 381.832 793.7 381.832Z" fill="#FFAAAD"/>
<path d="M710.7 225.832C710.7 225.832 702 236.432 703 244.432C704 252.432 718 276.432 718 276.432L729 259.432L747 270.432L764 252.432L778.5 266.632C778.5 266.632 778 240.432 758 230.432C758 230.432 758 237.432 756 244.432C750.7 263.132 748 264.432 748 264.432C748 264.432 729.8 254.332 721 242.432C715.3 234.632 709.9 224.732 710.7 225.832Z" fill="#045593"/>
<path opacity="0.1" d="M663 374.433L670 333.433L674.6 372.133L663 374.433Z" fill="black"/>
<path d="M804.696 328.71L803.151 329.98L847.361 383.739L848.906 382.469L804.696 328.71Z" fill="#0C2F3D"/>
<path d="M663.8 365.733L651.2 363.833C645.5 362.933 641.5 357.833 642.1 352.133L646.1 309.633L649.8 309.933L645.8 352.433C645.4 356.133 648.1 359.533 651.8 360.133L664.4 362.033L663.8 365.733Z" fill="#A0A0A0"/>
<path d="M685.2 365.733L697.8 363.833C703.5 362.933 707.5 357.833 706.9 352.133L702.9 309.633L699.2 309.933L703.2 352.433C703.6 356.133 700.9 359.533 697.2 360.133L684.6 362.033L685.2 365.733Z" fill="#A0A0A0"/>
<path d="M659.9 363.233C659.7 365.133 661 366.833 662.9 367.133L666.1 367.533C668 367.733 669.7 366.433 670 364.533C670.2 362.633 668.9 360.933 667 360.633L663.8 360.233C661.8 360.033 660.1 361.333 659.9 363.233Z" fill="#123245"/>
<path d="M689.1 363.233C689.3 365.133 688 366.833 686.1 367.133L682.9 367.533C681 367.733 679.3 366.433 679 364.533C678.8 362.633 680.1 360.933 682 360.633L685.2 360.233C687.2 360.033 688.9 361.333 689.1 363.233Z" fill="#123245"/>
<path d="M691.8 283.133C687.6 279.133 682.3 276.733 676.7 276.233C678.7 265.733 686.3 239.233 713.7 229.333L712.3 225.533C682.5 236.333 674.6 265.233 672.6 276.133C672.5 276.133 672.5 276.133 672.4 276.133C662.2 276.733 654.2 283.233 649.3 294.933C646.6 301.433 645.5 307.733 645.2 310.533C645.1 311.333 645.7 312.033 646.5 312.133L649 312.333C649.7 312.433 650.4 311.833 650.5 311.133C651.3 305.333 655.4 282.533 672.8 281.433C679.3 281.033 694.7 283.233 698.7 311.133C698.8 311.833 699.5 312.433 700.2 312.333L702.7 312.033C703.5 311.933 704 311.233 703.9 310.433C702.1 298.233 698.1 289.033 691.8 283.133Z" fill="#123245"/>
<path d="M804 292.533C802.8 272.833 794.6 256.733 779.7 244.733C768.5 235.633 757.5 232.433 757.4 232.333L758.5 228.533C759 228.633 770.3 232.033 782.1 241.533C793 250.333 806.4 266.333 808 292.333L804 292.533Z" fill="#123245"/>
<path d="M806.4 311.432C812.806 311.432 818 306.239 818 299.832C818 293.426 812.806 288.232 806.4 288.232C799.993 288.232 794.8 293.426 794.8 299.832C794.8 306.239 799.993 311.432 806.4 311.432Z" fill="#A0A0A0"/>
<path d="M806.4 306.233C809.935 306.233 812.8 303.367 812.8 299.833C812.8 296.298 809.935 293.433 806.4 293.433C802.865 293.433 800 296.298 800 299.833C800 303.367 802.865 306.233 806.4 306.233Z" fill="#123245"/>
<path d="M892.3 222.433H991.3L941 354.433H842L892.3 222.433Z" fill="url(#paint4_linear)"/>
<path d="M974.4 282.932H958.6C957.5 282.932 956.6 282.232 956.4 281.132C956.1 279.432 956.4 276.932 960.2 275.032H956.3C953.2 275.032 951.5 271.432 953.5 269.032C954 268.432 954.6 267.832 955.5 267.132L951.6 266.132C949.4 265.532 947.9 263.432 948.3 261.132C948.4 260.832 948.4 260.532 948.6 260.232C949.3 258.632 950.9 257.632 952.6 257.632H965C965 257.632 960.3 251.332 968.1 249.732H980.7C980.7 249.732 983.8 252.832 980.7 257.632C980.7 257.632 983.8 263.932 977.6 267.032C977.6 267.032 980.7 271.732 976 274.932C975.9 275.032 977.5 279.832 974.4 282.932Z" fill="#FFAAAD"/>
<path d="M981 256.433H965V258.433H981V256.433Z" fill="#0C2F3D"/>
<path d="M954.292 265.903L954.25 267.902L977.845 268.397L977.887 266.398L954.292 265.903Z" fill="#0C2F3D"/>
<path d="M958.523 274.119L958.482 276.118L975.979 276.475L976.02 274.475L958.523 274.119Z" fill="#0C2F3D"/>
<path d="M692.1 371.433L691.9 369.433L635.9 376.433L636.1 378.433L680.2 372.933L687 399.633L689 399.233L682.2 372.633L692.1 371.433Z" fill="#0C2F3D"/>
<path opacity="0.1" d="M643.6 553.533L665.5 420.933L656.8 424.433L681 414.433L643.6 553.533Z" fill="black"/>
<path opacity="0.1" d="M706.8 388.732L700.1 391.432L694.5 371.432L696.3 371.332L706.8 388.732Z" fill="black"/>
<path d="M1167.4 935.533V1008.43H482V935.133L1167.4 935.533Z" fill="url(#paint5_linear)"/>
<path d="M493 935.533V1008.43H213V935.133L493 935.533Z" fill="url(#paint6_linear)"/>
<path d="M1231.8 488.533H463V963.233H1231.8V488.533Z" fill="#C0C6CB"/>
<path d="M492.4 489.233H179.6V963.933H492.4V489.233Z" fill="#8B969F"/>
<path d="M1251 489.333V525.433H463V489.133L1251 489.333Z" fill="url(#paint7_linear)"/>
<path d="M491 489.333V525.433H138V489.133L491 489.333Z" fill="url(#paint8_linear)"/>
<path d="M1232 613.133H492.4V654.433H1232V613.133Z" fill="#8B969F"/>
<path d="M1232 706.133H492.4V747.433H1232V706.133Z" fill="#8B969F"/>
<path d="M1232 801.133H492.4V842.433H1232V801.133Z" fill="#8B969F"/>
<path d="M673.5 870.434C752.753 870.434 817 806.186 817 726.934C817 647.681 752.753 583.434 673.5 583.434C594.247 583.434 530 647.681 530 726.934C530 806.186 594.247 870.434 673.5 870.434Z" fill="#8B969F"/>
<path d="M691.5 870C770.753 870 835 805.753 835 726.5C835 647.247 770.753 583 691.5 583C612.247 583 548 647.247 548 726.5C548 805.753 612.247 870 691.5 870Z" fill="white"/>
<circle cx="691.222" cy="726.222" r="107.222" fill="url(#paint9_linear)"/>
<circle cx="690.762" cy="725.762" r="54.4939" fill="url(#paint10_linear)"/>
<circle cx="689.989" cy="724.99" r="25.5332" fill="url(#paint11_linear)"/>
<path d="M585.9 296.133L601.6 437.733C602.5 445.433 596.4 452.233 588.6 452.233H378.3C371.6 452.233 366 447.233 365.3 440.633L349.6 299.033C348.7 291.333 354.8 284.533 362.6 284.533H573C579.5 284.533 585.1 289.533 585.9 296.133Z" fill="#133346"/>
<path d="M338.4 299.033L354.1 440.633C354.8 447.233 360.4 452.233 367.1 452.233H577.4C585.2 452.233 591.3 445.433 590.4 437.733L574.7 296.133C574 289.533 568.4 284.533 561.7 284.533H351.3C343.6 284.533 337.5 291.233 338.4 299.033Z" fill="#A6A5BC"/>
<path d="M493.3 379.533H470.9V452.233H493.3V379.533Z" fill="#133346"/>
<path d="M493.3 379.533H446.7L416.9 489.533H532.4V478.333H469L493.3 379.533Z" fill="#A6A5BC"/>
<path d="M524 435.434H520V441.434H524V435.434Z" fill="#133346"/>
<path d="M533 435.434H529V441.434H533V435.434Z" fill="#133346"/>
<path d="M542 435.434H538V441.434H542V435.434Z" fill="#133346"/>
<path d="M551 435.434H547V441.434H551V435.434Z" fill="#133346"/>
<path d="M1213.1 972.633C1212.9 970.233 1212.3 967.233 1211.5 963.833C1206.2 941.533 1190.4 901.133 1190.4 901.133H1235.7L1241.4 953.433L1245.3 989.333L1189.3 990.533C1189.2 990.533 1213.6 978.533 1213.1 972.633Z" fill="#FCB9C0"/>
<path d="M1246.7 975.333L1250 997.833C1250.8 1003.43 1246.5 1008.43 1240.9 1008.43H1160.5C1158.4 1008.43 1157.7 1005.53 1159.6 1004.63L1196 986.433C1196.4 986.233 1196.8 986.133 1197.2 986.233C1202.1 987.033 1233.2 991.533 1243 974.733C1243.9 973.033 1246.4 973.433 1246.7 975.333Z" fill="#0C2F3D"/>
<path d="M1114.3 901.133L1111 953.633L1108.7 989.333L1054.8 990.533C1054.8 990.533 1079.2 978.533 1078.6 972.633C1078.3 969.833 1078 966.033 1077.5 961.833C1075 939.233 1070 901.133 1070 901.133H1114.3Z" fill="#FCB9C0"/>
<path d="M1112.3 975.333L1115.6 997.833C1116.4 1003.43 1112.1 1008.43 1106.5 1008.43H1026C1023.9 1008.43 1023.2 1005.53 1025.1 1004.63L1061.5 986.433C1061.9 986.233 1062.3 986.133 1062.7 986.233C1067.6 987.033 1098.7 991.533 1108.5 974.733C1109.5 973.033 1112 973.433 1112.3 975.333Z" fill="#0C2F3D"/>
<path d="M1116.6 286.633L1105 240.433C1105 240.433 1044 265.133 1067.9 162.133C1067.9 162.133 1077.8 133.233 1121.5 148.133C1121.5 148.133 1139.6 151.433 1141.3 184.433C1142.9 217.433 1159.4 281.733 1159.4 281.733L1116.6 286.633Z" fill="#FCB9C0"/>
<path opacity="0.1" d="M1114.3 901.133L1111 953.633L1077.6 961.833C1075.1 939.233 1070.1 901.133 1070.1 901.133H1114.3Z" fill="black"/>
<path opacity="0.1" d="M1241.4 953.433L1211.5 963.833C1206.2 941.533 1190.4 901.133 1190.4 901.133H1235.7L1241.4 953.433Z" fill="black"/>
<path d="M1191.7 353.333L1191.4 368.533L1190.7 406.933L1155.6 578.533H1127.3L1150.7 412.833L1144.7 369.533L1142 349.433L1191.7 353.333Z" fill="#FCB9C0"/>
<path opacity="0.1" d="M1191.7 353.333L1191.4 368.533L1144.7 369.533L1142 349.433L1191.7 353.333Z" fill="black"/>
<path d="M1251.5 952.833H1217.9C1203.2 952.833 1189.9 952.833 1189.9 952.833C1189.9 952.833 1114.9 711.233 1112.6 691.433L1118.2 767.633L1131.9 952.933H1069.6L1039.5 660.633V445.733L1152.6 434.933C1152.6 434.933 1161.3 449.733 1170.5 473.133C1182.9 504.833 1196.1 552.233 1190 600.433L1200.7 729.333C1200.7 729.333 1253.7 952.833 1251.5 952.833Z" fill="url(#paint12_linear)"/>
<path opacity="0.2" d="M1170.4 473.033L1039.4 458.633V445.633L1152.5 434.833C1152.6 434.833 1161.3 449.633 1170.4 473.033Z" fill="black"/>
<path d="M1158.8 401.832C1157 413.832 1159.5 449.932 1159.5 449.932L1072.9 452.832L1052 453.532L1031 388.432L1032.8 378.332L1033.1 376.832C1044.1 305.432 1052.5 283.632 1062.7 273.932C1065.2 271.532 1087 263.732 1103.3 258.232C1113.3 254.832 1121.2 252.232 1121.2 252.232C1130.9 253.332 1157.3 266.432 1175.1 291.932C1181.2 300.632 1185.3 311.332 1188 321.832C1193.3 342.132 1193.6 361.132 1193.6 361.132L1168.6 361.832C1168.6 361.832 1160.3 391.832 1158.8 401.832Z" fill="url(#paint13_linear)"/>
<path opacity="0.1" d="M1188 321.832C1174.3 308.532 1159 313.432 1159 313.432C1098 313.432 1093 264.432 1093 264.432L1103.3 258.232C1113.3 254.832 1121.2 252.232 1121.2 252.232C1130.9 253.332 1157.3 266.432 1175.1 291.932C1181.2 300.532 1185.3 311.332 1188 321.832Z" fill="black"/>
<path d="M1081.5 381.833L1076.8 395.133L1055 457.233C1052.4 465.433 1045.5 471.433 1037 472.733L933 489.433H864L869.5 483.033C871.9 480.333 874.9 478.233 878.3 477.033L914.3 464.533C916.4 463.833 918.7 463.533 921 463.833L937.5 465.733L1018.4 433.633L1031.4 384.433L1032.4 380.533L1081.5 381.833Z" fill="#FCB9C0"/>
<path d="M1127.4 904.432L1112.6 693.832L1112.7 693.732L1127.7 564.732L1129.6 565.032L1114.6 693.832L1129.3 904.332L1127.4 904.432Z" fill="white"/>
<path d="M1181.7 227.333C1169.9 219.733 1164 212.133 1163.7 177.533C1163.4 142.933 1139.6 137.233 1139.6 137.233C1111 111.933 1068.6 131.633 1062.2 149.733C1055.2 169.533 1079.6 166.633 1086.1 171.333C1091.6 175.333 1093.3 190.833 1093.9 197.833C1094.1 200.333 1093.2 203.433 1093.5 205.733C1092.4 212.933 1089.1 225.533 1085.7 238.233C1083.5 246.533 1083.2 264.333 1088.2 275.233C1088.2 275.233 1082.4 251.333 1092.4 230.633C1093.9 227.633 1095.7 223.233 1097.2 218.533C1097 223.633 1095.1 228.733 1094 232.333C1090.5 243.633 1084 266.833 1097.5 284.533C1110.5 301.633 1165.7 314.033 1190.1 292.133C1214.6 270.233 1193.5 234.833 1181.7 227.333Z" fill="#0C2F3D"/>
<path opacity="0.1" d="M1081.5 381.833L1076.8 395.033L1031.4 384.433L1032.4 380.633L1081.5 381.833Z" fill="black"/>
<path opacity="0.1" d="M1189.9 952.833C1189.9 952.833 1114.9 711.233 1112.6 691.433L1125 606.533C1129 726.533 1190.5 895.133 1217.9 952.933C1203.2 952.833 1189.9 952.833 1189.9 952.833Z" fill="black"/>
<path d="M279.1 395.532C279.1 395.532 283.5 382.332 295 376.132C295 376.132 307.3 371.232 309.5 367.932C309.5 368.032 294.1 388.532 279.1 395.532Z" fill="url(#paint14_linear)"/>
<path d="M272.2 467.432H268.7C268.7 467.432 265.6 421.132 255 396.432C253.2 392.232 251.9 386.732 245.4 381.032C236.5 373.232 218.6 361.932 184 352.832L162.3 345.832L162 345.732C162 345.732 170.4 340.932 175.7 341.732C175.7 341.732 192.9 331.632 202.6 342.132C202.6 342.132 222 337.732 226.4 348.332C226.4 348.332 255.5 346.532 248.4 378.332C248.4 378.432 264.7 389.432 272.2 467.432Z" fill="url(#paint15_linear)"/>
<path d="M274.3 461.232C274.3 461.232 276.1 422.432 278.7 411.032C278.7 411.032 285.3 393.832 296.8 385.932C296.8 385.932 310.9 376.232 310 367.432C310 367.432 300.3 381.532 284.4 387.732C284.4 387.732 258.8 400.932 274.7 417.732L272.1 463.532L274.3 461.232Z" fill="url(#paint16_linear)"/>
<path d="M245.4 381.032C236.5 373.232 218.6 361.932 184 352.832L162.3 345.832C170.4 345.132 184 345.032 191.1 351.032C191.1 351.032 216.7 345.732 226.4 362.532C227.8 364.932 231.7 365.132 237 365.132C241.9 365.132 247.6 365.932 245.4 381.032Z" fill="url(#paint17_linear)"/>
<path d="M246.2 445.432L254.7 489.432H291.6L300.1 445.432H246.2Z" fill="url(#paint18_linear)"/>
<path opacity="0.08" d="M277.5 489.432H291.6L300.1 445.432H284.4L277.5 489.432Z" fill="black"/>
<path d="M176 754.133C176 754.133 138.9 508.933 257.9 541.333C257.9 541.433 316.6 568.433 176 754.133Z" fill="url(#paint19_linear)"/>
<path d="M206.6 754.133C206.6 754.133 263.3 618.933 346.3 660.333C346.3 660.433 374.3 692.833 206.6 754.133Z" fill="url(#paint20_linear)"/>
<path d="M151.9 760.033C151.9 760.033 46.3 696.533 59.7 661.833C59.7 661.933 98.9 619.233 151.9 760.033Z" fill="url(#paint21_linear)"/>
<path d="M134.4 809.333C134.4 809.333 51.7999 763.133 47.2999 793.933C47.2999 793.933 44.4999 819.233 134.4 809.333Z" fill="url(#paint22_linear)"/>
<path d="M193.6 841.432C188.9 843.432 231.6 752.532 276 775.232C276 775.232 302.9 794.732 193.6 841.432Z" fill="url(#paint23_linear)"/>
<path d="M174 866.833L170.4 866.733C171 852.033 166.3 839.333 156.6 828.833C128.2 798.333 65.3 796.233 64.7 796.233L64.8 792.633C67.4 792.733 129.8 794.833 159.2 826.333C169.6 837.533 174.6 851.133 174 866.833Z" fill="#2B322A"/>
<path d="M177.7 887.432L174.1 887.332C175.1 862.332 191.4 835.832 221.4 810.832C243.9 792.032 266.4 780.432 266.6 780.332L268.2 783.532C267.3 784.032 179.9 829.332 177.7 887.432Z" fill="#2B322A"/>
<path d="M179.7 878.032C173.9 841.932 178 808.232 192 778.132C203.2 754.032 220.6 732.132 243.8 712.932C283.2 680.432 326.4 666.932 326.8 666.832L327.9 670.232C327.5 670.332 284.9 683.632 246 715.732C210.3 745.232 170.4 797.232 183.3 877.432L179.7 878.032Z" fill="#2B322A"/>
<path d="M183.1 903.333C172.8 861.633 169.2 817.533 172.5 772.433C175.1 736.333 182.1 699.433 193.3 662.833C212.3 600.433 237.2 559.833 237.4 559.433L240.5 561.333C240.3 561.733 215.6 602.033 196.7 664.033C179.3 721.133 163.4 808.933 186.6 902.533L183.1 903.333Z" fill="#2B322A"/>
<path d="M176.9 889.733H173.3C173.9 803.333 147 748.433 124.2 717.633C99.6 684.333 74.7 671.333 74.5 671.133L76.1 667.933C77.1 668.433 102 681.533 127.1 715.433C150.2 746.733 177.5 802.333 176.9 889.733Z" fill="#2B322A"/>
<path d="M235.5 865.933L235.4 866.233L215.7 1008.43H136.3L116.5 865.933H235.5Z" fill="url(#paint24_linear)"/>
<path opacity="0.1" d="M235.4 866.232L215.7 1008.43H136.6C167.2 986.832 216 941.932 235.4 866.232Z" fill="black"/>
<defs>
<linearGradient id="paint0_linear" x1="711.5" y1="1034.43" x2="711.5" y2="378.432" gradientUnits="userSpaceOnUse">
<stop stop-color="#D3E9FE"/>
<stop offset="1" stop-color="#E9F6FF"/>
</linearGradient>
<linearGradient id="paint1_linear" x1="930.301" y1="352.124" x2="778.808" y2="301.126" gradientUnits="userSpaceOnUse">
<stop stop-color="#DCE9FF"/>
<stop offset="1" stop-color="#B6D2FF"/>
</linearGradient>
<linearGradient id="paint2_linear" x1="672.933" y1="258.509" x2="649.081" y2="822.022" gradientUnits="userSpaceOnUse">
<stop stop-color="#DCE9FF"/>
<stop offset="1" stop-color="#B6D2FF"/>
</linearGradient>
<linearGradient id="paint3_linear" x1="784.604" y1="253.236" x2="826.324" y2="834.347" gradientUnits="userSpaceOnUse">
<stop stop-color="#DCE9FF"/>
<stop offset="1" stop-color="#B6D2FF"/>
</linearGradient>
<linearGradient id="paint4_linear" x1="999.939" y1="245.049" x2="855.924" y2="320.057" gradientUnits="userSpaceOnUse">
<stop stop-color="#2B233C"/>
<stop offset="1" stop-color="#635C70"/>
</linearGradient>
<linearGradient id="paint5_linear" x1="482" y1="971.77" x2="1167.39" y2="971.77" gradientUnits="userSpaceOnUse">
<stop stop-color="#2B233C"/>
<stop offset="1" stop-color="#635C70"/>
</linearGradient>
<linearGradient id="paint6_linear" x1="213" y1="971.77" x2="493" y2="971.77" gradientUnits="userSpaceOnUse">
<stop stop-color="#2B233C"/>
<stop offset="1" stop-color="#635C70"/>
</linearGradient>
<linearGradient id="paint7_linear" x1="463" y1="507.27" x2="1251" y2="507.27" gradientUnits="userSpaceOnUse">
<stop stop-color="#2B233C"/>
<stop offset="1" stop-color="#635C70"/>
</linearGradient>
<linearGradient id="paint8_linear" x1="138" y1="507.27" x2="491" y2="507.27" gradientUnits="userSpaceOnUse">
<stop stop-color="#2B233C"/>
<stop offset="1" stop-color="#635C70"/>
</linearGradient>
<linearGradient id="paint9_linear" x1="615" y1="801.5" x2="768.5" y2="652" gradientUnits="userSpaceOnUse">
<stop stop-color="#232A3A"/>
<stop offset="1" stop-color="#54565D"/>
</linearGradient>
<linearGradient id="paint10_linear" x1="652" y1="765.5" x2="734" y2="691.5" gradientUnits="userSpaceOnUse">
<stop stop-color="#1C59EB"/>
<stop offset="1" stop-color="#9FAFF6"/>
</linearGradient>
<linearGradient id="paint11_linear" x1="673" y1="742" x2="710.5" y2="709" gradientUnits="userSpaceOnUse">
<stop stop-color="#C2CBED"/>
<stop offset="1" stop-color="white"/>
</linearGradient>
<linearGradient id="paint12_linear" x1="1114.24" y1="442.189" x2="1157.1" y2="940.898" gradientUnits="userSpaceOnUse">
<stop stop-color="#29056B"/>
<stop offset="1" stop-color="#6C93F5"/>
</linearGradient>
<linearGradient id="paint13_linear" x1="1048.9" y1="438.178" x2="1165.99" y2="294.112" gradientUnits="userSpaceOnUse">
<stop stop-color="#E3356F"/>
<stop offset="1" stop-color="#E882AC"/>
</linearGradient>
<linearGradient id="paint14_linear" x1="309.513" y1="381.783" x2="279.107" y2="381.783" gradientUnits="userSpaceOnUse">
<stop stop-color="#1C59EB"/>
<stop offset="1" stop-color="#6AF2ED"/>
</linearGradient>
<linearGradient id="paint15_linear" x1="272.763" y1="453.178" x2="191.074" y2="332.115" gradientUnits="userSpaceOnUse">
<stop stop-color="#1C59EB"/>
<stop offset="1" stop-color="#6AF2ED"/>
</linearGradient>
<linearGradient id="paint16_linear" x1="310" y1="415.413" x2="269.507" y2="415.413" gradientUnits="userSpaceOnUse">
<stop stop-color="#2F0A6E"/>
<stop offset="1" stop-color="#5B24B9"/>
</linearGradient>
<linearGradient id="paint17_linear" x1="245.902" y1="363.31" x2="162.291" y2="363.31" gradientUnits="userSpaceOnUse">
<stop stop-color="#2F0A6E"/>
<stop offset="1" stop-color="#5B24B9"/>
</linearGradient>
<linearGradient id="paint18_linear" x1="293.075" y1="467.423" x2="250.299" y2="467.423" gradientUnits="userSpaceOnUse">
<stop stop-color="#E3356F"/>
<stop offset="1" stop-color="#E882AC"/>
</linearGradient>
<linearGradient id="paint19_linear" x1="175.882" y1="718.752" x2="250.185" y2="525.218" gradientUnits="userSpaceOnUse">
<stop stop-color="#1C59EB"/>
<stop offset="1" stop-color="#6AF2ED"/>
</linearGradient>
<linearGradient id="paint20_linear" x1="206.616" y1="703.339" x2="348.032" y2="703.339" gradientUnits="userSpaceOnUse">
<stop stop-color="#1C59EB"/>
<stop offset="1" stop-color="#6AF2ED"/>
</linearGradient>
<linearGradient id="paint21_linear" x1="151.351" y1="749.914" x2="58.3695" y2="653.489" gradientUnits="userSpaceOnUse">
<stop stop-color="#1C59EB"/>
<stop offset="1" stop-color="#6AF2ED"/>
</linearGradient>
<linearGradient id="paint22_linear" x1="121.421" y1="805.244" x2="38.3475" y2="791.398" gradientUnits="userSpaceOnUse">
<stop stop-color="#1C59EB"/>
<stop offset="1" stop-color="#6AF2ED"/>
</linearGradient>
<linearGradient id="paint23_linear" x1="193.242" y1="806.541" x2="278.921" y2="806.541" gradientUnits="userSpaceOnUse">
<stop stop-color="#1C59EB"/>
<stop offset="1" stop-color="#6AF2ED"/>
</linearGradient>
<linearGradient id="paint24_linear" x1="116.47" y1="937.203" x2="235.48" y2="937.203" gradientUnits="userSpaceOnUse">
<stop stop-color="#E3356F"/>
<stop offset="1" stop-color="#E882AC"/>
</linearGradient>
</defs>
</svg>
