<svg width="1423" height="1027" viewBox="0 0 1423 1027" fill="none" xmlns="http://www.w3.org/2000/svg">
<circle cx="1360" cy="621" r="63" fill="#85F479"/>
<circle cx="1300.5" cy="755.5" r="30.5" fill="#4F74F0"/>
<rect x="934" y="8" width="90" height="90" rx="12" fill="#1CEB2A"/>
<path d="M310 187C303.373 187 297.955 181.62 298.434 175.01C299.715 157.315 303.827 139.913 310.636 123.475C318.978 103.335 331.206 85.0348 346.62 69.6203C362.035 54.2057 380.335 41.9783 400.475 33.636C420.615 25.2937 442.201 21 464 21C485.799 21 507.385 25.2937 527.525 33.636C547.666 41.9783 565.965 54.2058 581.38 69.6203C596.794 85.0348 609.022 103.335 617.364 123.475C624.173 139.913 628.285 157.315 629.566 175.01C630.045 181.62 624.627 187 618 187L464 187L310 187Z" fill="#748FF3"/>
<g filter="url(#filter0_d)">
<circle cx="739" cy="307" r="300" fill="#E9ECFD"/>
</g>
<circle cx="1252.59" cy="218.846" r="7.58522" fill="#1C59EB"/>
<circle cx="1252.59" cy="242.109" r="7.58522" fill="#1C59EB"/>
<circle cx="1275.85" cy="242.109" r="7.58522" fill="#1C59EB"/>
<circle cx="1299.11" cy="242.109" r="7.58522" fill="#1C59EB"/>
<circle cx="1322.37" cy="242.109" r="7.58522" fill="#1C59EB"/>
<circle cx="1345.63" cy="242.109" r="7.58522" fill="#1C59EB"/>
<circle cx="1368.89" cy="242.109" r="7.58522" fill="#1C59EB"/>
<circle cx="1392.15" cy="242.109" r="7.58522" fill="#1C59EB"/>
<circle cx="1415.41" cy="242.109" r="7.58522" fill="#1C59EB"/>
<circle cx="1252.59" cy="242.109" r="7.58522" fill="#1C59EB"/>
<circle cx="1275.85" cy="242.109" r="7.58522" fill="#1C59EB"/>
<circle cx="1299.11" cy="242.109" r="7.58522" fill="#1C59EB"/>
<circle cx="1322.37" cy="242.109" r="7.58522" fill="#1C59EB"/>
<circle cx="1345.63" cy="242.109" r="7.58522" fill="#1C59EB"/>
<circle cx="1368.89" cy="242.109" r="7.58522" fill="#1C59EB"/>
<circle cx="1392.15" cy="242.109" r="7.58522" fill="#1C59EB"/>
<circle cx="1415.41" cy="242.109" r="7.58522" fill="#1C59EB"/>
<circle cx="1252.59" cy="265.369" r="7.58522" fill="#1C59EB"/>
<circle cx="1275.85" cy="265.369" r="7.58522" fill="#1C59EB"/>
<circle cx="1299.11" cy="265.369" r="7.58522" fill="#1C59EB"/>
<circle cx="1322.37" cy="265.369" r="7.58522" fill="#1C59EB"/>
<circle cx="1345.63" cy="265.369" r="7.58522" fill="#1C59EB"/>
<circle cx="1368.89" cy="265.369" r="7.58522" fill="#1C59EB"/>
<circle cx="1392.15" cy="265.369" r="7.58522" fill="#1C59EB"/>
<circle cx="1415.41" cy="265.369" r="7.58522" fill="#1C59EB"/>
<circle cx="1252.59" cy="288.63" r="7.58522" fill="#1C59EB"/>
<circle cx="1275.85" cy="288.63" r="7.58522" fill="#1C59EB"/>
<circle cx="1299.11" cy="288.63" r="7.58522" fill="#1C59EB"/>
<circle cx="1322.37" cy="288.63" r="7.58522" fill="#1C59EB"/>
<circle cx="1345.63" cy="288.63" r="7.58522" fill="#1C59EB"/>
<circle cx="1368.89" cy="288.63" r="7.58522" fill="#1C59EB"/>
<circle cx="1392.15" cy="288.63" r="7.58522" fill="#1C59EB"/>
<circle cx="1415.41" cy="288.63" r="7.58522" fill="#1C59EB"/>
<circle cx="1252.59" cy="311.891" r="7.58522" fill="#1C59EB"/>
<circle cx="1275.85" cy="311.891" r="7.58522" fill="#1C59EB"/>
<circle cx="1299.11" cy="311.891" r="7.58522" fill="#1C59EB"/>
<circle cx="1322.37" cy="311.891" r="7.58522" fill="#1C59EB"/>
<circle cx="1345.63" cy="311.891" r="7.58522" fill="#1C59EB"/>
<circle cx="1368.89" cy="311.891" r="7.58522" fill="#1C59EB"/>
<circle cx="1392.15" cy="311.891" r="7.58522" fill="#1C59EB"/>
<circle cx="1415.41" cy="311.891" r="7.58522" fill="#1C59EB"/>
<circle cx="1252.59" cy="335.155" r="7.58522" fill="#1C59EB"/>
<circle cx="1275.85" cy="335.155" r="7.58522" fill="#1C59EB"/>
<circle cx="1299.11" cy="335.155" r="7.58522" fill="#1C59EB"/>
<circle cx="1322.37" cy="335.155" r="7.58522" fill="#1C59EB"/>
<circle cx="1345.63" cy="335.155" r="7.58522" fill="#1C59EB"/>
<circle cx="1368.89" cy="335.155" r="7.58522" fill="#1C59EB"/>
<circle cx="1392.15" cy="335.155" r="7.58522" fill="#1C59EB"/>
<circle cx="1415.41" cy="335.155" r="7.58522" fill="#1C59EB"/>
<circle cx="1252.59" cy="358.415" r="7.58522" fill="#1C59EB"/>
<circle cx="1275.85" cy="358.415" r="7.58522" fill="#1C59EB"/>
<circle cx="1299.11" cy="358.415" r="7.58522" fill="#1C59EB"/>
<circle cx="1322.37" cy="358.415" r="7.58522" fill="#1C59EB"/>
<circle cx="1345.63" cy="358.415" r="7.58522" fill="#1C59EB"/>
<circle cx="1368.89" cy="358.415" r="7.58522" fill="#1C59EB"/>
<circle cx="1392.15" cy="358.415" r="7.58522" fill="#1C59EB"/>
<circle cx="1415.41" cy="358.415" r="7.58522" fill="#1C59EB"/>
<circle cx="1252.59" cy="358.415" r="7.58522" fill="#1C59EB"/>
<circle cx="1275.85" cy="358.415" r="7.58522" fill="#1C59EB"/>
<circle cx="1299.11" cy="358.415" r="7.58522" fill="#1C59EB"/>
<circle cx="1322.37" cy="358.415" r="7.58522" fill="#1C59EB"/>
<circle cx="1345.63" cy="358.415" r="7.58522" fill="#1C59EB"/>
<circle cx="1368.89" cy="358.415" r="7.58522" fill="#1C59EB"/>
<circle cx="1392.15" cy="358.415" r="7.58522" fill="#1C59EB"/>
<circle cx="1415.41" cy="358.415" r="7.58522" fill="#1C59EB"/>
<circle cx="1275.85" cy="218.846" r="7.58522" fill="#1C59EB"/>
<circle cx="1299.11" cy="218.846" r="7.58522" fill="#1C59EB"/>
<circle cx="1322.37" cy="218.846" r="7.58522" fill="#1C59EB"/>
<circle cx="1345.63" cy="218.846" r="7.58522" fill="#1C59EB"/>
<circle cx="1368.89" cy="218.846" r="7.58522" fill="#1C59EB"/>
<circle cx="1392.15" cy="218.846" r="7.58522" fill="#1C59EB"/>
<circle cx="1415.41" cy="218.846" r="7.58522" fill="#1C59EB"/>
<circle cx="1252.59" cy="195.585" r="7.58522" fill="#1C59EB"/>
<circle cx="1275.85" cy="195.585" r="7.58522" fill="#1C59EB"/>
<circle cx="1299.11" cy="195.585" r="7.58522" fill="#1C59EB"/>
<circle cx="1322.37" cy="195.585" r="7.58522" fill="#1C59EB"/>
<circle cx="1345.63" cy="195.585" r="7.58522" fill="#1C59EB"/>
<circle cx="1368.89" cy="195.585" r="7.58522" fill="#1C59EB"/>
<circle cx="1392.15" cy="195.585" r="7.58522" fill="#1C59EB"/>
<circle cx="1415.41" cy="195.585" r="7.58522" fill="#1C59EB"/>
<circle cx="93" cy="398" r="15" fill="#ADF8A3"/>
<circle cx="93" cy="444" r="15" fill="#ADF8A3"/>
<circle cx="139" cy="444" r="15" fill="#ADF8A3"/>
<circle cx="139" cy="490" r="15" fill="#ADF8A3"/>
<circle cx="185" cy="490" r="15" fill="#ADF8A3"/>
<circle cx="231" cy="490" r="15" fill="#ADF8A3"/>
<circle cx="277" cy="490" r="15" fill="#ADF8A3"/>
<circle cx="323" cy="490" r="15" fill="#ADF8A3"/>
<circle cx="369" cy="490" r="15" fill="#ADF8A3"/>
<circle cx="415" cy="490" r="15" fill="#ADF8A3"/>
<circle cx="461" cy="490" r="15" fill="#ADF8A3"/>
<circle cx="507" cy="490" r="15" fill="#ADF8A3"/>
<circle cx="139" cy="490" r="15" fill="#ADF8A3"/>
<circle cx="185" cy="490" r="15" fill="#ADF8A3"/>
<circle cx="231" cy="490" r="15" fill="#ADF8A3"/>
<circle cx="277" cy="490" r="15" fill="#ADF8A3"/>
<circle cx="323" cy="490" r="15" fill="#ADF8A3"/>
<circle cx="369" cy="490" r="15" fill="#ADF8A3"/>
<circle cx="415" cy="490" r="15" fill="#ADF8A3"/>
<circle cx="461" cy="490" r="15" fill="#ADF8A3"/>
<circle cx="507" cy="490" r="15" fill="#ADF8A3"/>
<circle cx="139" cy="536" r="15" fill="#ADF8A3"/>
<circle cx="185" cy="536" r="15" fill="#ADF8A3"/>
<circle cx="231" cy="536" r="15" fill="#ADF8A3"/>
<circle cx="277" cy="536" r="15" fill="#ADF8A3"/>
<circle cx="323" cy="536" r="15" fill="#ADF8A3"/>
<circle cx="369" cy="536" r="15" fill="#ADF8A3"/>
<circle cx="415" cy="536" r="15" fill="#ADF8A3"/>
<circle cx="461" cy="536" r="15" fill="#ADF8A3"/>
<circle cx="507" cy="536" r="15" fill="#ADF8A3"/>
<circle cx="139" cy="582" r="15" fill="#ADF8A3"/>
<circle cx="185" cy="582" r="15" fill="#ADF8A3"/>
<circle cx="231" cy="582" r="15" fill="#ADF8A3"/>
<circle cx="277" cy="582" r="15" fill="#ADF8A3"/>
<circle cx="323" cy="582" r="15" fill="#ADF8A3"/>
<circle cx="369" cy="582" r="15" fill="#ADF8A3"/>
<circle cx="415" cy="582" r="15" fill="#ADF8A3"/>
<circle cx="461" cy="582" r="15" fill="#ADF8A3"/>
<circle cx="507" cy="582" r="15" fill="#ADF8A3"/>
<circle cx="139" cy="628" r="15" fill="#ADF8A3"/>
<circle cx="185" cy="628" r="15" fill="#ADF8A3"/>
<circle cx="231" cy="628" r="15" fill="#ADF8A3"/>
<circle cx="277" cy="628" r="15" fill="#ADF8A3"/>
<circle cx="323" cy="628" r="15" fill="#ADF8A3"/>
<circle cx="369" cy="628" r="15" fill="#ADF8A3"/>
<circle cx="415" cy="628" r="15" fill="#ADF8A3"/>
<circle cx="461" cy="628" r="15" fill="#ADF8A3"/>
<circle cx="507" cy="628" r="15" fill="#ADF8A3"/>
<circle cx="139" cy="674" r="15" fill="#ADF8A3"/>
<circle cx="185" cy="674" r="15" fill="#ADF8A3"/>
<circle cx="231" cy="674" r="15" fill="#ADF8A3"/>
<circle cx="277" cy="674" r="15" fill="#ADF8A3"/>
<circle cx="323" cy="674" r="15" fill="#ADF8A3"/>
<circle cx="369" cy="674" r="15" fill="#ADF8A3"/>
<circle cx="415" cy="674" r="15" fill="#ADF8A3"/>
<circle cx="461" cy="674" r="15" fill="#ADF8A3"/>
<circle cx="507" cy="674" r="15" fill="#ADF8A3"/>
<circle cx="139" cy="720" r="15" fill="#ADF8A3"/>
<circle cx="185" cy="720" r="15" fill="#ADF8A3"/>
<circle cx="231" cy="720" r="15" fill="#ADF8A3"/>
<circle cx="277" cy="720" r="15" fill="#ADF8A3"/>
<circle cx="323" cy="720" r="15" fill="#ADF8A3"/>
<circle cx="369" cy="720" r="15" fill="#ADF8A3"/>
<circle cx="415" cy="720" r="15" fill="#ADF8A3"/>
<circle cx="461" cy="720" r="15" fill="#ADF8A3"/>
<circle cx="507" cy="720" r="15" fill="#ADF8A3"/>
<circle cx="139" cy="720" r="15" fill="#ADF8A3"/>
<circle cx="185" cy="720" r="15" fill="#ADF8A3"/>
<circle cx="231" cy="720" r="15" fill="#ADF8A3"/>
<circle cx="277" cy="720" r="15" fill="#ADF8A3"/>
<circle cx="323" cy="720" r="15" fill="#ADF8A3"/>
<circle cx="369" cy="720" r="15" fill="#ADF8A3"/>
<circle cx="415" cy="720" r="15" fill="#ADF8A3"/>
<circle cx="461" cy="720" r="15" fill="#ADF8A3"/>
<circle cx="507" cy="720" r="15" fill="#ADF8A3"/>
<circle cx="185" cy="444" r="15" fill="#ADF8A3"/>
<circle cx="231" cy="444" r="15" fill="#ADF8A3"/>
<circle cx="277" cy="444" r="15" fill="#ADF8A3"/>
<circle cx="323" cy="444" r="15" fill="#ADF8A3"/>
<circle cx="369" cy="444" r="15" fill="#ADF8A3"/>
<circle cx="415" cy="444" r="15" fill="#ADF8A3"/>
<circle cx="461" cy="444" r="15" fill="#ADF8A3"/>
<circle cx="507" cy="444" r="15" fill="#ADF8A3"/>
<circle cx="93" cy="490" r="15" fill="#ADF8A3"/>
<circle cx="93" cy="536" r="15" fill="#ADF8A3"/>
<circle cx="93" cy="582" r="15" fill="#ADF8A3"/>
<circle cx="93" cy="628" r="15" fill="#ADF8A3"/>
<circle cx="93" cy="674" r="15" fill="#ADF8A3"/>
<circle cx="93" cy="720" r="15" fill="#ADF8A3"/>
<circle cx="139" cy="398" r="15" fill="#ADF8A3"/>
<circle cx="185" cy="398" r="15" fill="#ADF8A3"/>
<circle cx="231" cy="398" r="15" fill="#ADF8A3"/>
<circle cx="277" cy="398" r="15" fill="#ADF8A3"/>
<circle cx="323" cy="398" r="15" fill="#ADF8A3"/>
<circle cx="369" cy="398" r="15" fill="#ADF8A3"/>
<circle cx="415" cy="398" r="15" fill="#ADF8A3"/>
<circle cx="461" cy="398" r="15" fill="#ADF8A3"/>
<circle cx="507" cy="398" r="15" fill="#ADF8A3"/>
<path d="M1423 1016.43H0C0 1016.43 41 786.432 199 792.432C357 798.432 259.9 624.932 273 508.432C293 330.432 659.6 193.932 792 511.432C870 698.432 971 654.432 1047 635.432C1090.1 624.632 1159 670.432 1148 781.432C1130.5 958.132 1189 970.432 1271 952.432C1353 934.432 1423 1016.43 1423 1016.43Z" fill="url(#paint0_linear)"/>
<g filter="url(#filter1_d)">
<path d="M772 109.433C772 109.433 801.8 104.633 800.6 134.333C799.5 164.033 788.7 195.633 788.7 195.633C788.7 195.633 784.7 213.333 792.8 230.433C792.8 230.433 742.6 223.633 734.3 200.133L736.3 114.233L772 109.433Z" fill="#0C2F3D"/>
<path d="M759.4 282.233L756.7 201.433C756.7 201.433 802.6 213.533 785.4 125.633C785.4 125.633 768 108.033 745.9 119.133C723.7 130.233 722.7 151.233 722.7 151.233L709.3 275.333L759.4 282.233Z" fill="#FFAAAD"/>
<path d="M784.6 122.433C784.6 122.433 776.3 134.233 766.1 140.533C757.5 145.833 747.1 145.533 743.2 147.733C743.2 147.733 732.7 188.833 754.2 226.233C754.2 226.233 723.4 226.633 701.4 197.633C701.4 197.633 705.4 205.033 709.6 210.833C709.6 210.833 672.2 212.333 694.9 128.333C709.6 73.9326 774.3 100.333 784 109.533L784.6 122.433Z" fill="#0C2F3D"/>
<path d="M714.4 817.533C698.2 887.733 681.5 961.433 680.7 971.133C680.1 977.433 706.3 990.333 706.3 990.333L646.2 989.033L667.5 806.933L681.8 684.433H745.4C745.4 684.433 730.1 749.333 714.4 817.533Z" fill="#FFAAAD"/>
<path d="M644.6 973.932L641.1 998.033C640.2 1004.03 644.9 1009.33 650.9 1009.33H737.2C739.5 1009.33 740.2 1006.23 738.2 1005.23L699.2 985.732C698.8 985.532 698.3 985.433 697.9 985.533C692.7 986.433 659.2 991.232 648.8 973.132C647.6 971.432 644.9 971.932 644.6 973.932Z" fill="#173A49"/>
<path d="M815.2 990.233L755.1 988.933L757.8 815.833L759.8 684.433H823.4C823.4 684.433 816.6 741.433 809 804.733C800.2 878.533 790.5 960.833 789.6 971.033C789.1 977.333 815.2 990.233 815.2 990.233Z" fill="#FFAAAD"/>
<path opacity="0.1" d="M745.4 684.433C745.4 684.433 730.1 749.333 714.4 817.533C696 817.433 685 811.333 667.5 806.933L681.8 684.433H745.4Z" fill="black"/>
<path opacity="0.1" d="M823.4 684.433C823.4 684.433 816.6 741.433 809 804.733C791 811.433 774 814.433 757.7 815.833L759.7 684.433H823.4Z" fill="black"/>
<path d="M753.6 973.932L750.1 998.033C749.2 1004.03 753.9 1009.33 759.9 1009.33H846.2C848.5 1009.33 849.2 1006.23 847.2 1005.23L808.2 985.732C807.8 985.532 807.3 985.433 806.9 985.533C801.7 986.433 768.2 991.232 757.8 973.132C756.6 971.432 753.9 971.932 753.6 973.932Z" fill="#173A49"/>
<path d="M686.5 413.933L804.5 421.933C804.5 421.933 807.5 747.933 806.5 792.933C806.5 792.933 716.5 829.933 636.5 782.933C636.5 782.933 657.5 520.933 686.5 413.933Z" fill="#123245"/>
<path d="M712 250.433C712 250.433 729.4 268.933 746 274.433C749 275.433 756.8 260.233 768 250.433L791.5 429.933C791.5 429.933 753.5 446.933 718.5 429.933L712 250.433Z" fill="#0A75C4"/>
<path d="M913 298.433L938 326.433L874.9 397.233C869.2 403.633 859.1 403.433 853.6 396.833L804.5 337.033L789 246.433C789 246.433 809.5 250.033 822.5 265.033L873 341.433L913 298.433Z" fill="url(#paint1_linear)"/>
<path d="M725.1 470.433C714.2 636.233 690.5 857.933 690.5 857.933C658.5 859.933 597.5 839.933 597.5 839.933L643.6 560.533L665.5 427.933L656.8 431.433L637.5 439.233C619.5 446.533 601 429.933 606.2 411.233L646.6 266.433C648.4 259.933 653.4 254.733 659.9 252.833L697.6 241.333L705 236.533C705 236.533 710.4 241.433 712.9 247.533C717.5 258.833 722 281.533 724 305.533C725.2 319.333 731 381.633 725.1 470.433Z" fill="url(#paint2_linear)"/>
<path d="M812.5 413.933C812.5 413.933 805.5 384.933 812.5 342.933C812.5 342.933 817.5 307.933 803.5 273.933L792.5 246.933L769 242.433L758 236.433C758 236.433 778.5 324.933 780.5 467.933L801.5 863.933C801.5 863.933 836.5 864.933 848.5 852.933C848.5 852.933 838.5 517.933 812.5 413.933Z" fill="url(#paint3_linear)"/>
<path d="M719.1 564.533L717.1 564.433C717.2 523.333 716 462.533 712 426.533C706.1 373.233 686.2 307.333 686 306.733L685.8 305.933L704.1 295.333L679.6 277.733L705.9 235.633L710.4 242.733L723.9 287.333V287.433C724 288.333 729 380.833 728.4 409.033C727.7 447.433 719.2 563.333 719.1 564.533ZM688.2 306.933C690.4 314.433 708.4 375.933 714 426.333C717.2 455.133 718.7 499.833 719 537.633C721.6 500.733 725.9 435.833 726.4 408.933C727 381.233 722.1 291.433 721.9 287.633L708.5 243.433L705.9 239.333L682.2 277.233L707.7 295.633L688.2 306.933Z" fill="#0C2F3D"/>
<path d="M788 542.532C783.2 477.432 793.2 308.932 794 296.132L778.8 290.732L796.5 279.232L757.3 237.132L758.8 235.732L799.6 279.632L783.3 290.132L796.1 294.732V295.532C796 297.332 785.2 475.232 790.1 542.432L788 542.532Z" fill="#0C2F3D"/>
<path d="M793.7 388.832L749.7 398.432L717.7 391.232L706.8 395.732L700.1 398.432L694.5 378.432L696.3 378.232L712.9 376.832L721.7 372.032C743.3 364.032 767.3 372.032 767.3 372.032C761.7 379.232 756.9 375.232 749.7 376.832C742.5 378.432 744.9 381.632 744.9 381.632L759.3 384.832L785.7 381.632C789.7 382.432 793.7 388.832 793.7 388.832Z" fill="#FFAAAD"/>
<path d="M710.7 232.832C710.7 232.832 702 243.432 703 251.432C704 259.432 718 283.432 718 283.432L729 266.432L747 277.432L764 259.432L778.5 273.632C778.5 273.632 778 247.432 758 237.432C758 237.432 758 244.432 756 251.432C750.7 270.132 748 271.432 748 271.432C748 271.432 729.8 261.332 721 249.432C715.3 241.632 709.9 231.732 710.7 232.832Z" fill="#045593"/>
<path opacity="0.1" d="M663 381.433L670 340.433L674.6 379.133L663 381.433Z" fill="black"/>
<path d="M804.696 335.71L803.152 336.98L847.361 390.739L848.906 389.469L804.696 335.71Z" fill="#0C2F3D"/>
<path d="M663.8 372.733L651.2 370.833C645.5 369.933 641.5 364.833 642.1 359.133L646.1 316.633L649.8 316.933L645.8 359.433C645.4 363.133 648.1 366.533 651.8 367.133L664.4 369.033L663.8 372.733Z" fill="#A0A0A0"/>
<path d="M685.2 372.733L697.8 370.833C703.5 369.933 707.5 364.833 706.9 359.133L702.9 316.633L699.2 316.933L703.2 359.433C703.6 363.133 700.9 366.533 697.2 367.133L684.6 369.033L685.2 372.733Z" fill="#A0A0A0"/>
<path d="M659.9 370.233C659.7 372.133 661 373.833 662.9 374.133L666.1 374.533C668 374.733 669.7 373.433 670 371.533C670.2 369.633 668.9 367.933 667 367.633L663.8 367.233C661.8 367.033 660.1 368.333 659.9 370.233Z" fill="#123245"/>
<path d="M689.1 370.233C689.3 372.133 688 373.833 686.1 374.133L682.9 374.533C681 374.733 679.3 373.433 679 371.533C678.8 369.633 680.1 367.933 682 367.633L685.2 367.233C687.2 367.033 688.9 368.333 689.1 370.233Z" fill="#123245"/>
<path d="M691.8 290.133C687.6 286.133 682.3 283.733 676.7 283.233C678.7 272.733 686.3 246.233 713.7 236.333L712.3 232.533C682.5 243.333 674.6 272.233 672.6 283.133C672.5 283.133 672.5 283.133 672.4 283.133C662.2 283.733 654.2 290.233 649.3 301.933C646.6 308.433 645.5 314.733 645.2 317.533C645.1 318.333 645.7 319.033 646.5 319.133L649 319.333C649.7 319.433 650.4 318.833 650.5 318.133C651.3 312.333 655.4 289.533 672.8 288.433C679.3 288.033 694.7 290.233 698.7 318.133C698.8 318.833 699.5 319.433 700.2 319.333L702.7 319.033C703.5 318.933 704 318.233 703.9 317.433C702.1 305.233 698.1 296.033 691.8 290.133Z" fill="#123245"/>
<path d="M804 299.533C802.8 279.833 794.6 263.733 779.7 251.733C768.5 242.633 757.5 239.433 757.4 239.333L758.5 235.533C759 235.633 770.3 239.033 782.1 248.533C793 257.333 806.4 273.333 808 299.333L804 299.533Z" fill="#123245"/>
<path d="M806.4 318.432C812.807 318.432 818 313.239 818 306.832C818 300.426 812.807 295.232 806.4 295.232C799.994 295.232 794.8 300.426 794.8 306.832C794.8 313.239 799.994 318.432 806.4 318.432Z" fill="#A0A0A0"/>
<path d="M806.4 313.233C809.935 313.233 812.8 310.367 812.8 306.833C812.8 303.298 809.935 300.433 806.4 300.433C802.865 300.433 800 303.298 800 306.833C800 310.367 802.865 313.233 806.4 313.233Z" fill="#123245"/>
<path d="M892.3 229.433H991.3L941 361.433H842L892.3 229.433Z" fill="url(#paint4_linear)"/>
<path d="M974.4 289.932H958.6C957.5 289.932 956.6 289.232 956.4 288.132C956.1 286.432 956.4 283.932 960.2 282.032H956.3C953.2 282.032 951.5 278.432 953.5 276.032C954 275.432 954.6 274.832 955.5 274.132L951.6 273.132C949.4 272.532 947.9 270.432 948.3 268.132C948.4 267.832 948.4 267.532 948.6 267.232C949.3 265.632 950.9 264.632 952.6 264.632H965C965 264.632 960.3 258.332 968.1 256.732H980.7C980.7 256.732 983.8 259.832 980.7 264.632C980.7 264.632 983.8 270.932 977.6 274.032C977.6 274.032 980.7 278.732 976 281.932C975.9 282.032 977.5 286.832 974.4 289.932Z" fill="#FFAAAD"/>
<path d="M981 263.433H965V265.433H981V263.433Z" fill="#0C2F3D"/>
<path d="M954.292 272.903L954.25 274.902L977.845 275.397L977.887 273.398L954.292 272.903Z" fill="#0C2F3D"/>
<path d="M958.523 281.119L958.482 283.118L975.979 283.475L976.02 281.475L958.523 281.119Z" fill="#0C2F3D"/>
<path d="M692.1 378.433L691.9 376.433L635.9 383.433L636.1 385.433L680.2 379.933L687 406.633L689 406.233L682.2 379.633L692.1 378.433Z" fill="#0C2F3D"/>
<path opacity="0.1" d="M643.6 560.533L665.5 427.933L656.8 431.433L681 421.433L643.6 560.533Z" fill="black"/>
<path opacity="0.1" d="M706.8 395.732L700.1 398.432L694.5 378.432L696.3 378.332L706.8 395.732Z" fill="black"/>
</g>
<path d="M1167.4 942.533V1015.43H482V942.133L1167.4 942.533Z" fill="url(#paint5_linear)"/>
<path d="M493 942.533V1015.43H213V942.133L493 942.533Z" fill="url(#paint6_linear)"/>
<path d="M1231.8 495.533H463V970.233H1231.8V495.533Z" fill="#C0C6CB"/>
<path d="M492.4 496.233H179.6V970.933H492.4V496.233Z" fill="#8B969F"/>
<path d="M1251 496.333V532.433H463V496.133L1251 496.333Z" fill="url(#paint7_linear)"/>
<path d="M491 496.333V532.433H138V496.133L491 496.333Z" fill="url(#paint8_linear)"/>
<path d="M1232 620.133H492.4V661.433H1232V620.133Z" fill="#8B969F"/>
<path d="M1232 713.133H492.4V754.433H1232V713.133Z" fill="#8B969F"/>
<path d="M1232 808.133H492.4V849.433H1232V808.133Z" fill="#8B969F"/>
<path d="M673.5 877.434C752.753 877.434 817 813.186 817 733.934C817 654.681 752.753 590.434 673.5 590.434C594.247 590.434 530 654.681 530 733.934C530 813.186 594.247 877.434 673.5 877.434Z" fill="#8B969F"/>
<path d="M691.5 877C770.753 877 835 812.753 835 733.5C835 654.247 770.753 590 691.5 590C612.247 590 548 654.247 548 733.5C548 812.753 612.247 877 691.5 877Z" fill="white"/>
<circle cx="691.222" cy="733.222" r="107.222" fill="url(#paint9_linear)"/>
<circle cx="690.762" cy="732.762" r="54.4939" fill="url(#paint10_linear)"/>
<circle cx="689.989" cy="731.99" r="25.5332" fill="url(#paint11_linear)"/>
<path d="M585.9 303.133L601.6 444.733C602.5 452.433 596.4 459.233 588.6 459.233H378.3C371.6 459.233 366 454.233 365.3 447.633L349.6 306.033C348.7 298.333 354.8 291.533 362.6 291.533H573C579.5 291.533 585.1 296.533 585.9 303.133Z" fill="#133346"/>
<path d="M338.4 306.033L354.1 447.633C354.8 454.233 360.4 459.233 367.1 459.233H577.4C585.2 459.233 591.3 452.433 590.4 444.733L574.7 303.133C574 296.533 568.4 291.533 561.7 291.533H351.3C343.6 291.533 337.5 298.233 338.4 306.033Z" fill="#A6A5BC"/>
<path d="M493.3 386.533H470.9V459.233H493.3V386.533Z" fill="#133346"/>
<path d="M493.3 386.533H446.7L416.9 496.533H532.4V485.333H469L493.3 386.533Z" fill="#A6A5BC"/>
<path d="M524 442.434H520V448.434H524V442.434Z" fill="#133346"/>
<path d="M533 442.434H529V448.434H533V442.434Z" fill="#133346"/>
<path d="M542 442.434H538V448.434H542V442.434Z" fill="#133346"/>
<path d="M551 442.434H547V448.434H551V442.434Z" fill="#133346"/>
<path d="M1213.1 979.633C1212.9 977.233 1212.3 974.233 1211.5 970.833C1206.2 948.533 1190.4 908.133 1190.4 908.133H1235.7L1241.4 960.433L1245.3 996.333L1189.3 997.533C1189.2 997.533 1213.6 985.533 1213.1 979.633Z" fill="#FCB9C0"/>
<path d="M1246.7 982.333L1250 1004.83C1250.8 1010.43 1246.5 1015.43 1240.9 1015.43H1160.5C1158.4 1015.43 1157.7 1012.53 1159.6 1011.63L1196 993.433C1196.4 993.233 1196.8 993.133 1197.2 993.233C1202.1 994.033 1233.2 998.533 1243 981.733C1243.9 980.033 1246.4 980.433 1246.7 982.333Z" fill="#0C2F3D"/>
<path d="M1114.3 908.133L1111 960.633L1108.7 996.333L1054.8 997.533C1054.8 997.533 1079.2 985.533 1078.6 979.633C1078.3 976.833 1078 973.033 1077.5 968.833C1075 946.233 1070 908.133 1070 908.133H1114.3V908.133Z" fill="#FCB9C0"/>
<path d="M1112.3 982.333L1115.6 1004.83C1116.4 1010.43 1112.1 1015.43 1106.5 1015.43H1026C1023.9 1015.43 1023.2 1012.53 1025.1 1011.63L1061.5 993.433C1061.9 993.233 1062.3 993.133 1062.7 993.233C1067.6 994.033 1098.7 998.533 1108.5 981.733C1109.5 980.033 1112 980.433 1112.3 982.333Z" fill="#0C2F3D"/>
<path d="M1116.6 293.633L1105 247.433C1105 247.433 1044 272.133 1067.9 169.133C1067.9 169.133 1077.8 140.233 1121.5 155.133C1121.5 155.133 1139.6 158.433 1141.3 191.433C1142.9 224.433 1159.4 288.733 1159.4 288.733L1116.6 293.633Z" fill="#FCB9C0"/>
<path opacity="0.1" d="M1114.3 908.133L1111 960.633L1077.6 968.833C1075.1 946.233 1070.1 908.133 1070.1 908.133H1114.3Z" fill="black"/>
<path opacity="0.1" d="M1241.4 960.433L1211.5 970.833C1206.2 948.533 1190.4 908.133 1190.4 908.133H1235.7L1241.4 960.433Z" fill="black"/>
<path d="M1191.7 360.333L1191.4 375.533L1190.7 413.933L1155.6 585.533H1127.3L1150.7 419.833L1144.7 376.533L1142 356.433L1191.7 360.333Z" fill="#FCB9C0"/>
<path opacity="0.1" d="M1191.7 360.333L1191.4 375.533L1144.7 376.533L1142 356.433L1191.7 360.333Z" fill="black"/>
<path d="M1251.5 959.833H1217.9C1203.2 959.833 1189.9 959.833 1189.9 959.833C1189.9 959.833 1114.9 718.233 1112.6 698.433L1118.2 774.633L1131.9 959.933H1069.6L1039.5 667.633V452.733L1152.6 441.933C1152.6 441.933 1161.3 456.733 1170.5 480.133C1182.9 511.833 1196.1 559.233 1190 607.433L1200.7 736.333C1200.7 736.333 1253.7 959.833 1251.5 959.833Z" fill="url(#paint12_linear)"/>
<path opacity="0.2" d="M1170.4 480.033L1039.4 465.633V452.633L1152.5 441.833C1152.6 441.833 1161.3 456.633 1170.4 480.033Z" fill="black"/>
<path d="M1158.8 408.832C1157 420.832 1159.5 456.932 1159.5 456.932L1072.9 459.832L1052 460.532L1031 395.432L1032.8 385.332L1033.1 383.832C1044.1 312.432 1052.5 290.632 1062.7 280.932C1065.2 278.532 1087 270.732 1103.3 265.232C1113.3 261.832 1121.2 259.232 1121.2 259.232C1130.9 260.332 1157.3 273.432 1175.1 298.932C1181.2 307.632 1185.3 318.332 1188 328.832C1193.3 349.132 1193.6 368.132 1193.6 368.132L1168.6 368.832C1168.6 368.832 1160.3 398.832 1158.8 408.832Z" fill="url(#paint13_linear)"/>
<path opacity="0.1" d="M1188 328.832C1174.3 315.532 1159 320.432 1159 320.432C1098 320.432 1093 271.432 1093 271.432L1103.3 265.232C1113.3 261.832 1121.2 259.232 1121.2 259.232C1130.9 260.332 1157.3 273.432 1175.1 298.932C1181.2 307.532 1185.3 318.332 1188 328.832Z" fill="black"/>
<path d="M1081.5 388.833L1076.8 402.133L1055 464.233C1052.4 472.433 1045.5 478.433 1037 479.733L933 496.433H864L869.5 490.033C871.9 487.333 874.9 485.233 878.3 484.033L914.3 471.533C916.4 470.833 918.7 470.533 921 470.833L937.5 472.733L1018.4 440.633L1031.4 391.433L1032.4 387.533L1081.5 388.833Z" fill="#FCB9C0"/>
<path d="M1127.4 911.432L1112.6 700.832L1112.7 700.732L1127.7 571.732L1129.6 572.032L1114.6 700.832L1129.3 911.332L1127.4 911.432Z" fill="white"/>
<path d="M1181.7 234.333C1169.9 226.733 1164 219.133 1163.7 184.533C1163.4 149.933 1139.6 144.233 1139.6 144.233C1111 118.933 1068.6 138.633 1062.2 156.733C1055.2 176.533 1079.6 173.633 1086.1 178.333C1091.6 182.333 1093.3 197.833 1093.9 204.833C1094.1 207.333 1093.2 210.433 1093.5 212.733C1092.4 219.933 1089.1 232.533 1085.7 245.233C1083.5 253.533 1083.2 271.333 1088.2 282.233C1088.2 282.233 1082.4 258.333 1092.4 237.633C1093.9 234.633 1095.7 230.233 1097.2 225.533C1097 230.633 1095.1 235.733 1094 239.333C1090.5 250.633 1084 273.833 1097.5 291.533C1110.5 308.633 1165.7 321.033 1190.1 299.133C1214.6 277.233 1193.5 241.833 1181.7 234.333Z" fill="#0C2F3D"/>
<path opacity="0.1" d="M1081.5 388.833L1076.8 402.033L1031.4 391.433L1032.4 387.633L1081.5 388.833Z" fill="black"/>
<path opacity="0.1" d="M1189.9 959.833C1189.9 959.833 1114.9 718.233 1112.6 698.433L1125 613.533C1129 733.533 1190.5 902.133 1217.9 959.933C1203.2 959.833 1189.9 959.833 1189.9 959.833Z" fill="black"/>
<path d="M279.1 402.532C279.1 402.532 283.5 389.332 295 383.132C295 383.132 307.3 378.232 309.5 374.932C309.5 375.032 294.1 395.532 279.1 402.532Z" fill="url(#paint14_linear)"/>
<path d="M272.2 474.432H268.7C268.7 474.432 265.6 428.132 255 403.432C253.2 399.232 251.9 393.732 245.4 388.032C236.5 380.232 218.6 368.932 184 359.832L162.3 352.832L162 352.732C162 352.732 170.4 347.932 175.7 348.732C175.7 348.732 192.9 338.632 202.6 349.132C202.6 349.132 222 344.732 226.4 355.332C226.4 355.332 255.5 353.532 248.4 385.332C248.4 385.432 264.7 396.432 272.2 474.432Z" fill="url(#paint15_linear)"/>
<path d="M274.3 468.232C274.3 468.232 276.1 429.432 278.7 418.032C278.7 418.032 285.3 400.832 296.8 392.932C296.8 392.932 310.9 383.232 310 374.432C310 374.432 300.3 388.532 284.4 394.732C284.4 394.732 258.8 407.932 274.7 424.732L272.1 470.532L274.3 468.232Z" fill="url(#paint16_linear)"/>
<path d="M245.4 388.032C236.5 380.232 218.6 368.932 184 359.832L162.3 352.832C170.4 352.132 184 352.032 191.1 358.032C191.1 358.032 216.7 352.732 226.4 369.532C227.8 371.932 231.7 372.132 237 372.132C241.9 372.132 247.6 372.932 245.4 388.032Z" fill="url(#paint17_linear)"/>
<path d="M246.2 452.432L254.7 496.432H291.6L300.1 452.432H246.2Z" fill="url(#paint18_linear)"/>
<path opacity="0.08" d="M277.5 496.432H291.6L300.1 452.432H284.4L277.5 496.432Z" fill="black"/>
<path d="M176 761.133C176 761.133 138.9 515.933 257.9 548.333C257.9 548.433 316.6 575.433 176 761.133Z" fill="url(#paint19_linear)"/>
<path d="M206.6 761.133C206.6 761.133 263.3 625.933 346.3 667.333C346.3 667.433 374.3 699.833 206.6 761.133Z" fill="url(#paint20_linear)"/>
<path d="M151.9 767.033C151.9 767.033 46.3 703.533 59.7 668.833C59.7 668.933 98.9 626.233 151.9 767.033Z" fill="url(#paint21_linear)"/>
<path d="M134.4 816.333C134.4 816.333 51.8 770.133 47.3 800.933C47.3 800.933 44.5 826.233 134.4 816.333Z" fill="url(#paint22_linear)"/>
<path d="M193.6 848.432C188.9 850.432 231.6 759.532 276 782.232C276 782.232 302.9 801.732 193.6 848.432Z" fill="url(#paint23_linear)"/>
<path d="M174 873.833L170.4 873.733C171 859.033 166.3 846.333 156.6 835.833C128.2 805.333 65.3001 803.233 64.7001 803.233L64.8001 799.633C67.4001 799.733 129.8 801.833 159.2 833.333C169.6 844.533 174.6 858.133 174 873.833Z" fill="#2B322A"/>
<path d="M177.7 894.432L174.1 894.332C175.1 869.332 191.4 842.832 221.4 817.832C243.9 799.032 266.4 787.432 266.6 787.332L268.2 790.532C267.3 791.032 179.9 836.332 177.7 894.432Z" fill="#2B322A"/>
<path d="M179.7 885.032C173.9 848.932 178 815.232 192 785.132C203.2 761.032 220.6 739.132 243.8 719.932C283.2 687.432 326.4 673.932 326.8 673.832L327.9 677.232C327.5 677.332 284.9 690.632 246 722.732C210.3 752.232 170.4 804.232 183.3 884.432L179.7 885.032Z" fill="#2B322A"/>
<path d="M183.1 910.333C172.8 868.633 169.2 824.533 172.5 779.433C175.1 743.333 182.1 706.433 193.3 669.833C212.3 607.433 237.2 566.833 237.4 566.433L240.5 568.333C240.3 568.733 215.6 609.033 196.7 671.033C179.3 728.133 163.4 815.933 186.6 909.533L183.1 910.333Z" fill="#2B322A"/>
<path d="M176.9 896.733H173.3C173.9 810.333 147 755.433 124.2 724.633C99.6 691.333 74.7 678.333 74.5 678.133L76.1 674.933C77.1 675.433 102 688.533 127.1 722.433C150.2 753.733 177.5 809.333 176.9 896.733Z" fill="#2B322A"/>
<path d="M235.5 872.933L235.4 873.233L215.7 1015.43H136.3L116.5 872.933H235.5Z" fill="url(#paint24_linear)"/>
<path opacity="0.1" d="M235.4 873.232L215.7 1015.43H136.6C167.2 993.832 216 948.932 235.4 873.232Z" fill="black"/>
<defs>
<filter id="filter0_d" x="427" y="0" width="624" height="624" filterUnits="userSpaceOnUse" color-interpolation-filters="sRGB">
<feFlood flood-opacity="0" result="BackgroundImageFix"/>
<feColorMatrix in="SourceAlpha" type="matrix" values="0 0 0 0 0 0 0 0 0 0 0 0 0 0 0 0 0 0 127 0"/>
<feOffset dy="5"/>
<feGaussianBlur stdDeviation="6"/>
<feColorMatrix type="matrix" values="0 0 0 0 0.623529 0 0 0 0 0.721569 0 0 0 0 0.960784 0 0 0 1 0"/>
<feBlend mode="normal" in2="BackgroundImageFix" result="effect1_dropShadow"/>
<feBlend mode="normal" in="SourceGraphic" in2="effect1_dropShadow" result="shape"/>
</filter>
<filter id="filter1_d" x="585.5" y="88" width="417.8" height="938.332" filterUnits="userSpaceOnUse" color-interpolation-filters="sRGB">
<feFlood flood-opacity="0" result="BackgroundImageFix"/>
<feColorMatrix in="SourceAlpha" type="matrix" values="0 0 0 0 0 0 0 0 0 0 0 0 0 0 0 0 0 0 127 0"/>
<feOffset dy="5"/>
<feGaussianBlur stdDeviation="6"/>
<feColorMatrix type="matrix" values="0 0 0 0 0.623529 0 0 0 0 0.721569 0 0 0 0 0.960784 0 0 0 1 0"/>
<feBlend mode="normal" in2="BackgroundImageFix" result="effect1_dropShadow"/>
<feBlend mode="normal" in="SourceGraphic" in2="effect1_dropShadow" result="shape"/>
</filter>
<linearGradient id="paint0_linear" x1="711.5" y1="1041.43" x2="711.5" y2="385.432" gradientUnits="userSpaceOnUse">
<stop stop-color="#D3E9FE"/>
<stop offset="1" stop-color="#E9F6FF"/>
</linearGradient>
<linearGradient id="paint1_linear" x1="930.301" y1="359.124" x2="778.808" y2="308.126" gradientUnits="userSpaceOnUse">
<stop stop-color="#DCE9FF"/>
<stop offset="1" stop-color="#B6D2FF"/>
</linearGradient>
<linearGradient id="paint2_linear" x1="672.933" y1="265.509" x2="649.081" y2="829.022" gradientUnits="userSpaceOnUse">
<stop stop-color="#DCE9FF"/>
<stop offset="1" stop-color="#B6D2FF"/>
</linearGradient>
<linearGradient id="paint3_linear" x1="784.604" y1="260.236" x2="826.324" y2="841.347" gradientUnits="userSpaceOnUse">
<stop stop-color="#DCE9FF"/>
<stop offset="1" stop-color="#B6D2FF"/>
</linearGradient>
<linearGradient id="paint4_linear" x1="999.939" y1="252.049" x2="855.924" y2="327.057" gradientUnits="userSpaceOnUse">
<stop stop-color="#2B233C"/>
<stop offset="1" stop-color="#635C70"/>
</linearGradient>
<linearGradient id="paint5_linear" x1="482" y1="978.77" x2="1167.39" y2="978.77" gradientUnits="userSpaceOnUse">
<stop stop-color="#2B233C"/>
<stop offset="1" stop-color="#635C70"/>
</linearGradient>
<linearGradient id="paint6_linear" x1="213" y1="978.77" x2="493" y2="978.77" gradientUnits="userSpaceOnUse">
<stop stop-color="#2B233C"/>
<stop offset="1" stop-color="#635C70"/>
</linearGradient>
<linearGradient id="paint7_linear" x1="463" y1="514.27" x2="1251" y2="514.27" gradientUnits="userSpaceOnUse">
<stop stop-color="#2B233C"/>
<stop offset="1" stop-color="#635C70"/>
</linearGradient>
<linearGradient id="paint8_linear" x1="138" y1="514.27" x2="491" y2="514.27" gradientUnits="userSpaceOnUse">
<stop stop-color="#2B233C"/>
<stop offset="1" stop-color="#635C70"/>
</linearGradient>
<linearGradient id="paint9_linear" x1="615" y1="808.5" x2="768.5" y2="659" gradientUnits="userSpaceOnUse">
<stop stop-color="#232A3A"/>
<stop offset="1" stop-color="#54565D"/>
</linearGradient>
<linearGradient id="paint10_linear" x1="652" y1="772.5" x2="734" y2="698.5" gradientUnits="userSpaceOnUse">
<stop stop-color="#1C59EB"/>
<stop offset="1" stop-color="#9FAFF6"/>
</linearGradient>
<linearGradient id="paint11_linear" x1="673" y1="749" x2="710.5" y2="716" gradientUnits="userSpaceOnUse">
<stop stop-color="#C2CBED"/>
<stop offset="1" stop-color="white"/>
</linearGradient>
<linearGradient id="paint12_linear" x1="1114.24" y1="449.189" x2="1157.1" y2="947.898" gradientUnits="userSpaceOnUse">
<stop stop-color="#29056B"/>
<stop offset="1" stop-color="#6C93F5"/>
</linearGradient>
<linearGradient id="paint13_linear" x1="1048.9" y1="445.178" x2="1165.99" y2="301.112" gradientUnits="userSpaceOnUse">
<stop stop-color="#E3356F"/>
<stop offset="1" stop-color="#E882AC"/>
</linearGradient>
<linearGradient id="paint14_linear" x1="309.513" y1="388.783" x2="279.107" y2="388.783" gradientUnits="userSpaceOnUse">
<stop stop-color="#1C59EB"/>
<stop offset="1" stop-color="#6AF2ED"/>
</linearGradient>
<linearGradient id="paint15_linear" x1="272.763" y1="460.178" x2="191.074" y2="339.115" gradientUnits="userSpaceOnUse">
<stop stop-color="#1C59EB"/>
<stop offset="1" stop-color="#6AF2ED"/>
</linearGradient>
<linearGradient id="paint16_linear" x1="310" y1="422.413" x2="269.507" y2="422.413" gradientUnits="userSpaceOnUse">
<stop stop-color="#2F0A6E"/>
<stop offset="1" stop-color="#5B24B9"/>
</linearGradient>
<linearGradient id="paint17_linear" x1="245.902" y1="370.31" x2="162.291" y2="370.31" gradientUnits="userSpaceOnUse">
<stop stop-color="#2F0A6E"/>
<stop offset="1" stop-color="#5B24B9"/>
</linearGradient>
<linearGradient id="paint18_linear" x1="293.075" y1="474.423" x2="250.299" y2="474.423" gradientUnits="userSpaceOnUse">
<stop stop-color="#E3356F"/>
<stop offset="1" stop-color="#E882AC"/>
</linearGradient>
<linearGradient id="paint19_linear" x1="175.882" y1="725.752" x2="250.186" y2="532.218" gradientUnits="userSpaceOnUse">
<stop stop-color="#1C59EB"/>
<stop offset="1" stop-color="#6AF2ED"/>
</linearGradient>
<linearGradient id="paint20_linear" x1="206.617" y1="710.339" x2="348.032" y2="710.339" gradientUnits="userSpaceOnUse">
<stop stop-color="#1C59EB"/>
<stop offset="1" stop-color="#6AF2ED"/>
</linearGradient>
<linearGradient id="paint21_linear" x1="151.351" y1="756.914" x2="58.3695" y2="660.489" gradientUnits="userSpaceOnUse">
<stop stop-color="#1C59EB"/>
<stop offset="1" stop-color="#6AF2ED"/>
</linearGradient>
<linearGradient id="paint22_linear" x1="121.421" y1="812.244" x2="38.3476" y2="798.398" gradientUnits="userSpaceOnUse">
<stop stop-color="#1C59EB"/>
<stop offset="1" stop-color="#6AF2ED"/>
</linearGradient>
<linearGradient id="paint23_linear" x1="193.242" y1="813.541" x2="278.921" y2="813.541" gradientUnits="userSpaceOnUse">
<stop stop-color="#1C59EB"/>
<stop offset="1" stop-color="#6AF2ED"/>
</linearGradient>
<linearGradient id="paint24_linear" x1="116.47" y1="944.203" x2="235.48" y2="944.203" gradientUnits="userSpaceOnUse">
<stop stop-color="#E3356F"/>
<stop offset="1" stop-color="#E882AC"/>
</linearGradient>
</defs>
</svg>
