<svg width="617" height="560" viewBox="0 0 617 560" fill="none" xmlns="http://www.w3.org/2000/svg">
<path d="M355 560C387.83 560 420.339 553.534 450.671 540.97C481.002 528.406 508.562 509.991 531.777 486.777C554.991 463.562 573.406 436.002 585.97 405.671C598.534 375.339 605 342.83 605 310C605 277.169 598.534 244.661 585.97 214.329C573.406 183.998 554.991 156.438 531.777 133.223C508.562 110.009 481.002 91.5938 450.671 79.0301C420.339 66.4664 387.83 60 355 60L355 310L355 560Z" fill="#5CACF4" fill-opacity="0.2"/>
<circle cx="209" cy="164" r="100" fill="#65BF5D" fill-opacity="0.2"/>
<path fill-rule="evenodd" clip-rule="evenodd" d="M488.941 148.926C491.449 157.122 492.528 165.134 494.632 173.391C496.95 182.479 499.392 191.929 502.565 200.749C508.494 217.233 518.171 228.368 527.293 243.516C534.41 255.333 554.082 295.274 557.742 301.573C560.028 305.511 561.497 311.315 563.067 315.59C563.956 318.009 564.912 324.114 564.49 326.597C557.628 325.831 550.334 324.994 543.62 326.597C541.436 327.119 533.944 331.611 531.839 331.085C529.517 330.506 530.891 326.983 530.011 324.837C527.514 318.752 524.723 312.532 522.899 306.235C521.035 299.796 508.57 259.873 501.512 246.901C497.884 240.234 495.17 233.508 491.126 227.084C486.921 220.404 483.436 213.993 476.531 209.763C477.247 203.977 480.544 197.664 482.454 192.138C484.322 186.732 485.203 182.011 485.887 176.25C486.538 170.778 488.62 165.421 487.824 159.845C487.411 156.944 485.51 155.002 484.808 152.437C484.404 150.961 483.314 152.259 484.855 150.407C485.574 149.544 488.023 149.541 488.941 148.926ZM483.182 153.2C484.375 159.687 480.443 168.625 479.032 175.024C477.553 181.725 475.785 188.27 474.192 194.927C473.402 198.227 471.884 201.131 470.905 204.328C469.808 207.915 469.3 211.659 468.174 215.262C465.93 222.44 462.836 229.326 463.715 236.967C464.48 243.612 465.395 250.775 467.574 257.086C470.16 264.575 472.592 271.647 473.174 279.628C473.727 287.218 471.883 295.12 469.892 302.393C469.187 304.969 463.866 323.644 462.253 323.376C461.026 314.913 454.467 306.625 450.243 299.289C445.383 290.851 438.267 283.546 431.219 276.826C433.197 276.053 435.075 271.97 436.028 270.044C437.344 267.386 438.873 264.693 440.381 262.143C443.143 257.474 450.931 238.917 453.309 234.27C456.124 228.768 474.903 173.215 474.484 167.458C474.297 164.884 474.147 163.932 475.516 161.984C477.307 159.432 481.133 155.67 483.182 153.2ZM439.703 150.625C439.703 153.187 439.933 153.653 438.405 155.369C437.111 156.821 435.437 157.87 434.181 159.441C431.367 162.961 428.898 166.776 426.894 170.816C423.001 178.671 420.422 187.965 419.137 196.629C417.72 206.192 418.545 216.002 417.919 225.625C417.687 229.202 417.071 233.427 414.698 236.306C412.576 238.882 408.712 240.769 405.793 242.242C399.111 245.612 393.479 250.066 388.386 255.65C387.144 257.011 386.802 260.113 385.391 261.242C383.966 262.382 379.633 265.764 377.964 266.509C374.086 268.241 358.979 266.603 354.878 265.886C350.79 265.172 344.973 261.762 341.365 259.97C336.245 257.428 329.78 252.037 321.969 243.797C344.087 235.346 369.606 227.375 389.356 213.842C389.468 215.454 392.277 219.908 392.565 218.579C394.411 210.087 395.65 201.483 397.472 192.994C397.956 190.74 398.438 188.478 399.312 186.35C399.749 185.284 394.628 184.465 392.565 185.282C384.879 188.326 376.904 189.811 368.811 191.596C353.897 194.884 336.941 196.145 324.051 205.131C318.552 208.965 313.076 213.86 308.615 218.698C303.662 224.071 299.059 232.927 298.381 240.405C289.428 236.371 277.726 238.113 268.496 238.949C271.845 230.515 282.759 222.197 289.49 216.45C295.05 211.701 300.489 206.781 306.623 202.746C320.31 193.743 334.11 185.22 349.897 180.122C357.711 177.599 365.514 175.051 373.647 173.743C378.082 173.029 382.583 172.811 387.042 172.362C391.391 171.924 393.048 170.994 396.264 167.934C402.273 162.219 410.531 160.944 418.273 158.893C425.883 156.877 433.194 155.163 439.703 150.625ZM305.45 122.822L315.608 127.969C311.497 129.637 308.306 130.77 306.034 131.367C302.627 132.264 297.952 145.387 293.567 145.387C289.183 145.387 289.148 133.937 291.316 129.252C292.762 126.128 297.473 123.985 305.45 122.822Z" fill="#2D4F9F"/>
<path fill-rule="evenodd" clip-rule="evenodd" d="M268.36 287.787C268.998 288.005 269.234 287.592 269.066 286.547C268.427 286.263 268.192 286.675 268.36 287.787ZM489.825 128.724C488.814 128.817 489.386 129.816 489.986 130.189C489.933 129.701 489.879 129.213 489.825 128.724ZM430.894 275.576C431.496 275.115 431.281 274.724 430.25 274.406C429.664 274.883 429.879 275.274 430.894 275.576ZM202.465 273.068C199.188 272.542 196.65 267.575 193.948 268.62C190.566 269.929 187.47 275.838 185.159 278.498C186.941 279.93 188.912 281.217 190.798 282.506C192.744 283.836 192.245 284.307 194.206 282.726C195.634 281.576 196.778 279.505 197.962 278.092C199.384 276.393 201.191 274.882 202.465 273.068ZM277.978 461.234C278.558 461.283 278.952 448.19 279.422 446.388C280.468 442.388 282.29 438.362 284.307 434.766C285.168 433.231 286.706 431.251 287.36 429.675C288.367 427.248 286.738 425.59 286.279 422.804C285.3 416.862 286.598 411.611 288.679 406.102C284.847 405.231 281.151 403.797 277.255 403.198C277.255 408.456 276.735 412.863 274.569 417.685C274.026 418.894 272.933 419.874 273.401 421.353C273.553 421.833 274.891 422.146 275.213 422.589C277.018 425.082 277.308 427.063 277.406 430.171C277.732 440.614 276.591 450.865 277.978 461.234ZM250.843 280.601C252.961 282.391 259.721 269.757 262.046 269.829C266.989 269.983 259.967 282.404 259.537 283.924C261.514 283.219 263.384 278.742 264.441 277.007C265.348 275.52 268.68 268.217 270.584 267.767C274.296 266.888 272.649 273.64 272.13 275.223C270.962 278.786 269.819 282.31 268.799 285.92C270.968 284.736 272.577 277.65 273.551 275.335C274.896 272.135 275.974 268.626 278.071 265.827C279.503 263.917 281.859 261.224 284.444 261.089C287.585 260.925 288.767 264.274 291.597 264.901C291.975 257.765 291.273 250.592 292.107 243.477C286.52 243.594 280.902 243.852 275.385 244.804C272.279 245.34 270.216 245.319 268.686 248.225C267.5 250.478 266.573 252.831 265.453 255.117C261.147 263.902 256.543 272.626 250.843 280.601ZM180.155 253.968C176.075 258.155 172.387 262.485 168.544 266.877C164.69 271.28 159.331 274.104 155.691 278.65C152.365 282.805 149.868 287.587 146.697 291.877C143.187 296.627 140.282 301.946 137.293 307.042C140.374 307.606 141.134 307.669 143.129 305.38C144.782 303.485 146.134 301.204 147.802 299.294C151.678 294.85 155.416 291.231 160.261 287.75C164.996 284.348 171.095 281.37 176.759 279.639C178.967 278.964 179.779 279.135 181.002 277.115C181.879 275.667 182.199 273.855 183.089 272.373C185.012 269.173 188.049 267.376 191.067 265.347C187.656 261.33 183.568 258.048 180.155 253.968ZM452.593 132.055C451.474 132.892 451.325 136.037 450.81 137.343C449.867 139.743 448.528 141.994 447.355 144.285C445.297 148.308 443.588 152.811 443.663 157.425C443.74 162.168 447.417 164.891 451.835 165.751C456.69 166.696 460.415 164.787 464.682 162.746C468.916 160.719 472.41 157.517 475.778 154.284C478.443 151.725 480.142 147.557 483.163 146.122C486.031 144.758 489.553 143.552 490.416 139.507C491.006 136.743 489.883 137.067 487.459 137.656C484.88 138.283 483.013 139.94 480.62 140.83C481.952 137.795 482.272 135.303 480.632 132.328C479.688 130.614 477.917 127.779 475.77 127.711C474.357 127.666 472.667 129.212 471.364 129.709C469.768 130.317 468 130.597 466.358 131.05C461.492 132.395 457.591 132.653 452.593 132.055ZM462.182 323.27C463.815 323.542 469.072 304.927 469.794 302.285C471.781 295.011 473.616 287.103 473.065 279.516C472.484 271.515 470.016 264.488 467.485 256.971C465.349 250.628 464.416 243.514 463.639 236.851C462.748 229.199 465.839 222.326 468.082 215.143C469.118 211.825 469.663 208.43 470.574 205.093C471.531 201.581 473.222 198.397 474.079 194.806C475.668 188.146 477.424 181.602 478.901 174.901C480.306 168.526 484.144 160.939 482.957 154.465C480.959 156.882 478.543 158.989 476.569 161.363C474.555 163.786 475.255 163.976 475.499 167.334C475.901 172.881 474.735 179.323 473.444 184.711C470.75 195.944 465.989 206.147 462.514 217.045C460.728 222.648 460.018 228.966 457.491 234.255C455.226 238.997 452.091 243.213 449.689 247.795C447.055 252.818 443.972 257.56 441.092 262.446C439.728 264.76 438.31 267.026 437.099 269.427C436.079 271.45 434.949 276.329 432.951 277.113C439.984 283.841 445.368 290.731 450.215 299.18C454.433 306.533 460.958 314.786 462.182 323.27ZM476.815 209.698C483.453 213.768 486.779 219.748 490.853 226.165C494.917 232.568 498.722 239.122 502.34 245.786C509.536 259.043 514.83 272.211 518.807 286.79C520.6 293.365 523.211 299.749 525.074 306.187C526.796 312.135 527.356 318.188 529.834 323.888C530.518 325.462 531.048 328.942 532.862 329.498C535 330.153 540.737 327.219 542.899 326.679C549.922 324.927 557.246 324.573 564.448 325.378C564.869 322.897 562.021 318.004 561.133 315.586C559.667 311.591 558.348 307.33 556.382 303.553C552.994 297.048 549.078 290.72 545.16 284.591C541.008 278.096 537.593 271.129 533.347 264.796C531.387 261.873 528.586 257.929 527.298 254.679C526.661 253.074 526.462 252.454 525.694 251.092C525.024 249.902 524.241 248.729 523.533 247.552C514.606 232.718 508.011 217.663 502.272 201.494C499.13 192.643 496.504 183.733 494.018 174.674C491.681 166.161 491.239 157.382 488.643 148.898C487.116 149.921 484.554 149.778 484.601 151.806C484.61 152.204 486.752 155.044 486.987 155.596C487.461 156.716 487.752 157.898 487.968 159.091C489.023 164.888 486.906 170.512 486.159 176.205C485.436 181.716 484.784 186.227 482.905 191.397C480.871 196.994 477.541 203.83 476.815 209.698ZM323.959 243.952C330.447 249.593 336.458 255.925 344.138 259.736C347.744 261.525 350.613 264.062 354.701 264.775C358.804 265.492 363.038 265.086 367.156 264.793C371.366 264.494 375.176 264.445 379.053 262.715C380.722 261.971 383.259 261.25 384.684 260.112C386.095 258.983 386.983 257.154 388.225 255.795C393.318 250.216 398.952 245.765 405.632 242.399C413.079 238.646 417.199 234.384 417.758 225.797C418.383 216.182 417.559 206.38 418.976 196.826C420.263 188.156 422.835 178.89 426.734 171.036C428.737 166.999 431.206 163.188 434.019 159.671C435.275 158.102 436.949 157.053 438.243 155.603C439.771 153.888 439.541 153.422 439.541 150.863C433.033 155.396 425.721 157.11 418.112 159.124C410.395 161.166 402.09 162.466 396.103 168.156C392.888 171.213 391.231 172.143 386.881 172.58C382.423 173.029 377.922 173.247 373.487 173.96C365.351 175.268 357.553 177.812 349.738 180.333C333.952 185.427 320.152 193.943 306.465 202.937C300.328 206.971 294.897 211.882 289.333 216.629C282.602 222.372 273.552 230.066 270.203 238.492C279.426 237.659 288.79 234.996 297.741 239.026C298.42 231.536 303.501 224.248 308.457 218.876C312.853 214.113 318.227 209.352 323.605 205.52C336.475 196.35 353.638 193.974 368.621 190.674C376.719 188.89 384.269 187.498 391.959 184.456C393.907 183.686 399.588 180.238 400.661 182.292C401.346 183.605 399.589 185.49 399.151 186.556C398.395 188.396 397.964 190.309 397.525 192.254C395.549 201.025 394.318 209.963 392.405 218.757C392.124 220.052 391.749 225.909 389.421 225.113C387.869 224.583 389.308 215.639 389.195 214.024C369.443 227.548 346.079 235.508 323.959 243.952ZM346.16 394.93C341.771 395.118 337.301 397.481 333.045 398.555C327.309 400.005 321.289 401.48 315.979 404.078C313.153 405.461 313.127 406.27 313.9 409.422C314.508 411.9 315.21 414.3 315.721 416.822C316.99 423.082 318.409 429.263 319.989 435.45C336.337 421.808 357.206 414.094 377.601 408.838C380.486 408.094 383.425 407.865 386.35 407.357C388.912 406.912 391.831 407.229 394.26 406.725C395.821 406.401 397.232 405.35 398.827 404.98C402.278 404.181 406.39 404.117 409.711 402.889C414.154 401.247 419.124 399.075 423.521 396.838C428.32 394.393 432.182 392.607 433.159 387.35C433.934 383.181 435.877 379.286 436.481 375.193C437.267 369.856 436.291 365.114 435.962 359.779C435.201 347.434 433.404 334.955 430.265 322.914C427.255 311.369 425.106 299.549 423.031 287.845C422.627 285.565 421.819 283.463 421.29 281.221C420.408 277.492 418.655 278.448 415.269 278.667C408.936 279.076 402.239 276.55 396.979 273.14C394.496 271.531 391.357 267.851 388.517 267.06C385.987 266.355 383.405 269.772 380.99 270.917C375.219 273.653 368.143 274.393 361.845 274.824C348.105 275.765 337.693 266.824 328.331 257.73C322.046 264.757 315.236 271.439 307.938 277.41C301.925 282.331 296.814 288.721 291.809 294.58C287.106 300.085 283.303 308.648 276.917 312.505C273.194 314.755 270.417 313.331 266.821 311.07C263.967 309.273 260.82 308.294 257.946 306.636C244.679 298.981 232.15 290.335 219.188 282.22C216.353 280.445 211.897 276.27 208.561 275.97C206.089 275.748 206.284 276.366 204.854 278.412C203.469 280.395 202.065 282.364 200.69 284.354C195.3 292.155 189.555 300.207 185.187 308.631C194.696 306.364 203.686 306.014 213.044 307.354C221.653 308.586 232.643 310.074 240.264 314.727C243.519 316.715 246.716 318.947 249.964 321.207C254.039 324.043 257.204 328.009 261.717 330.148C265.608 331.992 269.82 332.827 273.865 334.202C278.41 335.745 284.858 338.622 289.685 337.372C293.798 336.307 297.242 332.66 300.339 330.147C304.367 326.879 309.263 324.644 313.339 321.597C320.564 316.197 328.105 311.584 335.875 306.759C345.153 300.996 354.054 294.373 363.684 289.3C365.577 288.302 367.45 287.61 369.212 286.418C370.869 285.297 372.062 283.246 374.055 284.708C375.828 286.006 375.054 288.399 374.518 290.065C374.015 291.626 373.55 292.126 373.874 293.488C374.176 294.756 376.127 296.701 376.796 297.94C379.962 303.793 382.222 310.076 385.255 315.996C388.206 321.752 391.535 327.291 394.279 333.157C399.696 344.735 407.259 354.996 412.055 366.946C409.846 367.851 409.571 365.988 407.857 365.812C405.984 365.618 406.662 365.975 404.802 367.316C402.308 369.114 399.633 370.251 396.957 371.655C390.998 374.779 384.897 378.455 378.466 380.614C367.422 384.323 357.243 390.878 346.16 394.93ZM536.202 340.873C535.82 343.613 535.329 346.332 534.93 349.067C534.649 351.001 533.566 353.803 533.812 355.716C536.657 354.372 539.719 349.869 541.916 354.795C543.225 357.729 541.584 363.552 541.198 366.709C544.414 366.057 543.687 358.159 548.825 360.708C552.776 362.668 550.012 372.628 553.101 373.598C555.234 370.234 554.883 362.602 555.581 358.597C555.909 356.719 555.44 354.198 557.637 354.076C559.54 353.97 561.047 356.728 561.948 357.989C562.805 353.412 565.12 349.35 564.11 345.137C563.486 342.531 562.846 339.922 562.177 337.326C561.784 335.798 561.366 331.106 560.036 330.056C557.563 328.101 548.525 331.582 545.792 332.367C543.299 333.084 540.121 333.763 537.826 334.971C535.416 336.24 536.155 338.068 536.202 340.873ZM456.116 183.353C459.817 182.948 463.025 180.706 465.865 178.367C470.52 174.535 471.227 171.534 472.111 165.63C466.141 168.539 461.732 170.946 454.996 171.067C447.286 171.206 443.495 166.685 439.95 160.465C438.999 161.915 437.641 163.453 436.947 165.041C436.07 167.048 436.181 166.631 436.435 168.668C436.828 171.813 438.394 175.842 439.987 178.602C443.423 184.56 450.18 185.366 456.116 183.353ZM303.714 422.713H310.714C310.313 420.149 309.911 417.585 309.51 415.02C309.16 412.782 309.741 409.633 307.541 409.244C305.72 408.921 303.912 410.94 302.058 410.759C299.943 410.553 298.727 409.036 296.275 409.646C292.784 410.516 293.482 414.338 293.43 417.545C293.41 418.805 292.925 420.699 293.319 421.924C294.005 424.061 293.432 423.208 295.556 423.416C298.05 423.661 301.145 422.852 303.714 422.713ZM477.255 113.838C479.821 114.246 486.462 119.703 488.337 118.401C490.882 116.635 483.565 111.754 482.066 110.986C474.739 107.231 461.035 110.198 456.109 117.054C459.338 117.367 463.281 114.411 466.592 113.925C470.14 113.405 473.692 113.846 477.255 113.838ZM475.468 255.07C477.556 263.482 481.306 272.496 481.283 281.242C481.259 290.332 479.252 298.581 475.573 306.904C473.733 311.068 472.085 315.278 469.994 319.326C469.026 321.201 468.135 323.498 466.796 325.134C465.145 327.151 464.633 327.002 462.669 325.4C461.791 327.645 460.87 329.959 457.886 328.45C455.737 327.363 455.783 324.669 455.08 322.666C453.194 317.298 449.164 312.668 446.319 307.778C443.401 302.764 440.938 297.371 437.71 292.551C436.156 290.23 434.304 288.069 432.644 285.816C431.385 284.108 429.464 280.159 427.715 279.157C427.484 281.408 429.886 284.687 430.773 286.885C431.937 289.773 432.937 292.741 433.777 295.738C435.41 301.558 436.397 307.641 437.64 313.558C439.863 324.136 442.484 334.645 443.971 345.381C445.355 355.369 445.724 365.689 444.672 375.721C444.221 380.03 441.695 383.674 439.991 387.599C437.676 392.934 434.863 396.26 430.213 400.045C421.768 406.917 412.418 411.03 402.133 414.097C400.214 414.669 398.431 414.421 396.632 414.809C394.612 415.243 393.005 416.273 390.81 416.616C385.144 417.502 379.381 418.543 373.911 420.149C369.6 421.416 365.341 422.735 361.076 424.05C357.826 425.053 353.821 425.985 350.692 427.463C342.973 431.109 335.734 435.386 328.571 439.918C326.471 441.248 324.923 442.053 323.374 444.019C321.699 446.146 321.941 447.65 321.028 450.077C320.176 452.341 318.689 453.617 316.668 451.734C314.78 449.974 315.526 446.262 315.372 444.084C315.141 440.801 313.195 428.247 310.936 427.197C309.304 426.439 304.533 428.069 302.554 428.287C299.989 428.568 297.679 428.562 295.125 428.211C295.969 431.726 292.886 436.479 291.591 439.569C289.384 444.84 287.665 449.974 286.75 455.583C286.127 459.407 286.327 463.247 285.739 467.116C285.133 471.109 286.052 477.371 280.628 477.97C272.019 478.921 269.823 461.697 268.844 455.921C267.308 446.863 268.523 437.937 269.43 428.83C269.504 428.092 269.879 424.847 269.545 424.258C269.273 423.779 266.852 422.951 266.54 422.729C263.812 420.79 264.922 419.758 265.735 416.869C267.287 411.349 266.837 404.451 270.566 399.624C273.419 395.931 279.823 398.174 283.513 399.171C286.263 399.914 288.98 400.914 291.652 401.904C293.5 402.588 295.563 404.636 297.181 404.966C300.408 405.625 302.786 401.504 305.193 400.044C309.536 397.412 314.066 394.991 318.745 393.226C327.344 389.982 336.242 388.121 345.063 385.39C350.464 383.72 355.798 381.893 360.929 379.478C364.72 377.695 368.544 375.184 372.645 373.975C377.811 372.453 383.054 370.337 388.097 368.233C393.461 365.996 399.329 364.562 404.834 362.749C393.374 345.973 383.581 328.028 375.711 309.283C374.803 307.122 373.931 304.949 373.128 302.746C372.719 301.625 371.713 296.6 370.648 295.89C368.711 294.602 360.929 300.439 358.762 301.86C350.906 307.006 343.372 312.631 335.188 317.308C328.101 321.358 321.414 326.056 314.636 330.401C310.904 332.793 307.432 335.844 303.637 338.26C299.851 340.669 295.397 345.156 290.913 346.197C289.24 346.586 286.405 346.111 284.714 345.973C282.33 345.78 279.669 345.565 277.35 344.903C272.805 343.606 268.002 342.132 263.56 340.516C255.575 337.613 249.386 330.449 242.188 326.026C233.512 320.695 223.683 319.367 213.987 316.42C203.377 313.197 191.61 312.846 180.412 313.683C180.412 303.466 185.344 295.803 190.726 287.418C186.85 284.873 185.214 283.287 180.876 285.642C177.657 287.388 174.69 288.959 171.704 290.911C168.461 293.033 165.01 294.66 161.78 296.987C158.27 299.515 155.2 302.197 151.958 305.027C149.521 307.155 146.744 309.09 144.195 311.014C141.677 312.914 139.112 312.639 135.892 311.344C134.943 310.962 131.977 309.628 131.475 308.986C130.463 307.69 131.212 306.787 132.052 305.079C133.995 301.127 136.478 297.116 139.015 293.502C141.279 290.277 144.217 287.584 146.588 284.438C148.839 281.455 150.448 277.989 153.056 275.284C155.971 272.259 159.429 269.831 162.182 266.608C163.555 265 165.119 263.286 165.228 261.389C165.312 259.933 163.691 258.523 163.675 257.479C163.641 255.027 167.841 252.534 169.595 250.731C172.17 248.081 174.713 245.793 178.689 246.93C181.609 247.763 186.001 251.443 188.176 253.581C190.913 256.273 193.182 259.388 196.004 262.052C197.591 263.549 199.283 264.915 200.923 266.351C201.893 267.199 203.43 269.633 204.503 270.129C205.462 270.574 206.398 270.154 207.738 270.118C207.135 270.133 210.191 270.648 210.028 270.603C211.475 270.991 212.903 271.411 214.329 271.871C220.189 273.765 225.589 276.96 230.877 280.141C244.308 288.221 256.912 296.832 270.066 305.444C273.963 307.994 275.034 307.813 278.026 304.162C280.818 300.756 283.132 296.97 285.755 293.439C290.076 287.62 294.949 281.96 300.051 276.79C305.304 271.469 311.358 267.013 316.972 262.09C318.531 260.723 324.956 256.106 324.55 254.374C324.321 253.397 322.244 251.747 321.586 250.746C320.604 249.254 319.587 247.57 318.863 245.924C314.598 236.234 325.666 235.57 332.141 232.576C340.047 228.919 347.874 224.881 355.954 221.616C360.011 219.978 364.074 218.481 368.17 216.962C371.941 215.563 375.375 213.295 379.086 211.752C381.819 210.614 387.757 210.181 389.578 207.762C390.653 206.335 390.19 201.828 390.379 200.166C390.691 197.407 391.151 194.664 391.872 191.981C390.518 191.737 387.975 193.225 386.743 193.797C384.371 194.898 382.305 195.982 379.673 196.674C374.042 198.155 368.146 198.324 362.598 199.931C354.153 202.378 345.149 203.794 336.89 207.305C327.38 211.347 319.191 218.458 312.511 226.133C309.062 230.094 306.321 233.902 303.968 238.605C303.358 239.823 302.635 243.904 301.698 244.754C300.505 245.836 297.356 244.697 296 244.474C296 248.075 296.075 251.682 295.946 255.277C295.809 259.072 296.493 264.894 295.18 268.395C293.948 271.682 291.648 271.002 289.212 269.367C285.975 267.196 284.314 265.95 281.413 269.315C276.365 275.168 274.455 284.261 270.992 291.113C269.858 293.357 267.062 298.056 265.533 293.443C264.419 290.082 266.267 285.794 265.403 282.473C264.223 284.545 260.696 290.709 257.904 290.692C254.064 290.669 255.317 284.706 255.445 282.275C253.181 284.692 246.535 292.59 244.927 286.259C243.691 281.4 247.14 276.578 249.589 272.753C252.439 268.301 255.24 263.782 258.197 259.407C261.091 255.125 263.028 250.273 265.961 245.964C263.725 246.274 259.397 245.543 260.772 242.082C261.492 240.272 263.767 241.033 264.878 239.909C266.035 238.739 266.658 235.417 267.305 233.883C270.496 226.327 275.071 220.115 280.362 213.972C289.711 203.114 301.647 194.446 313.681 187.175C328.02 178.512 342.802 173.244 358.858 169.009C366.467 167.003 374.182 166.08 381.873 164.635C385.065 164.035 388.304 163.697 390.83 161.674C394.596 158.658 397.08 156.424 401.619 154.499C405.288 152.944 408.769 152.226 412.771 151.562C417.059 150.849 421.98 151.797 426.1 150.586C429.525 149.579 433.516 147.393 436.626 145.644C438.193 144.763 440.968 144.267 441.813 143.518C443.446 142.073 444.527 138.469 445.569 136.529C442.99 137.204 442.007 135.372 441.317 133.152C440.169 129.46 440.157 130.687 436.573 129.141C434.45 128.225 433.763 125.781 432.081 124.914C430.277 123.982 427.414 125.991 425.284 125.338C423.556 124.808 421.867 122.951 421.962 120.975C422 120.15 422.87 119.418 422.885 118.746C422.923 117.171 421.637 116.302 421.824 114.576C422.116 111.904 423.472 112.356 422.32 109.461C421.173 106.579 421.62 106.011 421.965 103.025C422.061 102.199 421.637 100.869 422.213 100.167C422.549 99.7572 423.78 99.694 423.905 99.4867C424.375 98.7127 424.389 98.0768 424.484 96.6574C424.538 95.8488 424.288 94.2316 425.13 93.6333C425.86 93.1136 426.897 94.0795 427.537 93.7737C428.092 93.5083 428.573 92.1859 429.485 92.0264C432.854 91.4369 431.826 94.8645 433.547 90.5864C434.543 88.1084 435.308 87.094 437.097 85.6849C437.874 86.0436 438.358 85.8988 438.551 85.249C438.812 84.7792 439.075 84.3103 439.337 83.8413C440.731 83.5112 440.931 84.5558 442.01 83.5296C443.822 81.8073 441.958 77.993 445.617 79.014C448.272 79.7542 448.917 83.1577 451.693 83.9751C452.076 82.8666 452.026 79.6263 453.639 79.2985C455.28 78.9648 456.53 81.9565 457.127 82.9335C457.515 82.0933 458.158 79.5771 458.798 78.9618C460.635 77.194 460.079 78.9067 461.706 79.1419C461.961 79.4411 462.217 79.741 462.473 80.0409C463.324 79.6256 464.161 79.1875 464.986 78.7237C466.769 78.3863 466.134 78.5708 467.689 79.2C468.933 79.7035 468.189 80.2791 469.7 80.5959C470.798 80.8245 471.727 79.6851 472.949 80.0343C473.304 80.1894 473.66 80.3452 474.015 80.5004C474.519 81.6169 475.291 81.8147 476.333 81.0928C477.561 81.5993 479.219 83.6347 480.526 83.5678C483.026 83.4377 482.438 79.9968 485.179 80.1652C486.195 80.2269 488.822 82.9599 489.547 83.7715C490.564 84.9101 490.276 85.8936 491.549 87.1741C493.393 89.0287 492.311 88.0342 494.072 88.8736C496.697 90.1255 497.664 89.6521 498.744 92.6652C499.685 95.2857 500.212 98.5458 500.222 101.322C500.228 103.055 498.982 106.876 501.387 106.038C503.074 105.45 502.791 101.266 504.602 102.578C505.979 103.575 503.262 108.905 503.23 110.156C503.139 113.753 503.714 114.041 501.484 116.729C500.428 118.003 498.006 120.349 497.47 121.998C496.835 123.949 498.52 127.329 498.909 129.071C499.751 132.854 499.039 133.653 496.541 136.626C496.273 136.786 496.005 136.947 495.737 137.107C494.403 137.104 494.033 137.77 494.626 139.102C494.095 140.587 494.159 142.019 493.407 143.512C492.997 144.328 491.182 145.98 491.09 146.787C490.926 148.226 491.641 148.478 492.852 149.97C497.737 155.986 499.974 163.782 502.391 171.018C506.647 183.763 511.893 196.195 516.974 208.669C518.954 213.532 520.961 218.202 523.016 223.119C525.574 229.24 529.168 234.829 532.209 240.761C534.31 244.861 536.455 249.363 539.081 252.9C542.385 257.351 544.241 263.071 547.139 267.889C550.233 273.034 553.847 278.105 556.832 283.4C559.686 288.465 563.213 293.101 565.923 298.303C569.306 304.797 573.246 312.6 574.177 319.96C574.507 322.568 575.532 326.869 573.914 329.101C572.238 331.411 567.624 332.377 565.282 330.653C567.624 336.103 569.079 342.21 570.13 348.04C570.584 350.558 571.216 352.781 570.661 355.354C570.165 357.654 570.988 356.315 569.131 357.66C567.575 358.786 568.294 355.612 567.072 358.848C566.814 359.531 567.32 361.425 567.302 362.217C567.231 365.398 566.994 368.637 566.87 371.836C566.776 374.263 567.167 376.31 564.186 376.053C561.795 375.848 560.612 373.309 559.551 371.518C559.152 374.37 558.924 377.217 558.595 380.077C558.303 382.615 558.886 385.121 555.637 384.848C550.31 384.399 548.21 374.744 546.86 370.71C544.433 373.908 543.253 380.257 542.185 384.167C541.169 387.89 539.984 395.812 534.79 390.938C531.33 387.69 532.67 381.302 533.291 377.146C533.496 375.775 536.418 363.729 535.051 363.034C533.098 365.124 530.824 368.538 527.608 366.696C524.717 365.041 525.658 361.361 525.888 358.706C526.543 351.153 529.135 343.912 531.056 336.592C529.963 336.347 527.305 336.13 526.404 335.316C525.25 334.273 525.961 333.767 525.454 332.434C524.769 330.629 523.538 328.796 522.566 327.082C519.398 321.496 518.423 315.928 516.786 309.849C515.205 303.978 512.228 298.811 510.649 292.865C508.898 286.277 507.034 279.804 504.968 273.242C500.459 258.909 493.964 245.262 486.496 232.262C485.515 230.555 477.481 212.118 476.272 212.663C475.409 213.052 474.914 217.823 474.585 219.112C473.822 222.097 473.672 225.236 473.492 228.313C470.549 235.49 473.682 247.873 475.468 255.07Z" fill="black"/>
<path fill-rule="evenodd" clip-rule="evenodd" d="M203.968 230.773C206.967 231.488 208.039 224.498 208.375 222.334C208.918 218.825 209.541 215.807 211.432 212.739C212.351 211.247 213.449 209.713 214.642 208.426C215.337 207.677 217.081 206.701 217.444 205.897C218.451 203.675 217.282 198.088 217.295 195.587C217.304 193.981 216.254 186.509 218.139 185.987C220.587 185.309 221.225 192.124 221.496 193.658C221.806 195.415 221.755 197.108 221.942 198.846C222.115 200.468 222.999 201.473 223.337 202.554C224.304 205.644 222.008 208.238 220.362 211.021C218.53 214.119 216.547 217.129 215.262 220.51C213.866 224.179 213.956 228.044 212.865 231.758C211.091 237.795 203.653 241.086 197.628 239.315C194.426 238.374 195.099 236.209 194.084 233.715C193.7 232.768 192.621 232.243 192.299 230.985C191.959 229.655 192.271 227.922 192.532 226.578C193.799 220.072 195.855 213.26 197.841 206.93C187.03 212.885 175.581 216.808 163.132 216.584C156.944 216.473 152.436 215.145 147.954 220.432C144.48 224.53 144.485 231.737 143.067 236.833C141.528 242.365 140.141 249.451 136.638 254.08C132.412 259.666 126.643 258.747 126.212 251.297C125.845 244.947 129.003 238.928 128.474 232.481C128.207 229.237 126.93 226.379 127.008 223.093C127.076 220.27 127.63 217.618 128.152 214.839C121.969 215.589 117.18 218.13 112.787 222.394C108.674 226.385 106.958 231.314 103.562 235.879C100.462 240.044 97.7198 245.776 91.6019 245.633C83.7927 245.452 83.3011 235.836 86.2295 230.697C87.7263 228.07 89.8057 226.014 91.7083 223.7C93.8148 221.139 94.0636 219.082 94.4979 215.81C94.8281 213.316 94.9191 210.02 97.1636 208.375C99.1821 206.894 101.716 207.614 103.584 205.651C105.37 203.775 106.781 200.934 108.385 198.859C110.389 196.269 112.464 193.593 114.246 190.844C118.08 184.925 123.12 180.806 128.431 176.175C126.505 174.975 121.427 176.302 119.041 175.922C115.123 175.297 110.051 173.431 107.015 170.748C100.712 165.175 97.6831 157.928 97.3727 149.551C97.0741 141.506 98.3361 131.803 104.314 125.824C107.36 122.777 111.261 120.11 115.11 118.166C117.673 116.873 122.952 114.052 125.915 115.217C132.757 117.909 117.283 128.613 115.242 130.325C108.741 135.782 104.955 141.048 105.106 149.776C105.252 158.263 113.428 162.297 120.267 165.105C123.814 166.561 128.098 167.729 132.06 167.623C136.55 167.503 139.604 164.924 143.694 163.411C151.743 160.434 160.002 158.432 168.299 156.427C176.47 154.45 185.359 154.897 193.726 153.607C201.593 152.393 208.943 150.897 216.378 148.036C224.078 145.074 230.017 136.238 238.415 135.308C243.624 134.732 241.077 138.42 238.827 140.311C236.134 142.573 233.21 144.544 230.516 146.814C223.653 152.595 216.463 155.996 207.764 158.2C201.445 159.8 194.633 161.297 187.917 162.252C179.44 163.458 170.907 163.081 162.579 165.277C157.649 166.576 152.86 168.232 148.208 170.344C146.303 171.209 142.362 172.595 142.009 174.133C141.551 176.125 143.145 176.085 141.224 177.92C137.988 181.011 133.779 183.196 130.511 186.403C126.871 189.976 123.409 193.441 120.46 197.63C117.535 201.786 115.2 205.814 110.868 208.68C109.432 209.631 106.995 211.297 105.363 211.734C103.861 212.136 103.175 211.52 101.89 212.356C98.4704 214.577 100.519 221.515 99.6165 224.95C98.4623 229.348 95.5068 232.651 93.6666 236.731C96.2413 236.174 98.039 231.91 99.3626 229.899C100.846 227.643 102.725 226.123 104.613 224.173C108.583 220.075 109.633 214.469 114.352 210.61C122.9 203.62 136.187 204.223 143.319 194.853C144.474 193.336 145.559 188.948 146.946 187.994C149.484 186.245 149.269 191.47 149.008 193.021C148.115 198.316 144.85 204.574 140.581 207.916C138.649 209.429 135.947 210.122 134.27 212.086C133.859 212.249 133.45 212.412 133.039 212.575C133.284 213.448 133.418 214.335 133.437 215.236C133.476 216.811 133.095 218.346 133.031 219.934C132.872 223.931 133.756 227.348 134.556 231.177C135.129 233.912 133.588 239.613 134.816 241.842C137.243 233.697 140.098 224.289 144.696 217.049C145.783 215.337 147.938 213.923 148.793 212.16C149.2 211.708 149.606 211.256 150.013 210.804C149.3 210.144 148.679 209.408 148.15 208.596C145.393 202.801 151.435 206.384 153.845 206.876C157.72 207.667 162.548 206.042 166.572 205.92C170.493 205.801 174.36 205.67 178.193 205.061C182.332 204.405 186.627 203.412 190.676 202.326C194.742 201.235 198.499 198.991 202.451 198.005C198.5 195.304 197.25 191.789 195.883 187.399C194.985 184.512 191.794 177.508 193.802 174.578C195.979 171.4 196.756 176.287 197.462 178.018C198.656 180.944 200.464 185.937 202.677 188.133C203.87 189.317 205.482 189.187 206.548 190.766C207.331 191.928 207.438 193.533 207.56 194.88C207.924 198.857 206.351 202.04 204.949 205.661C201.679 214.101 200.357 223.129 196.08 231.16C198.681 231.409 201.374 231.035 203.968 230.773Z" fill="black"/>
<path fill-rule="evenodd" clip-rule="evenodd" d="M258.691 164.267C260.778 163.776 267.348 163.059 265.442 159.232C263.513 155.361 258.38 161.621 258.691 164.267ZM320.877 133.791C319.651 133.41 317.706 132.524 316.394 132.618C314.839 132.729 313.683 133.856 312.105 134.005C308.885 134.31 306.395 132.936 304.291 136.374C308.767 136.374 317.722 137.892 320.877 133.791ZM236.422 213.981C240.682 214.576 242.798 195.759 243.023 193.295C241.113 193.099 235.962 196.852 235.513 198.581C235.02 200.48 236.719 203.526 236.925 205.5C237.231 208.422 236.906 211.104 236.422 213.981ZM260.161 106.577C255.032 107.077 249.293 108.737 244.585 105.884C240.768 103.572 239.355 98.6941 236.14 95.8304C236.14 104.089 243.566 110.597 251.123 113.218C254.971 114.552 260.867 112.539 264.267 114.714C265.253 115.344 267.355 118.216 267.432 119.403C267.695 123.446 264.813 119.827 263.18 119.952C260.911 120.126 257.754 126.106 255.862 127.924C254.44 129.292 252.834 130.402 251.227 131.577C250.698 131.965 247.976 133.342 247.84 134.008C247.721 134.598 249.213 136.769 249.528 137.329C251.691 141.185 254.298 143.948 257.718 146.667C259.403 148.007 261.158 148.754 262.848 149.867C263.399 150.231 265.64 153.284 264.989 153.155C265.931 150.295 268.612 146.983 270.396 144.454C272.225 141.861 274.636 139.145 277.701 138.095C279.048 137.634 281.279 137.238 282.681 137.125C283.665 137.09 284.64 137.171 285.606 137.367C287.011 137.987 287.561 137.489 287.255 135.869C288.731 132.802 287.861 128.941 289.739 125.827C291.942 122.169 295.547 120.513 299.676 120.925C301.532 121.11 303.531 121.906 305.369 121.582C307.19 121.26 309.254 119.791 311.036 119.157C317.957 116.696 326.499 113.705 331.925 108.578C332.749 107.801 335.075 105.644 335.258 104.527C334.773 103.436 334.29 102.348 333.806 101.258C333.679 99.6609 332.902 99.2252 331.475 99.9518C329.794 99.9166 326.607 101.845 324.925 102.397C322.789 103.098 320.641 103.714 318.54 104.505C314.892 105.878 311.342 107.289 307.513 108.106C303.548 108.951 301.66 109.466 299.574 105.709C297.533 102.038 297.822 99.8901 293.073 100.427C288.839 100.905 285.292 102.502 281.389 104.187C278.797 105.306 275.42 107.367 272.784 107.808C270.83 108.136 268.722 107.375 266.84 106.983C264.463 106.488 262.579 106.575 260.161 106.577ZM309.335 127.902H311.468C309.815 126.931 308.161 125.959 306.508 124.988C304.181 128.743 298.365 127.11 294.84 129.348C291.944 131.186 289.226 139.019 292.006 141.871C295.87 145.836 297.772 137.039 298.869 135.012C301.101 130.887 304.463 127.798 309.335 127.902ZM241.756 136.31C240.027 133.045 241.161 129.924 243.728 128.192C247.432 125.694 251.161 122.956 254.793 120.188C248.619 119.22 244.195 117.178 239.162 113.413C233.354 109.068 231.701 105.053 231.864 97.7148C231.946 94.0312 231.431 83.5616 237.377 86.6009C242.289 89.1119 242.966 96.1338 248.251 98.5141C253.472 100.865 259.621 98.4267 265.112 100.257C266.674 100.779 270.855 104.448 272.125 104.431C273.811 104.408 278.048 100.68 279.643 99.7946C283.645 97.5745 288.82 95.4094 293.278 94.7695C296.078 94.3677 296.99 94.0797 299.019 96.1433C301.291 98.4539 302.003 101.31 302.814 104.312C311.434 100.763 320.141 97.4503 329.005 94.5565C331.82 93.6374 333.753 92.462 336.154 90.9809C339.592 88.8607 341.506 89.8422 342.131 94.2259C343.232 101.949 338.513 106.888 334.412 112.668C332.15 115.856 330.605 118.107 326.928 119.735C323.101 121.43 318.494 120.884 314.337 122.157C315.404 123.456 315.967 126.48 316.906 127.394C317.67 128.136 321.326 128.012 322.559 128.66C326.255 130.603 325.815 133.845 323.526 137.051C320.942 140.667 317.124 141.333 312.951 141.648C311.083 141.788 309.418 141.814 307.549 141.682C306.339 141.597 302.128 140.29 301.216 140.677C300.136 141.135 299.885 143.517 299.394 144.605C298.613 146.335 297.743 148.084 295.905 148.884C294.314 149.574 292.52 149.388 291.073 148.439C289.134 147.169 289.666 145.67 288.445 144.039C288.33 142.321 287.598 141.996 286.248 143.061C285.217 143.422 284.188 143.786 283.16 144.154C281.034 144.928 279.048 145.676 277.177 146.977C273.592 149.468 271.422 153.671 267.427 155.422C270.034 159.877 268.406 165.938 264.02 168.252C263.031 168.773 261.819 169.413 260.769 169.751C259.986 170.003 257.938 169.799 257.409 170.236C256.643 170.87 256.222 176.871 255.686 178.208C253.841 182.806 249.925 185.094 247.607 189.264C245.346 193.333 245.832 199.649 245.174 204.232C244.359 209.91 243.841 215.869 241.409 221.138C239.783 224.662 234.904 228.841 230.595 228.146C224.261 227.125 227.015 219.032 228.958 215.545C231.955 210.165 231.951 206.095 231.191 200.145C228.69 200.517 222.494 202.964 222.792 198.198C222.996 194.948 230.013 191.968 232.472 190.335C238.031 186.646 243.72 182.353 248.415 177.625C250.355 175.671 253.133 172.062 254.12 169.39C254.839 167.439 254.685 165.542 254.841 163.503C254.985 161.626 256.632 159.048 256.551 157.407C256.429 154.974 250.023 151.086 248.191 148.51C245.581 144.84 243.386 140.499 241.756 136.31Z" fill="black"/>
<path fill-rule="evenodd" clip-rule="evenodd" d="M370.083 144.481C372.047 144.224 379.593 142.133 380.89 144.09C383.254 147.661 376.303 148.326 374.555 148.65C366.832 150.078 359.276 151.978 351.786 154.105C336.887 158.337 321.696 163.648 307.82 170.543C305.647 171.622 299.261 176.016 297.086 173.796C294.276 170.929 301.093 167.748 302.655 166.855C309.576 162.895 316.89 159.344 324.319 156.428C338.951 150.685 354.411 146.209 370.083 144.481Z" fill="black"/>
<path fill-rule="evenodd" clip-rule="evenodd" d="M183.858 332.972C194.941 331.319 206.983 333.759 217.739 337.123C221.185 338.201 224.778 339.453 227.932 341.211C229.632 342.156 233.673 343.84 234.634 345.609C236.239 348.559 234.443 349.817 231.861 349.332C229.406 348.87 226.39 347.459 223.828 346.814C212.096 343.861 200.434 341.646 188.551 340.464C185.708 340.181 183.644 340.511 180.904 341.01C178.856 341.383 173.448 343.609 171.908 342.304C166.344 337.588 181.209 333.265 183.858 332.972Z" fill="black"/>
<path fill-rule="evenodd" clip-rule="evenodd" d="M356.304 355.664C357.054 359.869 354.916 360.261 351.344 362.226C347.695 364.233 344.05 365.882 340.196 367.502C336.043 369.248 331.692 371.038 327.366 372.312C323.702 373.392 318.052 375.811 314.247 375.452C312.711 375.308 311.719 375.508 311.707 373.606C311.696 371.542 313.637 371.666 315.238 371.21C320.138 369.815 324.884 367.721 329.703 366.06C338.778 362.934 347.869 360.294 356.304 355.664Z" fill="black"/>
<path fill-rule="evenodd" clip-rule="evenodd" d="M81.3775 150.047C78.5352 145.355 78.5924 139.1 79.3788 133.798C79.6439 132.011 83.9556 118.8 86.5607 121.546C88.1058 123.175 82.8462 133.55 82.2955 135.921C81.6311 138.78 81.2897 141.608 81.7276 144.53C81.8469 145.319 83.6163 150.333 81.3775 150.047Z" fill="black"/>
<path fill-rule="evenodd" clip-rule="evenodd" d="M230.334 176.68C228.253 173.833 231.039 167.463 231.882 164.437C232.402 162.573 233.99 155.568 236.507 157.063C238.95 158.514 236.215 165.08 235.725 166.893C235 169.582 233.945 176.612 230.334 176.68Z" fill="black"/>
<path fill-rule="evenodd" clip-rule="evenodd" d="M461.238 328.375C461.62 327.465 462.003 326.555 462.386 325.645C463.358 326.383 464.715 326.746 463.725 327.866C463.117 328.556 462.093 328.555 461.238 328.375Z" fill="#0D2A71"/>
<path fill-rule="evenodd" clip-rule="evenodd" d="M426.121 150.782C424.417 151.043 423.279 151.057 421.59 151.018C423.101 150.939 424.611 150.861 426.121 150.782Z" fill="#0D2A71"/>
<path fill-rule="evenodd" clip-rule="evenodd" d="M481.352 283.164C481.348 282.031 481.343 280.898 481.34 279.766C481.344 280.9 481.348 282.032 481.352 283.164Z" fill="#0D2A71"/>
<path fill-rule="evenodd" clip-rule="evenodd" d="M207.21 198.203C207.206 197.069 207.203 195.936 207.2 194.805C207.204 195.939 207.207 197.071 207.21 198.203Z" fill="#0D2A71"/>
<path fill-rule="evenodd" clip-rule="evenodd" d="M260.164 98.9428C259.031 98.9354 257.898 98.9292 256.766 98.9218C257.904 98.4614 259.034 98.6828 260.164 98.9428Z" fill="#0D2A71"/>
<path fill-rule="evenodd" clip-rule="evenodd" d="M267.832 447.988C267.819 448.744 267.804 449.5 267.789 450.254C267.803 449.497 267.818 448.742 267.832 447.988Z" fill="#0D2A71"/>
<path fill-rule="evenodd" clip-rule="evenodd" d="M124.793 176.387C125.362 176.393 125.929 176.399 126.492 176.406C125.922 176.4 125.358 176.394 124.793 176.387Z" fill="#0D2A71"/>
<path fill-rule="evenodd" clip-rule="evenodd" d="M444.544 376.621C444.534 375.864 444.525 375.108 444.515 374.355C444.524 375.113 444.534 375.867 444.544 376.621Z" fill="#0D2A71"/>
<path fill-rule="evenodd" clip-rule="evenodd" d="M473.363 228.223C473.398 227.466 473.434 226.711 473.469 225.957C473.434 226.714 473.398 227.468 473.363 228.223Z" fill="#0D2A71"/>
<path fill-rule="evenodd" clip-rule="evenodd" d="M421.935 113.809C421.894 114.564 421.853 115.321 421.811 116.074C421.852 115.318 421.893 114.564 421.935 113.809Z" fill="#0D2A71"/>
<path fill-rule="evenodd" clip-rule="evenodd" d="M567.428 362.461C567.436 361.704 567.443 360.949 567.451 360.195C567.443 360.952 567.436 361.706 567.428 362.461Z" fill="#0D2A71"/>
<path fill-rule="evenodd" clip-rule="evenodd" d="M342.042 101.348C342.021 100.591 342 99.8345 341.978 99.082C341.999 99.8394 342.02 100.594 342.042 101.348Z" fill="#0D2A71"/>
<path fill-rule="evenodd" clip-rule="evenodd" d="M105.204 150.059C105.236 149.302 105.268 148.546 105.3 147.793C105.267 148.55 105.236 149.305 105.204 150.059Z" fill="#0D2A71"/>
<path fill-rule="evenodd" clip-rule="evenodd" d="M309.441 141.849C310.01 141.847 310.578 141.844 311.141 141.842C310.57 141.844 310.006 141.847 309.441 141.849Z" fill="#0D2A71"/>
<path fill-rule="evenodd" clip-rule="evenodd" d="M500.093 103.613C500.055 102.857 500.018 102.102 499.981 101.348C500.019 102.104 500.056 102.858 500.093 103.613Z" fill="#0D2A71"/>
<path fill-rule="evenodd" clip-rule="evenodd" d="M126.774 220.859C126.776 221.616 126.776 222.372 126.776 223.125C126.775 222.368 126.775 221.614 126.774 220.859Z" fill="#0D2A71"/>
<path fill-rule="evenodd" clip-rule="evenodd" d="M570.907 352.266C570.861 351.51 570.815 350.754 570.769 350C570.815 350.756 570.861 351.511 570.907 352.266Z" fill="#0D2A71"/>
<path fill-rule="evenodd" clip-rule="evenodd" d="M289.051 346.345C289.619 346.327 290.188 346.31 290.75 346.292C290.18 346.31 289.615 346.328 289.051 346.345Z" fill="#0D2A71"/>
<path fill-rule="evenodd" clip-rule="evenodd" d="M473.482 243.516C473.438 242.759 473.394 242.004 473.349 241.25C473.394 242.006 473.438 242.761 473.482 243.516Z" fill="#0D2A71"/>
<path fill-rule="evenodd" clip-rule="evenodd" d="M201.824 332.717C201.069 332.722 200.313 332.727 199.559 332.732C200.314 332.727 201.069 332.722 201.824 332.717Z" fill="#0D2A71"/>
<path fill-rule="evenodd" clip-rule="evenodd" d="M183.699 332.618C182.944 332.689 182.188 332.76 181.434 332.831C182.189 332.76 182.944 332.689 183.699 332.618Z" fill="#0D2A71"/>
<path fill-rule="evenodd" clip-rule="evenodd" d="M472.875 238.418C472.858 237.851 472.841 237.284 472.824 236.719C472.841 237.286 472.858 237.852 472.875 238.418Z" fill="#0D2A71"/>
<path fill-rule="evenodd" clip-rule="evenodd" d="M498.385 127.969C498.353 127.401 498.322 126.835 498.29 126.27C498.323 126.837 498.354 127.403 498.385 127.969Z" fill="#0D2A71"/>
<path fill-rule="evenodd" clip-rule="evenodd" d="M325.011 133.066C325.015 132.5 325.02 131.933 325.024 131.367C325.02 131.935 325.016 132.5 325.011 133.066Z" fill="#0D2A71"/>
<path fill-rule="evenodd" clip-rule="evenodd" d="M246.201 288.953C246.512 288.971 246.824 288.989 247.137 289.007C246.438 289.609 245.621 288.99 246.201 288.953Z" fill="#0D2A71"/>
<path fill-rule="evenodd" clip-rule="evenodd" d="M280.555 345.762C280.934 345.755 281.312 345.748 281.688 345.742C281.307 345.749 280.931 345.755 280.555 345.762Z" fill="#0D2A71"/>
<path fill-rule="evenodd" clip-rule="evenodd" d="M570.335 347.734C570.293 347.167 570.25 346.601 570.208 346.035C570.251 346.603 570.293 347.168 570.335 347.734Z" fill="#0D2A71"/>
<path fill-rule="evenodd" clip-rule="evenodd" d="M128.546 236.152C128.498 236.719 128.45 237.286 128.403 237.852C128.451 237.284 128.499 236.718 128.546 236.152Z" fill="#0D2A71"/>
<path fill-rule="evenodd" clip-rule="evenodd" d="M388.172 163.219C387.494 163.724 386.676 163.442 385.906 163.425C386.662 163.356 387.417 163.288 388.172 163.219Z" fill="#0D2A71"/>
<path fill-rule="evenodd" clip-rule="evenodd" d="M566.86 369.824C566.869 369.257 566.878 368.69 566.886 368.125C566.877 368.693 566.869 369.259 566.86 369.824Z" fill="#0D2A71"/>
<path fill-rule="evenodd" clip-rule="evenodd" d="M438.799 390.781C438.843 390.214 438.887 389.647 438.932 389.082C438.887 389.65 438.843 390.216 438.799 390.781Z" fill="#0D2A71"/>
<path fill-rule="evenodd" clip-rule="evenodd" d="M118.562 175.797C118.942 175.819 119.321 175.841 119.695 175.863C119.315 175.842 118.939 175.819 118.562 175.797Z" fill="#0D2A71"/>
<path fill-rule="evenodd" clip-rule="evenodd" d="M370.047 144.586C369.291 144.647 368.537 144.708 367.781 144.77C368.537 144.708 369.291 144.647 370.047 144.586Z" fill="#0D2A71"/>
<path fill-rule="evenodd" clip-rule="evenodd" d="M315.465 445.156C315.414 445.723 315.363 446.29 315.313 446.855C315.363 446.287 315.414 445.722 315.465 445.156Z" fill="#0D2A71"/>
<path fill-rule="evenodd" clip-rule="evenodd" d="M204.09 230.686C203.335 230.743 202.58 230.8 201.824 230.857C202.58 230.8 203.335 230.743 204.09 230.686Z" fill="#0D2A71"/>
<path fill-rule="evenodd" clip-rule="evenodd" d="M299.246 422.873C300.756 422.814 302.266 422.753 303.777 422.693C302.267 422.753 300.756 422.813 299.246 422.873Z" fill="#0D2A71"/>
<path fill-rule="evenodd" clip-rule="evenodd" d="M437.11 369.824C437.147 368.88 437.185 367.935 437.222 366.992C437.185 367.937 437.147 368.881 437.11 369.824Z" fill="#0D2A71"/>
<path fill-rule="evenodd" clip-rule="evenodd" d="M467.469 114.195C468.413 114.126 469.356 114.058 470.301 113.989C469.357 114.058 468.413 114.126 467.469 114.195Z" fill="#0D2A71"/>
<path fill-rule="evenodd" clip-rule="evenodd" d="M197.859 306.579C198.804 306.639 199.748 306.701 200.691 306.761C199.747 306.7 198.803 306.639 197.859 306.579Z" fill="#0D2A71"/>
<path fill-rule="evenodd" clip-rule="evenodd" d="M265.007 284.863C264.608 284.013 264.629 283.259 265.071 282.598C265.308 283.369 265.286 284.124 265.007 284.863Z" fill="#0D2A71"/>
<path fill-rule="evenodd" clip-rule="evenodd" d="M536.274 338.672C536.283 339.429 536.291 340.185 536.3 340.938C536.292 340.18 536.284 339.426 536.274 338.672Z" fill="#0D2A71"/>
<path fill-rule="evenodd" clip-rule="evenodd" d="M309.171 412.871C309.162 412.115 309.154 411.358 309.145 410.605C309.154 411.365 309.163 412.118 309.171 412.871Z" fill="#0D2A71"/>
<path fill-rule="evenodd" clip-rule="evenodd" d="M282.254 337.161C283.009 337.224 283.765 337.288 284.52 337.351C283.764 337.288 283.009 337.224 282.254 337.161Z" fill="#0D2A71"/>
<path fill-rule="evenodd" clip-rule="evenodd" d="M268.13 287.649C268.013 286.739 268.178 286.401 268.623 286.634C268.741 287.489 268.576 287.828 268.13 287.649Z" fill="#0D2A71"/>
<path fill-rule="evenodd" clip-rule="evenodd" d="M296.142 249.18C296.135 249.747 296.127 250.314 296.12 250.879C296.128 250.311 296.135 249.745 296.142 249.18Z" fill="#0D2A71"/>
<path fill-rule="evenodd" clip-rule="evenodd" d="M556.118 356.797C556.114 356.23 556.109 355.663 556.104 355.098C556.108 355.665 556.113 356.231 556.118 356.797Z" fill="#0D2A71"/>
<path fill-rule="evenodd" clip-rule="evenodd" d="M474.832 114.094C475.587 114.093 476.342 114.092 477.098 114.09C476.342 114.091 475.587 114.093 474.832 114.094Z" fill="#0D2A71"/>
<path fill-rule="evenodd" clip-rule="evenodd" d="M456.141 183.285L458.406 183.102L456.141 183.285Z" fill="#0D2A71"/>
<path fill-rule="evenodd" clip-rule="evenodd" d="M420.457 278.359C420.078 278.352 419.699 278.346 419.324 278.341C419.705 278.347 420.081 278.353 420.457 278.359Z" fill="#0D2A71"/>
<path fill-rule="evenodd" clip-rule="evenodd" d="M433.716 386.25C433.751 385.683 433.785 385.116 433.819 384.551C433.784 385.119 433.75 385.685 433.716 386.25Z" fill="#0D2A71"/>
<path fill-rule="evenodd" clip-rule="evenodd" d="M346.258 395.008C345.878 395.022 345.499 395.037 345.125 395.051C345.506 395.036 345.882 395.021 346.258 395.008Z" fill="#0D2A71"/>
<path fill-rule="evenodd" clip-rule="evenodd" d="M296.125 251.445C296.129 252.012 296.133 252.581 296.137 253.145C296.134 252.576 296.13 252.01 296.125 251.445Z" fill="#0D2A71"/>
<path fill-rule="evenodd" clip-rule="evenodd" d="M261.863 106.162C261.295 106.162 260.727 106.163 260.164 106.163C260.735 106.163 261.299 106.162 261.863 106.162Z" fill="#0D2A71"/>
<path fill-rule="evenodd" clip-rule="evenodd" d="M264.556 151.191C265.358 151.712 265.476 152.279 264.912 152.891C264.003 152.819 263.886 152.253 264.556 151.191Z" fill="#0D2A71"/>
<path fill-rule="evenodd" clip-rule="evenodd" d="M307.176 127.669C307.931 127.68 308.687 127.691 309.441 127.703C308.686 127.691 307.93 127.68 307.176 127.669Z" fill="#0D2A71"/>
<path fill-rule="evenodd" clip-rule="evenodd" d="M291.036 137.031C291.034 137.598 291.032 138.165 291.031 138.73C291.032 138.162 291.034 137.597 291.036 137.031Z" fill="#0D2A71"/>
<path fill-rule="evenodd" clip-rule="evenodd" d="M277.156 137.981L279.422 137.781L277.156 137.981Z" fill="#0D2A71"/>
<path fill-rule="evenodd" clip-rule="evenodd" d="M379.584 242.046C374.034 242.656 366.977 242.126 361.964 239.425C358.488 237.552 356.877 231.413 361.925 230.55C364.758 230.066 368.159 232.561 370.664 233.526C373.646 234.673 376.758 235.213 379.829 236.017C381.913 236.562 384.941 237.94 383.038 240.919C382.695 241.457 379.623 243.079 379.584 242.046Z" fill="black"/>
<path fill-rule="evenodd" clip-rule="evenodd" d="M457.84 269.348C457.296 272.911 457.215 276.847 455.505 280.103C453.041 284.797 452.555 279.768 452.943 277.189C453.516 273.386 453.826 269.493 453.541 265.649C453.307 262.5 451.188 258.812 452.739 255.977C456.974 258.72 457.06 264.853 457.84 269.348Z" fill="black"/>
<path fill-rule="evenodd" clip-rule="evenodd" d="M458.033 158.541C455.69 158.005 451.858 156.456 455.16 154.271C456.502 153.384 459.145 153.81 460.643 152.978C461.55 152.474 462.065 151.396 462.974 151.005C465.988 149.708 466.297 151.922 465.163 154.737C463.963 157.715 461.081 158.685 458.033 158.541Z" fill="black"/>
<path fill-rule="evenodd" clip-rule="evenodd" d="M456.677 139.795C460.527 136.917 460.003 140.512 457.969 143.045C457.212 143.898 456.455 144.751 455.696 145.603L456.361 146.418C456.247 147.576 457.329 148.433 456.002 149.191C453.811 150.444 452.166 147.483 452.176 145.843C452.191 143.123 454.871 141.417 456.677 139.795Z" fill="black"/>
<path fill-rule="evenodd" clip-rule="evenodd" d="M456.182 140.026C452.588 143.549 452.722 136.456 454.633 134.927C458.299 131.992 455.937 138.801 456.182 140.026Z" fill="black"/>
<path fill-rule="evenodd" clip-rule="evenodd" d="M463.052 142.691C462.796 141.442 462.763 135.523 465.252 135.917C467.958 136.345 464.978 142.878 463.052 142.691Z" fill="black"/>
<path fill-rule="evenodd" clip-rule="evenodd" d="M458.406 158.814C458.786 158.83 459.165 158.846 459.539 158.862C459.158 158.846 458.782 158.83 458.406 158.814Z" fill="#0D2A71"/>
<path fill-rule="evenodd" clip-rule="evenodd" d="M285.844 114.375C282.779 109.153 289.774 100.237 293.277 107.454C293.752 108.431 294.827 111.065 293.533 111.876C292.144 112.745 292.441 111.481 291.298 111.291C289.936 111.064 290.381 110.428 288.798 111.119C287.673 111.609 286.621 113.474 285.844 114.375Z" fill="black"/>
<circle cx="597" cy="20" r="20" fill="black" fill-opacity="0.87"/>
<circle cx="597" cy="20" r="20" fill="#2D4F9F" fill-opacity="0.2"/>
<circle cx="567" cy="64" r="5" fill="#2D4F9F"/>
<circle cx="540" cy="30" r="10" fill="#34922B"/>
<circle cx="115" cy="523" r="5" fill="#2D4F9F"/>
<circle cx="10" cy="30" r="10" fill="#3D7ED1"/>
<circle cx="75" cy="498" r="20" fill="#4AB33F"/>
</svg>
