<svg fill="none" height="1010" viewBox="0 0 1423 1010" width="1423" xmlns="http://www.w3.org/2000/svg" xmlns:xlink="http://www.w3.org/1999/xlink"><linearGradient id="a" gradientUnits="userSpaceOnUse" x1="711.5" x2="711.5" y1="1034.43" y2="378.432"><stop offset="0" stop-color="#d3e9fe"/><stop offset="1" stop-color="#e9f6ff"/></linearGradient><linearGradient id="b"><stop offset="0" stop-color="#dce9ff"/><stop offset="1" stop-color="#b6d2ff"/></linearGradient><linearGradient id="c" gradientUnits="userSpaceOnUse" x1="930.301" x2="778.808" xlink:href="#b" y1="352.124" y2="301.126"/><linearGradient id="d" gradientUnits="userSpaceOnUse" x1="672.933" x2="649.081" xlink:href="#b" y1="258.509" y2="822.022"/><linearGradient id="e" gradientUnits="userSpaceOnUse" x1="784.604" x2="826.324" xlink:href="#b" y1="253.236" y2="834.347"/><linearGradient id="f"><stop offset="0" stop-color="#2b233c"/><stop offset="1" stop-color="#635c70"/></linearGradient><linearGradient id="g" gradientUnits="userSpaceOnUse" x1="999.939" x2="855.924" xlink:href="#f" y1="245.049" y2="320.057"/><linearGradient id="h" gradientUnits="userSpaceOnUse" x1="482" x2="1167.39" xlink:href="#f" y1="971.77" y2="971.77"/><linearGradient id="i" gradientUnits="userSpaceOnUse" x1="213" x2="493" xlink:href="#f" y1="971.77" y2="971.77"/><linearGradient id="j" gradientUnits="userSpaceOnUse" x1="463" x2="1251" xlink:href="#f" y1="507.27" y2="507.27"/><linearGradient id="k" gradientUnits="userSpaceOnUse" x1="138" x2="491" xlink:href="#f" y1="507.27" y2="507.27"/><linearGradient id="l" gradientUnits="userSpaceOnUse" x1="615" x2="768.5" y1="801.5" y2="652"><stop offset="0" stop-color="#232a3a"/><stop offset="1" stop-color="#54565d"/></linearGradient><linearGradient id="m" gradientUnits="userSpaceOnUse" x1="652" x2="734" y1="765.5" y2="691.5"><stop offset="0" stop-color="#1c59eb"/><stop offset="1" stop-color="#9faff6"/></linearGradient><linearGradient id="n" gradientUnits="userSpaceOnUse" x1="673" x2="710.5" y1="742" y2="709"><stop offset="0" stop-color="#c2cbed"/><stop offset="1" stop-color="#fff"/></linearGradient><linearGradient id="o" gradientUnits="userSpaceOnUse" x1="1114.24" x2="1157.1" y1="442.189" y2="940.898"><stop offset="0" stop-color="#29056b"/><stop offset="1" stop-color="#6c93f5"/></linearGradient><linearGradient id="p"><stop offset="0" stop-color="#e3356f"/><stop offset="1" stop-color="#e882ac"/></linearGradient><linearGradient id="q" gradientUnits="userSpaceOnUse" x1="1048.9" x2="1165.99" xlink:href="#p" y1="438.178" y2="294.112"/><linearGradient id="r"><stop offset="0" stop-color="#1c59eb"/><stop offset="1" stop-color="#6af2ed"/></linearGradient><linearGradient id="s" gradientUnits="userSpaceOnUse" x1="309.513" x2="279.107" xlink:href="#r" y1="381.783" y2="381.783"/><linearGradient id="t" gradientUnits="userSpaceOnUse" x1="272.763" x2="191.074" xlink:href="#r" y1="453.178" y2="332.115"/><linearGradient id="u"><stop offset="0" stop-color="#2f0a6e"/><stop offset="1" stop-color="#5b24b9"/></linearGradient><linearGradient id="v" gradientUnits="userSpaceOnUse" x1="310" x2="269.507" xlink:href="#u" y1="415.413" y2="415.413"/><linearGradient id="w" gradientUnits="userSpaceOnUse" x1="245.902" x2="162.291" xlink:href="#u" y1="363.31" y2="363.31"/><linearGradient id="x" gradientUnits="userSpaceOnUse" x1="293.075" x2="250.299" xlink:href="#p" y1="467.423" y2="467.423"/><linearGradient id="y" gradientUnits="userSpaceOnUse" x1="175.882" x2="250.186" xlink:href="#r" y1="718.752" y2="525.218"/><linearGradient id="z" gradientUnits="userSpaceOnUse" x1="206.617" x2="348.032" xlink:href="#r" y1="703.339" y2="703.339"/><linearGradient id="A" gradientUnits="userSpaceOnUse" x1="151.351" x2="58.3695" xlink:href="#r" y1="749.914" y2="653.489"/><linearGradient id="B" gradientUnits="userSpaceOnUse" x1="121.421" x2="38.3476" xlink:href="#r" y1="805.244" y2="791.398"/><linearGradient id="C" gradientUnits="userSpaceOnUse" x1="193.242" x2="278.921" xlink:href="#r" y1="806.541" y2="806.541"/><linearGradient id="D" gradientUnits="userSpaceOnUse" x1="116.47" x2="235.48" xlink:href="#p" y1="937.203" y2="937.203"/><circle cx="1360" cy="614" fill="#85f479" r="63"/><circle cx="1300.5" cy="748.5" fill="#4f74f0" r="30.5"/><rect fill="#1ceb2a" height="90" rx="12" width="90" x="934" y="1"/><path d="m310 180c-6.627 0-12.045-5.38-11.566-11.99 1.281-17.695 5.393-35.097 12.202-51.535 8.342-20.1405 20.57-38.4402 35.984-53.8547 15.415-15.4146 33.715-27.642 53.855-35.9843s41.726-12.636 63.525-12.636 43.385 4.2937 63.525 12.636c20.141 8.3423 38.44 20.5697 53.855 35.9843 15.414 15.4145 27.642 33.7142 35.984 53.8547 6.809 16.438 10.921 33.84 12.202 51.535.479 6.61-4.939 11.99-11.566 11.99h-154z" fill="#748ff3"/><circle cx="739" cy="300" fill="#e9ecfd" r="300"/><circle cx="1252.59" cy="211.846" fill="#1c59eb" r="7.58522"/><circle cx="1252.59" cy="235.109" fill="#1c59eb" r="7.58522"/><circle cx="1275.85" cy="235.109" fill="#1c59eb" r="7.58522"/><circle cx="1299.11" cy="235.109" fill="#1c59eb" r="7.58522"/><circle cx="1322.37" cy="235.109" fill="#1c59eb" r="7.58522"/><circle cx="1345.63" cy="235.109" fill="#1c59eb" r="7.58522"/><circle cx="1368.89" cy="235.109" fill="#1c59eb" r="7.58522"/><circle cx="1392.15" cy="235.109" fill="#1c59eb" r="7.58522"/><circle cx="1415.41" cy="235.109" fill="#1c59eb" r="7.58522"/><circle cx="1252.59" cy="235.109" fill="#1c59eb" r="7.58522"/><circle cx="1275.85" cy="235.109" fill="#1c59eb" r="7.58522"/><circle cx="1299.11" cy="235.109" fill="#1c59eb" r="7.58522"/><circle cx="1322.37" cy="235.109" fill="#1c59eb" r="7.58522"/><circle cx="1345.63" cy="235.109" fill="#1c59eb" r="7.58522"/><circle cx="1368.89" cy="235.109" fill="#1c59eb" r="7.58522"/><circle cx="1392.15" cy="235.109" fill="#1c59eb" r="7.58522"/><circle cx="1415.41" cy="235.109" fill="#1c59eb" r="7.58522"/><circle cx="1252.59" cy="258.369" fill="#1c59eb" r="7.58522"/><circle cx="1275.85" cy="258.369" fill="#1c59eb" r="7.58522"/><circle cx="1299.11" cy="258.369" fill="#1c59eb" r="7.58522"/><circle cx="1322.37" cy="258.369" fill="#1c59eb" r="7.58522"/><circle cx="1345.63" cy="258.369" fill="#1c59eb" r="7.58522"/><circle cx="1368.89" cy="258.369" fill="#1c59eb" r="7.58522"/><circle cx="1392.15" cy="258.369" fill="#1c59eb" r="7.58522"/><circle cx="1415.41" cy="258.369" fill="#1c59eb" r="7.58522"/><circle cx="1252.59" cy="281.63" fill="#1c59eb" r="7.58522"/><circle cx="1275.85" cy="281.63" fill="#1c59eb" r="7.58522"/><circle cx="1299.11" cy="281.63" fill="#1c59eb" r="7.58522"/><circle cx="1322.37" cy="281.63" fill="#1c59eb" r="7.58522"/><circle cx="1345.63" cy="281.63" fill="#1c59eb" r="7.58522"/><circle cx="1368.89" cy="281.63" fill="#1c59eb" r="7.58522"/><circle cx="1392.15" cy="281.63" fill="#1c59eb" r="7.58522"/><circle cx="1415.41" cy="281.63" fill="#1c59eb" r="7.58522"/><circle cx="1252.59" cy="304.891" fill="#1c59eb" r="7.58522"/><circle cx="1275.85" cy="304.891" fill="#1c59eb" r="7.58522"/><circle cx="1299.11" cy="304.891" fill="#1c59eb" r="7.58522"/><circle cx="1322.37" cy="304.891" fill="#1c59eb" r="7.58522"/><circle cx="1345.63" cy="304.891" fill="#1c59eb" r="7.58522"/><circle cx="1368.89" cy="304.891" fill="#1c59eb" r="7.58522"/><circle cx="1392.15" cy="304.891" fill="#1c59eb" r="7.58522"/><circle cx="1415.41" cy="304.891" fill="#1c59eb" r="7.58522"/><circle cx="1252.59" cy="328.155" fill="#1c59eb" r="7.58522"/><circle cx="1275.85" cy="328.155" fill="#1c59eb" r="7.58522"/><circle cx="1299.11" cy="328.155" fill="#1c59eb" r="7.58522"/><circle cx="1322.37" cy="328.155" fill="#1c59eb" r="7.58522"/><circle cx="1345.63" cy="328.155" fill="#1c59eb" r="7.58522"/><circle cx="1368.89" cy="328.155" fill="#1c59eb" r="7.58522"/><circle cx="1392.15" cy="328.155" fill="#1c59eb" r="7.58522"/><circle cx="1415.41" cy="328.155" fill="#1c59eb" r="7.58522"/><circle cx="1252.59" cy="351.415" fill="#1c59eb" r="7.58522"/><circle cx="1275.85" cy="351.415" fill="#1c59eb" r="7.58522"/><circle cx="1299.11" cy="351.415" fill="#1c59eb" r="7.58522"/><circle cx="1322.37" cy="351.415" fill="#1c59eb" r="7.58522"/><circle cx="1345.63" cy="351.415" fill="#1c59eb" r="7.58522"/><circle cx="1368.89" cy="351.415" fill="#1c59eb" r="7.58522"/><circle cx="1392.15" cy="351.415" fill="#1c59eb" r="7.58522"/><circle cx="1415.41" cy="351.415" fill="#1c59eb" r="7.58522"/><circle cx="1252.59" cy="351.415" fill="#1c59eb" r="7.58522"/><circle cx="1275.85" cy="351.415" fill="#1c59eb" r="7.58522"/><circle cx="1299.11" cy="351.415" fill="#1c59eb" r="7.58522"/><circle cx="1322.37" cy="351.415" fill="#1c59eb" r="7.58522"/><circle cx="1345.63" cy="351.415" fill="#1c59eb" r="7.58522"/><circle cx="1368.89" cy="351.415" fill="#1c59eb" r="7.58522"/><circle cx="1392.15" cy="351.415" fill="#1c59eb" r="7.58522"/><circle cx="1415.41" cy="351.415" fill="#1c59eb" r="7.58522"/><circle cx="1275.85" cy="211.846" fill="#1c59eb" r="7.58522"/><circle cx="1299.11" cy="211.846" fill="#1c59eb" r="7.58522"/><circle cx="1322.37" cy="211.846" fill="#1c59eb" r="7.58522"/><circle cx="1345.63" cy="211.846" fill="#1c59eb" r="7.58522"/><circle cx="1368.89" cy="211.846" fill="#1c59eb" r="7.58522"/><circle cx="1392.15" cy="211.846" fill="#1c59eb" r="7.58522"/><circle cx="1415.41" cy="211.846" fill="#1c59eb" r="7.58522"/><circle cx="1252.59" cy="188.585" fill="#1c59eb" r="7.58522"/><circle cx="1275.85" cy="188.585" fill="#1c59eb" r="7.58522"/><circle cx="1299.11" cy="188.585" fill="#1c59eb" r="7.58522"/><circle cx="1322.37" cy="188.585" fill="#1c59eb" r="7.58522"/><circle cx="1345.63" cy="188.585" fill="#1c59eb" r="7.58522"/><circle cx="1368.89" cy="188.585" fill="#1c59eb" r="7.58522"/><circle cx="1392.15" cy="188.585" fill="#1c59eb" r="7.58522"/><circle cx="1415.41" cy="188.585" fill="#1c59eb" r="7.58522"/><g fill="#adf8a3"><circle cx="93" cy="391" r="15"/><circle cx="93" cy="437" r="15"/><circle cx="139" cy="437" r="15"/><circle cx="139" cy="483" r="15"/><circle cx="185" cy="483" r="15"/><circle cx="231" cy="483" r="15"/><circle cx="277" cy="483" r="15"/><circle cx="323" cy="483" r="15"/><circle cx="369" cy="483" r="15"/><circle cx="415" cy="483" r="15"/><circle cx="461" cy="483" r="15"/><circle cx="507" cy="483" r="15"/><circle cx="139" cy="483" r="15"/><circle cx="185" cy="483" r="15"/><circle cx="231" cy="483" r="15"/><circle cx="277" cy="483" r="15"/><circle cx="323" cy="483" r="15"/><circle cx="369" cy="483" r="15"/><circle cx="415" cy="483" r="15"/><circle cx="461" cy="483" r="15"/><circle cx="507" cy="483" r="15"/><circle cx="139" cy="529" r="15"/><circle cx="185" cy="529" r="15"/><circle cx="231" cy="529" r="15"/><circle cx="277" cy="529" r="15"/><circle cx="323" cy="529" r="15"/><circle cx="369" cy="529" r="15"/><circle cx="415" cy="529" r="15"/><circle cx="461" cy="529" r="15"/><circle cx="507" cy="529" r="15"/><circle cx="139" cy="575" r="15"/><circle cx="185" cy="575" r="15"/><circle cx="231" cy="575" r="15"/><circle cx="277" cy="575" r="15"/><circle cx="323" cy="575" r="15"/><circle cx="369" cy="575" r="15"/><circle cx="415" cy="575" r="15"/><circle cx="461" cy="575" r="15"/><circle cx="507" cy="575" r="15"/><circle cx="139" cy="621" r="15"/><circle cx="185" cy="621" r="15"/><circle cx="231" cy="621" r="15"/><circle cx="277" cy="621" r="15"/><circle cx="323" cy="621" r="15"/><circle cx="369" cy="621" r="15"/><circle cx="415" cy="621" r="15"/><circle cx="461" cy="621" r="15"/><circle cx="507" cy="621" r="15"/><circle cx="139" cy="667" r="15"/><circle cx="185" cy="667" r="15"/><circle cx="231" cy="667" r="15"/><circle cx="277" cy="667" r="15"/><circle cx="323" cy="667" r="15"/><circle cx="369" cy="667" r="15"/><circle cx="415" cy="667" r="15"/><circle cx="461" cy="667" r="15"/><circle cx="507" cy="667" r="15"/><circle cx="139" cy="713" r="15"/><circle cx="185" cy="713" r="15"/><circle cx="231" cy="713" r="15"/><circle cx="277" cy="713" r="15"/><circle cx="323" cy="713" r="15"/><circle cx="369" cy="713" r="15"/><circle cx="415" cy="713" r="15"/><circle cx="461" cy="713" r="15"/><circle cx="507" cy="713" r="15"/><circle cx="139" cy="713" r="15"/><circle cx="185" cy="713" r="15"/><circle cx="231" cy="713" r="15"/><circle cx="277" cy="713" r="15"/><circle cx="323" cy="713" r="15"/><circle cx="369" cy="713" r="15"/><circle cx="415" cy="713" r="15"/><circle cx="461" cy="713" r="15"/><circle cx="507" cy="713" r="15"/><circle cx="185" cy="437" r="15"/><circle cx="231" cy="437" r="15"/><circle cx="277" cy="437" r="15"/><circle cx="323" cy="437" r="15"/><circle cx="369" cy="437" r="15"/><circle cx="415" cy="437" r="15"/><circle cx="461" cy="437" r="15"/><circle cx="507" cy="437" r="15"/><circle cx="93" cy="483" r="15"/><circle cx="93" cy="529" r="15"/><circle cx="93" cy="575" r="15"/><circle cx="93" cy="621" r="15"/><circle cx="93" cy="667" r="15"/><circle cx="93" cy="713" r="15"/><circle cx="139" cy="391" r="15"/><circle cx="185" cy="391" r="15"/><circle cx="231" cy="391" r="15"/><circle cx="277" cy="391" r="15"/><circle cx="323" cy="391" r="15"/><circle cx="369" cy="391" r="15"/><circle cx="415" cy="391" r="15"/><circle cx="461" cy="391" r="15"/><circle cx="507" cy="391" r="15"/></g><path d="m1423 1009.43h-1423s41-229.998 199-223.998 60.9-167.5 74-284c20-178 386.6-314.5 519 3 78 187 179 143 255 124 43.1-10.8 112 35 101 146-17.5 176.7 41 189 123 171s152 63.998 152 63.998z" fill="url(#a)"/><path d="m772 102.433s29.8-4.8002 28.6 24.9c-1.1 29.7-11.9 61.3-11.9 61.3s-4 17.7 4.1 34.8c0 0-50.2-6.8-58.5-30.3l2-85.9z" fill="#0c2f3d"/><path d="m759.4 275.233-2.7-80.8s45.9 12.1 28.7-75.8c0 0-17.4-17.6-39.5-6.5-22.2 11.1-23.2 32.1-23.2 32.1l-13.4 124.1z" fill="#ffaaad"/><path d="m784.6 115.433s-8.3 11.8-18.5 18.1c-8.6 5.3-19 5-22.9 7.2 0 0-10.5 41.1 11 78.5 0 0-30.8.4-52.8-28.6 0 0 4 7.4 8.2 13.2 0 0-37.4 1.5-14.7-82.5 14.7-54.4004 79.4-28.0002 89.1-18.8z" fill="#0c2f3d"/><path d="m714.4 810.533c-16.2 70.2-32.9 143.9-33.7 153.6-.6 6.3 25.6 19.2 25.6 19.2l-60.1-1.3 21.3-182.1 14.3-122.5h63.6s-15.3 64.9-31 133.1z" fill="#ffaaad"/><path d="m644.6 966.932-3.5 24.101c-.9 6 3.8 11.297 9.8 11.297h86.3c2.3 0 3-3.098 1-4.098l-39-19.5c-.4-.2-.9-.299-1.3-.199-5.2.9-38.7 5.699-49.1-12.401-1.2-1.7-3.9-1.2-4.2.8z" fill="#173a49"/><path d="m815.2 983.233-60.1-1.3 2.7-173.1 2-131.4h63.6s-6.8 57-14.4 120.3c-8.8 73.8-18.5 156.1-19.4 166.3-.5 6.3 25.6 19.2 25.6 19.2z" fill="#ffaaad"/><path d="m745.4 677.433s-15.3 64.9-31 133.1c-18.4-.1-29.4-6.2-46.9-10.6l14.3-122.5z" fill="#000" opacity=".1"/><path d="m823.4 677.433s-6.8 57-14.4 120.3c-18 6.7-35 9.7-51.3 11.1l2-131.4z" fill="#000" opacity=".1"/><path d="m753.6 966.932-3.5 24.101c-.9 6 3.8 11.297 9.8 11.297h86.3c2.3 0 3-3.098 1-4.098l-39-19.5c-.4-.2-.9-.299-1.3-.199-5.2.9-38.7 5.699-49.1-12.401-1.2-1.7-3.9-1.2-4.2.8z" fill="#173a49"/><path d="m686.5 406.933 118 8s3 326 2 371c0 0-90 37-170-10 0 0 21-262 50-369z" fill="#123245"/><path d="m712 243.433s17.4 18.5 34 24c3 1 10.8-14.2 22-24l23.5 179.5s-38 17-73 0z" fill="#0a75c4"/><path d="m913 291.433 25 28-63.1 70.8c-5.7 6.4-15.8 6.2-21.3-.4l-49.1-59.8-15.5-90.6s20.5 3.6 33.5 18.6l50.5 76.4z" fill="url(#c)"/><path d="m725.1 463.433c-10.9 165.8-34.6 387.5-34.6 387.5-32 2-93-18-93-18l46.1-279.4 21.9-132.6-8.7 3.5-19.3 7.8c-18 7.3-36.5-9.3-31.3-28l40.4-144.8c1.8-6.5 6.8-11.7 13.3-13.6l37.7-11.5 7.4-4.8s5.4 4.9 7.9 11c4.6 11.3 9.1 34 11.1 58 1.2 13.8 7 76.1 1.1 164.9z" fill="url(#d)"/><path d="m812.5 406.933s-7-29 0-71c0 0 5-35-9-69l-11-27-23.5-4.5-11-6s20.5 88.5 22.5 231.5l21 396s35 1 47-11c0 0-10-335-36-439z" fill="url(#e)"/><path d="m719.1 557.533-2-.1c.1-41.1-1.1-101.9-5.1-137.9-5.9-53.3-25.8-119.2-26-119.8l-.2-.8 18.3-10.6-24.5-17.6 26.3-42.1 4.5 7.1 13.5 44.6v.1c.1.9 5.1 93.4 4.5 121.6-.7 38.4-9.2 154.3-9.3 155.5zm-30.9-257.6c2.2 7.5 20.2 69 25.8 119.4 3.2 28.8 4.7 73.5 5 111.3 2.6-36.9 6.9-101.8 7.4-128.7.6-27.7-4.3-117.5-4.5-121.3l-13.4-44.2-2.6-4.1-23.7 37.9 25.5 18.4z" fill="#0c2f3d"/><path d="m788 535.532c-4.8-65.1 5.2-233.6 6-246.4l-15.2-5.4 17.7-11.5-39.2-42.1 1.5-1.4 40.8 43.9-16.3 10.5 12.8 4.6v.8c-.1 1.8-10.9 179.7-6 246.9z" fill="#0c2f3d"/><path d="m793.7 381.832-44 9.6-32-7.2-10.9 4.5-6.7 2.7-5.6-20 1.8-.2 16.6-1.4 8.8-4.8c21.6-8 45.6 0 45.6 0-5.6 7.2-10.4 3.2-17.6 4.8s-4.8 4.8-4.8 4.8l14.4 3.2 26.4-3.2c4 .8 8 7.2 8 7.2z" fill="#ffaaad"/><path d="m710.7 225.832s-8.7 10.6-7.7 18.6 15 32 15 32l11-17 18 11 17-18 14.5 14.2s-.5-26.2-20.5-36.2c0 0 0 7-2 14-5.3 18.7-8 20-8 20s-18.2-10.1-27-22c-5.7-7.8-11.1-17.7-10.3-16.6z" fill="#045593"/><path d="m663 374.433 7-41 4.6 38.7z" fill="#000" opacity=".1"/><path d="m804.696 328.71-1.544 1.27 44.209 53.759 1.545-1.27z" fill="#0c2f3d"/><path d="m663.8 365.733-12.6-1.9c-5.7-.9-9.7-6-9.1-11.7l4-42.5 3.7.3-4 42.5c-.4 3.7 2.3 7.1 6 7.7l12.6 1.9z" fill="#a0a0a0"/><path d="m685.2 365.733 12.6-1.9c5.7-.9 9.7-6 9.1-11.7l-4-42.5-3.7.3 4 42.5c.4 3.7-2.3 7.1-6 7.7l-12.6 1.9z" fill="#a0a0a0"/><path d="m659.9 363.233c-.2 1.9 1.1 3.6 3 3.9l3.2.4c1.9.2 3.6-1.1 3.9-3 .2-1.9-1.1-3.6-3-3.9l-3.2-.4c-2-.2-3.7 1.1-3.9 3z" fill="#123245"/><path d="m689.1 363.233c.2 1.9-1.1 3.6-3 3.9l-3.2.4c-1.9.2-3.6-1.1-3.9-3-.2-1.9 1.1-3.6 3-3.9l3.2-.4c2-.2 3.7 1.1 3.9 3z" fill="#123245"/><path d="m691.8 283.133c-4.2-4-9.5-6.4-15.1-6.9 2-10.5 9.6-37 37-46.9l-1.4-3.8c-29.8 10.8-37.7 39.7-39.7 50.6-.1 0-.1 0-.2 0-10.2.6-18.2 7.1-23.1 18.8-2.7 6.5-3.8 12.8-4.1 15.6-.1.8.5 1.5 1.3 1.6l2.5.2c.7.1 1.4-.5 1.5-1.2.8-5.8 4.9-28.6 22.3-29.7 6.5-.4 21.9 1.8 25.9 29.7.1.7.8 1.3 1.5 1.2l2.5-.3c.8-.1 1.3-.8 1.2-1.6-1.8-12.2-5.8-21.4-12.1-27.3z" fill="#123245"/><path d="m804 292.533c-1.2-19.7-9.4-35.8-24.3-47.8-11.2-9.1-22.2-12.3-22.3-12.4l1.1-3.8c.5.1 11.8 3.5 23.6 13 10.9 8.8 24.3 24.8 25.9 50.8z" fill="#123245"/><path d="m806.4 311.432c6.407 0 11.6-5.193 11.6-11.6 0-6.406-5.193-11.6-11.6-11.6-6.406 0-11.6 5.194-11.6 11.6 0 6.407 5.194 11.6 11.6 11.6z" fill="#a0a0a0"/><path d="m806.4 306.233c3.535 0 6.4-2.866 6.4-6.4 0-3.535-2.865-6.4-6.4-6.4s-6.4 2.865-6.4 6.4c0 3.534 2.865 6.4 6.4 6.4z" fill="#123245"/><path d="m892.3 222.433h99l-50.3 132h-99z" fill="url(#g)"/><path d="m974.4 282.932h-15.8c-1.1 0-2-.7-2.2-1.8-.3-1.7 0-4.2 3.8-6.1h-3.9c-3.1 0-4.8-3.6-2.8-6 .5-.6 1.1-1.2 2-1.9l-3.9-1c-2.2-.6-3.7-2.7-3.3-5 .1-.3.1-.6.3-.9.7-1.6 2.3-2.6 4-2.6h12.4s-4.7-6.3 3.1-7.9h12.6s3.1 3.1 0 7.9c0 0 3.1 6.3-3.1 9.4 0 0 3.1 4.7-1.6 7.9-.1.1 1.5 4.9-1.6 8z" fill="#ffaaad"/><path d="m981 256.433h-16v2h16z" fill="#0c2f3d"/><path d="m954.292 265.903-.042 1.999 23.595.495.042-1.999z" fill="#0c2f3d"/><path d="m958.523 274.119-.041 1.999 17.497.357.041-2z" fill="#0c2f3d"/><path d="m692.1 371.433-.2-2-56 7 .2 2 44.1-5.5 6.8 26.7 2-.4-6.8-26.6z" fill="#0c2f3d"/><path d="m643.6 553.533 21.9-132.6-8.7 3.5 24.2-10z" fill="#000" opacity=".1"/><path d="m706.8 388.732-6.7 2.7-5.6-20 1.8-.1z" fill="#000" opacity=".1"/><path d="m1167.4 935.533v72.897h-685.4v-73.297z" fill="url(#h)"/><path d="m493 935.533v72.897h-280v-73.297z" fill="url(#i)"/><path d="m1231.8 488.533h-768.8v474.7h768.8z" fill="#c0c6cb"/><path d="m492.4 489.233h-312.8v474.7h312.8z" fill="#8b969f"/><path d="m1251 489.333v36.1h-788v-36.3z" fill="url(#j)"/><path d="m491 489.333v36.1h-353v-36.3z" fill="url(#k)"/><path d="m1232 613.133h-739.6v41.3h739.6z" fill="#8b969f"/><path d="m1232 706.133h-739.6v41.3h739.6z" fill="#8b969f"/><path d="m1232 801.133h-739.6v41.3h739.6z" fill="#8b969f"/><path d="m673.5 870.434c79.253 0 143.5-64.248 143.5-143.5 0-79.253-64.247-143.5-143.5-143.5s-143.5 64.247-143.5 143.5c0 79.252 64.247 143.5 143.5 143.5z" fill="#8b969f"/><path d="m691.5 870c79.253 0 143.5-64.247 143.5-143.5s-64.247-143.5-143.5-143.5-143.5 64.247-143.5 143.5 64.247 143.5 143.5 143.5z" fill="#fff"/><circle cx="691.222" cy="726.222" fill="url(#l)" r="107.222"/><circle cx="690.762" cy="725.762" fill="url(#m)" r="54.4939"/><circle cx="689.989" cy="724.99" fill="url(#n)" r="25.5332"/><path d="m585.9 296.133 15.7 141.6c.9 7.7-5.2 14.5-13 14.5h-210.3c-6.7 0-12.3-5-13-11.6l-15.7-141.6c-.9-7.7 5.2-14.5 13-14.5h210.4c6.5 0 12.1 5 12.9 11.6z" fill="#133346"/><path d="m338.4 299.033 15.7 141.6c.7 6.6 6.3 11.6 13 11.6h210.3c7.8 0 13.9-6.8 13-14.5l-15.7-141.6c-.7-6.6-6.3-11.6-13-11.6h-210.4c-7.7 0-13.8 6.7-12.9 14.5z" fill="#a6a5bc"/><path d="m493.3 379.533h-22.4v72.7h22.4z" fill="#133346"/><path d="m493.3 379.533h-46.6l-29.8 110h115.5v-11.2h-63.4z" fill="#a6a5bc"/><path d="m524 435.434h-4v6h4z" fill="#133346"/><path d="m533 435.434h-4v6h4z" fill="#133346"/><path d="m542 435.434h-4v6h4z" fill="#133346"/><path d="m551 435.434h-4v6h4z" fill="#133346"/><path d="m1213.1 972.633c-.2-2.4-.8-5.4-1.6-8.8-5.3-22.3-21.1-62.7-21.1-62.7h45.3l5.7 52.3 3.9 35.9-56 1.2c-.1 0 24.3-12 23.8-17.9z" fill="#fcb9c0"/><path d="m1246.7 975.333 3.3 22.5c.8 5.597-3.5 10.597-9.1 10.597h-80.4c-2.1 0-2.8-2.9-.9-3.8l36.4-18.197c.4-.2.8-.3 1.2-.2 4.9.8 36 5.3 45.8-11.5.9-1.7 3.4-1.3 3.7.6z" fill="#0c2f3d"/><path d="m1114.3 901.133-3.3 52.5-2.3 35.7-53.9 1.2s24.4-12 23.8-17.9c-.3-2.8-.6-6.6-1.1-10.8-2.5-22.6-7.5-60.7-7.5-60.7z" fill="#fcb9c0"/><path d="m1112.3 975.333 3.3 22.5c.8 5.597-3.5 10.597-9.1 10.597h-80.5c-2.1 0-2.8-2.9-.9-3.8l36.4-18.197c.4-.2.8-.3 1.2-.2 4.9.8 36 5.3 45.8-11.5 1-1.7 3.5-1.3 3.8.6z" fill="#0c2f3d"/><path d="m1116.6 286.633-11.6-46.2s-61 24.7-37.1-78.3c0 0 9.9-28.9 53.6-14 0 0 18.1 3.3 19.8 36.3 1.6 33 18.1 97.3 18.1 97.3z" fill="#fcb9c0"/><path d="m1114.3 901.133-3.3 52.5-33.4 8.2c-2.5-22.6-7.5-60.7-7.5-60.7z" fill="#000" opacity=".1"/><path d="m1241.4 953.433-29.9 10.4c-5.3-22.3-21.1-62.7-21.1-62.7h45.3z" fill="#000" opacity=".1"/><path d="m1191.7 353.333-.3 15.2-.7 38.4-35.1 171.6h-28.3l23.4-165.7-6-43.3-2.7-20.1z" fill="#fcb9c0"/><path d="m1191.7 353.333-.3 15.2-46.7 1-2.7-20.1z" fill="#000" opacity=".1"/><path d="m1251.5 952.833h-33.6c-14.7 0-28 0-28 0s-75-241.6-77.3-261.4l5.6 76.2 13.7 185.3h-62.3l-30.1-292.3v-214.9l113.1-10.8s8.7 14.8 17.9 38.2c12.4 31.7 25.6 79.1 19.5 127.3l10.7 128.9s53 223.5 50.8 223.5z" fill="url(#o)"/><path d="m1170.4 473.033-131-14.4v-13l113.1-10.8c.1 0 8.8 14.8 17.9 38.2z" fill="#000" opacity=".2"/><path d="m1158.8 401.832c-1.8 12 .7 48.1.7 48.1l-86.6 2.9-20.9.7-21-65.1 1.8-10.1.3-1.5c11-71.4 19.4-93.2 29.6-102.9 2.5-2.4 24.3-10.2 40.6-15.7 10-3.4 17.9-6 17.9-6 9.7 1.1 36.1 14.2 53.9 39.7 6.1 8.7 10.2 19.4 12.9 29.9 5.3 20.3 5.6 39.3 5.6 39.3l-25 .7s-8.3 30-9.8 40z" fill="url(#q)"/><path d="m1188 321.832c-13.7-13.3-29-8.4-29-8.4-61 0-66-49-66-49l10.3-6.2c10-3.4 17.9-6 17.9-6 9.7 1.1 36.1 14.2 53.9 39.7 6.1 8.6 10.2 19.4 12.9 29.9z" fill="#000" opacity=".1"/><path d="m1081.5 381.833-4.7 13.3-21.8 62.1c-2.6 8.2-9.5 14.2-18 15.5l-104 16.7h-69l5.5-6.4c2.4-2.7 5.4-4.8 8.8-6l36-12.5c2.1-.7 4.4-1 6.7-.7l16.5 1.9 80.9-32.1 13-49.2 1-3.9z" fill="#fcb9c0"/><path d="m1127.4 904.432-14.8-210.6.1-.1 15-129 1.9.3-15 128.8 14.7 210.5z" fill="#fff"/><path d="m1181.7 227.333c-11.8-7.6-17.7-15.2-18-49.8s-24.1-40.3-24.1-40.3c-28.6-25.3-71-5.6-77.4 12.5-7 19.8 17.4 16.9 23.9 21.6 5.5 4 7.2 19.5 7.8 26.5.2 2.5-.7 5.6-.4 7.9-1.1 7.2-4.4 19.8-7.8 32.5-2.2 8.3-2.5 26.1 2.5 37 0 0-5.8-23.9 4.2-44.6 1.5-3 3.3-7.4 4.8-12.1-.2 5.1-2.1 10.2-3.2 13.8-3.5 11.3-10 34.5 3.5 52.2 13 17.1 68.2 29.5 92.6 7.6 24.5-21.9 3.4-57.3-8.4-64.8z" fill="#0c2f3d"/><path d="m1081.5 381.833-4.7 13.2-45.4-10.6 1-3.8z" fill="#000" opacity=".1"/><path d="m1189.9 952.833s-75-241.6-77.3-261.4l12.4-84.9c4 120 65.5 288.6 92.9 346.4-14.7-.1-28-.1-28-.1z" fill="#000" opacity=".1"/><path d="m279.1 395.532s4.4-13.2 15.9-19.4c0 0 12.3-4.9 14.5-8.2 0 .1-15.4 20.6-30.4 27.6z" fill="url(#s)"/><path d="m272.2 467.432h-3.5s-3.1-46.3-13.7-71c-1.8-4.2-3.1-9.7-9.6-15.4-8.9-7.8-26.8-19.1-61.4-28.2l-21.7-7-.3-.1s8.4-4.8 13.7-4c0 0 17.2-10.1 26.9.4 0 0 19.4-4.4 23.8 6.2 0 0 29.1-1.8 22 30 0 .1 16.3 11.1 23.8 89.1z" fill="url(#t)"/><path d="m274.3 461.232s1.8-38.8 4.4-50.2c0 0 6.6-17.2 18.1-25.1 0 0 14.1-9.7 13.2-18.5 0 0-9.7 14.1-25.6 20.3 0 0-25.6 13.2-9.7 30l-2.6 45.8z" fill="url(#v)"/><path d="m245.4 381.032c-8.9-7.8-26.8-19.1-61.4-28.2l-21.7-7c8.1-.7 21.7-.8 28.8 5.2 0 0 25.6-5.3 35.3 11.5 1.4 2.4 5.3 2.6 10.6 2.6 4.9 0 10.6.8 8.4 15.9z" fill="url(#w)"/><path d="m246.2 445.432 8.5 44h36.9l8.5-44z" fill="url(#x)"/><path d="m277.5 489.432h14.1l8.5-44h-15.7z" fill="#000" opacity=".08"/><path d="m176 754.133s-37.1-245.2 81.9-212.8c0 .1 58.7 27.1-81.9 212.8z" fill="url(#y)"/><path d="m206.6 754.133s56.7-135.2 139.7-93.8c0 .1 28 32.5-139.7 93.8z" fill="url(#z)"/><path d="m151.9 760.033s-105.6-63.5-92.2-98.2c0 .1 39.2-42.6 92.2 98.2z" fill="url(#A)"/><path d="m134.4 809.333s-82.6-46.2-87.1-15.4c0 0-2.8 25.3 87.1 15.4z" fill="url(#B)"/><path d="m193.6 841.432c-4.7 2 38-88.9 82.4-66.2 0 0 26.9 19.5-82.4 66.2z" fill="url(#C)"/><path d="m174 866.833-3.6-.1c.6-14.7-4.1-27.4-13.8-37.9-28.4-30.5-91.2999-32.6-91.8999-32.6l.1-3.6c2.6.1 64.9999 2.2 94.3999 33.7 10.4 11.2 15.4 24.8 14.8 40.5z" fill="#2b322a"/><path d="m177.7 887.432-3.6-.1c1-25 17.3-51.5 47.3-76.5 22.5-18.8 45-30.4 45.2-30.5l1.6 3.2c-.9.5-88.3 45.8-90.5 103.9z" fill="#2b322a"/><path d="m179.7 878.032c-5.8-36.1-1.7-69.8 12.3-99.9 11.2-24.1 28.6-46 51.8-65.2 39.4-32.5 82.6-46 83-46.1l1.1 3.4c-.4.1-43 13.4-81.9 45.5-35.7 29.5-75.6 81.5-62.7 161.7z" fill="#2b322a"/><path d="m183.1 903.333c-10.3-41.7-13.9-85.8-10.6-130.9 2.6-36.1 9.6-73 20.8-109.6 19-62.4 43.9-103 44.1-103.4l3.1 1.9c-.2.4-24.9 40.7-43.8 102.7-17.4 57.1-33.3 144.9-10.1 238.5z" fill="#2b322a"/><path d="m176.9 889.733h-3.6c.6-86.4-26.3-141.3-49.1-172.1-24.6-33.3-49.5-46.3-49.7-46.5l1.6-3.2c1 .5 25.9 13.6 51 47.5 23.1 31.3 50.4 86.9 49.8 174.3z" fill="#2b322a"/><path d="m235.5 865.933-.1.3-19.7 142.197h-79.4l-19.8-142.497z" fill="url(#D)"/><path d="m235.4 866.232-19.7 142.198h-79.1c30.6-21.598 79.4-66.498 98.8-142.198z" fill="#000" opacity=".1"/></svg>