<svg width="60" height="73" viewBox="0 0 60 73" fill="none" xmlns="http://www.w3.org/2000/svg">
<mask id="mask0" mask-type="alpha" maskUnits="userSpaceOnUse" x="0" y="0" width="60" height="73">
<rect width="60" height="72.4528" fill="#C4C4C4"/>
</mask>
<g mask="url(#mask0)">
<path d="M57.0542 17.1715C58.7121 15.5136 58.7243 12.8068 56.9092 11.3227C53.7028 8.70105 50.1239 6.55781 46.2833 4.96701C41.1327 2.83355 35.6123 1.73548 30.0374 1.73548C24.4624 1.73548 18.942 2.83355 13.7914 4.96701C9.95081 6.55781 6.37194 8.70105 3.16553 11.3227C1.35041 12.8068 1.36265 15.5136 3.02054 17.1715V17.1715C4.67842 18.8294 7.35221 18.8049 9.20386 17.3667C11.5958 15.5087 14.2306 13.9752 17.0406 12.8113C21.161 11.1045 25.5774 10.226 30.0374 10.226C34.4973 10.226 38.9137 11.1045 43.0341 12.8113C45.8441 13.9752 48.4789 15.5087 50.8708 17.3667C52.7225 18.8049 55.3963 18.8294 57.0542 17.1715V17.1715Z" fill="#1F293F"/>
<circle cx="30.2604" cy="44.4114" r="25.8366" fill="#1F293F"/>
<circle cx="30.1496" cy="44.3005" r="13.1311" fill="#4F74F0"/>
<circle cx="29.9636" cy="44.1145" r="6.15258" fill="#F4F7FE"/>
</g>
</svg>
