<svg width="48" height="58" viewBox="0 0 48 58" fill="none" xmlns="http://www.w3.org/2000/svg">
<mask id="mask0" mask-type="alpha" maskUnits="userSpaceOnUse" x="0" y="0" width="48" height="58">
<rect width="48" height="58" fill="#C4C4C4"/>
</mask>
<g mask="url(#mask0)">
<path d="M46.5 13.5C47.8807 12.1193 47.8909 9.86504 46.3792 8.62907C43.7089 6.44572 40.7284 4.6608 37.5299 3.33596C33.2404 1.55919 28.6429 0.644693 24 0.644693C19.3571 0.644693 14.7596 1.55919 10.4701 3.33596C7.27164 4.6608 4.2911 6.44572 1.62075 8.62907C0.109096 9.86504 0.119287 12.1193 1.5 13.5V13.5C2.88071 14.8807 5.10748 14.8604 6.64956 13.6626C8.64161 12.1153 10.8359 10.8381 13.1761 9.86877C16.6077 8.44736 20.2857 7.71576 24 7.71576C27.7143 7.71576 31.3923 8.44735 34.8239 9.86877C37.1641 10.8381 39.3584 12.1153 41.3504 13.6626C42.8925 14.8604 45.1193 14.8807 46.5 13.5V13.5Z" fill="#41A436"/>
<circle cx="24.1855" cy="36.1858" r="21.5171" fill="#3D7ED1"/>
<circle cx="24.1859" cy="36.1858" r="10.9357" fill="black" fill-opacity="0.87"/>
<circle cx="24.1859" cy="36.1858" r="10.9357" fill="#2D4F9F" fill-opacity="0.2"/>
<circle cx="31.1735" cy="29.3388" r="5.12396" fill="white"/>
</g>
</svg>
