<svg width="60" height="73" viewBox="0 0 60 73" fill="none" xmlns="http://www.w3.org/2000/svg">
<mask id="mask0" mask-type="alpha" maskUnits="userSpaceOnUse" x="0" y="0" width="60" height="73">
<rect y="0.547169" width="60" height="72.4528" fill="#C4C4C4"/>
</mask>
<g mask="url(#mask0)">
<path d="M57.0542 17.7187C58.7121 16.0608 58.7243 13.354 56.9092 11.8699C53.7028 9.24822 50.1239 7.10499 46.2833 5.51418C41.1327 3.38073 35.6123 2.28265 30.0374 2.28265C24.4624 2.28265 18.942 3.38073 13.7914 5.51418C9.95081 7.10499 6.37194 9.24822 3.16553 11.8699C1.35041 13.354 1.36265 16.0608 3.02054 17.7187V17.7187C4.67842 19.3766 7.35221 19.3521 9.20386 17.9138C11.5958 16.0559 14.2306 14.5224 17.0406 13.3584C21.161 11.6517 25.5774 10.7732 30.0374 10.7732C34.4973 10.7732 38.9137 11.6517 43.0341 13.3584C45.8441 14.5223 48.4789 16.0559 50.8708 17.9138C52.7225 19.3521 55.3963 19.3766 57.0542 17.7187V17.7187Z" fill="black" fill-opacity="0.87"/>
<path d="M57.0542 17.7187C58.7121 16.0608 58.7243 13.354 56.9092 11.8699C53.7028 9.24822 50.1239 7.10499 46.2833 5.51418C41.1327 3.38073 35.6123 2.28265 30.0374 2.28265C24.4624 2.28265 18.942 3.38073 13.7914 5.51418C9.95081 7.10499 6.37194 9.24822 3.16553 11.8699C1.35041 13.354 1.36265 16.0608 3.02054 17.7187V17.7187C4.67842 19.3766 7.35221 19.3521 9.20386 17.9138C11.5958 16.0559 14.2306 14.5224 17.0406 13.3584C21.161 11.6517 25.5774 10.7732 30.0374 10.7732C34.4973 10.7732 38.9137 11.6517 43.0341 13.3584C45.8441 14.5223 48.4789 16.0559 50.8708 17.9138C52.7225 19.3521 55.3963 19.3766 57.0542 17.7187V17.7187Z" fill="#2D4F9F" fill-opacity="0.2"/>
<circle cx="30.2604" cy="44.9586" r="25.8366" fill="black" fill-opacity="0.87"/>
<circle cx="30.2604" cy="44.9586" r="25.8366" fill="#2D4F9F" fill-opacity="0.2"/>
<circle cx="30.1496" cy="44.8477" r="13.1311" fill="#3D7ED1"/>
<circle cx="29.9636" cy="44.6616" r="6.15258" fill="white" fill-opacity="0.87"/>
</g>
</svg>
