<svg width="1457" height="993" viewBox="0 0 1457 993" fill="none" xmlns="http://www.w3.org/2000/svg">
<path d="M14.8145 992.087H1437.81C1437.81 992.087 1396.81 762.087 1238.81 768.087C1080.81 774.087 1175.91 600.787 1164.81 484.087C1150.81 337.087 778.214 169.587 645.814 487.087C567.814 674.087 466.814 630.087 390.814 611.087C347.714 600.287 278.814 646.087 289.814 757.087C307.314 933.787 248.814 946.087 166.814 928.087C84.8145 910.087 14.8145 992.087 14.8145 992.087Z" fill="url(#paint0_linear)"/>
<path d="M526.415 0.0869141H123.814V462.087H526.415V0.0869141Z" fill="url(#paint1_linear)"/>
<path d="M526.415 167.487V462.087H123.814V257.387C150.214 227.987 188.115 203.687 231.915 230.287C316.115 281.487 319.314 279.787 373.814 250.087C422.414 223.587 459.215 169.387 526.415 167.487Z" fill="url(#paint2_linear)"/>
<path d="M353.914 0.0869141H325.914V462.087H353.914V0.0869141Z" fill="url(#paint3_linear)"/>
<path d="M338.315 0.0869141H315.215V462.087H338.315V0.0869141Z" fill="#FCFDFF"/>
<path d="M145.314 0.0869141H123.814V462.087H145.314V0.0869141Z" fill="url(#paint4_linear)"/>
<path d="M526.415 28.187H123.814V46.287H526.415V28.187Z" fill="#FCFDFF"/>
<path d="M526.415 66.8867H123.814V84.9867H526.415V66.8867Z" fill="#FCFDFF"/>
<path d="M526.415 106.487H123.814V124.587H526.415V106.487Z" fill="#FCFDFF"/>
<path d="M526.415 146.087H123.814V164.187H526.415V146.087Z" fill="#FCFDFF"/>
<path d="M934.914 559.587V914.087H961.814V560.087L934.914 559.587Z" fill="url(#paint5_linear)"/>
<path d="M1133.81 99.8867H742.314V563.587H1133.81V99.8867Z" fill="#F4F4F2"/>
<path d="M910.215 214.987V207.887H913.215C915.315 207.887 916.615 207.587 917.215 207.087C917.815 206.587 918.115 205.287 918.115 203.187V172.687C918.115 170.587 917.815 169.287 917.215 168.787C916.615 168.287 915.315 167.987 913.215 167.987H910.215V160.887H963.515V181.487H956.415C956.015 178.387 955.415 175.987 954.815 174.387C954.215 172.787 953.415 171.487 952.415 170.587C951.415 169.687 950.115 168.987 948.615 168.587C947.115 168.187 944.215 167.987 940.215 167.987H933.215V183.387H934.515C937.515 183.387 939.515 182.787 940.515 181.687C941.515 180.587 942.015 178.287 942.015 174.887H948.815V199.487H942.015C941.915 195.787 941.415 193.287 940.515 192.187C939.615 191.087 937.615 190.487 934.515 190.487H933.215V207.887H940.415C946.315 207.887 950.315 206.887 952.415 204.787C954.515 202.787 955.815 198.687 956.415 192.687H963.515V214.987H910.215Z" fill="#143847"/>
<path d="M866.515 289.987V284.187H868.915C870.615 284.187 871.714 283.987 872.214 283.587C872.714 283.187 872.915 282.087 872.915 280.387V255.587C872.915 253.887 872.714 252.787 872.214 252.387C871.714 251.987 870.615 251.787 868.915 251.787H866.515V245.987H907.714V263.887H901.915C901.715 261.087 901.314 258.887 900.814 257.387C900.314 255.787 899.614 254.587 898.714 253.787C897.914 253.087 896.914 252.487 895.714 252.187C894.514 251.887 892.114 251.687 888.714 251.687H885.214V264.187H885.614C887.714 264.187 889.115 263.687 889.915 262.787C890.715 261.787 891.114 260.087 891.114 257.587V257.287H896.614V277.287H891.114C891.114 274.487 890.715 272.487 889.915 271.487C889.115 270.487 887.914 269.887 886.114 269.887C886.014 269.887 885.814 269.887 885.614 269.887C885.414 269.887 885.214 269.887 885.114 269.887V280.287C885.114 281.987 885.314 282.987 885.814 283.387C886.314 283.787 887.414 284.087 889.114 284.087H891.814V289.887H866.515V289.987Z" fill="#143847"/>
<path d="M995.214 246.087C1001.21 246.087 1005.61 247.087 1008.41 249.087C1011.21 251.087 1012.61 254.287 1012.61 258.687C1012.61 260.487 1012.21 262.187 1011.51 263.787C1010.81 265.287 1009.71 266.687 1008.41 267.787C1007.11 268.887 1005.41 269.587 1003.51 270.087C1001.51 270.587 998.814 270.787 995.314 270.787H986.915V280.487C986.915 282.187 987.114 283.187 987.614 283.587C988.114 283.987 989.215 284.287 990.915 284.287H994.015V290.087H968.114V284.287H970.515C972.215 284.287 973.314 284.087 973.814 283.687C974.314 283.287 974.515 282.187 974.515 280.487V255.687C974.515 253.987 974.314 252.887 973.814 252.487C973.314 252.087 972.215 251.887 970.515 251.887H968.114V246.087H995.214ZM986.814 265.087H990.915C994.115 265.087 996.414 264.587 997.714 263.587C999.014 262.587 999.614 260.787 999.614 258.287C999.614 255.987 998.914 254.387 997.614 253.387C996.214 252.387 994.015 251.887 990.915 251.887H986.814V265.087Z" fill="#143847"/>
<path d="M884.714 319.787V335.287H879.314C879.314 331.887 878.715 329.287 877.415 327.687C876.115 326.087 874.115 325.187 871.415 325.187H870.814V350.687C870.814 352.087 870.915 352.987 871.015 353.387C871.115 353.787 871.414 354.087 871.814 354.187C872.214 354.387 872.815 354.487 873.515 354.587C874.215 354.687 875.414 354.687 877.214 354.787V359.887H853.415V354.787C854.615 354.787 855.714 354.787 856.614 354.687C857.514 354.587 858.214 354.487 858.814 354.287C859.214 354.187 859.415 353.887 859.515 353.487C859.615 353.087 859.714 352.187 859.714 350.787V349.987V325.187H859.114C856.414 325.187 854.415 325.987 853.015 327.687C851.715 329.387 851.015 331.887 851.015 335.287H845.614V319.787H884.714Z" fill="#143847"/>
<path d="M822.914 396.887H845.314V401.987H842.914C841.414 401.987 840.414 402.187 840.014 402.587C839.614 402.987 839.414 403.887 839.414 405.387V430.487H842.414C845.314 430.487 847.314 430.387 848.514 430.087C849.714 429.787 850.514 429.287 851.314 428.687C852.114 427.987 852.714 426.887 853.214 425.487C853.614 424.087 854.014 422.187 854.114 419.787H859.214V435.587H823.014V430.487H825.114C826.614 430.487 827.614 430.287 828.014 429.887C828.414 429.487 828.614 428.587 828.614 427.087V405.287C828.614 403.787 828.414 402.887 828.014 402.487C827.614 402.087 826.614 401.987 825.114 401.987H823.014V396.887H822.914Z" fill="#143847"/>
<path d="M907.714 396.887C913.014 396.887 916.914 397.787 919.314 399.587C921.714 401.387 923.015 404.187 923.015 407.987C923.015 409.587 922.715 411.087 922.015 412.487C921.415 413.887 920.414 414.987 919.214 415.987C918.014 416.887 916.615 417.587 914.915 417.987C913.215 418.387 910.814 418.587 907.714 418.587H900.314V427.087C900.314 428.587 900.515 429.487 900.915 429.887C901.315 430.287 902.314 430.487 903.814 430.487H906.614V435.587H883.814V430.487H885.915C887.415 430.487 888.414 430.287 888.814 429.887C889.214 429.487 889.415 428.587 889.415 427.087V405.287C889.415 403.787 889.214 402.887 888.814 402.487C888.414 402.087 887.415 401.987 885.915 401.987H883.814V396.887H907.714ZM900.314 413.587H903.915C906.715 413.587 908.715 413.087 909.915 412.187C911.115 411.287 911.614 409.687 911.614 407.487C911.614 405.487 911.014 404.087 909.814 403.187C908.614 402.287 906.615 401.887 903.915 401.887H900.314V413.587Z" fill="#143847"/>
<path d="M950.414 435.487V430.387H952.514C954.014 430.387 955.014 430.187 955.414 429.787C955.814 429.387 956.014 428.487 956.014 426.987V405.187C956.014 403.687 955.814 402.787 955.414 402.387C955.014 401.987 954.014 401.887 952.514 401.887H950.414V396.787H988.614V411.487H983.514C983.214 409.287 982.814 407.587 982.414 406.387C982.014 405.187 981.414 404.287 980.714 403.687C980.014 402.987 979.114 402.487 977.914 402.287C976.714 402.087 974.814 401.887 971.914 401.887H966.914V412.887H967.914C970.014 412.887 971.514 412.487 972.214 411.687C972.914 410.887 973.314 409.287 973.314 406.787H978.114V424.387H973.314C973.214 421.687 972.914 419.987 972.214 419.187C971.514 418.387 970.114 417.987 967.914 417.987H966.914V430.387H972.114C976.314 430.387 979.214 429.687 980.714 428.187C982.214 426.687 983.114 423.787 983.614 419.487H988.714V435.387H950.414V435.487Z" fill="#143847"/>
<path d="M1012.51 435.487V430.387H1014.61C1016.11 430.387 1017.11 430.187 1017.51 429.787C1017.91 429.387 1018.11 428.487 1018.11 426.987V405.187C1018.11 403.687 1017.91 402.787 1017.51 402.387C1017.11 401.987 1016.11 401.887 1014.61 401.887H1012.51V396.787H1032.91C1040.61 396.787 1046.31 398.387 1050.01 401.487C1053.71 404.687 1055.61 409.487 1055.61 415.987C1055.61 422.487 1053.71 427.387 1050.01 430.587C1046.31 433.787 1040.61 435.387 1032.91 435.387H1012.51V435.487ZM1028.91 430.487H1032.91C1036.51 430.487 1039.11 429.387 1040.71 427.187C1042.31 424.987 1043.11 421.287 1043.11 416.187C1043.11 410.987 1042.31 407.287 1040.71 405.187C1039.11 403.087 1036.41 401.987 1032.61 401.987H1028.91V430.487Z" fill="#143847"/>
<path d="M916.314 339.887C916.314 333.287 918.314 328.087 922.314 324.287C926.314 320.487 931.814 318.587 938.814 318.587C945.814 318.587 951.314 320.487 955.314 324.287C959.314 328.087 961.314 333.287 961.314 339.887C961.314 346.487 959.314 351.687 955.314 355.487C951.314 359.287 945.814 361.187 938.814 361.187C931.814 361.187 926.314 359.287 922.314 355.487C918.314 351.687 916.314 346.487 916.314 339.887ZM929.415 339.887C929.415 345.387 930.214 349.387 931.714 351.887C933.214 354.387 935.615 355.687 938.915 355.687C942.215 355.687 944.614 354.387 946.114 351.887C947.614 349.387 948.415 345.387 948.415 339.887C948.415 334.387 947.614 330.387 946.114 327.887C944.614 325.387 942.215 324.087 938.915 324.087C935.615 324.087 933.214 325.387 931.714 327.887C930.114 330.487 929.415 334.487 929.415 339.887Z" fill="#143847"/>
<path d="M991.314 359.987V354.487L1014.01 325.187H1007.41C1003.91 325.187 1001.41 325.887 1000.11 327.287C998.714 328.687 997.914 331.287 997.714 334.987H992.415V319.787H1027.41V325.587L1004.41 354.787H1011.61C1015.11 354.787 1017.61 353.987 1019.11 352.387C1020.51 350.787 1021.31 347.887 1021.51 343.587H1027.41V359.887H991.314V359.987Z" fill="#143847"/>
<path d="M813.914 470.087C818.714 470.087 822.214 470.887 824.414 472.487C826.614 474.087 827.714 476.587 827.714 480.087C827.714 481.587 827.414 482.887 826.814 484.087C826.214 485.287 825.414 486.387 824.314 487.287C823.314 488.087 821.914 488.787 820.414 489.087C818.814 489.487 816.714 489.687 813.914 489.687H807.314V497.387C807.314 498.687 807.514 499.587 807.914 499.887C808.314 500.187 809.214 500.387 810.514 500.387H813.014V504.987H792.414V500.387H794.314C795.714 500.387 796.514 500.187 796.914 499.887C797.314 499.587 797.514 498.687 797.514 497.387V477.687C797.514 476.287 797.314 475.487 796.914 475.187C796.514 474.887 795.714 474.687 794.314 474.687H792.414V470.087H813.914ZM807.214 485.187H810.414C813.014 485.187 814.814 484.787 815.814 483.987C816.814 483.187 817.314 481.787 817.314 479.787C817.314 477.987 816.814 476.687 815.714 475.887C814.614 475.087 812.814 474.687 810.414 474.687H807.214V485.187Z" fill="#143847"/>
<path d="M857.814 504.887V500.287H859.714C861.114 500.287 861.914 500.087 862.314 499.787C862.714 499.487 862.915 498.587 862.915 497.287V477.587C862.915 476.187 862.714 475.387 862.314 475.087C861.914 474.787 861.114 474.587 859.714 474.587H857.814V469.987H892.214V483.287H887.614C887.314 481.287 887.014 479.687 886.614 478.687C886.214 477.687 885.714 476.787 885.114 476.287C884.514 475.687 883.614 475.287 882.614 474.987C881.614 474.687 879.814 474.587 877.214 474.587H872.714V484.487H873.614C875.514 484.487 876.815 484.087 877.515 483.387C878.215 482.687 878.515 481.187 878.515 478.987H882.915V494.887H878.515C878.415 492.487 878.115 490.887 877.515 490.187C876.915 489.487 875.614 489.087 873.614 489.087H872.714V500.287H877.415C881.215 500.287 883.814 499.587 885.114 498.287C886.414 496.987 887.314 494.387 887.714 490.487H892.314V504.887H857.814Z" fill="#143847"/>
<path d="M948.015 491.387H953.515C953.415 496.187 952.015 499.787 949.415 502.287C946.815 504.687 943.015 505.987 938.015 505.987C932.415 505.987 927.915 504.287 924.515 500.987C921.115 497.687 919.515 493.187 919.515 487.487C919.515 484.687 919.914 482.187 920.814 479.987C921.714 477.787 923.014 475.787 924.814 473.987C926.514 472.287 928.415 471.087 930.515 470.287C932.615 469.487 934.914 469.087 937.614 469.087C939.514 469.087 941.315 469.387 942.915 469.887C944.515 470.387 946.214 471.287 947.714 472.387L948.714 469.587H953.515V483.787H948.415C948.215 480.687 947.314 478.387 945.814 476.687C944.314 474.987 942.214 474.087 939.714 474.087C936.914 474.087 934.714 475.287 933.214 477.587C931.614 479.887 930.915 483.187 930.915 487.387C930.915 491.687 931.714 494.987 933.214 497.287C934.714 499.587 936.914 500.787 939.814 500.787C942.214 500.787 944.214 499.987 945.614 498.287C947.014 496.687 947.815 494.387 948.015 491.387Z" fill="#143847"/>
<path d="M984.215 504.887V500.287H986.115C987.515 500.287 988.315 500.087 988.715 499.787C989.115 499.487 989.315 498.587 989.315 497.287V477.587C989.315 476.187 989.115 475.387 988.715 475.087C988.315 474.787 987.515 474.587 986.115 474.587H984.215V469.987H1016.81V484.187H1012.21C1012.01 481.987 1011.72 480.287 1011.42 478.987C1011.02 477.787 1010.41 476.787 1009.71 476.087C1009.11 475.487 1008.31 475.087 1007.31 474.787C1006.31 474.587 1004.51 474.387 1001.71 474.387H999.015V484.287H999.415C1001.02 484.287 1002.21 483.887 1002.81 483.187C1003.41 482.387 1003.81 481.087 1003.81 479.087V478.787H1008.21V494.687H1003.81C1003.81 492.487 1003.52 490.887 1002.92 490.087C1002.32 489.287 1001.32 488.887 999.915 488.887C999.815 488.887 999.715 488.887 999.515 488.887C999.315 488.887 999.215 488.887 999.115 488.887V497.087C999.115 498.387 999.315 499.287 999.715 499.587C1000.11 499.887 1001.01 500.087 1002.31 500.087H1004.52V504.687H984.215V504.887Z" fill="#143847"/>
<path d="M1048.51 504.887V500.287H1050.41C1051.81 500.287 1052.61 500.087 1053.01 499.787C1053.41 499.487 1053.61 498.587 1053.61 497.287V477.587C1053.61 476.187 1053.41 475.387 1053.01 475.087C1052.61 474.787 1051.81 474.587 1050.41 474.587H1048.51V469.987H1066.91C1073.81 469.987 1079.01 471.387 1082.41 474.287C1085.81 477.187 1087.41 481.487 1087.41 487.387C1087.41 493.287 1085.71 497.687 1082.31 500.487C1078.91 503.387 1073.81 504.787 1066.91 504.787H1048.51V504.887ZM1063.31 500.387H1066.91C1070.21 500.387 1072.51 499.387 1073.91 497.387C1075.31 495.387 1076.01 492.087 1076.01 487.487C1076.01 482.787 1075.31 479.487 1073.91 477.587C1072.51 475.687 1070.01 474.687 1066.61 474.687H1063.31V500.387Z" fill="#143847"/>
<path d="M1173.81 85.0869H702.814C696.214 85.0869 690.814 90.4869 690.814 97.0869C690.814 103.687 696.214 109.087 702.814 109.087H737.814V565.087H1138.81V109.087H1173.81C1180.41 109.087 1185.81 103.687 1185.81 97.0869C1185.81 90.4869 1180.41 85.0869 1173.81 85.0869ZM1128.81 555.087H747.814V109.087H1128.81V555.087Z" fill="#8B969F"/>
<path d="M1177.41 657.287H291.114V990.087H1177.41V657.287Z" fill="#8B969F"/>
<path d="M577.414 322.687C577.414 322.687 574.314 360.187 550.814 364.887V447.087H482.114L479.414 346.087C479.414 346.087 432.814 304.087 447.614 280.387C472.014 241.387 461.714 224.087 510.214 222.487C558.714 220.887 583.714 250.587 580.614 283.487C580.514 283.587 600.814 297.587 577.414 322.687Z" fill="#FFAAAD"/>
<path d="M582.814 222.087C582.814 222.087 609.414 251.487 579.714 282.787C579.714 282.787 578.114 249.987 557.814 245.287C557.814 245.287 509.314 279.687 479.614 260.887C479.614 260.887 469.314 268.187 471.514 292.887C471.614 293.887 470.514 294.687 469.614 294.187L466.914 292.787C466.014 292.387 465.314 291.587 464.914 290.687L463.914 288.387C463.114 286.687 461.514 285.487 459.614 285.487C455.414 285.287 448.914 287.087 452.214 301.287C455.914 317.187 469.514 325.887 469.514 325.887C469.514 325.887 471.314 335.187 475.214 342.587C475.214 342.587 405.814 280.087 451.614 217.487C469.414 193.187 531.814 164.087 582.814 222.087Z" fill="#2A2A2A"/>
<path d="M475.714 406.587L528.814 432.387L560.014 406.587L549.714 657.287L483.114 657.587L475.714 406.587Z" fill="url(#paint6_linear)"/>
<path d="M480.114 398.687L409.014 415.887C391.314 420.187 377.814 434.487 374.614 452.387L342.714 628.587C340.014 643.687 351.614 657.687 367.014 657.687H526.414L525.414 617.187L489.814 603.087L480.114 398.687Z" fill="url(#paint7_linear)"/>
<path d="M674.415 657.287C665.115 657.287 656.514 654.187 649.514 648.887C642.514 643.587 637.214 636.087 634.714 627.187L624.214 590.087C624.214 590.087 624.214 590.087 624.214 589.987L621.415 579.987L612.514 657.287H538.814L555.915 398.387L645.014 413.987C658.614 416.387 669.515 426.487 672.915 439.887L714.014 604.187C721.914 630.687 702.115 657.287 674.415 657.287Z" fill="url(#paint8_linear)"/>
<path d="M566.814 626.287L564.814 625.887L596.714 445.687L568.914 434.387L594.914 413.387L550.414 393.987L551.214 392.187L598.714 412.887L572.714 433.787L598.914 444.487L566.814 626.287Z" fill="#0C2F3D"/>
<path d="M643.314 474.887C643.214 476.587 643.214 477.587 643.214 477.587L616.814 487.087L610.714 475.887L591.414 440.487C589.814 437.587 590.114 433.987 592.214 431.387L599.314 421.887L588.414 373.687C588.414 373.687 590.614 366.687 596.814 369.787C603.014 372.787 614.614 415.887 614.614 415.887C614.614 415.887 635.914 410.987 640.814 423.987C644.914 435.087 643.714 465.587 643.314 474.887Z" fill="#FFAAAD"/>
<path opacity="0.1" d="M643.314 474.887C643.214 476.587 643.214 477.587 643.214 477.587L616.814 487.087L610.714 475.887L643.314 474.887Z" fill="black"/>
<path opacity="0.1" d="M624.214 589.987L621.414 579.987L612.514 657.287H587.714L600.814 490.087C603.714 491.287 623.614 586.987 624.214 589.987Z" fill="black"/>
<path d="M689.414 567.987L649.314 475.387L605.114 490.987L604.514 489.187L650.314 472.787L691.314 567.187L689.414 567.987Z" fill="#0C2F3D"/>
<path d="M627.214 657.287H525.214V633.687H544.114L569.514 625.387C569.514 625.387 624.914 653.087 627.214 657.287Z" fill="#FFAAAD"/>
<path d="M616.814 447.287L613.814 428.087V416.087H615.814V427.987L618.814 446.887L616.814 447.287Z" fill="#0C2F3D"/>
<path d="M625.814 450.187L622.814 428.087L624.314 414.987L626.314 415.187L624.814 428.087L627.814 449.987L625.814 450.187Z" fill="#0C2F3D"/>
<path d="M632.814 444.187L630.814 428.087L631.814 416.487L633.814 416.587L632.814 428.087L634.814 443.987L632.814 444.187Z" fill="#0C2F3D"/>
<path d="M474.814 598.287L438.614 446.587L463.114 433.787L441.014 411.787L480.414 395.187L481.214 396.987L444.614 412.387L466.514 434.387L441.014 447.587L476.814 597.887L474.814 598.287Z" fill="#0C2F3D"/>
<path d="M532.814 340.087C532.814 340.087 546.814 352.087 555.814 340.087C564.814 328.087 530.814 333.087 532.814 340.087Z" fill="white"/>
<path d="M528.914 434.987L541.814 426.087L565.214 452.087C565.214 452.087 573.414 405.387 552.114 392.987L528.014 429.987C528.014 429.987 489.414 418.287 481.114 387.087C481.114 387.087 465.914 422.187 489.914 452.087L511.514 429.187L528.914 434.987Z" fill="#382E3D"/>
<path opacity="0.1" d="M426.814 533.087L415.814 588.087L458.814 595.087L426.814 577.087V533.087Z" fill="black"/>
<path opacity="0.1" d="M550.814 365.187V384.787C517.314 380.887 498.814 350.987 498.814 350.987C522.814 363.687 540.814 365.587 550.814 365.187Z" fill="black"/>
<path opacity="0.1" d="M535.314 657.287H525.214V633.687H526.014L535.314 657.287Z" fill="black"/>
<path d="M1262.31 668.087C1262.31 668.087 1220.41 390.787 1355.01 427.487C1354.91 427.387 1421.31 457.987 1262.31 668.087Z" fill="url(#paint9_linear)"/>
<path d="M1296.91 668.087C1296.91 668.087 1361.01 515.187 1454.81 562.087C1454.81 561.987 1486.61 598.687 1296.91 668.087Z" fill="url(#paint10_linear)"/>
<path d="M1235.11 674.686C1235.11 674.686 1115.71 602.886 1130.81 563.686C1130.81 563.686 1175.11 515.386 1235.11 674.686Z" fill="url(#paint11_linear)"/>
<path d="M1215.31 730.387C1215.31 730.387 1121.91 678.187 1116.81 712.987C1116.81 712.987 1113.61 741.687 1215.31 730.387Z" fill="url(#paint12_linear)"/>
<path d="M1282.21 766.687C1276.91 768.987 1325.21 666.187 1375.41 691.887C1375.41 691.887 1405.81 713.887 1282.21 766.687Z" fill="url(#paint13_linear)"/>
<path d="M1260.01 795.387L1255.91 795.187C1256.61 778.587 1251.31 764.187 1240.31 752.287C1208.11 717.787 1137.11 715.487 1136.41 715.487L1136.51 711.387C1139.51 711.487 1209.91 713.787 1243.31 749.487C1255.11 762.287 1260.71 777.687 1260.01 795.387Z" fill="#0C2F3D"/>
<path d="M1264.21 818.787L1260.11 818.587C1261.21 790.287 1279.71 760.387 1313.51 732.087C1338.91 710.887 1364.41 697.787 1364.61 697.587L1366.51 701.187C1365.61 701.787 1266.71 753.087 1264.21 818.787Z" fill="#0C2F3D"/>
<path d="M1266.51 808.087C1259.91 767.187 1264.61 729.187 1280.41 695.087C1293.01 667.787 1312.71 642.987 1339.01 621.387C1383.61 584.587 1432.41 569.387 1432.91 569.287L1434.11 573.187C1433.61 573.287 1385.51 588.287 1341.51 624.587C1301.11 657.987 1256.01 716.787 1270.51 807.387L1266.51 808.087Z" fill="#0C2F3D"/>
<path d="M1270.41 836.787C1258.71 789.587 1254.71 739.787 1258.41 688.687C1261.41 647.887 1269.31 606.187 1281.91 564.687C1303.41 494.087 1331.51 448.187 1331.81 447.687L1335.31 449.787C1335.01 450.287 1307.11 495.787 1285.81 565.887C1266.11 630.487 1248.21 729.787 1274.41 835.587L1270.41 836.787Z" fill="#0C2F3D"/>
<path d="M1263.31 821.387H1259.21C1259.91 723.687 1229.41 661.587 1203.71 626.787C1175.91 589.187 1147.71 574.387 1147.51 574.287L1149.41 570.687C1150.61 571.287 1178.71 585.987 1207.11 624.387C1233.11 659.587 1264.01 722.487 1263.31 821.387Z" fill="#0C2F3D"/>
<path d="M1329.61 794.487L1319.31 867.887H1205.21L1195.01 794.487H1329.61Z" fill="url(#paint14_linear)"/>
<path opacity="0.1" d="M1329.61 794.487L1319.41 867.987H1270.01C1291.61 848.887 1317.21 821.987 1328.11 794.487H1329.61Z" fill="black"/>
<path d="M616.814 685.087H548.814V695.087H616.814V685.087Z" fill="url(#paint15_linear)"/>
<path d="M629.814 690.087L616.814 685.087V695.087L629.814 690.087Z" fill="#FFAE9C"/>
<path d="M653.814 685.087L626.814 817.087H783.814L754.814 685.087H653.814Z" fill="#DDDCE8"/>
<path d="M743.814 703.087H686.814V705.087H743.814V703.087Z" fill="black"/>
<path d="M743.814 717.887H662.814V720.287H743.814V717.887Z" fill="black"/>
<path d="M743.814 735.887H662.814V738.287H743.814V735.887Z" fill="black"/>
<path d="M743.814 753.887H662.814V756.287H743.814V753.887Z" fill="black"/>
<path d="M375.414 471.587C375.414 471.587 389.014 515.587 343.414 565.987V647.587H261.014L257.014 518.787L375.414 471.587Z" fill="#FCB9C0"/>
<path d="M325.815 530.787C325.815 530.787 363.414 564.387 320.214 590.787C320.214 590.787 251.814 627.087 216.214 579.587C216.214 579.587 196.215 547.587 227.415 524.387C227.415 524.387 207.414 514.787 216.214 494.787C216.214 494.787 159.414 409.987 256.214 362.787C256.214 362.787 334.615 333.987 362.615 387.587C362.615 387.587 397.015 385.987 397.815 426.787C398.615 467.587 367.415 513.187 325.815 530.787Z" fill="#162E31"/>
<path d="M222.114 651.287L130.414 667.587C109.714 671.287 92.514 685.587 85.114 705.187L5.01385 917.087C1.01385 927.987 -0.586097 939.587 0.313903 951.187C1.5139 965.787 5.8139 983.687 19.3139 989.887H584.814C584.814 989.887 616.814 971.487 605.914 923.187C605.114 919.487 603.914 915.887 602.614 912.387L526.414 714.187C517.614 691.187 497.714 674.187 473.614 668.987L386.014 650.187L369.514 625.387L231.514 630.087L222.114 651.287Z" fill="url(#paint16_linear)"/>
<path d="M78.2139 989.887V896.087C78.2139 784.987 168.214 694.987 279.314 694.987C390.414 694.987 480.414 784.987 480.414 896.087V989.887H78.2139Z" fill="url(#paint17_linear)"/>
<path d="M458.514 990.287H99.3145V905.587C99.3145 806.587 179.915 725.987 278.915 725.987C377.915 725.987 458.514 806.587 458.514 905.587V990.287ZM102.915 986.687H454.915V905.587C454.915 808.487 375.915 729.587 278.915 729.587C181.915 729.587 102.915 808.587 102.915 905.587V986.687Z" fill="white"/>
<path d="M477.207 807.807L474.305 808.564L510.297 946.544L513.2 945.787L477.207 807.807Z" fill="white"/>
<path d="M311.714 681.987C259.514 681.987 216.214 674.687 215.514 674.587L216.014 671.587C217.014 671.787 313.914 688.087 392.414 671.587L393.014 674.487C366.614 680.087 338.014 681.987 311.714 681.987Z" fill="white"/>
<path d="M1046.01 681.287C1046.01 681.287 1001.01 692.087 1019.01 723.287C1035.31 751.587 1058.61 747.287 1058.61 747.287C1058.61 747.287 1069.41 765.287 1080.81 776.087L1094.61 771.287L1046.01 681.287Z" fill="#FCB9C0"/>
<path d="M1080.81 759.887C1080.81 759.887 1056.81 747.887 1053.21 697.487C1053.21 697.487 1002.81 667.087 1053.21 630.987C1053.21 630.987 1038.81 606.287 1065.81 590.687C1065.81 590.687 1055.01 546.287 1104.21 533.687C1104.21 533.687 1134.41 528.287 1146.91 553.487C1146.91 553.487 1187.61 533.687 1198.41 575.687C1198.41 575.687 1235.01 566.087 1236.81 607.487C1236.81 607.487 1268.01 660.887 1254.21 700.487L1080.81 759.887Z" fill="#791714"/>
<path d="M1025.31 827.087L984.014 833.987C973.914 835.687 964.414 839.887 956.314 846.187C918.014 876.087 803.814 966.887 798.914 989.887L1032.71 989.487L1025.31 827.087Z" fill="url(#paint18_linear)"/>
<path d="M1001.11 989.887V896.087C1001.11 784.987 1091.11 694.987 1202.21 694.987C1313.31 694.987 1403.31 784.987 1403.31 896.087V989.887H1001.11Z" fill="url(#paint19_linear)"/>
<path d="M1383.81 991.287H1024.61V906.587C1024.61 807.587 1105.21 726.987 1204.21 726.987C1303.21 726.987 1383.81 807.587 1383.81 906.587V991.287ZM1028.31 987.687H1380.31V906.587C1380.31 809.487 1301.31 730.587 1204.31 730.587C1107.31 730.587 1028.31 809.587 1028.31 906.587V987.687Z" fill="white"/>
<path d="M971.366 931.567L968.514 932.496L982.508 975.477L985.36 974.548L971.366 931.567Z" fill="white"/>
<defs>
<linearGradient id="paint0_linear" x1="726.491" y1="968.383" x2="730.491" y2="432.383" gradientUnits="userSpaceOnUse">
<stop stop-color="#D3E9FE"/>
<stop offset="1" stop-color="#E9F6FF"/>
</linearGradient>
<linearGradient id="paint1_linear" x1="325.115" y1="0.0869141" x2="325.115" y2="462.087" gradientUnits="userSpaceOnUse">
<stop stop-color="#E6F5FF"/>
<stop offset="1" stop-color="#F5FAFF"/>
</linearGradient>
<linearGradient id="paint2_linear" x1="326.774" y1="264.027" x2="323.44" y2="456.288" gradientUnits="userSpaceOnUse">
<stop stop-color="#D3E9FE"/>
<stop offset="1" stop-color="#E9F6FF"/>
</linearGradient>
<linearGradient id="paint3_linear" x1="339.964" y1="-4.83949" x2="339.964" y2="464.144" gradientUnits="userSpaceOnUse">
<stop stop-color="#D3E9FE"/>
<stop offset="1" stop-color="#E9F6FF"/>
</linearGradient>
<linearGradient id="paint4_linear" x1="135.1" y1="-1.55709" x2="134" y2="454.943" gradientUnits="userSpaceOnUse">
<stop stop-color="#D3E9FE"/>
<stop offset="1" stop-color="#E9F6FF"/>
</linearGradient>
<linearGradient id="paint5_linear" x1="934.895" y1="736.841" x2="961.814" y2="736.841" gradientUnits="userSpaceOnUse">
<stop stop-color="#2B233C"/>
<stop offset="1" stop-color="#635C70"/>
</linearGradient>
<linearGradient id="paint6_linear" x1="475.706" y1="532.093" x2="560.034" y2="532.093" gradientUnits="userSpaceOnUse">
<stop stop-color="#588AFD"/>
<stop offset="1" stop-color="#4D71D9"/>
</linearGradient>
<linearGradient id="paint7_linear" x1="420.846" y1="432.943" x2="435.847" y2="654.966" gradientUnits="userSpaceOnUse">
<stop stop-color="#DCE9FF"/>
<stop offset="1" stop-color="#B6D2FF"/>
</linearGradient>
<linearGradient id="paint8_linear" x1="612.697" y1="419.98" x2="627.698" y2="642.001" gradientUnits="userSpaceOnUse">
<stop stop-color="#DCE9FF"/>
<stop offset="1" stop-color="#B6D2FF"/>
</linearGradient>
<linearGradient id="paint9_linear" x1="1262.18" y1="627.992" x2="1346.2" y2="409.143" gradientUnits="userSpaceOnUse">
<stop stop-color="#1C59EB"/>
<stop offset="1" stop-color="#6AF2ED"/>
</linearGradient>
<linearGradient id="paint10_linear" x1="1296.93" y1="610.562" x2="1456.85" y2="610.562" gradientUnits="userSpaceOnUse">
<stop stop-color="#1C59EB"/>
<stop offset="1" stop-color="#6AF2ED"/>
</linearGradient>
<linearGradient id="paint11_linear" x1="1234.44" y1="663.229" x2="1129.3" y2="554.192" gradientUnits="userSpaceOnUse">
<stop stop-color="#1C59EB"/>
<stop offset="1" stop-color="#6AF2ED"/>
</linearGradient>
<linearGradient id="paint12_linear" x1="1200.6" y1="725.796" x2="1106.66" y2="710.139" gradientUnits="userSpaceOnUse">
<stop stop-color="#1C59EB"/>
<stop offset="1" stop-color="#6AF2ED"/>
</linearGradient>
<linearGradient id="paint13_linear" x1="1281.81" y1="727.263" x2="1378.7" y2="727.263" gradientUnits="userSpaceOnUse">
<stop stop-color="#1C59EB"/>
<stop offset="1" stop-color="#6AF2ED"/>
</linearGradient>
<linearGradient id="paint14_linear" x1="1195" y1="831.197" x2="1329.57" y2="831.197" gradientUnits="userSpaceOnUse">
<stop stop-color="#E3356F"/>
<stop offset="1" stop-color="#E882AC"/>
</linearGradient>
<linearGradient id="paint15_linear" x1="548.814" y1="690.087" x2="616.814" y2="690.087" gradientUnits="userSpaceOnUse">
<stop stop-color="#2B233C"/>
<stop offset="1" stop-color="#635C70"/>
</linearGradient>
<linearGradient id="paint16_linear" x1="0.0557989" y1="807.633" x2="608.164" y2="807.633" gradientUnits="userSpaceOnUse">
<stop stop-color="#588AFD"/>
<stop offset="1" stop-color="#4D71D9"/>
</linearGradient>
<linearGradient id="paint17_linear" x1="78.2436" y1="842.426" x2="480.424" y2="842.426" gradientUnits="userSpaceOnUse">
<stop stop-color="#2B233C"/>
<stop offset="1" stop-color="#635C70"/>
</linearGradient>
<linearGradient id="paint18_linear" x1="1050.67" y1="908.473" x2="771.64" y2="908.473" gradientUnits="userSpaceOnUse">
<stop stop-color="#E3356F"/>
<stop offset="1" stop-color="#E882AC"/>
</linearGradient>
<linearGradient id="paint19_linear" x1="1001.13" y1="842.427" x2="1403.31" y2="842.427" gradientUnits="userSpaceOnUse">
<stop stop-color="#2B233C"/>
<stop offset="1" stop-color="#635C70"/>
</linearGradient>
</defs>
</svg>
