<svg width="1457" height="992" viewBox="0 0 1457 992" fill="none" xmlns="http://www.w3.org/2000/svg">
<mask id="mask0" mask-type="alpha" maskUnits="userSpaceOnUse" x="0" y="0" width="1457" height="992">
<rect width="1456.75" height="992" fill="#C4C4C4"/>
</mask>
<g mask="url(#mask0)">
<path d="M14.71 1171H1437.71C1437.71 1171 1396.71 941 1238.71 947C1080.71 953 1175.81 779.7 1164.71 663C1150.71 516 778.11 348.5 645.71 666C567.71 853 466.71 809 390.71 790C347.61 779.2 278.71 825 289.71 936C307.21 1112.7 248.71 1125 166.71 1107C84.71 1089 14.71 1171 14.71 1171Z" fill="url(#paint0_linear)"/>
<path d="M298.71 147H1100.21V699H298.71V165.8" fill="url(#paint1_linear)"/>
<path opacity="0.4" d="M336.71 181H1138.21V733H336.71V199.8" fill="url(#paint2_linear)"/>
<path d="M798.01 438.4C799.11 421.8 780.31 362.1 780.31 362.1C778.11 352.1 777.01 304.6 777.01 304.6C777.01 286.9 764.81 285.8 764.81 285.8C748.21 282.5 733.81 277 733.81 277C721.61 268.2 731.61 250.5 731.61 250.5C741.61 239.4 735.51 235.6 735.51 235.6C739.01 210.5 722.81 205.7 715.61 204.8V204.6C715.61 204.6 715.01 204.6 713.91 204.6C712.91 204.5 712.21 204.6 712.21 204.6V204.8C705.01 205.7 688.81 210.5 692.31 235.6C692.31 235.6 686.21 239.5 696.21 250.5C696.21 250.5 706.21 268.2 694.01 277C694.01 277 679.61 282.5 663.01 285.8C663.01 285.8 650.81 286.9 650.81 304.6C650.81 304.6 649.71 352.2 647.51 362.1C647.51 362.1 628.71 421.8 629.81 438.4C629.81 438.4 618.71 459.4 626.51 473.8C626.51 473.8 630.91 479.3 633.11 478.2C633.11 478.2 635.31 477.1 634.21 470.5C634.21 470.5 633.11 452.8 640.81 447.3L639.71 462.8C639.71 462.8 650.81 459.5 646.31 439.6C646.31 439.6 646.31 435.2 648.51 426.3C648.51 426.3 666.21 402 666.21 376.5L672.81 362.1L675.01 418.5C675.01 418.5 654.01 451.7 678.31 552.3C678.31 552.3 673.91 608.7 687.11 635.3C687.11 635.3 688.21 654.1 683.81 665.2C683.81 665.2 679.41 675.2 691.51 677.4H707.51C709.81 677.4 711.51 675.5 711.41 673.2C711.01 667.9 709.21 658.1 702.61 646.4C702.61 646.4 701.51 629.8 701.51 615.4C701.51 615.4 703.71 586.6 701.51 575.6C701.51 575.6 699.31 564.5 701.51 555.7L713.71 470.5V469.3V470.5L725.91 555.7C728.11 564.5 725.91 575.6 725.91 575.6C723.71 586.7 725.91 615.4 725.91 615.4C725.91 629.8 724.81 646.4 724.81 646.4C718.21 658.2 716.51 668 716.01 673.2C715.81 675.4 717.61 677.4 719.91 677.4H735.91C748.11 675.2 743.61 665.2 743.61 665.2C739.21 654.1 740.31 635.3 740.31 635.3C753.61 608.8 749.11 552.3 749.11 552.3C773.41 451.6 752.41 418.5 752.41 418.5L754.61 362.1L761.21 376.5C761.21 401.9 778.91 426.3 778.91 426.3C781.11 435.1 781.11 439.6 781.11 439.6C776.71 459.5 787.71 462.8 787.71 462.8L786.61 447.3C794.31 452.8 793.21 470.5 793.21 470.5C792.11 477.1 794.31 478.2 794.31 478.2C796.51 479.3 800.91 473.8 800.91 473.8C809.01 459.4 798.01 438.4 798.01 438.4Z" fill="white"/>
<path d="M763.41 244.1H737.61V241.1H762.11L819.61 183.6H839.91V186.6H820.81L763.41 244.1Z" fill="#050505"/>
<path d="M688.51 351.2H662.81L605.31 293.7H586.21V290.7H606.61L664.01 348.2H688.51V351.2Z" fill="#050505"/>
<path d="M802.01 338.3H776.21V335.3H800.71L858.21 277.9H878.51V280.9H859.41L802.01 338.3Z" fill="#050505"/>
<path d="M898.91 153C898.81 153 898.61 153 898.51 153V178.7H925.01C924.71 164.4 913.11 153 898.91 153Z" fill="#E3356F"/>
<path d="M892.41 184.2V154.6C876.01 154.8 862.81 168.2 862.81 184.7C862.81 201.3 876.31 214.8 892.91 214.8C909.51 214.8 923.01 201.3 923.01 184.7C923.01 184.5 923.01 184.4 923.01 184.3H892.41V184.2Z" fill="white"/>
<path d="M1015.81 265.9H892.41V324.1H1015.81V265.9Z" fill="white"/>
<path d="M960.21 271H898.81V298.8H960.21V271Z" fill="#E3356F"/>
<path d="M960.21 301.7H898.81V306.4H960.21V301.7Z" fill="#E3356F"/>
<path d="M931.41 309.3H898.81V314H931.41V309.3Z" fill="#E3356F"/>
<path d="M1011.11 309.3H984.51V314H1011.11V309.3Z" fill="#0895BE"/>
<path d="M979.51 309.3H968.71V314H979.51V309.3Z" fill="#0895BE"/>
<path d="M1010.81 271H968.71V298.8H1010.81V271Z" fill="#0895BE"/>
<path d="M564.41 244.8H414.11V340.4H564.41V244.8Z" fill="white"/>
<path d="M438.91 292.6H429.71V319.6H438.91V292.6Z" fill="#E3356F"/>
<path d="M454.01 273.2H444.81V319.7H454.01V273.2Z" fill="#E3356F"/>
<path d="M469.21 292.3H460.01V319.7H469.21V292.3Z" fill="#E3356F"/>
<path d="M548.31 265.6H491.61V319.7H548.31V265.6Z" fill="#0994BC"/>
<path d="M541.71 273.5H498.21V279.4H541.71V273.5Z" fill="white"/>
<path d="M541.71 283.4H498.21V289.3H541.71V283.4Z" fill="white"/>
<path d="M541.71 292.6H498.21V298.5H541.71V292.6Z" fill="white"/>
<path d="M541.71 301.9H519.61V307.8H541.71V301.9Z" fill="white"/>
<path d="M608.91 621.8H512.61V487.8H608.91V621.8ZM515.51 618.8H605.81V490.8H515.51V618.8Z" fill="white"/>
<path d="M569.61 504.5H551.61V508.1H569.61V504.5Z" fill="white"/>
<path d="M591.511 513.9H530.511V517.5H591.511V513.9Z" fill="white"/>
<path d="M591.511 523.3H530.511V526.9H591.511V523.3Z" fill="white"/>
<path d="M591.511 533.2H530.511V536.8H591.511V533.2Z" fill="white"/>
<path d="M591.511 543.1H530.511V546.7H591.511V543.1Z" fill="white"/>
<path d="M591.511 553H530.511V556.6H591.511V553Z" fill="white"/>
<path d="M591.511 562.8H530.511V566.4H591.511V562.8Z" fill="white"/>
<path d="M591.511 572.7H530.511V576.3H591.511V572.7Z" fill="white"/>
<path d="M879.31 608.2L843.01 587.2V545.2L879.31 524.2L915.61 545.2V587.2L879.31 608.2ZM846.01 585.5L879.31 604.8L912.61 585.5V547L879.31 527.7L846.01 547V585.5Z" fill="white"/>
<path d="M844.51 668.2L808.21 647.2V605.2L844.51 584.2L880.81 605.2V647.2L844.51 668.2ZM811.21 645.5L844.51 664.8L877.81 645.5V607L844.51 587.7L811.21 607V645.5Z" fill="white"/>
<path d="M888.91 559.2H866.91V563.6H888.91V559.2Z" fill="white"/>
<path d="M888.91 568H866.91V572.4H888.91V568Z" fill="white"/>
<path d="M854.21 615.7H832.21V620.1H854.21V615.7Z" fill="white"/>
<path d="M854.21 624.5H832.21V628.9H854.21V624.5Z" fill="white"/>
<path d="M854.21 633.3H832.21V637.7H854.21V633.3Z" fill="white"/>
<path d="M257.91 988.8C242.41 1056 227.21 1123.5 226.41 1132.7C225.81 1139 252.01 1151.9 252.01 1151.9L191.91 1150.6L211.21 986.2L227.61 846H291.21C291.11 846 274.31 917.2 257.91 988.8Z" fill="#FCB9C0"/>
<path d="M360.91 1151.8L300.81 1150.5L303.31 984.9L305.41 846H369.01C369.01 846 361.41 909.4 353.41 976.6C344.91 1047.6 336.11 1122.9 335.21 1132.6C334.81 1138.9 360.91 1151.8 360.91 1151.8Z" fill="#FCB9C0"/>
<path d="M229.21 568L242.71 601.1L226.81 662.3L188.41 569.7C186.31 564.7 186.41 559 188.61 554.1L228.51 463.6L246.81 422.3L255.01 531.3L241.61 550.4L229.21 568Z" fill="url(#paint3_linear)"/>
<path opacity="0.1" d="M369.11 846C369.11 846 361.51 909.4 353.51 976.6C341.31 980.4 322.31 985.1 303.31 984.9L305.41 846H369.11Z" fill="black"/>
<path opacity="0.1" d="M291.11 846C291.11 846 274.31 917.2 257.81 988.8C247.41 989.2 230.51 989.2 211.01 986.2L227.41 846H291.11Z" fill="black"/>
<path opacity="0.1" d="M254.91 531.2L241.51 550.3C225.81 520.1 224.81 488.8 228.41 463.6L246.71 422.3L254.91 531.2Z" fill="black"/>
<path d="M513.51 359.8L508.61 372.4L499.11 387.8L494.51 399.3L489.61 411.5L463.51 398.5L464.51 395.4L465.31 393.1L467.71 383.6C467.71 383.6 467.21 372.5 470.11 358.7L472.31 335.5C472.31 335.5 482.31 343.5 479.81 353.4L493.21 326.1L503.21 310.5C503.21 310.5 509.21 316.5 502.71 328.5L498.11 343.2C498.11 343.2 505.21 342 505.21 347.9C505.21 347.9 511.11 349.1 509.91 353.8C510.01 353.8 514.71 355 513.51 359.8Z" fill="#FCB9C0"/>
<path opacity="0.1" d="M494.51 399.3L489.61 411.5L463.51 398.5L464.51 395.4L494.51 399.3Z" fill="black"/>
<path d="M316.31 295.5C316.31 295.5 361.31 380.6 297.41 374.1L302.11 433.2L258.21 437.7L250.31 345.1C250.21 345.1 239.91 283.4 316.31 295.5Z" fill="#FCB9C0"/>
<path d="M336.91 422.3C336.91 422.3 318.51 394.1 276.91 394.1C276.91 394.1 258.91 394 248.91 400.8C248.91 400.8 245.01 410 251.21 422.3H336.91Z" fill="#BBC6EB"/>
<path d="M499.71 411.3L483.31 497.5C481.61 506.5 472.61 512.2 463.81 509.9L361.41 483.5V618.2L405.51 957.5C405.51 957.5 264.71 999.1 131.21 957.5C131.21 957.5 216.91 652.5 246.31 539.8C246.31 539.8 215.71 459 243.91 424.7C243.91 424.7 259.81 406.3 311.21 411.2C346.81 414.6 447.11 455.3 447.11 455.3L459.41 394.1L499.71 411.3Z" fill="url(#paint4_linear)"/>
<path d="M326.51 663L325.21 661.5C354.91 635.3 345.81 606.5 345.71 606.2L347.61 605.6C347.71 605.9 357.31 636 326.51 663Z" fill="#0C2F3D"/>
<path d="M292.41 274.6C211.81 259 225.51 364.3 225.51 364.3C187.91 379.2 178.71 403.6 175.81 417C172.11 434 189.91 470.3 235.31 464.9C275.81 460 272.61 399.5 271.41 386.5C274.01 398.9 277.51 426.4 264.81 449C264.81 449 281.61 430.2 276.41 381C300.81 365.1 295.21 347.1 295.21 347.1C295.21 347.1 281.11 332.4 290.61 324.6C297.21 319.1 300.11 323.9 301.31 327.3C301.91 329 303.31 330.2 305.01 330.6L306.11 330.9C307.51 331.2 308.81 330 308.41 328.6L306.61 321C314.31 315.3 317.11 303.4 317.11 303.4C317.11 303.4 333.81 307.4 333.61 287.2C333.31 266.9 294.11 275 292.41 274.6Z" fill="#0C2F3D"/>
<path opacity="0.1" d="M361.41 484.1V604.1C356.21 579.6 349.31 539.7 342.71 479L361.41 484.1Z" fill="black"/>
<path d="M1193.71 293.8C1193.71 293.8 1191.61 306.3 1189.51 314.7C1187.41 323.1 1179.11 321 1179.11 321L1177.01 300.1L1193.71 293.8Z" fill="#002951"/>
<path d="M1198.21 393H1146.31C1144.21 370.7 1145.01 370 1144.01 356.2C1143.71 352.6 1143.31 348.1 1142.71 342.2C1142.71 342.1 1142.71 342.1 1142.71 342C1101.31 355.9 1114.11 266.6 1114.11 266.6C1114.11 266.6 1121.21 243.7 1155.51 238.3C1189.91 233 1188.11 277.8 1188.11 277.8C1208.61 280.7 1187.11 306.8 1185.81 309L1198.21 393Z" fill="#FFAAAD"/>
<path d="M1184.51 227.9C1184.51 227.9 1159.31 196.5 1115.81 237.5C1111.91 241.1 1107.71 241 1098.91 246.3C1091.31 250.9 1091.51 262.1 1099.31 266.3C1111.01 272.6 1124.91 275.3 1151.31 260.7C1140.31 273.4 1120.41 275 1120.41 275C1160.21 274.9 1166.61 258.2 1167.11 257.8C1167.11 257.8 1164.81 276.1 1178.01 288.9C1178.01 288.9 1178.41 284.4 1181.31 281.7C1185.01 278.1 1191.91 276.6 1196.21 283.2C1196.31 283 1214.41 235.6 1184.51 227.9Z" fill="#0C2F3D"/>
<path d="M1176.71 282.2H1159.11C1157.01 278.1 1152.71 275.2 1147.81 275.2C1141.21 275.2 1135.71 280.3 1135.21 286.8H1128.21C1127.61 280.3 1122.21 275.2 1115.61 275.2C1108.61 275.2 1102.91 280.9 1102.91 287.9C1102.91 294.9 1108.61 300.6 1115.61 300.6C1122.21 300.6 1127.71 295.5 1128.21 289H1135.21C1135.81 295.5 1141.21 300.6 1147.81 300.6C1154.81 300.6 1160.51 294.9 1160.51 287.9C1160.51 286.7 1160.31 285.6 1160.01 284.5H1176.71V282.2ZM1115.51 298.3C1109.81 298.3 1105.11 293.6 1105.11 287.9C1105.11 282.2 1109.81 277.5 1115.51 277.5C1121.21 277.5 1125.91 282.2 1125.91 287.9C1125.81 293.6 1121.21 298.3 1115.51 298.3ZM1147.81 298.3C1142.11 298.3 1137.41 293.6 1137.41 287.9C1137.41 282.2 1142.11 277.5 1147.81 277.5C1153.51 277.5 1158.21 282.2 1158.21 287.9C1158.21 293.6 1153.51 298.3 1147.81 298.3Z" fill="#123245"/>
<path d="M1276.21 1111.5L1260.21 776.5L1255.21 655.5L1089.21 667.5V776.5V860.5L1086.21 1116.5H1142.21L1168.91 788.7L1222.21 1111.5H1276.21Z" fill="url(#paint5_linear)"/>
<path d="M939.209 452.5L921.809 472.2L909.509 463.3L905.61 463.7L896.009 464.6C882.709 467.1 856.31 456.5 852.61 451.9C848.71 447.1 855.209 444.5 855.209 444.5L842.11 438.5C841.01 438 840.209 437.2 839.709 436.1C837.509 431.2 844.309 430 844.309 430L836.009 424.7C835.109 424.2 834.51 423.4 834.11 422.4C833.11 419.9 833.809 418.1 834.809 417C836.109 415.7 838.109 415.3 839.809 415.9L845.209 417.8C843.809 415.4 844.309 413.9 845.309 412.9C846.509 411.7 848.41 411.4 850.11 412.1C860.21 416.6 909.21 438 897.41 425.1C897.11 424.8 896.91 424.6 896.709 424.3C884.509 410.5 890.809 402.3 890.809 402.3L911.709 423.6C921.609 431.7 925.309 442.6 926.209 445.5C926.409 446 926.41 446.2 926.41 446.2L939.209 452.5Z" fill="#FFAAAD"/>
<path opacity="0.1" d="M939.209 452.5L921.809 472.2L909.509 463.3L905.609 463.7L925.909 445.7C926.109 446.2 926.109 446.4 926.109 446.4L939.209 452.5Z" fill="black"/>
<path d="M1148.71 599L1201.61 360.3L1200.61 357.899C1200.61 357.899 1188.71 384.5 1162.71 386C1144.71 387 1141.31 363.5 1141.31 363.5L1142.31 390C1142.31 390 1141.91 442.9 1143.11 460.5C1144.51 481.4 1148.71 599 1148.71 599Z" fill="url(#paint6_linear)"/>
<path d="M1142.31 362.7L1070.41 400.2C1064.51 403.3 1059.91 408.5 1057.51 414.7L1026.71 497L930.709 437L904.709 485L1029.21 579.1C1039.01 586.5 1053.11 583.6 1059.11 573L1074.71 545.6L1057.11 924C1057.11 924 1082.61 939 1107.61 943C1134.41 947.3 1151.61 943 1151.61 943L1158.11 700L1208.21 940C1208.21 940 1231.61 942 1256.61 938C1273.81 935.2 1299.11 924 1299.11 924L1256.11 514L1279.21 573.6L1327.21 565.7L1281.81 408.2C1280.31 402.9 1276.71 398.3 1271.81 395.6L1193.71 352C1193.71 352 1175.21 427.5 1169.71 452.7C1165.61 471.5 1150.71 578 1150.71 578C1150.71 578 1143.71 479 1142.51 454.4C1141.41 431.2 1142.31 362.7 1142.31 362.7Z" fill="url(#paint7_linear)"/>
<path d="M1159.11 388.9L1149.71 382L1132.71 402C1132.71 402 1126.71 366.1 1142.21 356.5L1159.71 385C1159.71 385 1187.71 376 1193.71 352C1193.71 352 1204.71 379 1187.31 402L1171.71 384.4L1159.11 388.9Z" fill="#143847"/>
<path d="M1345.21 547.5C1345.21 547.5 1338.21 637.5 1288.21 606.5C1278.31 600.4 1266.21 577.5 1263.21 555.5L1345.21 547.5Z" fill="url(#paint8_linear)"/>
<path d="M1343.21 547.5C1343.21 547.5 1337.71 572.5 1317.01 561L1324.21 547.5H1343.21Z" fill="#F49FA6"/>
<path d="M1254.91 518C1261.32 518 1266.51 512.806 1266.51 506.4C1266.51 499.993 1261.32 494.8 1254.91 494.8C1248.5 494.8 1243.31 499.993 1243.31 506.4C1243.31 512.806 1248.5 518 1254.91 518Z" fill="#A0A0A0"/>
<path d="M1254.91 512.8C1258.44 512.8 1261.31 509.935 1261.31 506.4C1261.31 502.865 1258.44 500 1254.91 500C1251.37 500 1248.51 502.865 1248.51 506.4C1248.51 509.935 1251.37 512.8 1254.91 512.8Z" fill="#123245"/>
<path d="M1257.31 505.1L1253.31 505C1255.31 431.2 1238.41 394.3 1223.81 376.3C1208.31 357.1 1192.41 355 1192.21 355L1192.71 351C1193.41 351.1 1210.41 353.3 1226.91 373.7C1241.91 392.2 1259.41 430.1 1257.31 505.1Z" fill="#123245"/>
<path d="M1220.71 561H1330.71L1365.71 407H1255.71L1220.71 561Z" fill="#143847"/>
<path d="M1355.21 509.7C1357.81 511.6 1361.31 515.8 1354.21 521.5C1354.21 521.5 1359.21 527.5 1353.21 532.5C1353.21 532.5 1358.21 538.5 1351.21 543.5C1351.21 543.5 1352.21 548.5 1346.21 550.5H1325.01C1323.81 550.5 1322.61 549.8 1322.21 548.6C1321.51 546.9 1321.21 544.3 1324.31 542.5C1324.31 542.5 1320.31 535.5 1326.31 532.5C1326.31 532.5 1321.31 526.5 1327.31 523.5C1327.31 523.5 1323.31 518.5 1330.31 515.5C1335.81 513.1 1346.91 510.1 1351.41 509C1352.61 508.6 1354.11 508.9 1355.21 509.7Z" fill="#FFAAAD"/>
<path d="M1113.81 537.3L1126.71 533.4C1132.51 531.6 1135.91 525.6 1134.51 519.7L1123.81 475.7L1120.01 476.6L1130.71 520.6C1131.61 524.5 1129.41 528.4 1125.61 529.6L1112.71 533.5L1113.81 537.3Z" fill="#A0A0A0"/>
<path d="M1091.31 540.6L1077.81 540.5C1071.71 540.5 1066.71 535.7 1066.41 529.6L1064.11 484.3L1068.01 484.1L1070.31 529.4C1070.51 533.4 1073.81 536.5 1077.81 536.5L1091.31 536.6V540.6Z" fill="#A0A0A0"/>
<path d="M1117.61 534.1C1118.11 536 1117.01 538.1 1115.11 538.6L1111.81 539.5C1109.91 540 1107.81 538.9 1107.31 537C1106.81 535.1 1107.91 533 1109.81 532.5L1113.11 531.6C1115.01 531.1 1117.01 532.2 1117.61 534.1Z" fill="#123245"/>
<path d="M1086.81 538.6C1086.81 540.6 1088.51 542.2 1090.51 542.2L1093.91 542.1C1095.91 542.1 1097.51 540.4 1097.51 538.4C1097.51 536.4 1095.81 534.8 1093.81 534.8L1090.41 534.9C1088.41 534.9 1086.81 536.6 1086.81 538.6Z" fill="#123245"/>
<path d="M1118.21 460.8C1111.61 449.9 1102.91 444.3 1092.81 444.5C1091.91 415 1099.51 392.1 1115.11 378.1C1127.41 367.1 1140.51 365.399 1140.61 365.399L1140.41 363.399L1140.21 361.399C1139.61 361.499 1125.91 363.2 1112.71 375C1101.01 385.4 1087.61 405.899 1088.91 444.899C1082.11 445.999 1076.11 449.5 1071.81 455C1066.11 462.2 1063.21 472.4 1063.31 485.5C1063.31 486.3 1064.01 487 1064.81 487H1067.51C1068.31 487 1068.91 486.3 1068.91 485.5C1068.91 455.5 1084.71 450.9 1091.61 450.3C1110.01 448.7 1117.91 472.099 1119.51 478.099C1119.71 478.899 1120.51 479.299 1121.21 479.099L1123.81 478.5C1124.61 478.3 1125.11 477.499 1124.91 476.699C1124.21 473.699 1122.11 467.2 1118.21 460.8Z" fill="#123245"/>
<path d="M1152.51 575H1150.51C1150.51 573.6 1151.71 434.399 1159.11 386.399L1161.11 386.699C1153.81 434.499 1152.61 573.6 1152.51 575Z" fill="#0C2F3D"/>
<path d="M1154.69 396.992C1154.71 395.888 1153.83 394.979 1152.72 394.962C1151.62 394.946 1150.71 395.827 1150.7 396.932C1150.68 398.036 1151.56 398.945 1152.66 398.962C1153.77 398.978 1154.68 398.096 1154.69 396.992Z" fill="#0C2F3D"/>
<path d="M1153.32 422.984C1153.34 421.879 1152.46 420.97 1151.35 420.954C1150.25 420.937 1149.34 421.819 1149.32 422.924C1149.31 424.028 1150.19 424.937 1151.29 424.953C1152.4 424.97 1153.31 424.088 1153.32 422.984Z" fill="#0C2F3D"/>
<path d="M1151.86 447.989C1151.88 446.885 1151 445.976 1149.89 445.959C1148.79 445.943 1147.88 446.824 1147.86 447.929C1147.85 449.033 1148.73 449.942 1149.83 449.959C1150.94 449.975 1151.85 449.094 1151.86 447.989Z" fill="#0C2F3D"/>
<path d="M1217.91 392.5L1217.71 391.7C1217.51 391.1 1213.61 377.5 1209.21 369.5C1204.71 361.4 1195.01 352.6 1194.61 352.2L1193.31 353.7C1193.41 353.8 1203.21 362.6 1207.51 370.4C1211.21 377.2 1214.71 388.4 1215.61 391.4L1189.51 406L1209.51 414.4C1206.31 422.3 1183.21 478.1 1176.11 497.5C1169.91 514.4 1155.21 560.6 1151.01 573.9L1117.91 417.4L1136.81 408.5L1113.91 403C1114.21 399.7 1115.91 387.8 1122.21 379.8C1129.21 371 1136.51 363.5 1136.51 363.5L1135.11 362.1C1135.01 362.2 1127.71 369.7 1120.61 378.6C1112.91 388.3 1111.81 403.1 1111.81 403.7L1111.71 404.5L1130.71 409L1115.61 416.1L1149.81 578C1150.11 586.7 1151.91 639.5 1157.41 707.8L1159.41 707.6C1153.81 638.9 1152.11 585.8 1151.81 577.7C1153.11 573.5 1171.01 517.1 1178.01 498C1185.61 477.3 1211.51 414.7 1211.71 414L1212.11 413.1L1194.11 405.5L1217.91 392.5Z" fill="#0C2F3D"/>
<path d="M1008.29 484.458L1007.19 486.13L1048.17 512.992L1049.27 511.32L1008.29 484.458Z" fill="#0C2F3D"/>
<path d="M1248.71 697C1199.51 696 1187.91 650.7 1187.71 650.2L1189.61 649.7C1189.71 650.1 1201.01 694 1248.61 694.9L1248.71 697Z" fill="#0C2F3D"/>
<path d="M1079.11 708.9L1078.31 707.1C1110.41 692.5 1115.71 654.3 1115.71 653.9L1117.71 654.2C1117.61 654.5 1112.21 693.9 1079.11 708.9Z" fill="#0C2F3D"/>
<path d="M880.509 434C868.509 432 845.209 419.399 844.209 418.899L845.209 417.1C845.409 417.2 869.209 430 880.909 432L880.509 434Z" fill="#0C2F3D"/>
<path d="M879.51 443C871.51 441 844.01 430.7 842.81 430.2L843.51 428.3C843.81 428.4 872.11 439 880.01 441L879.51 443Z" fill="#0C2F3D"/>
<path d="M878.51 452C872.51 451 856.01 445.2 855.31 445L856.01 443.1C856.21 443.2 873.01 449.1 878.81 450.1L878.51 452Z" fill="#0C2F3D"/>
<path d="M1353.65 521.021L1326.67 522.023L1326.74 524.022L1353.72 523.02L1353.65 521.021Z" fill="#0C2F3D"/>
<path d="M1325.78 531.022L1325.71 533.021L1352.69 534.02L1352.77 532.021L1325.78 531.022Z" fill="#0C2F3D"/>
<path d="M1323.78 541.021L1323.71 543.02L1350.69 544.019L1350.77 542.021L1323.78 541.021Z" fill="#0C2F3D"/>
<path opacity="0.1" d="M1173.71 321C1163.71 343 1151.71 352.3 1144.11 356.2C1143.81 352.6 1143.41 348.1 1142.81 342.2C1162.21 335.2 1173.31 321.5 1173.71 321Z" fill="black"/>
<path d="M133.71 916.7C133.71 916.7 96.6096 671.5 215.61 703.9C215.61 704 274.31 731 133.71 916.7Z" fill="url(#paint9_linear)"/>
<path d="M164.31 916.7C164.31 916.7 221.01 781.5 304.01 822.9C304.01 823 332.01 855.4 164.31 916.7Z" fill="url(#paint10_linear)"/>
<path d="M109.61 922.6C109.61 922.6 4.00973 859.1 17.4097 824.4C17.4097 824.5 56.6097 781.8 109.61 922.6Z" fill="url(#paint11_linear)"/>
<path d="M92.1096 971.9C92.1096 971.9 9.50963 925.7 5.00963 956.5C5.00963 956.5 2.20962 981.8 92.1096 971.9Z" fill="url(#paint12_linear)"/>
<path d="M151.309 1004C146.609 1006 189.309 915.1 233.709 937.8C233.709 937.8 260.609 957.3 151.309 1004Z" fill="url(#paint13_linear)"/>
<path d="M131.709 1029.4L128.109 1029.3C128.709 1014.6 124.009 1001.9 114.309 991.4C85.9092 960.9 23.0092 958.8 22.4092 958.8L22.5092 955.2C25.1092 955.3 87.5092 957.4 116.909 988.9C127.309 1000.1 132.309 1013.7 131.709 1029.4Z" fill="#0C2F3D"/>
<path d="M135.41 1050.1L131.81 1050C132.81 1025 149.11 998.5 179.11 973.5C201.61 954.7 224.11 943.1 224.31 943L225.91 946.2C225.01 946.6 137.61 991.9 135.41 1050.1Z" fill="#0C2F3D"/>
<path d="M137.41 1040.6C131.61 1004.5 135.71 970.8 149.71 940.7C160.91 916.6 178.31 894.7 201.51 875.5C240.91 843 284.11 829.5 284.51 829.4L285.61 832.8C285.21 832.9 242.61 846.2 203.71 878.3C168.01 907.8 128.11 959.8 141.01 1040L137.41 1040.6Z" fill="#0C2F3D"/>
<path d="M140.81 1065.9C130.51 1024.2 126.91 980.1 130.21 935C132.81 898.9 139.81 862 151.01 825.4C170.01 763 194.91 722.4 195.11 722L198.21 723.9C198.01 724.3 173.31 764.6 154.41 826.6C137.01 883.7 121.11 971.5 144.31 1065.1L140.81 1065.9Z" fill="#0C2F3D"/>
<path d="M134.61 1052.3H131.01C131.61 966 104.71 911.2 82.11 880.4C57.51 847 32.51 833.9 32.21 833.8L33.81 830.6C34.81 831.1 59.71 844.2 84.81 878.1C107.91 909.3 135.21 964.9 134.61 1052.3Z" fill="#0C2F3D"/>
</g>
<defs>
<linearGradient id="paint0_linear" x1="726.288" y1="1183.91" x2="722.288" y2="523.912" gradientUnits="userSpaceOnUse">
<stop stop-color="#D3E9FE"/>
<stop offset="1" stop-color="#E9F6FF"/>
</linearGradient>
<linearGradient id="paint1_linear" x1="298.71" y1="423" x2="1100.23" y2="423" gradientUnits="userSpaceOnUse">
<stop stop-color="#588AFD"/>
<stop offset="1" stop-color="#4D71D9"/>
</linearGradient>
<linearGradient id="paint2_linear" x1="336.71" y1="457" x2="1138.23" y2="457" gradientUnits="userSpaceOnUse">
<stop stop-color="#588AFD"/>
<stop offset="1" stop-color="#4D71D9"/>
</linearGradient>
<linearGradient id="paint3_linear" x1="186.827" y1="542.275" x2="254.88" y2="542.275" gradientUnits="userSpaceOnUse">
<stop stop-color="#DCE9FF"/>
<stop offset="1" stop-color="#B6D2FF"/>
</linearGradient>
<linearGradient id="paint4_linear" x1="313.211" y1="512.725" x2="319.212" y2="965.769" gradientUnits="userSpaceOnUse">
<stop stop-color="#DCE9FF"/>
<stop offset="1" stop-color="#B6D2FF"/>
</linearGradient>
<linearGradient id="paint5_linear" x1="1175.46" y1="843.666" x2="1181.46" y2="1125.61" gradientUnits="userSpaceOnUse">
<stop stop-color="#29056B"/>
<stop offset="1" stop-color="#6C93F5"/>
</linearGradient>
<linearGradient id="paint6_linear" x1="1154.21" y1="603.107" x2="1170.21" y2="379.107" gradientUnits="userSpaceOnUse">
<stop stop-color="#E3356F"/>
<stop offset="1" stop-color="#E882AC"/>
</linearGradient>
<linearGradient id="paint7_linear" x1="1113.7" y1="467.918" x2="1132.15" y2="935.339" gradientUnits="userSpaceOnUse">
<stop stop-color="#DCE9FF"/>
<stop offset="1" stop-color="#B6D2FF"/>
</linearGradient>
<linearGradient id="paint8_linear" x1="1263.21" y1="580.249" x2="1345.21" y2="580.249" gradientUnits="userSpaceOnUse">
<stop stop-color="#DCE9FF"/>
<stop offset="1" stop-color="#B6D2FF"/>
</linearGradient>
<linearGradient id="paint9_linear" x1="133.592" y1="881.319" x2="207.895" y2="687.785" gradientUnits="userSpaceOnUse">
<stop stop-color="#1C59EB"/>
<stop offset="1" stop-color="#6AF2ED"/>
</linearGradient>
<linearGradient id="paint10_linear" x1="164.326" y1="865.906" x2="305.741" y2="865.906" gradientUnits="userSpaceOnUse">
<stop stop-color="#1C59EB"/>
<stop offset="1" stop-color="#6AF2ED"/>
</linearGradient>
<linearGradient id="paint11_linear" x1="109.061" y1="912.481" x2="16.0793" y2="816.056" gradientUnits="userSpaceOnUse">
<stop stop-color="#1C59EB"/>
<stop offset="1" stop-color="#6AF2ED"/>
</linearGradient>
<linearGradient id="paint12_linear" x1="79.1309" y1="967.81" x2="-3.94278" y2="953.965" gradientUnits="userSpaceOnUse">
<stop stop-color="#1C59EB"/>
<stop offset="1" stop-color="#6AF2ED"/>
</linearGradient>
<linearGradient id="paint13_linear" x1="150.951" y1="969.108" x2="236.631" y2="969.108" gradientUnits="userSpaceOnUse">
<stop stop-color="#1C59EB"/>
<stop offset="1" stop-color="#6AF2ED"/>
</linearGradient>
</defs>
</svg>
