<svg xmlns="http://www.w3.org/2000/svg" viewBox="0 0 855 1225"><filter id="b"><feGaussianBlur stdDeviation="12" /></filter><path fill="#d8dbe9" d="M0 0h856v1225H0z"/><g filter="url(#b)" transform="translate(2.4 2.4) scale(4.78516)" fill-opacity=".5"><path fill="#191711" d="M27 52h87v12H27z"/><ellipse cx="80" cy="255" rx="117" ry="2"/><ellipse fill="#1f1e1b" cx="113" cy="138" rx="4" ry="95"/><ellipse fill="#222016" cx="28" cy="142" rx="4" ry="89"/><path d="M36 229h74v5H36z"/><ellipse fill="#fff" cx="153" cy="202" rx="38" ry="52"/><ellipse cx="98" cy="255" rx="117" ry="2"/><ellipse fill="#fffff7" rx="1" ry="1" transform="matrix(24.07382 -44.76496 31.48347 16.93126 71 112)"/><path fill="#fff" d="M94 58h15v156H94z"/><ellipse fill="#bac6ff" rx="1" ry="1" transform="matrix(18.8955 -18.20032 74.27333 77.1103 151.2 63.5)"/><path fill="#fff" d="M32 58h17v169H32z"/><ellipse fill="#fff" cx="7" cy="189" rx="19" ry="64"/><ellipse fill="#fffff7" cx="70" cy="192" rx="38" ry="34"/><ellipse fill="#1bb218" cx="70" cy="195" rx="8" ry="8"/><ellipse fill="#fff" rx="1" ry="1" transform="matrix(-110.09042 -127.91719 17.04444 -14.6691 177 25.7)"/><path d="M30.8 222.8l7.8 4.3-3.4 6.1-7.8-4.3z"/><path fill="#fff" d="M-53.7 44.9L55.9-64.7 87.7-33-21.9 76.7z"/><path fill="#3c3a32" d="M36 228h61v7H36z"/><ellipse fill="#b9c5ff" rx="1" ry="1" transform="matrix(22.16385 9.22592 -22.32363 53.62908 146.8 114.5)"/><path fill="#bec8ff" d="M74.1-16L-16 75l59.4-23.8L167 54.8z"/><ellipse cx="30" cy="139" rx="1" ry="84"/><ellipse fill="#fff" rx="1" ry="1" transform="matrix(24.52429 17.55767 -57.29139 80.02377 178 171.8)"/><path fill="#22211a" d="M110 77h2v151h-2z"/><path fill="#131109" d="M96 232h14l5-12z"/><path fill="#b9c4ff" d="M25.8 173.2l-.1-150.8-33 70.6L26 162.6z"/><path fill="#2b2a27" d="M51 55h38v9H51z"/><path d="M0 254h179v2H0z"/><ellipse fill="#9e9d9a" cx="70" cy="83" rx="27" ry="4"/><path fill="#c9d3ff" d="M116 58h8v133h-8z"/><path fill="#fff" d="M-5.8 246.5l144.7-6-111-8.6-34-168z"/><path fill="#fdfdfa" d="M31 92h33v117H31z"/><path fill="#6a6967" d="M44 91h56v2H44z"/><path fill="#c4c4c4" d="M46.6 112.4l8 .2-1.2 69-8-.2z"/><ellipse fill="#b3b2af" cx="71" cy="145" rx="3" ry="39"/><ellipse fill="#141412" cx="27" cy="161" rx="1" ry="63"/><path fill="#b1afa9" d="M90 114h5v66h-5z"/><path fill="#fff" d="M35 65h74v14H35z"/><ellipse cx="68" cy="226" rx="15" ry="1"/><path fill="#fff" d="M37 201h72v24H37z"/><path fill="#3c3c38" d="M77.2 54.1l-39 1.8-6 7V53z"/><path fill="#fcfefe" d="M163.9 188l30.1 65.2-81.2-1.1-20.3-6.4z"/><ellipse fill="#afaea5" cx="70" cy="247" rx="30" ry="4"/><path fill="#fff" d="M100 63h10v143h-10z"/><ellipse fill="#fff" cx="82" cy="156" rx="6" ry="64"/><path fill="#fff" d="M191-14l-8 46L74-16z"/><ellipse fill="#fff" rx="1" ry="1" transform="rotate(-25.8 16 -69.9) scale(79.71995 17.67822)"/><ellipse fill="#fff" cx="72" cy="147" rx="33" ry="4"/><ellipse fill="#8d8c83" cx="29" cy="253" rx="158" ry="1"/><path fill="#424240" d="M110 55h2v70h-2z"/><ellipse fill="#d6d7d9" cx="112" cy="123" rx="1" ry="101"/><ellipse fill="#c8cad2" cx="28" cy="102" rx="1" ry="119"/><ellipse fill="#2f2e28" cx="114" cy="138" rx="1" ry="79"/><path fill="#2b2a29" d="M90.9 54.9l1-3.9 21.2 6.1-1 3.9z"/><ellipse fill="#fff" rx="1" ry="1" transform="matrix(.0445 5.09973 -30.92416 .26987 71.4 166)"/><path fill="#fff" d="M85.3 80.4L32 70.8l81.7-9.8-20.4-3z"/><ellipse fill="#30302f" cx="41" cy="231" rx="10" ry="4"/><path fill="#fafcfe" d="M160.2 144.2l33.8-62-40 169-37.8-62.5z"/><path fill="#4a4c52" d="M25 61h3v36h-3z"/><path fill="#fff" d="M39 94h67v17H39z"/><path fill="#f8f9fb" d="M116 171h63v82h-63z"/><path fill="#c8cffb" d="M174.6 124.8l-67.2-73.3-32-67.5 84.3 44.9z"/><ellipse fill="#fff" cx="65" cy="128" rx="33" ry="5"/><ellipse fill="#f8f8f4" rx="1" ry="1" transform="matrix(21.89312 -6.402 2.69404 9.2129 54.4 217)"/><ellipse cx="97" cy="255" rx="118" ry="2"/><path fill="#c4cdfe" d="M98.5-16L28.7 21.7-16 119.8 26.2 61z"/><ellipse fill="#c4ccfc" cx="146" cy="90" rx="30" ry="62"/><path fill="#fff" d="M106 227l-21-38 5 37z"/><path fill="#fcfeff" d="M69.2-10.6L16.3 33.7-3.9 81.1-16-2z"/><path fill="#fcfefe" d="M0 147h25v105H0z"/><path fill="#fdfeff" d="M178.2 78.3l-24.4-90.2L194 60.7l-17.7 70.8z"/><path fill="#fff" d="M53.2 73.2L41 77.7l-6.2-17L47 56.4z"/><path fill="#909190" d="M45 234l58-1v1l-58 1z"/><path fill="#6e6d68" d="M25 204h7v22h-7z"/><path fill="#a0a09f" d="M81 86.4L96.5 79l5 8-22-3.8z"/><path fill="#292825" d="M112.2 226.4l.3 2-16.7 3.2-.3-2z"/><ellipse fill="#838282" cx="110" cy="137" rx="1" ry="74"/><ellipse fill="#8b8b8c" cx="55" cy="214" rx="3" ry="3"/><ellipse fill="#fff" cx="70" cy="88" rx="39" ry="3"/><path fill="#4d4c46" d="M60 225h23v2H60z"/><ellipse fill="#6c6c6c" cx="49" cy="135" rx="3" ry="3"/><path fill="#fff" d="M32 67h10v146H32z"/><path fill="#76a7fc" d="M88.6 211l1.6 6.8-4.8 1.2-1.6-6.8z"/><ellipse fill="#5d5c5a" cx="115" cy="176" rx="1" ry="49"/><path fill="#fff" d="M19 235h99v6H19z"/><path fill="#868787" d="M96 140l-8 1 4-10z"/><path fill="#b7b7b6" d="M29 56h1v170h-1z"/><path fill="#474747" d="M52.4 175.1l-4.3 2.6-.5-.8 4.3-2.6z"/><ellipse fill="#686867" cx="70" cy="155" rx="3" ry="3"/><path fill="#1e1d1b" d="M107.8 53.3l1-.2 3.4 15.6-1 .2z"/><path fill="#313132" d="M38 56l-12 7 3-7z"/><ellipse fill="#b3b3b2" cx="47" cy="156" rx="5" ry="5"/><path fill="#818181" d="M68.5 170.7l4-.4 1 9-4 .4z"/><path fill="#fff" d="M96.4 58.3l-17.8 16 10 6.5 15.8-23z"/><path fill="#fff" d="M99 64h11v151H99zM86.4 223.2l-49-22.9 26.8-46.6-2.9 41.3z"/><ellipse fill="#494947" cx="64" cy="55" rx="34" ry="2"/><ellipse fill="#67c568" cx="70" cy="194" rx="7" ry="8"/><path fill="#fafafb" d="M10 251l32 1-26-44z"/><ellipse fill="#535455" cx="92" cy="176" rx="2" ry="3"/><ellipse fill="#9c9c98" cx="31" cy="97" rx="1" ry="35"/></g></svg>