<svg xmlns="http://www.w3.org/2000/svg" viewBox="0 0 626 675"><filter id="b"><feGaussianBlur stdDeviation="12" /></filter><path fill="#f0f1ed" d="M0 0h624v675H0z"/><g filter="url(#b)" transform="translate(1.3 1.3) scale(2.63672)" fill-opacity=".5"><ellipse fill="#b2c4ab" cx="148" cy="197" rx="47" ry="47"/><ellipse fill="#a70e00" rx="1" ry="1" transform="matrix(4.80447 -.20355 .266 6.27858 123.3 202.7)"/><ellipse fill="#fefbf7" rx="1" ry="1" transform="matrix(60.32898 93.571 -127.62048 82.28205 73.5 58.6)"/><path fill="#e9bb77" d="M134.4 138.8l2.6-12.2 16-7-29.2.5z"/><path fill="#ecc181" d="M109.5 72.8l24.4-1-36.4 7.8-6-12.8z"/><path fill="#e48800" d="M106 161.9l-6.2 3.3-3.8-7 6.2-3.4z"/><ellipse fill="#b48c7c" cx="162" cy="205" rx="31" ry="3"/><path fill="#f0be6e" d="M36.6 82.6l-12 8 17 11.1-10.7 2.4z"/></g></svg>