<svg width="581" height="588" viewBox="0 0 581 588" fill="none" xmlns="http://www.w3.org/2000/svg">
<circle cx="473.001" cy="70" r="10" fill="#3D7ED1"/>
<circle cx="45.0015" cy="35" r="35" fill="#9ACFF9"/>
<ellipse cx="291.501" cy="459" rx="281.5" ry="40" fill="#5CACF4" fill-opacity="0.5"/>
<circle cx="447" cy="48" r="5" fill="#0C620B"/>
<circle cx="517.001" cy="33" r="20" fill="#4AB33F"/>
<circle cx="539.001" cy="562" r="20" fill="black" fill-opacity="0.87"/>
<circle cx="539.001" cy="562" r="20" fill="#2D4F9F" fill-opacity="0.2"/>
<ellipse cx="290.001" cy="337" rx="264" ry="251" fill="#65BF5D" fill-opacity="0.2"/>
<path fill-rule="evenodd" clip-rule="evenodd" d="M420.541 438.999C420.474 415.988 420.031 392.97 419.255 369.973C418.678 352.929 417.94 335.872 416.51 318.875C415.945 312.142 415.286 305.403 414.251 298.723C413.609 294.587 413.019 290.081 411.274 286.23C410.703 284.97 410.151 284.151 408.935 283.506C404.44 281.12 398.282 280.77 393.326 280.266C385.202 279.441 376.978 279.203 368.814 279.371C369.293 288.153 369.771 296.934 370.249 305.715C370.617 312.479 370.986 319.242 371.354 326.005C371.586 330.274 372.147 334.664 372.058 338.94C371.986 342.424 367.89 345.757 365.808 348.477C363.254 340.664 360.7 332.852 358.146 325.04C356.795 328.526 355.352 331.983 353.782 335.376C352.746 337.614 351.692 339.917 350.318 341.974C349.063 343.854 348.695 344.119 346.514 343.798C343.888 343.413 341.894 342.634 340.342 344.586C338.967 346.316 337.685 348.081 336.192 349.724C319.706 367.856 294.3 379.117 270.76 384.211C256.895 387.211 242.908 389.647 229.049 392.706C207.888 397.376 186.153 401.982 165.941 409.965C162.774 411.217 159.572 412.561 156.682 414.381C153.496 416.388 151.22 419.424 149.015 422.431C143.627 429.777 137.311 441.826 145.621 449.494C151.991 455.372 161.945 455.962 170.221 456.624C178.775 457.308 187.36 457.641 195.935 457.92C219.294 458.679 242.675 458.843 266.044 458.865C287.396 458.882 308.751 458.761 330.099 458.353C339.784 458.168 349.117 458.392 358.488 455.907C377.667 450.821 396.792 445.527 415.925 440.268C417.463 439.846 419.002 439.422 420.541 438.999Z" fill="#2D4F9F"/>
<path fill-rule="evenodd" clip-rule="evenodd" d="M225.64 237.898C226.536 238.83 225.084 239.547 224.43 239.75C224.536 238.852 224.969 238.446 225.64 237.898ZM348.454 412.946C348.8 412.132 349.315 411.462 350.257 411.846C351.815 412.481 348.664 412.938 348.454 412.946ZM213.032 281.703C212.388 281.783 209.755 281.618 210.569 280.185C211.512 278.525 212.809 281.189 213.032 281.703ZM260.252 267.011C258.867 265.825 257.627 264.01 257.612 262.125C258.917 262.991 259.614 265.672 260.252 267.011ZM227.056 243.186C225.903 243.244 226.958 241.621 226.947 241.298C226.923 240.604 226.274 240.008 226.379 239.185C226.383 239.151 227.546 236.549 227.852 236.384C228.715 235.919 229.216 236.771 229.99 237.034C231.137 237.424 231.696 237.08 232.927 237.2C234.012 237.306 234.925 237.834 236.059 237.833C236.328 237.833 236.626 237.262 236.935 237.294C237.417 237.343 237.463 237.958 237.804 237.989C239.002 238.095 239.072 237.619 240.189 237.172C242.047 236.429 243.35 238.158 243.308 240.201C243.253 242.907 240.43 244.013 238.267 244.635C235.478 245.437 233.928 245.92 231.094 245.415C230.274 245.269 229.441 245.53 228.794 244.964C227.925 244.204 228.386 242.601 227.394 241.86C227.281 242.302 227.169 242.744 227.056 243.186ZM325.197 350.86C324.965 352.629 325.451 353.539 323.736 354.724C322.723 355.424 321.449 355.885 320.377 356.586C318.823 357.602 316.495 358.254 315.117 359.422C314.241 360.164 314.086 362.263 312.872 362.517C311.84 362.733 310.609 360.867 310.255 360.027C309.863 359.096 310.125 358.33 309.966 357.401C309.859 356.777 309.392 356.647 309.474 355.914C309.559 355.146 310.305 354.74 310.629 354.13C310.919 353.583 311.007 352.808 311.234 352.376C311.77 351.36 312.96 349.203 314.021 348.531C314.915 350.877 315.592 348.499 316.832 347.811C317.294 347.798 317.757 347.794 318.219 347.799C318.458 347.571 318.702 347.347 318.95 347.128C319.521 347.075 320.463 347.38 320.978 347.539C321.261 347.475 321.549 347.437 321.84 347.426C322.226 347.539 322.38 347.754 322.298 348.071C322.13 347.994 323.063 348.561 323.152 348.621C324.995 349.873 326.685 350.373 327.026 353.035C326.416 352.311 325.806 351.585 325.197 350.86ZM310.827 255.787C312.797 250.681 312.172 246.183 311.981 240.839C311.937 239.584 311.669 236.893 312.981 236.06C314.617 235.022 315.979 237.37 316.833 238.342C318.3 240.01 320.348 241.542 321.099 243.706C321.763 245.616 321.078 247.96 320.572 249.852C320.026 251.891 319.351 254.632 317.495 255.762C315.512 256.968 312.825 256.849 310.827 255.787ZM241.383 364.37C241.667 360.457 247.11 361.828 249.557 363.035C251.387 363.937 252.411 365.313 253.564 366.948C254.872 368.806 255.301 369.325 255.197 371.532C255.101 373.547 255.213 375.573 254.709 377.577C254.453 378.594 254.395 378.773 253.72 379.474C253.722 379.472 252.551 380.639 252.877 380.452C251.367 381.314 249.115 381.459 247.341 381.592C244.805 381.783 244.195 381.817 243.166 379.407C242.968 379.827 242.77 380.246 242.573 380.666C242.509 380.369 241.805 376.849 241.967 376.883C242.252 376.944 242.557 377.763 242.696 377.972C242.608 376.35 241.454 375.138 240.895 373.692C240.38 372.363 240.168 370.857 239.771 369.482C239.387 368.151 238.958 366.299 239.329 364.918C239.823 363.083 239.979 363.606 241.383 364.37ZM208.524 278.109C207.64 278.942 208.428 280.289 208.313 281.321C207.111 280.585 207.528 280.19 207.062 278.991C206.762 278.219 205.879 276.741 205.107 278.007C204.783 278.539 205.856 279.269 205.129 279.582C204.702 279.766 203.566 278.336 203.358 278.111C201.926 276.56 201.009 274.975 200.891 272.86C200.858 272.281 200.867 270.837 201.072 270.504C201.668 269.545 203.251 270.112 203.115 268.358C202.485 268.672 201.854 268.985 201.224 269.299C201.028 267.326 203.157 266.159 204.047 264.593C205.061 262.81 205.719 261.512 207.371 259.978C208.133 259.269 209.374 257.809 210.364 257.468C211.133 257.203 211.445 257.595 212.222 257.602C213.845 257.617 216.285 257.178 213.869 258.98C214.36 259.21 215.005 259.353 215.423 259.716C215.734 259.986 215.85 260.754 216.213 260.938C216.999 261.335 217.586 260.561 218.472 261.442C219.405 262.37 218.45 262.955 218.658 263.364C219.256 264.541 220.078 263.955 220.051 265.749C220.008 268.705 218.305 272.205 217.389 274.968C216.85 276.592 216.248 279.131 213.976 278.466C214.062 279.247 214.26 280.005 213.752 280.702C213.278 280.144 213.108 278.92 212.789 278.265C212.318 277.299 211.551 276.367 211.009 275.429C211.089 276.912 211.25 277.324 212.258 278.447C210.931 278.61 209.297 279.673 208.524 278.109ZM305.583 321.077C304.366 320.156 305.964 319.128 303.564 319.651C302.951 319.784 303.566 320.5 302.642 320.526C302.293 320.536 301.437 319.677 301.195 319.476C300.974 319.291 299.979 317.95 299.82 317.864C300.087 318.008 298.612 317.436 299.072 317.807C298.194 317.1 297.525 315.936 297.13 314.522C296.162 311.055 296.3 306.912 298.308 303.934C299.15 302.686 299.821 301.162 301.089 300.324C302.81 299.188 305.653 298.512 307.574 297.791L306.952 296.278C312.227 298.662 315.864 304.227 316.308 309.881C316.468 311.915 317.047 314.498 315.809 316.3C314.516 318.183 311.256 320.161 309.456 318.07C309.73 319.236 308.927 320.629 307.696 320.928C307.23 321.041 306.791 320.703 306.585 320.733C306.322 320.771 305.769 321.115 305.583 321.077ZM353.999 203.033C357.543 202.611 356.994 209.012 356.329 210.935C355.793 212.486 353.872 214.644 352.856 215.994C351.645 217.604 350.03 218.805 348.312 219.832C347.723 220.184 347.292 220.296 346.784 220.493C346.603 220.313 346.387 220.22 346.135 220.212C345.914 220.581 345.6 220.858 345.194 221.041C343.906 221.442 341.773 221.38 340.493 221.327C338.429 221.239 336.019 220.052 333.965 219.656C333.006 219.47 332.472 219.396 331.623 218.897C331.196 218.646 330.359 216.712 330.239 218.612C329.71 218.286 329.877 217.75 329.49 217.512C329.121 217.284 327.94 217.065 327.5 216.564C326.886 215.865 326.07 214.27 325.643 213.315C325.368 212.702 324.786 211.123 324.832 210.486C324.929 209.135 325.365 209.446 326.519 208.886C327.29 208.512 327.734 208.199 328.505 207.992C328.595 207.968 328.809 208.429 328.96 208.389C329.225 208.321 329.331 208.016 329.516 207.957C330.924 207.5 332.586 206.147 334.327 206.278C335.079 206.334 335.783 207.48 336.169 207.421C336.763 207.331 336.467 206.112 336.881 205.671C337.937 204.546 341.461 204.727 342.83 204.533C346.549 204.002 350.273 203.508 353.999 203.033ZM229.855 300.334C229.516 297.678 229.098 295.04 232.01 293.733C233.103 293.243 234.013 293.42 235.134 293.287C236.59 293.113 236.378 292.486 237.459 294.049C238.056 293.282 237.659 293.032 238.638 292.941C239.041 292.904 240.803 294.05 241.262 294.238C243.173 295.02 245.608 294.947 247.05 296.525C248.451 298.058 249.584 299.532 250.175 301.624C250.473 302.677 250.669 303.769 251.037 304.803C251.435 305.922 252.331 306.886 252.637 308.004C253.885 312.558 248.581 316.714 244.855 317.923C244.375 317.824 243.905 317.855 243.443 318.015C243.118 318.23 242.827 318.483 242.568 318.774C241.396 319.142 241.117 319.021 239.924 318.483C237.958 317.596 235.66 317.294 234.172 319.369C233.713 316.955 232.037 318.391 231.231 316.836C230.785 315.979 231.758 313.603 231.194 312.985C230.238 311.936 227.254 313.802 227.331 311.351C227.359 310.457 228.374 310.162 228.726 309.456C229.358 308.189 229.007 306.848 228.129 305.734C228.047 305.926 227.729 307.189 227.308 306.854C226.192 305.967 228.027 304.569 228.427 304.085C229.087 303.287 229.688 302.677 229.54 301.563C229.449 300.872 228.341 300.153 228.38 299.482C228.411 298.97 229.781 300.275 229.855 300.334ZM281.68 329.008C281.605 330.87 282.795 331.113 283.578 332.394C283.791 332.743 283.805 333.578 284.103 334.09C284.659 335.048 285.046 335.108 285.224 336.042C285.205 335.938 284.926 336.967 284.92 337.085C284.843 338.399 285.757 339.449 285.505 340.894C285.152 342.927 283.608 345.191 282.519 346.882C280.057 350.704 276.614 353.667 271.899 353.937C268.75 354.118 261.341 352.859 260.666 349.566C260.843 349.184 260.994 348.791 261.117 348.387C261.19 347.802 260.973 347.402 260.466 347.189C260.078 347.086 259.774 346.87 259.554 346.54C259.661 346.206 259.836 345.911 260.08 345.657C259.993 345.217 259.25 345.195 259.262 344.911C259.284 344.382 259.75 343.056 259.874 342.453C260.091 341.41 260.209 340.418 260.399 339.369C260.553 338.521 261.073 338.101 261.207 337.323C261.299 336.792 260.76 336.311 260.806 335.748C261.16 335.43 261.448 335.06 261.669 334.637C261.694 334.197 261.586 333.789 261.345 333.414C261.874 329.711 267.113 326.601 270.84 326.516C272.842 326.47 276.261 326.326 278.062 327.373C279.265 328.072 280.072 330.551 281.68 329.008ZM362.059 459.517C364.691 458.33 367.048 457.066 369.867 456.49C371.902 456.074 373.648 454.931 375.693 454.558C380.223 453.732 385.115 452.97 389.459 451.382C394.117 449.678 399.19 449.068 403.964 447.652C406.315 446.955 408.366 446.498 410.797 446.363C413.166 446.232 415.601 444.911 417.969 445.135C419.948 445.322 421.359 446.842 422.908 447.925C424.915 449.331 427.105 450.542 429.263 451.703C431.553 452.935 434.104 453.552 436.364 454.753C438.241 455.75 440.084 456.723 442.019 457.637C452.298 462.495 462.225 467.032 471.495 473.791C468.506 474.7 465.105 473.794 462.134 473.473C457.911 473.017 453.704 472.674 449.524 471.892C447.077 471.435 442.302 469.689 439.967 471.031C437.914 472.209 438.071 475.233 437.777 477.257C435.839 476.509 433.91 475.742 431.955 475.04C430.418 474.487 427.924 472.969 426.357 472.916C421.993 472.768 422.47 478.892 422.895 481.703C420.345 480.837 417.92 480.233 415.448 479.16C413.467 478.299 411.279 478.11 409.354 477.084C404.572 474.535 399.266 472.938 394.145 471.129C388.369 469.087 382.604 467.007 376.877 464.829C374.523 463.933 372.201 462.751 369.793 462.025C367.2 461.243 364.545 460.655 362.059 459.517ZM305.061 225.988C305.426 229.432 305.049 232.906 304.944 236.355C304.82 240.394 304.815 244.389 304.292 248.404C303.349 255.646 302.021 262.891 299.428 269.744C297.067 275.985 293.083 280.399 286.336 281.748C280.274 282.959 274.366 280.881 270.509 276.038C266.507 271.016 265.278 264.673 262.935 258.852C261.789 256.005 260.94 253.143 259.985 250.231C259.412 248.486 256.57 243.478 257.383 241.686C258.177 239.936 262.859 239.338 264.48 238.366C267.056 236.82 269.438 233.721 271.403 231.457C272.72 229.939 273.489 228.817 274.377 231.225C275.445 234.117 274.671 237.459 275.667 240.265C276.648 243.024 278.788 240.302 279.008 238.504C279.429 235.051 278.922 231.129 278.759 227.658C278.455 221.191 278.03 213.711 272.199 209.724C266.672 205.945 260.673 204.769 257.604 198.244C256.374 195.629 254.928 192.888 255.697 189.962C256.585 186.584 257.899 183.052 259.192 179.806C261.677 173.572 265.567 168.144 268.969 162.421C269.428 161.649 269.524 160.659 270.528 160.441C271.663 160.194 274.313 162.125 275.413 162.437C278.41 163.284 281.088 161.526 283.732 163.516C285.854 165.113 287.653 167.411 290.515 167.579C291.748 167.651 293.42 166.55 294.482 166.813C295.835 167.148 296.227 169.167 296.749 170.301C297.946 172.905 299.283 176.166 301.259 178.294C301.929 179.017 303.114 179.24 303.687 179.912C304.354 180.693 303.983 182.279 304.938 182.421C305.492 182.503 305.933 181.753 306.399 181.574C307.19 181.269 307.966 181.211 308.813 181.236C310.38 181.282 312.005 181.66 313.382 182.41C316.584 184.153 317.767 186.805 313.919 188.399C312.377 189.039 310.702 189.514 309.033 189.663C307.202 189.825 305.349 189.254 303.539 189.477C300.047 189.907 298.973 192.827 298.069 195.828C296.826 199.956 295.822 204.136 294.426 208.221C293.286 211.558 291.215 214.95 290.617 218.436C290.249 220.578 290.73 220.418 292.16 221.742C293.249 222.751 293.904 224.074 295.084 225.086C298.374 227.906 301.24 227.154 305.061 225.988ZM92.7284 426.486C92.8287 425.75 108.421 427.157 110.193 426.975C113.22 426.663 116.442 427.492 119.572 427.386C122.338 427.292 126.328 426.217 128.612 427.56C129.459 428.058 129.48 428.646 130.816 428.392C132.059 428.157 133.367 427.279 134.297 426.465C136.885 424.2 138.466 420.638 140.159 417.701C143.546 411.824 146.448 405.734 149.259 399.554C155.051 386.824 160.623 374.021 166.408 361.288C169.27 354.991 172.029 348.681 175.115 342.5C176.432 339.862 177.878 336.968 178.892 334.205C179.997 331.191 181.45 328.361 182.44 325.272C184.54 318.728 187.049 312.282 188.657 305.552C189.064 303.849 189.215 302.064 189.706 300.385C190.229 298.591 191.298 297.057 191.968 295.321C192.651 293.551 192.653 291.972 192.993 290.164C193.332 288.361 194.16 286.604 194.756 284.878C197.827 286.729 201.323 288.415 204.149 290.615C206.928 292.78 210.984 294.594 209.82 298.508C208.762 302.069 206.889 305.343 205.774 308.899C204.523 312.888 202.987 316.788 201.78 320.786C199.19 329.37 196.923 338.054 194.603 346.715C193.514 350.784 192.152 354.861 191.353 359C190.938 361.153 191.006 363.078 190.223 365.164C189.458 367.202 188.733 369.197 188.105 371.284C186.987 374.999 185.92 378.722 184.683 382.398C184.013 384.388 183.478 386.4 183.002 388.444C182.714 389.68 181.733 392.056 182.009 393.335C182.801 397.017 187.672 393.265 188.838 391.762C191.543 388.275 193.482 384.009 195.508 380.105C203.64 364.428 207.639 347.519 211.832 330.453C212.935 325.967 213.999 321.52 215.238 317.08C216.536 312.428 216.914 307.564 218.446 302.937C220.029 298.157 221.644 293.551 222.806 288.633C223.344 286.356 223.913 284.08 224.39 281.79C224.645 280.567 224.656 278.318 226.284 278.074C225.236 285.748 224.848 294.738 221.79 301.935C219.018 308.462 216.815 317.405 219.618 324.335C220.965 327.668 223.097 330.514 224.7 333.689C226.493 337.238 227.661 341.313 228.862 345.096C231.35 352.928 232.084 361.165 233.748 369.177C234.621 373.377 234.638 376.249 233.881 380.381C233.637 381.711 234.067 382.769 232.947 383.622C231.82 384.48 229.213 384.653 227.82 385.145C223.592 386.64 219.957 387.737 215.479 388.227C211.25 388.69 207.278 389.53 203.25 390.915C195.991 393.412 188.443 395.277 181.31 397.78C177.408 399.149 173.646 401.588 169.895 403.337C165.994 405.157 161.855 406.345 158.177 408.617C154.215 411.062 150.297 413.903 146.543 416.645C143.066 419.185 141.399 422.342 139.951 426.294C137.199 433.808 130.26 443.559 136.669 451.141C134.422 452.118 131.851 452.506 129.698 453.55C128.955 453.911 128.733 454.262 127.888 454.47C126.783 454.741 125.361 454.524 124.229 454.598C122.592 454.704 119.143 455.882 117.547 455.406C116.055 454.961 115.99 452.796 114.918 451.728C113.329 450.145 111.803 451.166 109.859 450.99C106.979 450.728 104.109 450.351 101.227 450.099C95.4126 449.592 89.6143 449.473 83.7803 449.486C86.8174 446.116 97.9864 452.25 98.2605 446.145C98.5782 439.079 89.9547 441.199 85.7628 439.161C89.573 439.273 93.3832 439.31 97.186 439.612C99.4936 439.795 103.93 440.9 105.235 438.364C106.638 435.637 104.381 432.483 102.268 431.059C99.3435 429.089 95.9637 427.833 92.7284 426.486ZM410.525 332.278C411.224 333.672 410.142 334.233 409.651 335.356C408.974 336.908 409.643 336.599 409.779 338.059C409.87 339.039 409.603 339.501 409.658 340.418C409.681 340.808 410.237 341.327 410.302 341.771C410.419 342.568 409.988 342.935 410.035 343.513C410.058 343.801 409.687 343.852 409.762 344.268C409.828 344.631 410.664 344.886 410.713 345.115C410.997 346.438 410.203 345.776 410.082 346.403C409.879 347.451 410.468 347.63 410.803 348.594C411.382 350.255 410.823 351.029 410.465 352.587C410.163 353.9 410.612 353.909 410.783 355.164C410.886 355.924 410.666 356.017 410.67 356.725C410.68 359.168 411.227 361.709 411.249 364.298C411.303 370.426 411.822 376.464 411.899 382.577C411.976 388.583 412.413 394.664 412.676 400.745C412.804 403.711 413.105 406.665 413.234 409.631C413.386 413.075 413.049 416.502 413.339 419.932C413.602 423.05 413.444 426.179 413.573 429.305C413.634 430.789 414.397 435.277 413.423 436.275C412.158 437.57 407.031 436.191 405.372 436.282C402.255 436.453 398.968 437.08 395.913 437.724C388.674 439.249 381.418 441.19 374.176 442.558C368.138 443.698 362.473 446.599 356.852 449.054C357.367 443.89 358.276 438.853 358.444 433.649C358.595 428.972 358.154 424.319 358.258 419.647C358.479 409.679 359.044 399.822 358.822 389.856C358.594 379.722 357.778 369.374 356.367 359.337C355.718 354.724 355.212 349.811 353.562 345.428C352.815 343.443 351.598 341.988 352.103 339.803C352.651 337.438 353.732 334.965 354.532 332.671C355.12 336.407 357.192 361.303 365.704 353.819C369.028 350.897 370.567 344.566 371.31 340.417C372.313 334.809 371.953 328.915 371.927 323.241C371.875 311.679 370.603 299.883 369.437 288.385C369.204 286.088 368.044 284.034 370.991 284.144C373.753 284.247 376.592 284.902 379.339 285.224C381.717 285.503 384.104 284.824 386.37 285.128C387.409 285.267 388.327 285.882 389.376 286.038C390.7 286.234 392.083 285.947 393.416 285.948C395.662 285.951 398.266 285.939 400.13 287.337C402.088 288.804 403.766 291.233 404.424 293.581C405.081 295.93 404.905 298.574 405.321 300.92C405.672 302.897 405.747 305.337 406.075 307.583C407.496 305.802 407.404 308.372 407.42 309.132C407.437 310.05 408.425 311.906 408.17 312.444C408.006 312.792 406.903 312.608 406.809 312.88C406.617 313.441 407.282 313.677 407.293 314.097C407.34 315.73 407.247 317.419 407.251 319.066C407.636 318.771 408.022 318.477 408.408 318.181C408.611 318.622 408.675 319.196 408.868 319.642C408.955 319.845 409.77 319.789 409.808 320.188C409.859 320.708 408.719 321.711 408.499 322.279C408.106 323.296 407.855 322.895 408.522 323.99C409.29 325.251 410.547 325.322 410.346 327.155C409.94 326.844 409.585 326.481 409.282 326.068C409.091 327.162 409.567 328.127 409.625 329.217C409.663 329.929 408.796 332.773 409.449 333.249C409.724 333.45 410.459 332.355 410.525 332.278ZM353.095 242.555C353.09 240.154 356.594 236.463 357.8 234.454C359.722 231.248 361.79 228.347 364.234 225.514C366.689 222.668 369.31 219.956 371.691 217.048C372.677 215.845 373.408 214.441 374.413 213.263C375.669 211.793 375.934 212.245 377.489 212.284C378.672 212.314 379.443 212.113 380.536 212.464C381.117 212.65 381.493 212.927 382.117 213.099C382.507 213.207 383.022 212.828 383.546 213.011C384.842 213.463 385.282 214.618 386.846 214.594C387.034 214.591 387.634 214.147 387.721 214.172C387.827 214.202 388.313 214.573 388.296 214.569C388.4 214.593 388.37 215.329 388.647 215.456C389.122 215.675 389.458 214.942 389.891 214.99C390.983 215.11 391.795 216.237 393.003 216.51C394.555 216.86 395.897 216.349 397.38 217.071C398.564 217.648 399.163 218.96 400.148 217.604C401.04 219.498 402.682 218.924 404.322 219.722C406.609 220.835 409.088 221.399 411.524 222.24C416.535 223.969 421.581 225.741 426.466 227.822C436.598 232.14 446.411 236.929 456.316 241.571C466.004 246.111 474.965 252.132 483.684 258.192C487.958 261.163 492.208 264.284 495.542 268.352C496.553 269.585 498.24 271.499 497.559 273.234C496.839 275.068 493.794 276.206 492.072 276.558C489.814 277.02 487.332 277.175 485.034 277.328C482.552 277.495 479.887 277.577 477.431 277.544C472.59 277.477 467.843 277.005 462.98 276.898C457.448 276.775 452.024 275.609 446.503 275.54C440.434 275.464 434.435 274.703 428.356 274.94C416.641 275.399 404.936 275.737 393.185 275.794C391.724 275.801 390.29 275.625 388.854 275.879C387.689 276.086 386.847 276.493 385.598 276.404C384.434 276.321 383.355 275.811 382.169 275.75C380.611 275.669 379.016 275.925 377.45 275.893C372.164 275.785 365.895 275.305 360.8 276.976C358.776 277.64 356.232 279.575 357.466 282.082C358.686 284.56 361.802 282.54 363.731 283.666C365.528 284.716 364.531 287.58 364.405 289.292C364.165 292.536 364.121 295.764 364.207 299.015C364.396 306.195 364.833 313.366 364.917 320.548C364.957 324.036 364.907 327.524 364.723 331.008C364.56 334.083 364.669 337.43 363.617 340.364C362.153 336.7 361.975 332.655 361.394 328.794C360.765 324.616 360.151 320.439 359.553 316.257C359.198 313.773 358.829 298.852 353.968 300.801C348.8 302.873 350.597 314.351 350.362 318.478C350.141 322.373 349.743 326.253 348.86 330.059C348.45 331.828 347.321 339.34 345.053 339.825C343.39 331.964 341.631 324.115 340.408 316.17C339.868 312.662 339.392 309.129 339.177 305.585C339.065 303.741 339.201 299.308 336.535 299.093C328.698 298.461 333.956 331.481 328.1 335.635C325.934 331.327 325.087 326.833 324.499 322.057C324.232 319.882 323.66 317.434 323.998 315.254C324.441 312.401 324.923 310.652 324.327 307.704C323.84 305.29 323.489 302.812 322.926 300.42C322.52 298.695 321.46 297.854 320.901 296.299C319.326 291.921 319.427 286.379 318.799 281.784C318.163 277.13 317.493 272.555 318.317 267.86C319.133 263.21 322.535 261.732 326.402 259.812C330.298 257.878 334.057 255.753 338.336 254.9C343.14 253.943 347.549 253.014 352.466 252.76C361.145 252.312 369.65 252.832 378.289 253.243C387.896 253.701 397.512 253.13 407.113 252.998C411.78 252.934 416.535 252.844 421.194 252.92C423.529 252.959 425.794 253.364 428.144 253.305C430.146 253.255 434.06 253.872 435.813 252.807C437.188 251.972 437.186 250.121 436.025 249.101C434.875 248.09 432.619 248.037 431.182 247.724C426.591 246.728 422.015 246.156 417.392 245.356C414.729 244.896 412.495 244.743 409.827 244.873C407.236 245 404.593 244.259 401.973 244.133C396.42 243.868 390.835 243.605 385.28 243.518C374.514 243.351 363.872 242.529 353.095 242.555ZM347.477 347.864C348.343 348.198 348.123 352.336 348.201 353.162C348.435 355.637 348.692 358.109 348.912 360.584C349.421 366.3 349.804 372.028 350.116 377.757C350.429 383.487 350.799 389.235 350.78 394.975C350.772 397.418 350.662 399.86 350.712 402.303C350.749 404.13 351.552 407.547 349.994 408.845C348.948 409.716 346.9 409.324 345.678 409.243C343.264 409.085 340.844 408.924 338.424 408.906C335.628 408.884 332.851 409.185 330.054 409.112C328.98 409.084 327.782 408.905 326.719 409.107C325.95 409.255 325.11 409.919 324.387 409.948C323.856 409.969 323.169 409.442 322.582 409.338C321.668 409.177 320.595 409.364 319.665 409.352C319.003 409.345 317.408 409.046 316.8 409.436C316.207 409.817 316.435 410.684 315.893 410.876C315.687 410.949 314.51 409.551 314.308 409.463C313.407 409.07 312.093 409.376 311.143 409.386C308.409 409.417 305.672 409.244 302.937 409.27C300.27 409.295 297.698 409.606 295.138 409.915C293.446 410.121 291.502 409.607 289.706 409.456C286.834 409.215 283.949 409.26 281.069 409.318C279.624 409.347 278.177 409.37 276.732 409.405C276.39 409.414 275.712 409.281 275.382 409.379C274.055 409.777 274.897 409.801 273.96 410.406C275.189 409.611 271.208 409.094 270.979 409.092C269.172 409.078 267.516 409.966 266.012 409.792C264.383 409.604 262.721 408.597 260.928 408.91C260.091 409.056 259.395 409.993 258.773 410.1C257.767 410.274 257.423 409.547 256.5 409.184C254.659 408.458 252.524 409.09 250.602 408.965C247.904 408.788 245.306 408.782 242.598 408.746C237.658 408.681 232.717 408.599 227.776 408.647C223.226 408.691 219.571 410.516 215.046 410.417C212.672 410.365 210.259 410.158 207.889 410.215C205.854 410.263 204.815 411.78 206.353 413.562C207.393 414.767 209.303 414.894 210.769 415.115C212.946 415.442 215.083 415.914 217.253 416.277C222.411 417.142 227.81 417.115 233.028 417.272C254.307 417.913 275.591 419.804 296.883 420.004C306.232 420.092 315.682 420.879 325.001 420.512C330.2 420.307 335.283 421.425 340.522 420.622C342.731 420.283 344.903 420.077 347.13 419.918C347.42 419.898 349.121 419.569 349.442 419.715C350.391 420.147 349.861 419.752 350.259 420.849C350.912 422.652 350.64 425.526 350.636 427.445C350.63 430.503 350.481 433.568 350.378 436.624C350.279 439.552 350.116 442.478 349.942 445.404C349.87 446.614 350.346 451.165 349.413 452.067C348.691 452.766 345.312 452.436 344.398 452.24C343.301 452.006 343.199 451.948 342.012 452.087C341.136 452.19 340.825 452.165 339.948 452.07C337.437 451.799 334.561 451.751 332.04 452.205C330.084 452.556 328.029 451.628 327.28 453.686C326.014 452.136 326.043 453.029 324.652 453.34C323.219 453.66 323.658 452.735 322.444 452.607C321.588 452.518 320.824 453.194 319.899 453.2C318.37 453.21 316.995 452.806 315.36 453.01C308.143 453.911 300.824 454.72 293.546 454.787C290.527 454.815 287.543 454.862 284.54 454.953C283.007 455 281.559 455.159 280.052 455.34C278.632 455.511 277.516 455.17 276.04 455.095C272.776 454.928 269.351 455.426 266.087 455.604C264.552 455.688 262.629 455.424 261.157 455.626C259.678 455.828 259.566 456.952 258.39 457.603C258.204 453.957 250.58 456.292 248.595 456.297C247.816 456.299 246.863 455.967 245.923 456.027C244.366 456.127 242.798 456.153 241.238 456.208C238.752 456.295 236.349 456.446 233.987 456.144C230.901 455.751 227.55 456.17 224.433 456.151C221.039 456.13 217.644 456.084 214.252 455.973C210.815 455.86 207.384 455.65 203.948 455.54C200.963 455.443 197.796 455.684 194.854 455.465C194.091 455.409 193.361 454.85 192.679 454.821C191.734 454.781 190.675 455.187 189.584 455.093C186.146 454.8 182.942 454.752 179.466 454.764C173.504 454.784 167.31 453.683 161.594 452.104C158.959 451.376 156.22 451.336 153.604 450.556C150.584 449.654 147.818 448.082 145.039 446.628C142.862 445.488 139.802 444.958 140.688 442.077C141.634 439 143.145 436.018 144.271 432.996C145.25 430.369 145.874 427.809 147.995 425.833C150.092 423.88 152.771 422.569 155.005 420.768C159.874 416.844 164.956 414.498 170.721 412.174C176.533 409.831 181.834 406.377 187.939 404.819C193.608 403.372 199.069 401.433 204.623 399.951C210.7 398.329 216.967 397.741 223.096 396.3C228.97 394.918 234.737 392.885 240.689 391.833C247.129 390.695 253.627 390.109 260.043 388.721C265.482 387.544 270.672 385.238 276.139 384.318C277.737 384.049 279.463 383.885 281.009 383.383C282.455 382.913 283.489 381.963 284.95 381.578C288.324 380.689 291.256 379.477 294.449 378.033C295.792 377.425 296.537 376.679 297.701 375.925C299.089 375.028 300.867 374.709 302.425 374.214C305.426 373.26 308.416 372.323 311.109 370.649C313.9 368.915 316.464 366.954 319.033 364.928C320.121 364.069 321.285 363.208 322.4 362.405C323.774 361.417 325.184 361.238 326.724 360.592C333.404 357.79 336.328 351.21 339.967 345.486C340.309 350.122 344.744 352.273 347.477 347.864ZM252.546 266.655C252.085 264.579 251.429 261.599 254.017 261.483C254.183 261.476 255.898 261.904 256.074 262.018C256.956 262.585 257.29 264.476 257.626 265.394C257.923 266.204 258.128 267.283 258.786 267.894C259.435 268.499 260.113 268.513 260.719 269.237C262.563 271.44 263.937 275.224 265.052 277.883C263.539 277.517 264.638 278.532 263.995 279.11C262.99 280.013 263.303 279.85 261.874 279.99C259.384 280.233 258.248 279.57 256.301 278.019C254.65 276.704 254.12 275.843 253.169 273.944C251.81 271.232 252.473 269.504 252.548 266.654C251.867 267.281 251.186 267.908 250.504 268.535C250.716 267.714 250.927 266.892 251.139 266.07L252.546 266.655ZM324.169 102.696C322.846 98.1666 320.374 97.8319 317.051 101.086C316.524 99.9219 315.9 98.1145 314.368 98.1247C313.282 98.1321 313.09 99.01 312.362 99.6025C311.483 100.319 310.798 100.57 309.682 100.761C307.247 101.178 304.984 101.035 302.692 102.124C300.605 103.115 299.612 104.562 298.004 106.047C296.5 107.436 295.403 106.536 293.687 107.239C291.778 108.021 290.924 110.334 290.554 112.208C290.103 114.501 290.573 115.232 288.979 116.897C287.476 118.467 286.678 120.467 286.497 122.625C286.327 124.666 286.777 127.088 287.955 128.809C289.281 130.747 290.655 130.211 288.929 132.514C288.06 133.673 287.962 136.141 286.917 136.884C285.088 138.183 282.728 136.088 281.113 135.56C278.919 134.844 279.408 136.042 278.446 137.488C277.023 139.623 276.178 137.42 274.238 137.846C273.525 138.003 273.316 138.773 273.065 138.865C272.179 139.194 273.12 139.072 272.108 138.707C271.435 138.464 271.896 137.159 270.54 137.904C269.598 138.422 270.308 139.344 269.879 140.011C269.038 141.323 267.789 140.558 267.167 142.251C266.549 143.937 265.711 146.174 265.367 148.017C264.948 150.257 265.932 152.206 265.788 154.325C265.638 156.538 263.445 158.029 262.081 159.58C255.392 167.184 252.56 177.184 250.379 186.851C248.35 195.834 251.92 206.005 258.928 212.094C262.482 215.181 266.92 216.504 270.332 219.901C271.847 221.409 271.827 221.887 270.023 223.123C268.544 224.135 267.188 225.425 265.622 226.224C261.594 228.28 257.669 229.749 253.172 230.612C250.904 231.048 248.543 230.873 246.248 230.792C243.86 230.707 241.164 231.046 238.829 230.754C236.767 230.496 235.135 228.831 232.976 229.008C232.13 229.077 231.611 229.401 230.75 229.324C229.619 229.225 228.667 228.626 227.464 228.656C225.635 228.703 223.825 228.733 222.057 228.8C220.049 228.875 217.688 228.325 215.689 228.672C213.792 229.001 211.536 230.707 209.886 231.702C207.852 232.928 205.41 234.347 203.589 235.845C201.869 237.261 200.656 239.514 199.314 241.272C197.895 243.132 196.253 244.794 194.827 246.645C189.209 253.935 183.292 262.913 181.535 272.09C181.091 274.412 181.115 276.705 181.45 279.038C181.749 281.121 183.704 281.913 183.764 284.152C183.884 288.685 181.713 293.939 180.452 298.235C179.123 302.758 177.46 307.151 175.4 311.404C174.602 313.051 173.591 314.413 173.09 316.119C172.477 318.202 171.543 320.179 170.861 322.281C164.955 340.462 155.801 357.387 149.128 375.292C145.542 384.914 141.75 394.453 137.84 403.951C135.916 408.627 133.832 413.16 131.74 417.765C131.465 418.37 131.27 419.536 130.79 419.953C129.981 420.656 130.695 420.256 129.561 420.136C128.584 420.033 127.569 419.587 126.582 419.422C124.201 419.022 121.762 418.954 119.36 418.717C116.601 418.444 114.171 418.302 111.41 418.435C108.84 418.56 106.311 417.796 103.753 417.627C98.2696 417.264 92.8621 417.456 87.3827 417.558C83.1131 417.638 77.6461 417.13 73.6955 419.113C69.7374 421.099 71.103 425.672 74.4595 427.413C78.4816 429.501 83.2156 429.799 87.2127 431.925C84.2131 432.849 80.9721 432.611 77.9164 433.331C75.947 433.796 72.9025 434.139 71.4179 435.577C69.9804 436.969 70.126 439.368 71.0747 441.002C72.2562 443.035 74.5287 443.386 76.574 444.091C75.6524 445.312 74.2199 445.217 73.3907 446.827C72.2891 448.967 72.9778 451.254 74.327 453.104C77.2548 457.121 83.0525 457.461 87.5786 458.033C92.0261 458.596 96.6967 458.731 101.174 458.426C103.725 458.253 106.242 458.125 108.762 457.766C111.66 457.353 111.381 459.383 112.414 461.461C113.413 463.473 114.855 464.335 117.087 464.211C119.496 464.076 122.168 463.913 124.555 463.509C126.84 463.123 128.819 461.943 131.011 461.451C132.985 461.008 134.552 460.292 136.428 459.332C138.58 458.23 139.725 456.386 141.609 455.12C143.542 453.821 145.566 455.862 147.467 456.878C152.088 459.347 157.16 460.44 162.215 461.653C167.369 462.891 172.388 464.476 177.63 465.333C180.07 465.731 182.387 465.678 184.815 465.936C187.613 466.235 190.039 467.304 192.896 467.309C202.987 467.33 213.144 469.152 223.239 469.489C233.233 469.823 243.39 468.996 253.373 469.665C258.478 470.008 263.418 469.321 268.494 469.585C273.73 469.858 279.152 469.582 284.378 469.182C295.222 468.352 305.729 468.568 316.46 468.03C322.042 467.751 327.733 467.225 333.245 466.339C338.649 465.47 344.764 466.471 348.587 461.769C349.007 463.612 349.122 465.524 350.469 466.977C351.885 468.505 354.167 469.122 356.064 469.818C360.906 471.595 365.801 473.283 370.676 474.969C375.298 476.568 379.949 478.299 384.607 479.765C389.503 481.305 394.161 483.172 398.974 484.98C403.335 486.618 407.854 487.912 412.057 489.887C413.791 490.701 415.607 490.769 417.264 491.53C419.311 492.469 421.212 493.37 423.405 494.047C425.286 494.628 427.007 495.046 428.828 495.802C430.63 496.55 433.183 497.849 435.069 496.854C436.395 496.155 436.916 494.549 437.324 493.208C437.835 491.531 437.399 488.62 439.385 488.696C441.347 488.77 444.117 490.658 446.04 491.299C448.341 492.066 450.697 493.348 453.068 493.783C455.441 494.217 457.309 494.087 458.554 491.88C459.955 489.397 459.722 486.765 459.303 484.064C463.342 484.055 467.084 484.434 471.159 484.572C473.403 484.649 475.586 484.749 477.825 484.501C479.845 484.278 482.849 484.912 484.601 483.987C488.163 482.107 487.633 476.788 485.836 473.88C484.838 472.265 483.275 471.176 481.685 470.196C479.692 468.968 478.231 467.576 476.485 466.011C477.624 465.227 479.104 465.608 480.221 464.673C481.088 463.948 481.627 462.739 482.023 461.707C482.761 459.782 481.81 455.368 483.476 454.278C484.365 453.696 485.94 453.943 486.956 453.476C488.344 452.839 489.319 451.664 489.917 450.265C491.264 447.113 490.11 443.831 488.796 440.885C493.775 440.036 501.073 439.699 502.497 433.933C502.953 432.092 503.015 429.96 502.389 428.149C501.458 425.462 499.293 425.317 496.891 424.529C486.85 421.234 477.446 415.883 466.628 415.089C460.834 414.664 454.998 414.441 449.21 413.84C443.397 413.236 437.793 412.17 431.942 412.894C429.452 413.201 426.571 412.927 424.189 413.377C421.887 413.812 421.595 416.528 423.355 418.096C425.066 419.619 427.546 418.644 429.583 418.815C432.47 419.057 434.901 420.423 437.596 421.283C444.209 423.393 451.455 424.891 458.351 425.649C462.053 426.055 465.549 426.11 469.173 427.097C472.465 427.994 475.723 429.013 479.027 429.872C475.417 430.837 468.426 430.729 467.225 435.126C466.66 437.195 467.287 440.059 469.106 441.338C470.162 442.081 472.47 441.742 473.135 442.852C470.293 443.201 467.052 441.015 465.492 444.141C463.712 447.709 465.454 450.525 467.731 453.174C465.719 452.841 463.65 453.221 461.617 452.963C460.049 452.764 458.584 452.292 457.094 452.783C456.347 453.029 456.445 453.695 455.501 453.699C454.814 453.702 453.786 452.956 453.19 452.668C450.926 451.575 448.628 450.685 446.288 449.773C443.44 448.663 440.734 447.809 437.891 447.113C433.967 446.15 430.027 443.678 426.198 442.281C424.576 441.689 422.491 441.083 421.685 439.394C420.853 437.651 421.49 435.1 421.541 433.258C421.686 428.074 421.624 422.883 421.592 417.698C421.566 413.337 421.461 409.059 421.073 404.715C420.609 399.517 421.024 394.338 420.825 389.132C420.643 384.351 421.071 379.582 420.941 374.803C420.795 369.48 420.529 364.175 420.474 358.845C420.376 349.271 420.054 339.709 419.869 330.137C419.678 320.305 418.636 310.469 416.535 300.855C415.594 296.548 414.364 292.162 412.726 288.07C412.207 286.774 411.663 286.701 412.911 285.96C413.65 285.521 414.564 286.011 415.289 286.109C416.815 286.313 418.178 286.403 419.731 286.311C428.633 285.79 437.851 286.212 446.722 287.012C451.335 287.428 455.973 287.825 460.605 287.99C465.225 288.155 469.845 288.871 474.465 288.532C482.206 287.965 491.035 288.851 497.669 283.865C504.749 278.545 504.082 269.12 499.511 262.31C494.466 254.794 486.039 250.512 479.003 245.246C472.09 240.072 463.964 236.277 456.425 232.11C440.285 223.188 422.942 214.931 405.564 208.765C387.884 202.494 370.145 195.283 350.89 196.509C341.134 197.13 330.22 197.492 321.615 202.675C317.018 205.445 312.568 208.333 308.618 211.991C306.757 213.715 305.118 215.839 303.136 217.413C301.295 218.877 299.489 217.875 297.385 217.337C298.875 212.526 300.366 207.715 301.857 202.905C303.915 204.502 306.748 205.109 309.425 204.545C312.674 203.859 312.411 202.47 312.12 199.69C311.984 198.4 311.633 198.62 312.752 197.806C313.669 197.138 315.346 196.919 316.403 196.34C319.038 194.896 321.323 192.776 322.294 189.866C323.26 186.971 322.576 184.286 321.943 181.414C321.184 177.959 323.062 179.403 325.21 177.797C326.155 177.09 326.493 176.476 326.331 175.309C326.198 174.361 324.325 172.997 324.409 172.064C324.51 170.94 325.136 171.065 326.025 170.387C327.007 169.639 327.713 168.722 328.146 167.544C329.062 165.05 327.194 163.51 326.411 161.21C326.032 160.095 325.658 159.142 324.913 158.204C323.592 156.542 323.08 156.578 321.237 156.593C319.686 156.605 319.703 156.478 318.54 155.075C318.09 154.531 317.64 153.99 317.25 153.399C316.581 152.385 316.395 152.522 317.111 151.73C319.293 149.315 320.288 153.085 322.225 152.858C324.467 152.594 324.869 149.04 326.274 147.853C327.257 147.022 328.379 147.339 329.455 146.777C330.77 146.091 331.034 144.784 331.887 143.688C333.273 141.909 335.284 141.595 336.208 139.339C336.733 138.058 336.805 136.739 336.911 135.382C337.064 133.449 337.569 131.92 338.132 130.08C338.705 128.203 338.564 126.847 337.632 125.12C336.671 123.34 336.558 122.741 336.8 120.734C336.984 119.206 337.04 117.849 336.243 116.486C335.383 115.017 335.204 114.25 334.924 112.576C334.68 111.108 334.213 110.052 332.795 109.443C331.828 109.027 330.781 109.49 330.098 108.544C329.417 107.601 329.598 106.089 328.898 105.046C327.756 103.345 326.039 103.079 324.169 102.696Z" fill="black"/>
<path fill-rule="evenodd" clip-rule="evenodd" d="M267.638 178.28C268.302 176.721 270.523 169.529 266.87 169.492C263.972 169.463 264.888 175.704 264.852 177.236C264.786 180.104 261.786 180.511 260.664 183.112C259.354 186.146 260.257 189.767 262.298 192.239C263.856 194.126 266.855 196.288 268.995 193.978C271.375 191.408 269.088 189.965 267.422 188.365C265.008 186.045 269.626 185.371 270.825 183.49C272.863 180.292 270.626 178.628 267.638 178.28Z" fill="black"/>
<path fill-rule="evenodd" clip-rule="evenodd" d="M278.103 179.903C278.436 181.383 278.335 184.764 279.943 185.562C282.641 186.901 283.264 180.446 283.243 179.021C283.22 177.505 282.696 173.924 280.461 174.388C277.953 174.908 279.376 179.552 278.103 179.903Z" fill="black"/>
<path fill-rule="evenodd" clip-rule="evenodd" d="M268.012 198.651C264.023 198.775 264.247 203.531 268.072 203.697C271.632 203.852 271.544 198.541 268.012 198.651Z" fill="black"/>
<path fill-rule="evenodd" clip-rule="evenodd" d="M259.529 269.55C259.902 271.135 260.771 272.629 262.073 273.628C261.766 273.001 260.433 269.268 259.529 269.55Z" fill="black"/>
</svg>
