<svg width="48" height="58" viewBox="0 0 48 58" fill="none" xmlns="http://www.w3.org/2000/svg">
<mask id="mask0" mask-type="alpha" maskUnits="userSpaceOnUse" x="0" y="0" width="48" height="58">
<rect width="47.4545" height="58" fill="#C4C4C4"/>
</mask>
<g mask="url(#mask0)">
<path d="M46.3982 13.1032C47.8022 11.6993 47.8125 9.40705 46.2754 8.15028C43.5602 5.93018 40.5295 4.11522 37.2772 2.76808C32.9155 0.961398 28.2406 0.0315137 23.5195 0.0315138C18.7985 0.0315139 14.1236 0.961399 9.7619 2.76808C6.50961 4.11522 3.47891 5.93018 0.763611 8.15028C-0.773488 9.40706 -0.763122 11.6993 0.640828 13.1032V13.1032C2.04478 14.5072 4.30903 14.4865 5.87706 13.2685C7.90263 11.6952 10.1339 10.3965 12.5134 9.41085C16.0028 7.9655 19.7427 7.2216 23.5195 7.2216C27.2964 7.2216 31.0363 7.9655 34.5256 9.41085C36.9052 10.3965 39.1364 11.6952 41.162 13.2685C42.73 14.4865 44.9943 14.5072 46.3982 13.1032V13.1032Z" fill="black" fill-opacity="0.87"/>
<path d="M46.3982 13.1032C47.8022 11.6993 47.8125 9.40705 46.2754 8.15028C43.5602 5.93018 40.5295 4.11522 37.2772 2.76808C32.9155 0.961398 28.2406 0.0315137 23.5195 0.0315138C18.7985 0.0315139 14.1236 0.961399 9.7619 2.76808C6.50961 4.11522 3.47891 5.93018 0.763611 8.15028C-0.773488 9.40706 -0.763122 11.6993 0.640828 13.1032V13.1032C2.04478 14.5072 4.30903 14.4865 5.87706 13.2685C7.90263 11.6952 10.1339 10.3965 12.5134 9.41085C16.0028 7.9655 19.7427 7.2216 23.5195 7.2216C27.2964 7.2216 31.0363 7.9655 34.5256 9.41085C36.9052 10.3965 39.1364 11.6952 41.162 13.2685C42.73 14.4865 44.9943 14.5072 46.3982 13.1032V13.1032Z" fill="#2D4F9F" fill-opacity="0.2"/>
<circle cx="23.3167" cy="35.7799" r="21.8792" fill="black" fill-opacity="0.87"/>
<circle cx="23.3167" cy="35.7799" r="21.8792" fill="#2D4F9F" fill-opacity="0.2"/>
<circle cx="23.5827" cy="36.0453" r="11.1198" fill="#3D7ED1"/>
<circle cx="23.425" cy="35.8877" r="5.2102" fill="white" fill-opacity="0.87"/>
</g>
</svg>
